%TF.GenerationSoftware,KiCad,Pcbnew,9.0.0*%
%TF.CreationDate,2025-09-05T21:38:02-05:00*%
%TF.ProjectId,RIOT_Receiver_ESP,52494f54-5f52-4656-9365-697665725f45,rev?*%
%TF.SameCoordinates,Original*%
%TF.FileFunction,Paste,Top*%
%TF.FilePolarity,Positive*%
%FSLAX46Y46*%
G04 Gerber Fmt 4.6, Leading zero omitted, Abs format (unit mm)*
G04 Created by KiCad (PCBNEW 9.0.0) date 2025-09-05 21:38:02*
%MOMM*%
%LPD*%
G01*
G04 APERTURE LIST*
G04 Aperture macros list*
%AMRoundRect*
0 Rectangle with rounded corners*
0 $1 Rounding radius*
0 $2 $3 $4 $5 $6 $7 $8 $9 X,Y pos of 4 corners*
0 Add a 4 corners polygon primitive as box body*
4,1,4,$2,$3,$4,$5,$6,$7,$8,$9,$2,$3,0*
0 Add four circle primitives for the rounded corners*
1,1,$1+$1,$2,$3*
1,1,$1+$1,$4,$5*
1,1,$1+$1,$6,$7*
1,1,$1+$1,$8,$9*
0 Add four rect primitives between the rounded corners*
20,1,$1+$1,$2,$3,$4,$5,0*
20,1,$1+$1,$4,$5,$6,$7,0*
20,1,$1+$1,$6,$7,$8,$9,0*
20,1,$1+$1,$8,$9,$2,$3,0*%
G04 Aperture macros list end*
%ADD10RoundRect,0.160000X0.160000X-0.197500X0.160000X0.197500X-0.160000X0.197500X-0.160000X-0.197500X0*%
%ADD11RoundRect,0.250001X-0.462499X-0.624999X0.462499X-0.624999X0.462499X0.624999X-0.462499X0.624999X0*%
%ADD12RoundRect,0.155000X0.155000X-0.212500X0.155000X0.212500X-0.155000X0.212500X-0.155000X-0.212500X0*%
%ADD13RoundRect,0.237500X0.287500X0.237500X-0.287500X0.237500X-0.287500X-0.237500X0.287500X-0.237500X0*%
%ADD14RoundRect,0.155000X0.212500X0.155000X-0.212500X0.155000X-0.212500X-0.155000X0.212500X-0.155000X0*%
%ADD15RoundRect,0.250000X-0.362500X-0.700000X0.362500X-0.700000X0.362500X0.700000X-0.362500X0.700000X0*%
%ADD16RoundRect,0.250000X-0.550000X1.412500X-0.550000X-1.412500X0.550000X-1.412500X0.550000X1.412500X0*%
%ADD17RoundRect,0.155000X-0.040659X-0.259862X0.259862X0.040659X0.040659X0.259862X-0.259862X-0.040659X0*%
%ADD18RoundRect,0.155000X-0.261530X-0.027984X0.106530X-0.240484X0.261530X0.027984X-0.106530X0.240484X0*%
%ADD19RoundRect,0.250000X-0.412500X-0.650000X0.412500X-0.650000X0.412500X0.650000X-0.412500X0.650000X0*%
%ADD20RoundRect,0.160000X-0.197500X-0.160000X0.197500X-0.160000X0.197500X0.160000X-0.197500X0.160000X0*%
%ADD21RoundRect,0.155000X-0.155000X0.212500X-0.155000X-0.212500X0.155000X-0.212500X0.155000X0.212500X0*%
%ADD22R,1.100000X1.300000*%
%ADD23RoundRect,0.237500X-0.237500X0.287500X-0.237500X-0.287500X0.237500X-0.287500X0.237500X0.287500X0*%
%ADD24RoundRect,0.237500X0.061931X-0.367732X0.349431X0.130232X-0.061931X0.367732X-0.349431X-0.130232X0*%
%ADD25R,0.279400X0.711200*%
%ADD26R,1.701800X0.990600*%
%ADD27R,1.000000X1.000000*%
%ADD28R,2.200000X1.050000*%
%ADD29RoundRect,0.200000X-0.200000X0.900000X-0.200000X-0.900000X0.200000X-0.900000X0.200000X0.900000X0*%
%ADD30RoundRect,0.250000X-1.125000X1.275000X-1.125000X-1.275000X1.125000X-1.275000X1.125000X1.275000X0*%
%ADD31RoundRect,0.155000X0.259862X-0.040659X-0.040659X0.259862X-0.259862X0.040659X0.040659X-0.259862X0*%
%ADD32RoundRect,0.155000X-0.212500X-0.155000X0.212500X-0.155000X0.212500X0.155000X-0.212500X0.155000X0*%
%ADD33RoundRect,0.250000X-0.495000X0.495000X-0.495000X-0.495000X0.495000X-0.495000X0.495000X0.495000X0*%
%ADD34RoundRect,0.062500X-0.062500X0.337500X-0.062500X-0.337500X0.062500X-0.337500X0.062500X0.337500X0*%
%ADD35RoundRect,0.062500X-0.337500X0.062500X-0.337500X-0.062500X0.337500X-0.062500X0.337500X0.062500X0*%
%ADD36RoundRect,0.237500X-0.300000X-0.237500X0.300000X-0.237500X0.300000X0.237500X-0.300000X0.237500X0*%
%ADD37RoundRect,0.160000X0.197500X0.160000X-0.197500X0.160000X-0.197500X-0.160000X0.197500X-0.160000X0*%
G04 APERTURE END LIST*
D10*
%TO.C,R1*%
X157300000Y-79997500D03*
X157300000Y-78802500D03*
%TD*%
%TO.C,R11*%
X162400000Y-85397500D03*
X162400000Y-84202500D03*
%TD*%
D11*
%TO.C,D1*%
X152712500Y-79050000D03*
X155687500Y-79050000D03*
%TD*%
D12*
%TO.C,C21*%
X167750000Y-106567500D03*
X167750000Y-105432500D03*
%TD*%
D13*
%TO.C,L2*%
X171225000Y-88850000D03*
X169475000Y-88850000D03*
%TD*%
D14*
%TO.C,C14*%
X160417500Y-91100000D03*
X159282500Y-91100000D03*
%TD*%
D12*
%TO.C,C8*%
X160900000Y-82667500D03*
X160900000Y-81532500D03*
%TD*%
D15*
%TO.C,R4*%
X174755000Y-113190000D03*
X178080000Y-113190000D03*
%TD*%
D16*
%TO.C,REF\u002A\u002A*%
X162300000Y-111462500D03*
X162300000Y-116537500D03*
%TD*%
D17*
%TO.C,C9*%
X174173717Y-87226283D03*
X174976283Y-86423717D03*
%TD*%
D18*
%TO.C,C4*%
X167558531Y-85616250D03*
X168541469Y-86183750D03*
%TD*%
D19*
%TO.C,REF\u002A\u002A*%
X162687500Y-102200000D03*
X165812500Y-102200000D03*
%TD*%
D20*
%TO.C,R15*%
X161902500Y-99750000D03*
X163097500Y-99750000D03*
%TD*%
D21*
%TO.C,C22*%
X172250000Y-107750000D03*
X172250000Y-108885000D03*
%TD*%
D14*
%TO.C,C2*%
X157767500Y-104800000D03*
X156632500Y-104800000D03*
%TD*%
%TO.C,C12*%
X176467500Y-92500000D03*
X175332500Y-92500000D03*
%TD*%
D20*
%TO.C,R14*%
X162305000Y-95600000D03*
X163500000Y-95600000D03*
%TD*%
D22*
%TO.C,X1*%
X173400000Y-88950000D03*
X173400000Y-91050000D03*
X175050000Y-91050000D03*
X175050000Y-88950000D03*
%TD*%
D21*
%TO.C,C19*%
X165000000Y-98500000D03*
X165000000Y-99635000D03*
%TD*%
D20*
%TO.C,R12*%
X162402500Y-96950000D03*
X163597500Y-96950000D03*
%TD*%
D21*
%TO.C,C6*%
X165400000Y-83732500D03*
X165400000Y-84867500D03*
%TD*%
D12*
%TO.C,C18*%
X160900000Y-85267500D03*
X160900000Y-84132500D03*
%TD*%
D23*
%TO.C,L3*%
X164000000Y-82825000D03*
X164000000Y-84575000D03*
%TD*%
D10*
%TO.C,R2*%
X157300000Y-82397500D03*
X157300000Y-81202500D03*
%TD*%
D14*
%TO.C,C11*%
X172417500Y-85450000D03*
X171282500Y-85450000D03*
%TD*%
D10*
%TO.C,R3*%
X157300000Y-84697500D03*
X157300000Y-83502500D03*
%TD*%
D24*
%TO.C,L1*%
X169562500Y-85157772D03*
X170437500Y-83642228D03*
%TD*%
D14*
%TO.C,C17*%
X160417500Y-90100000D03*
X159282500Y-90100000D03*
%TD*%
D18*
%TO.C,C5*%
X170058531Y-81666251D03*
X171041469Y-82233749D03*
%TD*%
D12*
%TO.C,C7*%
X162400000Y-82767500D03*
X162400000Y-81632500D03*
%TD*%
D25*
%TO.C,U2*%
X175000378Y-107900000D03*
X174500252Y-107900000D03*
X174000126Y-107900000D03*
X173500000Y-107900000D03*
X173500000Y-109906600D03*
X174000126Y-109906600D03*
X174500252Y-109906600D03*
X175000378Y-109906600D03*
D26*
X174250189Y-108903300D03*
%TD*%
D11*
%TO.C,D2*%
X152712500Y-81400000D03*
X155687500Y-81400000D03*
%TD*%
D27*
%TO.C,REF\u002A\u002A*%
X172750000Y-81000000D03*
D28*
X174250000Y-79524999D03*
D27*
X175750000Y-81000000D03*
D28*
X174250000Y-82475001D03*
%TD*%
D15*
%TO.C,R5*%
X168537500Y-113100000D03*
X171862500Y-113100000D03*
%TD*%
D25*
%TO.C,U4*%
X169300000Y-107900000D03*
X168799874Y-107900000D03*
X168299748Y-107900000D03*
X167799622Y-107900000D03*
X167799622Y-109906600D03*
X168299748Y-109906600D03*
X168799874Y-109906600D03*
X169300000Y-109906600D03*
D26*
X168549811Y-108903300D03*
%TD*%
D29*
%TO.C,U3*%
X157440000Y-107500000D03*
X156300000Y-107500000D03*
X155160000Y-107500000D03*
D30*
X156685000Y-112125000D03*
X153635000Y-112125000D03*
X156685000Y-115475000D03*
X153635000Y-115475000D03*
D29*
X154020000Y-107500000D03*
X152880000Y-107500000D03*
%TD*%
D31*
%TO.C,C20*%
X165901283Y-95401283D03*
X165098717Y-94598717D03*
%TD*%
D32*
%TO.C,C13*%
X159282500Y-89100000D03*
X160417500Y-89100000D03*
%TD*%
D11*
%TO.C,D3*%
X152712500Y-83800000D03*
X155687500Y-83800000D03*
%TD*%
D33*
%TO.C,U1*%
X166175000Y-89025000D03*
X164325000Y-89025000D03*
X166175000Y-90875000D03*
X164325000Y-90875000D03*
D34*
X167000000Y-87500000D03*
X166500000Y-87500000D03*
X166000000Y-87500000D03*
X165500000Y-87500000D03*
X165000000Y-87500000D03*
X164500000Y-87500000D03*
X164000000Y-87500000D03*
X163500000Y-87500000D03*
D35*
X162800000Y-88200000D03*
X162800000Y-88700000D03*
X162800000Y-89200000D03*
X162800000Y-89700000D03*
X162800000Y-90200000D03*
X162800000Y-90700000D03*
X162800000Y-91200000D03*
X162800000Y-91700000D03*
D34*
X163500000Y-92400000D03*
X164000000Y-92400000D03*
X164500000Y-92400000D03*
X165000000Y-92400000D03*
X165500000Y-92400000D03*
X166000000Y-92400000D03*
X166500000Y-92400000D03*
X167000000Y-92400000D03*
D35*
X167700000Y-91700000D03*
X167700000Y-91200000D03*
X167700000Y-90700000D03*
X167700000Y-90200000D03*
X167700000Y-89700000D03*
X167700000Y-89200000D03*
X167700000Y-88700000D03*
X167700000Y-88200000D03*
%TD*%
D36*
%TO.C,C3*%
X153137500Y-104600000D03*
X154862500Y-104600000D03*
%TD*%
D37*
%TO.C,R13*%
X163597500Y-98200000D03*
X162402500Y-98200000D03*
%TD*%
D14*
%TO.C,C10*%
X172417500Y-86450000D03*
X171282500Y-86450000D03*
%TD*%
M02*
