%TF.GenerationSoftware,KiCad,Pcbnew,9.0.0*%
%TF.CreationDate,2025-09-05T21:38:02-05:00*%
%TF.ProjectId,RIOT_Receiver_ESP,52494f54-5f52-4656-9365-697665725f45,rev?*%
%TF.SameCoordinates,Original*%
%TF.FileFunction,Copper,L2,Bot*%
%TF.FilePolarity,Positive*%
%FSLAX46Y46*%
G04 Gerber Fmt 4.6, Leading zero omitted, Abs format (unit mm)*
G04 Created by KiCad (PCBNEW 9.0.0) date 2025-09-05 21:38:02*
%MOMM*%
%LPD*%
G01*
G04 APERTURE LIST*
%TA.AperFunction,ComponentPad*%
%ADD10R,1.700000X1.700000*%
%TD*%
%TA.AperFunction,ComponentPad*%
%ADD11O,1.700000X1.700000*%
%TD*%
%TA.AperFunction,ComponentPad*%
%ADD12C,0.700000*%
%TD*%
%TA.AperFunction,ComponentPad*%
%ADD13O,2.400000X0.900000*%
%TD*%
%TA.AperFunction,ComponentPad*%
%ADD14O,1.700000X0.900000*%
%TD*%
%TA.AperFunction,ViaPad*%
%ADD15C,0.600000*%
%TD*%
%TA.AperFunction,ViaPad*%
%ADD16C,1.000000*%
%TD*%
%TA.AperFunction,ViaPad*%
%ADD17C,0.400000*%
%TD*%
%TA.AperFunction,ViaPad*%
%ADD18C,2.000000*%
%TD*%
%TA.AperFunction,Conductor*%
%ADD19C,2.000000*%
%TD*%
%TA.AperFunction,Conductor*%
%ADD20C,0.230000*%
%TD*%
%TA.AperFunction,Conductor*%
%ADD21C,0.500000*%
%TD*%
%TA.AperFunction,Conductor*%
%ADD22C,0.900000*%
%TD*%
%TA.AperFunction,Conductor*%
%ADD23C,1.000000*%
%TD*%
%TA.AperFunction,Conductor*%
%ADD24C,0.300000*%
%TD*%
G04 APERTURE END LIST*
D10*
%TO.P,J7,1,Pin_1*%
%TO.N,VUSB*%
X163750000Y-105225000D03*
D11*
%TO.P,J7,2,Pin_2*%
%TO.N,GNDREF*%
X163750000Y-107765000D03*
%TD*%
D10*
%TO.P,J8,1,Pin_1*%
%TO.N,PWM3*%
X152560000Y-90400000D03*
D11*
%TO.P,J8,2,Pin_2*%
%TO.N,+3.3V*%
X155100000Y-90400000D03*
%TO.P,J8,3,Pin_3*%
%TO.N,GNDREF*%
X157640000Y-90400000D03*
%TD*%
D10*
%TO.P,J9,1,Pin_1*%
%TO.N,VUSB*%
X160500000Y-105200000D03*
D11*
%TO.P,J9,2,Pin_2*%
%TO.N,GNDREF*%
X160500000Y-107740000D03*
%TD*%
D12*
%TO.P,J5,A1,GND*%
%TO.N,GNDREF*%
X160275000Y-94775000D03*
%TO.P,J5,A4,VBUS*%
%TO.N,VUSB*%
X160275000Y-95625000D03*
%TO.P,J5,A5,CC1*%
%TO.N,Net-(J5-CC1)*%
X160275000Y-96475000D03*
%TO.P,J5,A6,D+*%
%TO.N,Net-(J5-D+-PadA6)*%
X160275000Y-97325000D03*
%TO.P,J5,A7,D-*%
%TO.N,Net-(J5-D--PadA7)*%
X160275000Y-98175000D03*
%TO.P,J5,A8,SBU1*%
%TO.N,unconnected-(J5-SBU1-PadA8)*%
X160275000Y-99025000D03*
%TO.P,J5,A9,VBUS*%
%TO.N,VUSB*%
X160275000Y-99875000D03*
%TO.P,J5,A12,GND*%
%TO.N,GNDREF*%
X160275000Y-100725000D03*
%TO.P,J5,B1,GND*%
X158925000Y-100725000D03*
%TO.P,J5,B4,VBUS*%
%TO.N,VUSB*%
X158925000Y-99875000D03*
%TO.P,J5,B5,CC2*%
%TO.N,Net-(J5-CC2)*%
X158925000Y-99025000D03*
%TO.P,J5,B6,D+*%
%TO.N,Net-(J5-D+-PadA6)*%
X158925000Y-98175000D03*
%TO.P,J5,B7,D-*%
%TO.N,Net-(J5-D--PadA7)*%
X158925000Y-97325000D03*
%TO.P,J5,B8,SBU2*%
%TO.N,unconnected-(J5-SBU2-PadB8)*%
X158925000Y-96475000D03*
%TO.P,J5,B9,VBUS*%
%TO.N,VUSB*%
X158925000Y-95625000D03*
%TO.P,J5,B12,GND*%
%TO.N,GNDREF*%
X158925000Y-94775000D03*
D13*
%TO.P,J5,S1,SHIELD*%
X159295000Y-93425000D03*
D14*
X155915000Y-93425000D03*
D13*
X159295000Y-102075000D03*
D14*
X155915000Y-102075000D03*
%TD*%
D10*
%TO.P,J1,1,Pin_1*%
%TO.N,Net-(J1-Pin_1)*%
X177000000Y-116500000D03*
D11*
%TO.P,J1,2,Pin_2*%
%TO.N,Net-(J1-Pin_2)*%
X174460000Y-116500000D03*
%TD*%
D10*
%TO.P,J6,1,Pin_1*%
%TO.N,PWM1*%
X177000000Y-96000000D03*
D11*
%TO.P,J6,2,Pin_2*%
%TO.N,PWM2*%
X177000000Y-98540000D03*
%TD*%
D10*
%TO.P,J10,1,Pin_1*%
%TO.N,PWM4*%
X152575000Y-87000000D03*
D11*
%TO.P,J10,2,Pin_2*%
%TO.N,+3.3V*%
X155115000Y-87000000D03*
%TO.P,J10,3,Pin_3*%
%TO.N,GNDREF*%
X157655000Y-87000000D03*
%TD*%
D10*
%TO.P,J4,1,Pin_1*%
%TO.N,PWM5*%
X177000000Y-102725000D03*
D11*
%TO.P,J4,2,Pin_2*%
%TO.N,PWM6*%
X177000000Y-105265000D03*
%TD*%
D10*
%TO.P,J2,1,Pin_1*%
%TO.N,Net-(J2-Pin_1)*%
X170275000Y-116500000D03*
D11*
%TO.P,J2,2,Pin_2*%
%TO.N,Net-(J2-Pin_2)*%
X167735000Y-116500000D03*
%TD*%
D15*
%TO.N,GNDREF*%
X160400000Y-112000000D03*
X174000000Y-94500000D03*
X160200000Y-116600000D03*
X154600000Y-113000000D03*
X169000000Y-81850000D03*
X171100000Y-97900000D03*
X174600000Y-103600000D03*
D16*
X172100000Y-115000000D03*
D15*
X172000000Y-94000000D03*
X171350000Y-86450000D03*
X162000000Y-114200000D03*
X166500000Y-103750000D03*
X176880000Y-88770000D03*
X177300000Y-108200000D03*
X160800000Y-114600000D03*
X171250000Y-85350000D03*
X160400000Y-113800000D03*
X155400000Y-115400000D03*
X175100145Y-84579897D03*
X152250000Y-105500000D03*
X153800000Y-112200000D03*
X178000000Y-85150000D03*
X177350000Y-84450000D03*
X173400000Y-91050000D03*
X160500000Y-93450000D03*
X163600000Y-100600000D03*
X177500000Y-93500000D03*
X153800000Y-114000000D03*
X166500000Y-89500000D03*
X155200000Y-112000000D03*
X177305682Y-85795193D03*
X155600000Y-105600000D03*
X167800000Y-79800000D03*
X165000000Y-117400000D03*
X152500000Y-103250000D03*
X163600000Y-117100000D03*
X172400000Y-108800000D03*
X154200000Y-115800000D03*
X177200000Y-109000000D03*
X161850000Y-116200000D03*
X157400000Y-115200000D03*
X160800000Y-115400000D03*
X171800000Y-99200000D03*
X162550000Y-117500000D03*
X173200000Y-84500000D03*
X164750000Y-103000000D03*
X163800000Y-114400000D03*
X157000000Y-113800000D03*
X171000000Y-100700000D03*
X174350000Y-83900000D03*
X171400000Y-103200000D03*
X173000000Y-101000000D03*
X170900000Y-108800000D03*
X176300000Y-108200000D03*
X157800000Y-113400000D03*
X155000000Y-113600000D03*
D16*
X171900000Y-113000000D03*
X178200000Y-113100000D03*
D15*
X170200000Y-108400000D03*
X170700000Y-78900000D03*
X174500000Y-100200000D03*
X156200000Y-114600000D03*
X173200000Y-99800000D03*
X162750000Y-116500000D03*
X176300000Y-109000000D03*
X178090000Y-107490000D03*
X176960000Y-89910000D03*
X178000000Y-92500000D03*
X155600000Y-104800000D03*
X177400000Y-87150000D03*
X169800000Y-87000000D03*
X156632500Y-104800000D03*
X164800000Y-115200000D03*
X164450000Y-116300000D03*
X171400000Y-84550000D03*
X178000000Y-90000000D03*
X164200000Y-113400000D03*
X174500000Y-101200000D03*
X176670000Y-93660000D03*
X166500000Y-90500000D03*
X170600000Y-79800000D03*
X158400000Y-114400000D03*
X165750000Y-103000000D03*
X173000000Y-104500000D03*
X172000000Y-93000000D03*
X173700000Y-104000000D03*
X154600000Y-114600000D03*
X161500000Y-94050000D03*
X178040860Y-86455353D03*
X176250000Y-84300000D03*
X168700000Y-83300000D03*
X178100000Y-109000000D03*
X173000000Y-95000000D03*
X176700000Y-91170000D03*
X172400000Y-103500000D03*
X172500000Y-83650000D03*
X170400000Y-86200000D03*
X174400000Y-85500000D03*
X156800000Y-115800000D03*
X174300000Y-104900000D03*
X157800000Y-112000000D03*
X156400000Y-112200000D03*
X154600000Y-105600000D03*
X175850000Y-85400000D03*
X170400000Y-99000000D03*
X161600000Y-117400000D03*
X178000000Y-91500000D03*
X154862500Y-104600000D03*
X164600000Y-100600000D03*
X156000000Y-113400000D03*
X176500000Y-87500000D03*
%TO.N,PWM6*%
X168888009Y-96215000D03*
D17*
X164778274Y-85902780D03*
%TO.N,PWM5*%
X165373424Y-85826624D03*
D15*
X169535000Y-95600000D03*
%TO.N,LED3*%
X159715129Y-86984871D03*
D17*
X161450000Y-89315000D03*
D15*
%TO.N,MOT2*%
X167758459Y-97453321D03*
D17*
X163432396Y-86952604D03*
D15*
%TO.N,+3.3V*%
X167650000Y-107300000D03*
X168850000Y-87750000D03*
X156750000Y-103800000D03*
X170100000Y-106900000D03*
X162400000Y-84200000D03*
X160417500Y-90100000D03*
X163000000Y-92500000D03*
X168300000Y-101900000D03*
%TO.N,MOT1*%
X168259932Y-96830000D03*
D17*
X164396049Y-86365281D03*
D15*
%TO.N,MOT4*%
X166657772Y-98984456D03*
D17*
X162000000Y-91871681D03*
%TO.N,MOT3*%
X161635820Y-91115000D03*
D15*
X166300000Y-99700000D03*
D18*
%TO.N,VUSB*%
X172600000Y-110600000D03*
X166477468Y-110107056D03*
D15*
%TO.N,Net-(J5-CC2)*%
X161902500Y-99750000D03*
%TO.N,Net-(J5-D+-PadA6)*%
X162375000Y-98125000D03*
%TD*%
D19*
%TO.N,GNDREF*%
X162200000Y-111800000D02*
X161800000Y-112200000D01*
X162200000Y-108600000D02*
X162200000Y-111800000D01*
X163600000Y-111600000D02*
X163000000Y-112200000D01*
X162200000Y-108600000D02*
X163600000Y-108600000D01*
X160600000Y-112200000D02*
X160400000Y-112000000D01*
X163000000Y-112200000D02*
X160600000Y-112200000D01*
X160400000Y-108600000D02*
X162200000Y-108600000D01*
X163600000Y-108600000D02*
X163600000Y-111600000D01*
X160400000Y-108600000D02*
X160400000Y-112000000D01*
D20*
%TO.N,PWM6*%
X164858424Y-86039944D02*
X164858424Y-85982930D01*
X167715000Y-96215000D02*
X165630000Y-94130000D01*
X164943424Y-91743424D02*
X164943424Y-86124944D01*
X165630000Y-92430000D02*
X164943424Y-91743424D01*
X164943424Y-86124944D02*
X164858424Y-86039944D01*
X164858424Y-85982930D02*
X164778274Y-85902780D01*
X165630000Y-94130000D02*
X165630000Y-92430000D01*
X168888009Y-96215000D02*
X167715000Y-96215000D01*
%TO.N,PWM5*%
X166060000Y-92160000D02*
X165373424Y-91473424D01*
X166060000Y-93760000D02*
X166060000Y-92160000D01*
X167900000Y-95600000D02*
X166060000Y-93760000D01*
X165373424Y-91473424D02*
X165373424Y-85826624D01*
X169535000Y-95600000D02*
X167900000Y-95600000D01*
%TO.N,LED3*%
X161450000Y-88650000D02*
X159784871Y-86984871D01*
X159784871Y-86984871D02*
X159715129Y-86984871D01*
X161450000Y-89315000D02*
X161450000Y-88650000D01*
%TO.N,MOT2*%
X167053321Y-97453321D02*
X167758459Y-97453321D01*
X164673194Y-92865082D02*
X164673194Y-95073194D01*
X164000000Y-92191888D02*
X164673194Y-92865082D01*
X163432396Y-87232396D02*
X164000000Y-87800000D01*
X164000000Y-87800000D02*
X164000000Y-92191888D01*
X164673194Y-95073194D02*
X167053321Y-97453321D01*
X163432396Y-86952604D02*
X163432396Y-87232396D01*
D21*
%TO.N,+3.3V*%
X162600000Y-85252500D02*
X162600000Y-84400000D01*
X162600000Y-87630000D02*
X162985000Y-88015000D01*
D20*
X163000000Y-92500000D02*
X163700000Y-92500000D01*
X168600000Y-107200000D02*
X168500000Y-107300000D01*
D21*
X166169321Y-98069321D02*
X164000000Y-95900000D01*
X162600000Y-85252500D02*
X162600000Y-87630000D01*
D20*
X168500000Y-107300000D02*
X167650000Y-107300000D01*
X169800000Y-107200000D02*
X168600000Y-107200000D01*
D22*
X160965000Y-90265000D02*
X160800000Y-90100000D01*
D21*
X162985000Y-88015000D02*
X162985000Y-90000000D01*
D22*
X160800000Y-90100000D02*
X160417500Y-90100000D01*
D21*
X164000000Y-93300000D02*
X163700000Y-93000000D01*
X162600000Y-84400000D02*
X162400000Y-84200000D01*
X168300000Y-87750000D02*
X165861624Y-85311624D01*
D22*
X160965000Y-90265000D02*
X162720000Y-90265000D01*
D23*
X155115000Y-87000000D02*
X155115000Y-90385000D01*
D20*
X168850000Y-87750000D02*
X168300000Y-87750000D01*
D21*
X168200000Y-101800000D02*
X168200000Y-98669321D01*
D23*
X155115000Y-90385000D02*
X155100000Y-90400000D01*
D20*
X170100000Y-106900000D02*
X169800000Y-107200000D01*
D21*
X163700000Y-93000000D02*
X163700000Y-92500000D01*
X163100000Y-101900000D02*
X168300000Y-101900000D01*
X163188376Y-85311624D02*
X162600000Y-85900000D01*
X162985000Y-91785000D02*
X163700000Y-92500000D01*
X167600000Y-98069321D02*
X166169321Y-98069321D01*
X168200000Y-98669321D02*
X167600000Y-98069321D01*
D20*
X168300000Y-101900000D02*
X168200000Y-101800000D01*
D21*
X156750000Y-103800000D02*
X161200000Y-103800000D01*
X162720000Y-90265000D02*
X162985000Y-90000000D01*
X162985000Y-90000000D02*
X162985000Y-91785000D01*
X161200000Y-103800000D02*
X163100000Y-101900000D01*
X164000000Y-95900000D02*
X164000000Y-93300000D01*
X165861624Y-85311624D02*
X163188376Y-85311624D01*
D20*
%TO.N,MOT1*%
X167430000Y-96830000D02*
X165200000Y-94600000D01*
X164450000Y-86419232D02*
X164396049Y-86365281D01*
X165200000Y-94600000D02*
X165200000Y-92783776D01*
X165200000Y-92783776D02*
X164450000Y-92033776D01*
X164450000Y-92033776D02*
X164450000Y-86419232D01*
X168259932Y-96830000D02*
X167430000Y-96830000D01*
%TO.N,MOT4*%
X162745258Y-93115000D02*
X162865000Y-93115000D01*
X163250000Y-93500000D02*
X163250000Y-96619743D01*
X163250000Y-96619743D02*
X165314578Y-98684321D01*
X162000000Y-92369742D02*
X162745258Y-93115000D01*
X162000000Y-91871681D02*
X162000000Y-92369742D01*
X165314578Y-98684321D02*
X166357637Y-98684321D01*
X166357637Y-98684321D02*
X166657772Y-98984456D01*
X162865000Y-93115000D02*
X163250000Y-93500000D01*
%TO.N,MOT3*%
X161635820Y-91115000D02*
X161635820Y-91450860D01*
X162750000Y-96989484D02*
X165059837Y-99299321D01*
X161635820Y-91450860D02*
X161485000Y-91601680D01*
X161485000Y-91601680D02*
X161485000Y-92462854D01*
X165059837Y-99299321D02*
X165899321Y-99299321D01*
X161485000Y-92462854D02*
X162750000Y-93727854D01*
X165899321Y-99299321D02*
X166300000Y-99700000D01*
X162750000Y-93727854D02*
X162750000Y-96989484D01*
D19*
%TO.N,VUSB*%
X167154936Y-110784524D02*
X172415476Y-110784524D01*
X166477468Y-110107056D02*
X167154936Y-110784524D01*
D23*
X172415476Y-110784524D02*
X172600000Y-110600000D01*
D24*
%TO.N,Net-(J5-CC2)*%
X157750000Y-99705026D02*
X157750000Y-100250000D01*
X157744000Y-100256000D02*
X157744000Y-102744000D01*
X157750000Y-100250000D02*
X157744000Y-100256000D01*
X157744000Y-102744000D02*
X158025000Y-103025000D01*
X161902500Y-101350285D02*
X161902500Y-99750000D01*
X158925000Y-99025000D02*
X158430026Y-99025000D01*
X160227785Y-103025000D02*
X161902500Y-101350285D01*
X158025000Y-103025000D02*
X160227785Y-103025000D01*
X158430026Y-99025000D02*
X157750000Y-99705026D01*
%TO.N,Net-(J5-D+-PadA6)*%
X160275000Y-97325000D02*
X159925000Y-97325000D01*
X159925000Y-97325000D02*
X159075000Y-98175000D01*
X161575000Y-97325000D02*
X162375000Y-98125000D01*
X160275000Y-97325000D02*
X161575000Y-97325000D01*
X159075000Y-98175000D02*
X158925000Y-98175000D01*
X162375000Y-98125000D02*
X162500000Y-98250000D01*
%TD*%
%TA.AperFunction,Conductor*%
%TO.N,GNDREF*%
G36*
X161210862Y-100260199D02*
G01*
X161247582Y-100319642D01*
X161252000Y-100352448D01*
X161252000Y-101029477D01*
X161232315Y-101096516D01*
X161215681Y-101117158D01*
X159994658Y-102338181D01*
X159933335Y-102371666D01*
X159906977Y-102374500D01*
X158518500Y-102374500D01*
X158451461Y-102354815D01*
X158405706Y-102302011D01*
X158394500Y-102250500D01*
X158394500Y-100761413D01*
X158414185Y-100694374D01*
X158466989Y-100648619D01*
X158536147Y-100638675D01*
X158565950Y-100646851D01*
X158676918Y-100692816D01*
X158841228Y-100725499D01*
X158841232Y-100725500D01*
X158841233Y-100725500D01*
X159008768Y-100725500D01*
X159008769Y-100725499D01*
X159173082Y-100692816D01*
X159327863Y-100628703D01*
X159467162Y-100535626D01*
X159512318Y-100490470D01*
X159573641Y-100456984D01*
X159643332Y-100461968D01*
X159687682Y-100490470D01*
X159732834Y-100535623D01*
X159732837Y-100535626D01*
X159825494Y-100597537D01*
X159872137Y-100628703D01*
X160026918Y-100692816D01*
X160191228Y-100725499D01*
X160191232Y-100725500D01*
X160191233Y-100725500D01*
X160358768Y-100725500D01*
X160358769Y-100725499D01*
X160523082Y-100692816D01*
X160677863Y-100628703D01*
X160817162Y-100535626D01*
X160935626Y-100417162D01*
X161024898Y-100283556D01*
X161078510Y-100238752D01*
X161147835Y-100230045D01*
X161210862Y-100260199D01*
G37*
%TD.AperFunction*%
%TA.AperFunction,Conductor*%
G36*
X163292158Y-98407538D02*
G01*
X163316566Y-98426499D01*
X164660287Y-99770221D01*
X164660289Y-99770222D01*
X164667478Y-99777411D01*
X164768289Y-99844771D01*
X164833905Y-99871949D01*
X164880302Y-99891168D01*
X164892607Y-99893615D01*
X164939705Y-99902984D01*
X164939732Y-99902988D01*
X164939759Y-99902994D01*
X164999215Y-99914821D01*
X164999216Y-99914821D01*
X165439673Y-99914821D01*
X165506712Y-99934506D01*
X165552467Y-99987310D01*
X165554234Y-99991369D01*
X165590602Y-100079172D01*
X165590609Y-100079185D01*
X165678210Y-100210288D01*
X165678213Y-100210292D01*
X165789707Y-100321786D01*
X165789711Y-100321789D01*
X165920814Y-100409390D01*
X165920827Y-100409397D01*
X166035714Y-100456984D01*
X166066503Y-100469737D01*
X166221153Y-100500499D01*
X166221156Y-100500500D01*
X166221158Y-100500500D01*
X166378844Y-100500500D01*
X166378845Y-100500499D01*
X166533497Y-100469737D01*
X166679179Y-100409394D01*
X166810289Y-100321789D01*
X166921789Y-100210289D01*
X167009394Y-100079179D01*
X167069737Y-99933497D01*
X167100500Y-99778842D01*
X167100500Y-99717666D01*
X167120185Y-99650627D01*
X167140264Y-99626670D01*
X167147454Y-99620013D01*
X167168061Y-99606245D01*
X167239500Y-99534805D01*
X167241264Y-99533173D01*
X167270498Y-99518643D01*
X167299142Y-99503003D01*
X167301613Y-99503179D01*
X167303832Y-99502077D01*
X167336271Y-99505658D01*
X167368834Y-99507987D01*
X167370817Y-99509472D01*
X167373280Y-99509744D01*
X167398641Y-99530300D01*
X167424767Y-99549859D01*
X167425632Y-99552179D01*
X167427558Y-99553740D01*
X167437779Y-99584746D01*
X167449184Y-99615323D01*
X167449345Y-99619830D01*
X167449433Y-99620097D01*
X167449364Y-99620363D01*
X167449500Y-99624169D01*
X167449500Y-101025500D01*
X167429815Y-101092539D01*
X167377011Y-101138294D01*
X167325500Y-101149500D01*
X163026080Y-101149500D01*
X162881092Y-101178340D01*
X162881082Y-101178343D01*
X162744506Y-101234914D01*
X162739135Y-101237786D01*
X162738367Y-101236349D01*
X162679192Y-101254868D01*
X162611815Y-101236371D01*
X162565134Y-101184385D01*
X162553000Y-101130887D01*
X162553000Y-100254935D01*
X162572685Y-100187896D01*
X162573866Y-100186090D01*
X162611894Y-100129179D01*
X162614420Y-100123082D01*
X162632602Y-100079185D01*
X162672237Y-99983497D01*
X162703000Y-99828842D01*
X162703000Y-99671158D01*
X162703000Y-99671155D01*
X162702999Y-99671153D01*
X162674981Y-99530300D01*
X162672237Y-99516503D01*
X162644691Y-99450000D01*
X162611897Y-99370827D01*
X162611890Y-99370814D01*
X162524289Y-99239711D01*
X162524286Y-99239707D01*
X162414562Y-99129983D01*
X162410251Y-99122089D01*
X162403047Y-99116707D01*
X162393767Y-99091901D01*
X162381077Y-99068660D01*
X162381718Y-99059690D01*
X162378567Y-99051266D01*
X162384172Y-99025381D01*
X162386061Y-98998968D01*
X162391450Y-98991768D01*
X162393354Y-98982979D01*
X162412062Y-98964234D01*
X162427933Y-98943035D01*
X162437662Y-98938585D01*
X162442712Y-98933527D01*
X162472002Y-98922883D01*
X162475769Y-98921161D01*
X162476919Y-98920909D01*
X162608497Y-98894737D01*
X162621689Y-98889271D01*
X162632473Y-98886915D01*
X162633052Y-98886955D01*
X162634756Y-98886439D01*
X162663968Y-98880627D01*
X162689744Y-98875501D01*
X162808127Y-98826465D01*
X162914670Y-98755277D01*
X163005277Y-98664670D01*
X163076465Y-98558127D01*
X163114324Y-98466728D01*
X163158165Y-98412324D01*
X163224459Y-98390259D01*
X163292158Y-98407538D01*
G37*
%TD.AperFunction*%
%TA.AperFunction,Conductor*%
G36*
X178442539Y-78280185D02*
G01*
X178488294Y-78332989D01*
X178499500Y-78384500D01*
X178499500Y-94809897D01*
X178479815Y-94876936D01*
X178427011Y-94922691D01*
X178357853Y-94932635D01*
X178294297Y-94903610D01*
X178276234Y-94884208D01*
X178207547Y-94792455D01*
X178207544Y-94792452D01*
X178092335Y-94706206D01*
X178092328Y-94706202D01*
X177957482Y-94655908D01*
X177957483Y-94655908D01*
X177897883Y-94649501D01*
X177897881Y-94649500D01*
X177897873Y-94649500D01*
X177897864Y-94649500D01*
X176102129Y-94649500D01*
X176102123Y-94649501D01*
X176042516Y-94655908D01*
X175907671Y-94706202D01*
X175907664Y-94706206D01*
X175792455Y-94792452D01*
X175792452Y-94792455D01*
X175706206Y-94907664D01*
X175706202Y-94907671D01*
X175655908Y-95042517D01*
X175649501Y-95102116D01*
X175649500Y-95102135D01*
X175649500Y-96897870D01*
X175649501Y-96897876D01*
X175655908Y-96957483D01*
X175706202Y-97092328D01*
X175706206Y-97092335D01*
X175792452Y-97207544D01*
X175792455Y-97207547D01*
X175907664Y-97293793D01*
X175907671Y-97293797D01*
X176039082Y-97342810D01*
X176095016Y-97384681D01*
X176119433Y-97450145D01*
X176104582Y-97518418D01*
X176083431Y-97546673D01*
X175969889Y-97660215D01*
X175844951Y-97832179D01*
X175748444Y-98021585D01*
X175682753Y-98223760D01*
X175649500Y-98433713D01*
X175649500Y-98646286D01*
X175678037Y-98826465D01*
X175682754Y-98856243D01*
X175742658Y-99040609D01*
X175748444Y-99058414D01*
X175844951Y-99247820D01*
X175969890Y-99419786D01*
X176120213Y-99570109D01*
X176292179Y-99695048D01*
X176292181Y-99695049D01*
X176292184Y-99695051D01*
X176481588Y-99791557D01*
X176683757Y-99857246D01*
X176893713Y-99890500D01*
X176893714Y-99890500D01*
X177106286Y-99890500D01*
X177106287Y-99890500D01*
X177316243Y-99857246D01*
X177518412Y-99791557D01*
X177707816Y-99695051D01*
X177801935Y-99626670D01*
X177879786Y-99570109D01*
X177879788Y-99570106D01*
X177879792Y-99570104D01*
X178030104Y-99419792D01*
X178030106Y-99419788D01*
X178030109Y-99419786D01*
X178155048Y-99247820D01*
X178155047Y-99247820D01*
X178155051Y-99247816D01*
X178251557Y-99058412D01*
X178257569Y-99039907D01*
X178297006Y-98982232D01*
X178361365Y-98955034D01*
X178430211Y-98966949D01*
X178481687Y-99014193D01*
X178499500Y-99078226D01*
X178499500Y-101534897D01*
X178479815Y-101601936D01*
X178427011Y-101647691D01*
X178357853Y-101657635D01*
X178294297Y-101628610D01*
X178276234Y-101609208D01*
X178207547Y-101517455D01*
X178207544Y-101517452D01*
X178092335Y-101431206D01*
X178092328Y-101431202D01*
X177957482Y-101380908D01*
X177957483Y-101380908D01*
X177897883Y-101374501D01*
X177897881Y-101374500D01*
X177897873Y-101374500D01*
X177897864Y-101374500D01*
X176102129Y-101374500D01*
X176102123Y-101374501D01*
X176042516Y-101380908D01*
X175907671Y-101431202D01*
X175907664Y-101431206D01*
X175792455Y-101517452D01*
X175792452Y-101517455D01*
X175706206Y-101632664D01*
X175706202Y-101632671D01*
X175655908Y-101767517D01*
X175649501Y-101827116D01*
X175649500Y-101827132D01*
X175649500Y-103622870D01*
X175649501Y-103622876D01*
X175655908Y-103682483D01*
X175706202Y-103817328D01*
X175706206Y-103817335D01*
X175792452Y-103932544D01*
X175792455Y-103932547D01*
X175907664Y-104018793D01*
X175907671Y-104018797D01*
X176039082Y-104067810D01*
X176095016Y-104109681D01*
X176119433Y-104175145D01*
X176104582Y-104243418D01*
X176083431Y-104271673D01*
X175969889Y-104385215D01*
X175844951Y-104557179D01*
X175748444Y-104746585D01*
X175682753Y-104948760D01*
X175649500Y-105158713D01*
X175649500Y-105371287D01*
X175682754Y-105581243D01*
X175734075Y-105739193D01*
X175748444Y-105783414D01*
X175844951Y-105972820D01*
X175969890Y-106144786D01*
X176120213Y-106295109D01*
X176292179Y-106420048D01*
X176292181Y-106420049D01*
X176292184Y-106420051D01*
X176481588Y-106516557D01*
X176683757Y-106582246D01*
X176893713Y-106615500D01*
X176893714Y-106615500D01*
X177106286Y-106615500D01*
X177106287Y-106615500D01*
X177316243Y-106582246D01*
X177518412Y-106516557D01*
X177707816Y-106420051D01*
X177749581Y-106389707D01*
X177879786Y-106295109D01*
X177879788Y-106295106D01*
X177879792Y-106295104D01*
X178030104Y-106144792D01*
X178030106Y-106144788D01*
X178030109Y-106144786D01*
X178155048Y-105972820D01*
X178155047Y-105972820D01*
X178155051Y-105972816D01*
X178251557Y-105783412D01*
X178257569Y-105764907D01*
X178297006Y-105707232D01*
X178361365Y-105680034D01*
X178430211Y-105691949D01*
X178481687Y-105739193D01*
X178499500Y-105803226D01*
X178499500Y-109395535D01*
X178479815Y-109462574D01*
X178427011Y-109508329D01*
X178375364Y-109519535D01*
X173687656Y-109514403D01*
X173620638Y-109494645D01*
X173600111Y-109478084D01*
X173577512Y-109455485D01*
X173577510Y-109455483D01*
X173386433Y-109316657D01*
X173175996Y-109209433D01*
X172951368Y-109136446D01*
X172718097Y-109099500D01*
X172718092Y-109099500D01*
X172481908Y-109099500D01*
X172481903Y-109099500D01*
X172248631Y-109136446D01*
X172024003Y-109209433D01*
X171904138Y-109270509D01*
X171847843Y-109284024D01*
X167827825Y-109284024D01*
X167760786Y-109264339D01*
X167740144Y-109247705D01*
X167454979Y-108962540D01*
X167263902Y-108823713D01*
X167053464Y-108716489D01*
X166828836Y-108643502D01*
X166595565Y-108606556D01*
X166595560Y-108606556D01*
X166359376Y-108606556D01*
X166359371Y-108606556D01*
X166126099Y-108643502D01*
X165901471Y-108716489D01*
X165691033Y-108823713D01*
X165499956Y-108962540D01*
X165332952Y-109129544D01*
X165194123Y-109320624D01*
X165134716Y-109437215D01*
X165086741Y-109488010D01*
X165024096Y-109504919D01*
X152094364Y-109490766D01*
X152027346Y-109471008D01*
X151981649Y-109418154D01*
X151970500Y-109366766D01*
X151970500Y-107221153D01*
X166849500Y-107221153D01*
X166849500Y-107378846D01*
X166880261Y-107533489D01*
X166880264Y-107533501D01*
X166940602Y-107679172D01*
X166940609Y-107679185D01*
X167028210Y-107810288D01*
X167028213Y-107810292D01*
X167139707Y-107921786D01*
X167139711Y-107921789D01*
X167270814Y-108009390D01*
X167270827Y-108009397D01*
X167416498Y-108069735D01*
X167416503Y-108069737D01*
X167571153Y-108100499D01*
X167571156Y-108100500D01*
X167571158Y-108100500D01*
X167728844Y-108100500D01*
X167728845Y-108100499D01*
X167883497Y-108069737D01*
X168029179Y-108009394D01*
X168029185Y-108009390D01*
X168138426Y-107936398D01*
X168205104Y-107915520D01*
X168207317Y-107915500D01*
X168560622Y-107915500D01*
X168620078Y-107903673D01*
X168679535Y-107891847D01*
X168791549Y-107845449D01*
X168817090Y-107828382D01*
X168830604Y-107823336D01*
X168851642Y-107821822D01*
X168871770Y-107815520D01*
X168873986Y-107815500D01*
X169860622Y-107815500D01*
X169920078Y-107803673D01*
X169920079Y-107803673D01*
X169935044Y-107800696D01*
X169979535Y-107791847D01*
X170091549Y-107745449D01*
X170129825Y-107719873D01*
X170174524Y-107701359D01*
X170178842Y-107700500D01*
X170333497Y-107669737D01*
X170479179Y-107609394D01*
X170610289Y-107521789D01*
X170721789Y-107410289D01*
X170809394Y-107279179D01*
X170869737Y-107133497D01*
X170900500Y-106978842D01*
X170900500Y-106821158D01*
X170900500Y-106821155D01*
X170900499Y-106821153D01*
X170873203Y-106683929D01*
X170869737Y-106666503D01*
X170832043Y-106575500D01*
X170809397Y-106520827D01*
X170809390Y-106520814D01*
X170721789Y-106389711D01*
X170721786Y-106389707D01*
X170610292Y-106278213D01*
X170610288Y-106278210D01*
X170479185Y-106190609D01*
X170479172Y-106190602D01*
X170333501Y-106130264D01*
X170333489Y-106130261D01*
X170178845Y-106099500D01*
X170178842Y-106099500D01*
X170021158Y-106099500D01*
X170021155Y-106099500D01*
X169866510Y-106130261D01*
X169866498Y-106130264D01*
X169720827Y-106190602D01*
X169720814Y-106190609D01*
X169589711Y-106278210D01*
X169589707Y-106278213D01*
X169478213Y-106389707D01*
X169478210Y-106389711D01*
X169387221Y-106525886D01*
X169385753Y-106524905D01*
X169342653Y-106568791D01*
X169282246Y-106584500D01*
X168539374Y-106584500D01*
X168420472Y-106608151D01*
X168420464Y-106608153D01*
X168308452Y-106654550D01*
X168308450Y-106654551D01*
X168294903Y-106663603D01*
X168276858Y-106669252D01*
X168260949Y-106679477D01*
X168229984Y-106683929D01*
X168228225Y-106684480D01*
X168226014Y-106684500D01*
X168207317Y-106684500D01*
X168140278Y-106664815D01*
X168138426Y-106663602D01*
X168029185Y-106590609D01*
X168029172Y-106590602D01*
X167883501Y-106530264D01*
X167883489Y-106530261D01*
X167728845Y-106499500D01*
X167728842Y-106499500D01*
X167571158Y-106499500D01*
X167571155Y-106499500D01*
X167416510Y-106530261D01*
X167416498Y-106530264D01*
X167270827Y-106590602D01*
X167270814Y-106590609D01*
X167139711Y-106678210D01*
X167139707Y-106678213D01*
X167028213Y-106789707D01*
X167028210Y-106789711D01*
X166940609Y-106920814D01*
X166940602Y-106920827D01*
X166880264Y-107066498D01*
X166880261Y-107066510D01*
X166849500Y-107221153D01*
X151970500Y-107221153D01*
X151970500Y-103721153D01*
X155949500Y-103721153D01*
X155949500Y-103878846D01*
X155980261Y-104033489D01*
X155980264Y-104033501D01*
X156040602Y-104179172D01*
X156040609Y-104179185D01*
X156128210Y-104310288D01*
X156128213Y-104310292D01*
X156239707Y-104421786D01*
X156239711Y-104421789D01*
X156370814Y-104509390D01*
X156370827Y-104509397D01*
X156470060Y-104550500D01*
X156516503Y-104569737D01*
X156671153Y-104600499D01*
X156671156Y-104600500D01*
X156671158Y-104600500D01*
X156828844Y-104600500D01*
X156828845Y-104600499D01*
X156905152Y-104585320D01*
X156983488Y-104569739D01*
X156983489Y-104569738D01*
X156983497Y-104569737D01*
X157007155Y-104559937D01*
X157054604Y-104550500D01*
X159025500Y-104550500D01*
X159092539Y-104570185D01*
X159138294Y-104622989D01*
X159149500Y-104674500D01*
X159149500Y-106097870D01*
X159149501Y-106097876D01*
X159155908Y-106157483D01*
X159206202Y-106292328D01*
X159206206Y-106292335D01*
X159292452Y-106407544D01*
X159292455Y-106407547D01*
X159407664Y-106493793D01*
X159407671Y-106493797D01*
X159542517Y-106544091D01*
X159542516Y-106544091D01*
X159549444Y-106544835D01*
X159602127Y-106550500D01*
X161397872Y-106550499D01*
X161457483Y-106544091D01*
X161592331Y-106493796D01*
X161707546Y-106407546D01*
X161793796Y-106292331D01*
X161844091Y-106157483D01*
X161850500Y-106097873D01*
X161850499Y-104327135D01*
X162399500Y-104327135D01*
X162399500Y-106122870D01*
X162399501Y-106122876D01*
X162405908Y-106182483D01*
X162456202Y-106317328D01*
X162456206Y-106317335D01*
X162542452Y-106432544D01*
X162542455Y-106432547D01*
X162657664Y-106518793D01*
X162657671Y-106518797D01*
X162792517Y-106569091D01*
X162792516Y-106569091D01*
X162799444Y-106569835D01*
X162852127Y-106575500D01*
X164647872Y-106575499D01*
X164707483Y-106569091D01*
X164842331Y-106518796D01*
X164957546Y-106432546D01*
X165043796Y-106317331D01*
X165094091Y-106182483D01*
X165100500Y-106122873D01*
X165100499Y-104327128D01*
X165094091Y-104267517D01*
X165081924Y-104234896D01*
X165043797Y-104132671D01*
X165043793Y-104132664D01*
X164957547Y-104017455D01*
X164957544Y-104017452D01*
X164842335Y-103931206D01*
X164842328Y-103931202D01*
X164707482Y-103880908D01*
X164707483Y-103880908D01*
X164647883Y-103874501D01*
X164647881Y-103874500D01*
X164647873Y-103874500D01*
X164647864Y-103874500D01*
X162852129Y-103874500D01*
X162852123Y-103874501D01*
X162792516Y-103880908D01*
X162657671Y-103931202D01*
X162657664Y-103931206D01*
X162542455Y-104017452D01*
X162542452Y-104017455D01*
X162456206Y-104132664D01*
X162456202Y-104132671D01*
X162405908Y-104267517D01*
X162401310Y-104310288D01*
X162399501Y-104327123D01*
X162399500Y-104327135D01*
X161850499Y-104327135D01*
X161850499Y-104302128D01*
X161847636Y-104275502D01*
X161847460Y-104272306D01*
X161854732Y-104241295D01*
X161860386Y-104209954D01*
X161862899Y-104206468D01*
X161863412Y-104204282D01*
X161866938Y-104200867D01*
X161883587Y-104177779D01*
X163374549Y-102686819D01*
X163435872Y-102653334D01*
X163462230Y-102650500D01*
X167995396Y-102650500D01*
X168042844Y-102659937D01*
X168066503Y-102669737D01*
X168066508Y-102669738D01*
X168066511Y-102669739D01*
X168221153Y-102700499D01*
X168221156Y-102700500D01*
X168221158Y-102700500D01*
X168378844Y-102700500D01*
X168378845Y-102700499D01*
X168533497Y-102669737D01*
X168679179Y-102609394D01*
X168810289Y-102521789D01*
X168921789Y-102410289D01*
X169009394Y-102279179D01*
X169069737Y-102133497D01*
X169100500Y-101978842D01*
X169100500Y-101821158D01*
X169100500Y-101821155D01*
X169100499Y-101821153D01*
X169069738Y-101666510D01*
X169069737Y-101666503D01*
X169061945Y-101647691D01*
X169009397Y-101520828D01*
X169009396Y-101520827D01*
X169009394Y-101520821D01*
X168971396Y-101463953D01*
X168950520Y-101397276D01*
X168950500Y-101395064D01*
X168950500Y-98595400D01*
X168921659Y-98450413D01*
X168921658Y-98450412D01*
X168921658Y-98450408D01*
X168889580Y-98372964D01*
X168865087Y-98313832D01*
X168865080Y-98313819D01*
X168782952Y-98190906D01*
X168782951Y-98190905D01*
X168678416Y-98086370D01*
X168513755Y-97921709D01*
X168480270Y-97860386D01*
X168485254Y-97790694D01*
X168486875Y-97786576D01*
X168492856Y-97772137D01*
X168528196Y-97686818D01*
X168537263Y-97641229D01*
X168569646Y-97579321D01*
X168611427Y-97550860D01*
X168639111Y-97539394D01*
X168770221Y-97451789D01*
X168881721Y-97340289D01*
X168969326Y-97209179D01*
X169029669Y-97063497D01*
X169029670Y-97063489D01*
X169031610Y-97058807D01*
X169075451Y-97004403D01*
X169115892Y-96987230D01*
X169115673Y-96986506D01*
X169121495Y-96984739D01*
X169121506Y-96984737D01*
X169267188Y-96924394D01*
X169398298Y-96836789D01*
X169509798Y-96725289D01*
X169597403Y-96594179D01*
X169657746Y-96448497D01*
X169657747Y-96448487D01*
X169657988Y-96447908D01*
X169701829Y-96393504D01*
X169748359Y-96373742D01*
X169768497Y-96369737D01*
X169914179Y-96309394D01*
X170045289Y-96221789D01*
X170156789Y-96110289D01*
X170244394Y-95979179D01*
X170304737Y-95833497D01*
X170335500Y-95678842D01*
X170335500Y-95521158D01*
X170335500Y-95521155D01*
X170335499Y-95521153D01*
X170306810Y-95376925D01*
X170304737Y-95366503D01*
X170244940Y-95222139D01*
X170244397Y-95220827D01*
X170244390Y-95220814D01*
X170156789Y-95089711D01*
X170156786Y-95089707D01*
X170045292Y-94978213D01*
X170045288Y-94978210D01*
X169914185Y-94890609D01*
X169914172Y-94890602D01*
X169768501Y-94830264D01*
X169768489Y-94830261D01*
X169613845Y-94799500D01*
X169613842Y-94799500D01*
X169456158Y-94799500D01*
X169456155Y-94799500D01*
X169301510Y-94830261D01*
X169301498Y-94830264D01*
X169155827Y-94890602D01*
X169155814Y-94890609D01*
X169046574Y-94963602D01*
X168979896Y-94984480D01*
X168977683Y-94984500D01*
X168206311Y-94984500D01*
X168139272Y-94964815D01*
X168118630Y-94948181D01*
X166711819Y-93541370D01*
X166678334Y-93480047D01*
X166675500Y-93453689D01*
X166675500Y-92099381D01*
X166673419Y-92088919D01*
X166673419Y-92088918D01*
X166656511Y-92003912D01*
X166651847Y-91980465D01*
X166605449Y-91868451D01*
X166605448Y-91868448D01*
X166588589Y-91843217D01*
X166538093Y-91767645D01*
X166538087Y-91767637D01*
X166025243Y-91254793D01*
X165991758Y-91193470D01*
X165988924Y-91167112D01*
X165988924Y-86799653D01*
X166008609Y-86732614D01*
X166061413Y-86686859D01*
X166130571Y-86676915D01*
X166194127Y-86705940D01*
X166200605Y-86711972D01*
X167821580Y-88332948D01*
X167821584Y-88332951D01*
X167944498Y-88415080D01*
X167944511Y-88415087D01*
X168051469Y-88459390D01*
X168081087Y-88471658D01*
X168081091Y-88471658D01*
X168081092Y-88471659D01*
X168226079Y-88500500D01*
X168226082Y-88500500D01*
X168373919Y-88500500D01*
X168469531Y-88481480D01*
X168539123Y-88487706D01*
X168541176Y-88488536D01*
X168616498Y-88519735D01*
X168616503Y-88519737D01*
X168771153Y-88550499D01*
X168771156Y-88550500D01*
X168771158Y-88550500D01*
X168928844Y-88550500D01*
X168928845Y-88550499D01*
X169083497Y-88519737D01*
X169229179Y-88459394D01*
X169360289Y-88371789D01*
X169471789Y-88260289D01*
X169559394Y-88129179D01*
X169619737Y-87983497D01*
X169650500Y-87828842D01*
X169650500Y-87671158D01*
X169650500Y-87671155D01*
X169650499Y-87671153D01*
X169620117Y-87518414D01*
X169619737Y-87516503D01*
X169610896Y-87495159D01*
X169559397Y-87370827D01*
X169559390Y-87370814D01*
X169471789Y-87239711D01*
X169471786Y-87239707D01*
X169360292Y-87128213D01*
X169360288Y-87128210D01*
X169229185Y-87040609D01*
X169229172Y-87040602D01*
X169083501Y-86980264D01*
X169083489Y-86980261D01*
X168928845Y-86949500D01*
X168928842Y-86949500D01*
X168771158Y-86949500D01*
X168738668Y-86955962D01*
X168660761Y-86971459D01*
X168591169Y-86965231D01*
X168548889Y-86937522D01*
X166340045Y-84728676D01*
X166340044Y-84728675D01*
X166312531Y-84710292D01*
X166251554Y-84669549D01*
X166217119Y-84646540D01*
X166217117Y-84646539D01*
X166217114Y-84646537D01*
X166080541Y-84589967D01*
X166080531Y-84589964D01*
X165935544Y-84561124D01*
X165935542Y-84561124D01*
X163474500Y-84561124D01*
X163469696Y-84559713D01*
X163464797Y-84560744D01*
X163436499Y-84549965D01*
X163407461Y-84541439D01*
X163404183Y-84537656D01*
X163399503Y-84535874D01*
X163381524Y-84511507D01*
X163361706Y-84488635D01*
X163360183Y-84482581D01*
X163358021Y-84479651D01*
X163354646Y-84460571D01*
X163350758Y-84445112D01*
X163350500Y-84441115D01*
X163350500Y-84326082D01*
X163341103Y-84278842D01*
X163321659Y-84181088D01*
X163265084Y-84044506D01*
X163265084Y-84044505D01*
X163212965Y-83966503D01*
X163200063Y-83947194D01*
X163182954Y-83921586D01*
X163146071Y-83884703D01*
X163119191Y-83844475D01*
X163109394Y-83820821D01*
X163109389Y-83820814D01*
X163021789Y-83689710D01*
X162910292Y-83578213D01*
X162910288Y-83578210D01*
X162779185Y-83490609D01*
X162779172Y-83490602D01*
X162633501Y-83430264D01*
X162633489Y-83430261D01*
X162478845Y-83399500D01*
X162478842Y-83399500D01*
X162321158Y-83399500D01*
X162321155Y-83399500D01*
X162166510Y-83430261D01*
X162166498Y-83430264D01*
X162020827Y-83490602D01*
X162020814Y-83490609D01*
X161889711Y-83578210D01*
X161889707Y-83578213D01*
X161778213Y-83689707D01*
X161778210Y-83689711D01*
X161690609Y-83820814D01*
X161690602Y-83820827D01*
X161630264Y-83966498D01*
X161630261Y-83966510D01*
X161599500Y-84121153D01*
X161599500Y-84278843D01*
X161630261Y-84433489D01*
X161630264Y-84433501D01*
X161690602Y-84579172D01*
X161690609Y-84579185D01*
X161778210Y-84710288D01*
X161778213Y-84710292D01*
X161813180Y-84745258D01*
X161846666Y-84806580D01*
X161849500Y-84832940D01*
X161849500Y-85178582D01*
X161849500Y-87703918D01*
X161849500Y-87703920D01*
X161849499Y-87703920D01*
X161878340Y-87848907D01*
X161878342Y-87848912D01*
X161893618Y-87885793D01*
X161901086Y-87955262D01*
X161869810Y-88017741D01*
X161809721Y-88053393D01*
X161739896Y-88050898D01*
X161691375Y-88020925D01*
X160527117Y-86856668D01*
X160493632Y-86795345D01*
X160493197Y-86793261D01*
X160484866Y-86751374D01*
X160454024Y-86676915D01*
X160424526Y-86605698D01*
X160424519Y-86605685D01*
X160336918Y-86474582D01*
X160336915Y-86474578D01*
X160225421Y-86363084D01*
X160225417Y-86363081D01*
X160094314Y-86275480D01*
X160094301Y-86275473D01*
X159948630Y-86215135D01*
X159948618Y-86215132D01*
X159793974Y-86184371D01*
X159793971Y-86184371D01*
X159636287Y-86184371D01*
X159636284Y-86184371D01*
X159481639Y-86215132D01*
X159481627Y-86215135D01*
X159335956Y-86275473D01*
X159335943Y-86275480D01*
X159204840Y-86363081D01*
X159204836Y-86363084D01*
X159093342Y-86474578D01*
X159093339Y-86474582D01*
X159005738Y-86605685D01*
X159005731Y-86605698D01*
X158945393Y-86751369D01*
X158945390Y-86751381D01*
X158914629Y-86906024D01*
X158914629Y-87063717D01*
X158945390Y-87218360D01*
X158945393Y-87218372D01*
X159005731Y-87364043D01*
X159005738Y-87364056D01*
X159093339Y-87495159D01*
X159093342Y-87495163D01*
X159204836Y-87606657D01*
X159204840Y-87606660D01*
X159335943Y-87694261D01*
X159335956Y-87694268D01*
X159481627Y-87754606D01*
X159481632Y-87754608D01*
X159636282Y-87785370D01*
X159636285Y-87785371D01*
X159636287Y-87785371D01*
X159663560Y-87785371D01*
X159730599Y-87805056D01*
X159751241Y-87821690D01*
X160795099Y-88865548D01*
X160804678Y-88883091D01*
X160818302Y-88897724D01*
X160821082Y-88913132D01*
X160828584Y-88926871D01*
X160827158Y-88946808D01*
X160830708Y-88966483D01*
X160823821Y-88993461D01*
X160823600Y-88996563D01*
X160821979Y-89000681D01*
X160792044Y-89072952D01*
X160748204Y-89127356D01*
X160681910Y-89149421D01*
X160677483Y-89149500D01*
X160323879Y-89149500D01*
X160140256Y-89186025D01*
X160140248Y-89186027D01*
X159967271Y-89257676D01*
X159967262Y-89257681D01*
X159811592Y-89361697D01*
X159811588Y-89361700D01*
X159679200Y-89494088D01*
X159679197Y-89494092D01*
X159575181Y-89649762D01*
X159575176Y-89649771D01*
X159503527Y-89822748D01*
X159503525Y-89822756D01*
X159467000Y-90006379D01*
X159467000Y-90193620D01*
X159503525Y-90377243D01*
X159503527Y-90377251D01*
X159575176Y-90550228D01*
X159575181Y-90550237D01*
X159679197Y-90705907D01*
X159679200Y-90705911D01*
X159811588Y-90838299D01*
X159811592Y-90838302D01*
X159967262Y-90942318D01*
X159967268Y-90942321D01*
X159967269Y-90942322D01*
X160140249Y-91013973D01*
X160323879Y-91050499D01*
X160323883Y-91050500D01*
X160323884Y-91050500D01*
X160392114Y-91050500D01*
X160459153Y-91070185D01*
X160460957Y-91071366D01*
X160514768Y-91107321D01*
X160514771Y-91107323D01*
X160515971Y-91107820D01*
X160687749Y-91178973D01*
X160763582Y-91194057D01*
X160822386Y-91205754D01*
X160884295Y-91238137D01*
X160918869Y-91298853D01*
X160915130Y-91368622D01*
X160912755Y-91374822D01*
X160893152Y-91422146D01*
X160893151Y-91422152D01*
X160881779Y-91479322D01*
X160881780Y-91479323D01*
X160869737Y-91539870D01*
X160869500Y-91541059D01*
X160869500Y-92402232D01*
X160869500Y-92523476D01*
X160880513Y-92578842D01*
X160893153Y-92642389D01*
X160925942Y-92721549D01*
X160939551Y-92754403D01*
X160990013Y-92829926D01*
X161006911Y-92855215D01*
X161006912Y-92855216D01*
X162098181Y-93946484D01*
X162131666Y-94007807D01*
X162134500Y-94034165D01*
X162134500Y-96684509D01*
X162114815Y-96751548D01*
X162062011Y-96797303D01*
X161992853Y-96807247D01*
X161941611Y-96787612D01*
X161883127Y-96748535D01*
X161764744Y-96699499D01*
X161764742Y-96699498D01*
X161756876Y-96697934D01*
X161756876Y-96697933D01*
X161639071Y-96674500D01*
X161639069Y-96674500D01*
X161249500Y-96674500D01*
X161182461Y-96654815D01*
X161136706Y-96602011D01*
X161125500Y-96550500D01*
X161125500Y-96391232D01*
X161125499Y-96391228D01*
X161109221Y-96309394D01*
X161092816Y-96226918D01*
X161039188Y-96097451D01*
X161031720Y-96027984D01*
X161039189Y-96002547D01*
X161048866Y-95979185D01*
X161092816Y-95873082D01*
X161125500Y-95708767D01*
X161125500Y-95541233D01*
X161092816Y-95376918D01*
X161028703Y-95222137D01*
X160948520Y-95102135D01*
X160935626Y-95082837D01*
X160817162Y-94964373D01*
X160677860Y-94871295D01*
X160523082Y-94807184D01*
X160523074Y-94807182D01*
X160358771Y-94774500D01*
X160358767Y-94774500D01*
X160191233Y-94774500D01*
X160191228Y-94774500D01*
X160026925Y-94807182D01*
X160026917Y-94807184D01*
X159872139Y-94871295D01*
X159732837Y-94964373D01*
X159732834Y-94964376D01*
X159687681Y-95009530D01*
X159626358Y-95043015D01*
X159556666Y-95038031D01*
X159512319Y-95009530D01*
X159467162Y-94964373D01*
X159327860Y-94871295D01*
X159173082Y-94807184D01*
X159173074Y-94807182D01*
X159008771Y-94774500D01*
X159008767Y-94774500D01*
X158841233Y-94774500D01*
X158841228Y-94774500D01*
X158676925Y-94807182D01*
X158676917Y-94807184D01*
X158522139Y-94871295D01*
X158382837Y-94964373D01*
X158264373Y-95082837D01*
X158171295Y-95222139D01*
X158107184Y-95376917D01*
X158107182Y-95376925D01*
X158074500Y-95541228D01*
X158074500Y-95708771D01*
X158107182Y-95873074D01*
X158107185Y-95873086D01*
X158160810Y-96002548D01*
X158168279Y-96072017D01*
X158160810Y-96097452D01*
X158107185Y-96226913D01*
X158107182Y-96226925D01*
X158074500Y-96391228D01*
X158074500Y-96558771D01*
X158107182Y-96723074D01*
X158107185Y-96723086D01*
X158160810Y-96852548D01*
X158168279Y-96922017D01*
X158160810Y-96947452D01*
X158107185Y-97076913D01*
X158107182Y-97076925D01*
X158074500Y-97241228D01*
X158074500Y-97408771D01*
X158107182Y-97573074D01*
X158107185Y-97573086D01*
X158160810Y-97702548D01*
X158168279Y-97772017D01*
X158160810Y-97797452D01*
X158107185Y-97926913D01*
X158107182Y-97926925D01*
X158074500Y-98091228D01*
X158074500Y-98091233D01*
X158074500Y-98258767D01*
X158085452Y-98313826D01*
X158097215Y-98372964D01*
X158090987Y-98442556D01*
X158048123Y-98497733D01*
X158044490Y-98500256D01*
X158015355Y-98519723D01*
X157244726Y-99290352D01*
X157177491Y-99390979D01*
X157177487Y-99390984D01*
X157173537Y-99396893D01*
X157173536Y-99396896D01*
X157124499Y-99515281D01*
X157124497Y-99515287D01*
X157099500Y-99640954D01*
X157099500Y-100149554D01*
X157097117Y-100173747D01*
X157093500Y-100191929D01*
X157093500Y-102808073D01*
X157107844Y-102880185D01*
X157101617Y-102949776D01*
X157058754Y-103004954D01*
X156992864Y-103028198D01*
X156962036Y-103025993D01*
X156828846Y-102999500D01*
X156828842Y-102999500D01*
X156671158Y-102999500D01*
X156671155Y-102999500D01*
X156516510Y-103030261D01*
X156516498Y-103030264D01*
X156370827Y-103090602D01*
X156370814Y-103090609D01*
X156239711Y-103178210D01*
X156239707Y-103178213D01*
X156128213Y-103289707D01*
X156128210Y-103289711D01*
X156040609Y-103420814D01*
X156040602Y-103420827D01*
X155980264Y-103566498D01*
X155980261Y-103566510D01*
X155949500Y-103721153D01*
X151970500Y-103721153D01*
X151970500Y-91874499D01*
X151990185Y-91807460D01*
X152042989Y-91761705D01*
X152094500Y-91750499D01*
X153457871Y-91750499D01*
X153457872Y-91750499D01*
X153517483Y-91744091D01*
X153652331Y-91693796D01*
X153767546Y-91607546D01*
X153853796Y-91492331D01*
X153902810Y-91360916D01*
X153944681Y-91304984D01*
X154010145Y-91280566D01*
X154078418Y-91295417D01*
X154106673Y-91316569D01*
X154220213Y-91430109D01*
X154392179Y-91555048D01*
X154392181Y-91555049D01*
X154392184Y-91555051D01*
X154581588Y-91651557D01*
X154783757Y-91717246D01*
X154993713Y-91750500D01*
X154993714Y-91750500D01*
X155206286Y-91750500D01*
X155206287Y-91750500D01*
X155416243Y-91717246D01*
X155618412Y-91651557D01*
X155807816Y-91555051D01*
X155894138Y-91492335D01*
X155979786Y-91430109D01*
X155979788Y-91430106D01*
X155979792Y-91430104D01*
X156130104Y-91279792D01*
X156130106Y-91279788D01*
X156130109Y-91279786D01*
X156255048Y-91107820D01*
X156255047Y-91107820D01*
X156255051Y-91107816D01*
X156351557Y-90918412D01*
X156417246Y-90716243D01*
X156450500Y-90506287D01*
X156450500Y-90293713D01*
X156417246Y-90083757D01*
X156351557Y-89881588D01*
X156255051Y-89692184D01*
X156139181Y-89532701D01*
X156115702Y-89466894D01*
X156115500Y-89459816D01*
X156115500Y-87960199D01*
X156135185Y-87893160D01*
X156144471Y-87880664D01*
X156270048Y-87707820D01*
X156270047Y-87707820D01*
X156270051Y-87707816D01*
X156366557Y-87518412D01*
X156432246Y-87316243D01*
X156465500Y-87106287D01*
X156465500Y-86893713D01*
X156432246Y-86683757D01*
X156366557Y-86481588D01*
X156270051Y-86292184D01*
X156270049Y-86292181D01*
X156270048Y-86292179D01*
X156145109Y-86120213D01*
X155994786Y-85969890D01*
X155822820Y-85844951D01*
X155633414Y-85748444D01*
X155633413Y-85748443D01*
X155633412Y-85748443D01*
X155431243Y-85682754D01*
X155431241Y-85682753D01*
X155431240Y-85682753D01*
X155269957Y-85657208D01*
X155221287Y-85649500D01*
X155008713Y-85649500D01*
X154960042Y-85657208D01*
X154798760Y-85682753D01*
X154596585Y-85748444D01*
X154407179Y-85844951D01*
X154235215Y-85969889D01*
X154121673Y-86083431D01*
X154060350Y-86116915D01*
X153990658Y-86111931D01*
X153934725Y-86070059D01*
X153917810Y-86039082D01*
X153868797Y-85907671D01*
X153868793Y-85907664D01*
X153782547Y-85792455D01*
X153782544Y-85792452D01*
X153667335Y-85706206D01*
X153667328Y-85706202D01*
X153532482Y-85655908D01*
X153532483Y-85655908D01*
X153472883Y-85649501D01*
X153472881Y-85649500D01*
X153472873Y-85649500D01*
X153472865Y-85649500D01*
X152094500Y-85649500D01*
X152027461Y-85629815D01*
X151981706Y-85577011D01*
X151970500Y-85525500D01*
X151970500Y-78384500D01*
X151990185Y-78317461D01*
X152042989Y-78271706D01*
X152094500Y-78260500D01*
X178375500Y-78260500D01*
X178442539Y-78280185D01*
G37*
%TD.AperFunction*%
%TD*%
%TA.AperFunction,Conductor*%
%TO.N,GNDREF*%
G36*
X165764062Y-111519685D02*
G01*
X165784704Y-111536319D01*
X166177426Y-111929041D01*
X166368502Y-112067867D01*
X166471717Y-112120457D01*
X166578942Y-112175092D01*
X166578948Y-112175094D01*
X166651927Y-112198806D01*
X166651928Y-112198806D01*
X166727748Y-112223441D01*
X166803567Y-112248077D01*
X167036839Y-112285024D01*
X167036844Y-112285024D01*
X172533573Y-112285024D01*
X172766844Y-112248077D01*
X172991468Y-112175092D01*
X173201909Y-112067867D01*
X173392986Y-111929041D01*
X173559993Y-111762034D01*
X173559997Y-111762028D01*
X173561711Y-111760022D01*
X173575498Y-111746235D01*
X173577504Y-111744521D01*
X173577510Y-111744517D01*
X173744517Y-111577510D01*
X173759447Y-111556961D01*
X173763695Y-111551115D01*
X173819025Y-111508449D01*
X173864013Y-111500000D01*
X178375500Y-111500000D01*
X178442539Y-111519685D01*
X178488294Y-111572489D01*
X178499500Y-111624000D01*
X178499500Y-115309897D01*
X178479815Y-115376936D01*
X178427011Y-115422691D01*
X178357853Y-115432635D01*
X178294297Y-115403610D01*
X178276234Y-115384208D01*
X178207547Y-115292455D01*
X178207544Y-115292452D01*
X178092335Y-115206206D01*
X178092328Y-115206202D01*
X177957482Y-115155908D01*
X177957483Y-115155908D01*
X177897883Y-115149501D01*
X177897881Y-115149500D01*
X177897873Y-115149500D01*
X177897864Y-115149500D01*
X176102129Y-115149500D01*
X176102123Y-115149501D01*
X176042516Y-115155908D01*
X175907671Y-115206202D01*
X175907664Y-115206206D01*
X175792455Y-115292452D01*
X175792452Y-115292455D01*
X175706206Y-115407664D01*
X175706203Y-115407669D01*
X175657189Y-115539083D01*
X175615317Y-115595016D01*
X175549853Y-115619433D01*
X175481580Y-115604581D01*
X175453326Y-115583430D01*
X175339786Y-115469890D01*
X175167820Y-115344951D01*
X174978414Y-115248444D01*
X174978413Y-115248443D01*
X174978412Y-115248443D01*
X174776243Y-115182754D01*
X174776241Y-115182753D01*
X174776240Y-115182753D01*
X174614957Y-115157208D01*
X174566287Y-115149500D01*
X174353713Y-115149500D01*
X174305042Y-115157208D01*
X174143760Y-115182753D01*
X173941585Y-115248444D01*
X173752179Y-115344951D01*
X173580213Y-115469890D01*
X173429890Y-115620213D01*
X173304951Y-115792179D01*
X173208444Y-115981585D01*
X173142753Y-116183760D01*
X173109500Y-116393713D01*
X173109500Y-116606286D01*
X173142753Y-116816239D01*
X173208444Y-117018414D01*
X173304951Y-117207820D01*
X173429890Y-117379786D01*
X173580213Y-117530109D01*
X173752179Y-117655048D01*
X173752181Y-117655049D01*
X173752184Y-117655051D01*
X173941588Y-117751557D01*
X173960092Y-117757569D01*
X174017768Y-117797006D01*
X174044966Y-117861365D01*
X174033051Y-117930211D01*
X173985807Y-117981687D01*
X173921774Y-117999500D01*
X171465103Y-117999500D01*
X171398064Y-117979815D01*
X171352309Y-117927011D01*
X171342365Y-117857853D01*
X171371390Y-117794297D01*
X171390792Y-117776234D01*
X171450240Y-117731730D01*
X171482546Y-117707546D01*
X171568796Y-117592331D01*
X171619091Y-117457483D01*
X171625500Y-117397873D01*
X171625499Y-115602128D01*
X171619091Y-115542517D01*
X171617810Y-115539083D01*
X171568797Y-115407671D01*
X171568793Y-115407664D01*
X171482547Y-115292455D01*
X171482544Y-115292452D01*
X171367335Y-115206206D01*
X171367328Y-115206202D01*
X171232482Y-115155908D01*
X171232483Y-115155908D01*
X171172883Y-115149501D01*
X171172881Y-115149500D01*
X171172873Y-115149500D01*
X171172864Y-115149500D01*
X169377129Y-115149500D01*
X169377123Y-115149501D01*
X169317516Y-115155908D01*
X169182671Y-115206202D01*
X169182664Y-115206206D01*
X169067455Y-115292452D01*
X169067452Y-115292455D01*
X168981206Y-115407664D01*
X168981203Y-115407669D01*
X168932189Y-115539083D01*
X168890317Y-115595016D01*
X168824853Y-115619433D01*
X168756580Y-115604581D01*
X168728326Y-115583430D01*
X168614786Y-115469890D01*
X168442820Y-115344951D01*
X168253414Y-115248444D01*
X168253413Y-115248443D01*
X168253412Y-115248443D01*
X168051243Y-115182754D01*
X168051241Y-115182753D01*
X168051240Y-115182753D01*
X167889957Y-115157208D01*
X167841287Y-115149500D01*
X167628713Y-115149500D01*
X167580042Y-115157208D01*
X167418760Y-115182753D01*
X167216585Y-115248444D01*
X167027179Y-115344951D01*
X166855213Y-115469890D01*
X166704890Y-115620213D01*
X166579951Y-115792179D01*
X166483444Y-115981585D01*
X166417753Y-116183760D01*
X166384500Y-116393713D01*
X166384500Y-116606286D01*
X166417753Y-116816239D01*
X166483444Y-117018414D01*
X166579951Y-117207820D01*
X166704890Y-117379786D01*
X166855213Y-117530109D01*
X167027179Y-117655048D01*
X167027181Y-117655049D01*
X167027184Y-117655051D01*
X167216588Y-117751557D01*
X167235092Y-117757569D01*
X167292768Y-117797006D01*
X167319966Y-117861365D01*
X167308051Y-117930211D01*
X167260807Y-117981687D01*
X167196774Y-117999500D01*
X152094500Y-117999500D01*
X152027461Y-117979815D01*
X151981706Y-117927011D01*
X151970500Y-117875500D01*
X151970500Y-111624000D01*
X151990185Y-111556961D01*
X152042989Y-111511206D01*
X152094500Y-111500000D01*
X165697023Y-111500000D01*
X165764062Y-111519685D01*
G37*
%TD.AperFunction*%
%TD*%
M02*
