%TF.GenerationSoftware,KiCad,Pcbnew,9.0.0*%
%TF.CreationDate,2025-09-05T21:38:02-05:00*%
%TF.ProjectId,RIOT_Receiver_ESP,52494f54-5f52-4656-9365-697665725f45,rev?*%
%TF.SameCoordinates,Original*%
%TF.FileFunction,Legend,Top*%
%TF.FilePolarity,Positive*%
%FSLAX46Y46*%
G04 Gerber Fmt 4.6, Leading zero omitted, Abs format (unit mm)*
G04 Created by KiCad (PCBNEW 9.0.0) date 2025-09-05 21:38:02*
%MOMM*%
%LPD*%
G01*
G04 APERTURE LIST*
%ADD10C,0.100000*%
%ADD11C,0.075000*%
%ADD12C,0.150000*%
%ADD13C,0.120000*%
%ADD14C,0.152400*%
G04 APERTURE END LIST*
D10*
X165241027Y-105272531D02*
X165574360Y-106272531D01*
X165574360Y-106272531D02*
X165907693Y-105272531D01*
X166574360Y-105748721D02*
X166717217Y-105796340D01*
X166717217Y-105796340D02*
X166764836Y-105843959D01*
X166764836Y-105843959D02*
X166812455Y-105939197D01*
X166812455Y-105939197D02*
X166812455Y-106082054D01*
X166812455Y-106082054D02*
X166764836Y-106177292D01*
X166764836Y-106177292D02*
X166717217Y-106224912D01*
X166717217Y-106224912D02*
X166621979Y-106272531D01*
X166621979Y-106272531D02*
X166241027Y-106272531D01*
X166241027Y-106272531D02*
X166241027Y-105272531D01*
X166241027Y-105272531D02*
X166574360Y-105272531D01*
X166574360Y-105272531D02*
X166669598Y-105320150D01*
X166669598Y-105320150D02*
X166717217Y-105367769D01*
X166717217Y-105367769D02*
X166764836Y-105463007D01*
X166764836Y-105463007D02*
X166764836Y-105558245D01*
X166764836Y-105558245D02*
X166717217Y-105653483D01*
X166717217Y-105653483D02*
X166669598Y-105701102D01*
X166669598Y-105701102D02*
X166574360Y-105748721D01*
X166574360Y-105748721D02*
X166241027Y-105748721D01*
X167193408Y-105986816D02*
X167669598Y-105986816D01*
X167098170Y-106272531D02*
X167431503Y-105272531D01*
X167431503Y-105272531D02*
X167764836Y-106272531D01*
X167955313Y-105272531D02*
X168526741Y-105272531D01*
X168241027Y-106272531D02*
X168241027Y-105272531D01*
X168717218Y-105272531D02*
X169288646Y-105272531D01*
X169002932Y-106272531D02*
X169002932Y-105272531D01*
X169621980Y-105891578D02*
X170383885Y-105891578D01*
X170002932Y-106272531D02*
X170002932Y-105510626D01*
X165907693Y-108540038D02*
X165812455Y-108492419D01*
X165812455Y-108492419D02*
X165669598Y-108492419D01*
X165669598Y-108492419D02*
X165526741Y-108540038D01*
X165526741Y-108540038D02*
X165431503Y-108635276D01*
X165431503Y-108635276D02*
X165383884Y-108730514D01*
X165383884Y-108730514D02*
X165336265Y-108920990D01*
X165336265Y-108920990D02*
X165336265Y-109063847D01*
X165336265Y-109063847D02*
X165383884Y-109254323D01*
X165383884Y-109254323D02*
X165431503Y-109349561D01*
X165431503Y-109349561D02*
X165526741Y-109444800D01*
X165526741Y-109444800D02*
X165669598Y-109492419D01*
X165669598Y-109492419D02*
X165764836Y-109492419D01*
X165764836Y-109492419D02*
X165907693Y-109444800D01*
X165907693Y-109444800D02*
X165955312Y-109397180D01*
X165955312Y-109397180D02*
X165955312Y-109063847D01*
X165955312Y-109063847D02*
X165764836Y-109063847D01*
X166383884Y-109492419D02*
X166383884Y-108492419D01*
X166383884Y-108492419D02*
X166955312Y-109492419D01*
X166955312Y-109492419D02*
X166955312Y-108492419D01*
X167431503Y-109492419D02*
X167431503Y-108492419D01*
X167431503Y-108492419D02*
X167669598Y-108492419D01*
X167669598Y-108492419D02*
X167812455Y-108540038D01*
X167812455Y-108540038D02*
X167907693Y-108635276D01*
X167907693Y-108635276D02*
X167955312Y-108730514D01*
X167955312Y-108730514D02*
X168002931Y-108920990D01*
X168002931Y-108920990D02*
X168002931Y-109063847D01*
X168002931Y-109063847D02*
X167955312Y-109254323D01*
X167955312Y-109254323D02*
X167907693Y-109349561D01*
X167907693Y-109349561D02*
X167812455Y-109444800D01*
X167812455Y-109444800D02*
X167669598Y-109492419D01*
X167669598Y-109492419D02*
X167431503Y-109492419D01*
X166003779Y-113442720D02*
X166003779Y-112442720D01*
X166003779Y-112442720D02*
X166337112Y-113157005D01*
X166337112Y-113157005D02*
X166670445Y-112442720D01*
X166670445Y-112442720D02*
X166670445Y-113442720D01*
X167670445Y-113442720D02*
X167099017Y-113442720D01*
X167384731Y-113442720D02*
X167384731Y-112442720D01*
X167384731Y-112442720D02*
X167289493Y-112585577D01*
X167289493Y-112585577D02*
X167194255Y-112680815D01*
X167194255Y-112680815D02*
X167099017Y-112728434D01*
X166003779Y-114671711D02*
X166765684Y-114671711D01*
X166384731Y-115052664D02*
X166384731Y-114290759D01*
X168003779Y-114671711D02*
X168765684Y-114671711D01*
D11*
X174594100Y-100136372D02*
X174622671Y-100050658D01*
X174622671Y-100050658D02*
X174622671Y-99907800D01*
X174622671Y-99907800D02*
X174594100Y-99850658D01*
X174594100Y-99850658D02*
X174565528Y-99822086D01*
X174565528Y-99822086D02*
X174508385Y-99793515D01*
X174508385Y-99793515D02*
X174451242Y-99793515D01*
X174451242Y-99793515D02*
X174394100Y-99822086D01*
X174394100Y-99822086D02*
X174365528Y-99850658D01*
X174365528Y-99850658D02*
X174336957Y-99907800D01*
X174336957Y-99907800D02*
X174308385Y-100022086D01*
X174308385Y-100022086D02*
X174279814Y-100079229D01*
X174279814Y-100079229D02*
X174251242Y-100107800D01*
X174251242Y-100107800D02*
X174194100Y-100136372D01*
X174194100Y-100136372D02*
X174136957Y-100136372D01*
X174136957Y-100136372D02*
X174079814Y-100107800D01*
X174079814Y-100107800D02*
X174051242Y-100079229D01*
X174051242Y-100079229D02*
X174022671Y-100022086D01*
X174022671Y-100022086D02*
X174022671Y-99879229D01*
X174022671Y-99879229D02*
X174051242Y-99793515D01*
X174308385Y-99536371D02*
X174308385Y-99336371D01*
X174622671Y-99250657D02*
X174622671Y-99536371D01*
X174622671Y-99536371D02*
X174022671Y-99536371D01*
X174022671Y-99536371D02*
X174022671Y-99250657D01*
X174622671Y-98650657D02*
X174336957Y-98850657D01*
X174622671Y-98993514D02*
X174022671Y-98993514D01*
X174022671Y-98993514D02*
X174022671Y-98764943D01*
X174022671Y-98764943D02*
X174051242Y-98707800D01*
X174051242Y-98707800D02*
X174079814Y-98679229D01*
X174079814Y-98679229D02*
X174136957Y-98650657D01*
X174136957Y-98650657D02*
X174222671Y-98650657D01*
X174222671Y-98650657D02*
X174279814Y-98679229D01*
X174279814Y-98679229D02*
X174308385Y-98707800D01*
X174308385Y-98707800D02*
X174336957Y-98764943D01*
X174336957Y-98764943D02*
X174336957Y-98993514D01*
X174022671Y-98479229D02*
X174622671Y-98279229D01*
X174622671Y-98279229D02*
X174022671Y-98079229D01*
X174022671Y-97764943D02*
X174022671Y-97650657D01*
X174022671Y-97650657D02*
X174051242Y-97593514D01*
X174051242Y-97593514D02*
X174108385Y-97536371D01*
X174108385Y-97536371D02*
X174222671Y-97507800D01*
X174222671Y-97507800D02*
X174422671Y-97507800D01*
X174422671Y-97507800D02*
X174536957Y-97536371D01*
X174536957Y-97536371D02*
X174594100Y-97593514D01*
X174594100Y-97593514D02*
X174622671Y-97650657D01*
X174622671Y-97650657D02*
X174622671Y-97764943D01*
X174622671Y-97764943D02*
X174594100Y-97822086D01*
X174594100Y-97822086D02*
X174536957Y-97879228D01*
X174536957Y-97879228D02*
X174422671Y-97907800D01*
X174422671Y-97907800D02*
X174222671Y-97907800D01*
X174222671Y-97907800D02*
X174108385Y-97879228D01*
X174108385Y-97879228D02*
X174051242Y-97822086D01*
X174051242Y-97822086D02*
X174022671Y-97764943D01*
X174022671Y-97136372D02*
X174022671Y-97079229D01*
X174022671Y-97079229D02*
X174051242Y-97022086D01*
X174051242Y-97022086D02*
X174079814Y-96993515D01*
X174079814Y-96993515D02*
X174136957Y-96964943D01*
X174136957Y-96964943D02*
X174251242Y-96936372D01*
X174251242Y-96936372D02*
X174394100Y-96936372D01*
X174394100Y-96936372D02*
X174508385Y-96964943D01*
X174508385Y-96964943D02*
X174565528Y-96993515D01*
X174565528Y-96993515D02*
X174594100Y-97022086D01*
X174594100Y-97022086D02*
X174622671Y-97079229D01*
X174622671Y-97079229D02*
X174622671Y-97136372D01*
X174622671Y-97136372D02*
X174594100Y-97193515D01*
X174594100Y-97193515D02*
X174565528Y-97222086D01*
X174565528Y-97222086D02*
X174508385Y-97250657D01*
X174508385Y-97250657D02*
X174394100Y-97279229D01*
X174394100Y-97279229D02*
X174251242Y-97279229D01*
X174251242Y-97279229D02*
X174136957Y-97250657D01*
X174136957Y-97250657D02*
X174079814Y-97222086D01*
X174079814Y-97222086D02*
X174051242Y-97193515D01*
X174051242Y-97193515D02*
X174022671Y-97136372D01*
X174594100Y-96250657D02*
X174622671Y-96164943D01*
X174622671Y-96164943D02*
X174622671Y-96022085D01*
X174622671Y-96022085D02*
X174594100Y-95964943D01*
X174594100Y-95964943D02*
X174565528Y-95936371D01*
X174565528Y-95936371D02*
X174508385Y-95907800D01*
X174508385Y-95907800D02*
X174451242Y-95907800D01*
X174451242Y-95907800D02*
X174394100Y-95936371D01*
X174394100Y-95936371D02*
X174365528Y-95964943D01*
X174365528Y-95964943D02*
X174336957Y-96022085D01*
X174336957Y-96022085D02*
X174308385Y-96136371D01*
X174308385Y-96136371D02*
X174279814Y-96193514D01*
X174279814Y-96193514D02*
X174251242Y-96222085D01*
X174251242Y-96222085D02*
X174194100Y-96250657D01*
X174194100Y-96250657D02*
X174136957Y-96250657D01*
X174136957Y-96250657D02*
X174079814Y-96222085D01*
X174079814Y-96222085D02*
X174051242Y-96193514D01*
X174051242Y-96193514D02*
X174022671Y-96136371D01*
X174022671Y-96136371D02*
X174022671Y-95993514D01*
X174022671Y-95993514D02*
X174051242Y-95907800D01*
X174308385Y-95650656D02*
X174308385Y-95450656D01*
X174622671Y-95364942D02*
X174622671Y-95650656D01*
X174622671Y-95650656D02*
X174022671Y-95650656D01*
X174022671Y-95650656D02*
X174022671Y-95364942D01*
X174622671Y-94764942D02*
X174336957Y-94964942D01*
X174622671Y-95107799D02*
X174022671Y-95107799D01*
X174022671Y-95107799D02*
X174022671Y-94879228D01*
X174022671Y-94879228D02*
X174051242Y-94822085D01*
X174051242Y-94822085D02*
X174079814Y-94793514D01*
X174079814Y-94793514D02*
X174136957Y-94764942D01*
X174136957Y-94764942D02*
X174222671Y-94764942D01*
X174222671Y-94764942D02*
X174279814Y-94793514D01*
X174279814Y-94793514D02*
X174308385Y-94822085D01*
X174308385Y-94822085D02*
X174336957Y-94879228D01*
X174336957Y-94879228D02*
X174336957Y-95107799D01*
X174022671Y-94593514D02*
X174622671Y-94393514D01*
X174622671Y-94393514D02*
X174022671Y-94193514D01*
X174022671Y-93879228D02*
X174022671Y-93764942D01*
X174022671Y-93764942D02*
X174051242Y-93707799D01*
X174051242Y-93707799D02*
X174108385Y-93650656D01*
X174108385Y-93650656D02*
X174222671Y-93622085D01*
X174222671Y-93622085D02*
X174422671Y-93622085D01*
X174422671Y-93622085D02*
X174536957Y-93650656D01*
X174536957Y-93650656D02*
X174594100Y-93707799D01*
X174594100Y-93707799D02*
X174622671Y-93764942D01*
X174622671Y-93764942D02*
X174622671Y-93879228D01*
X174622671Y-93879228D02*
X174594100Y-93936371D01*
X174594100Y-93936371D02*
X174536957Y-93993513D01*
X174536957Y-93993513D02*
X174422671Y-94022085D01*
X174422671Y-94022085D02*
X174222671Y-94022085D01*
X174222671Y-94022085D02*
X174108385Y-93993513D01*
X174108385Y-93993513D02*
X174051242Y-93936371D01*
X174051242Y-93936371D02*
X174022671Y-93879228D01*
X174622671Y-93050657D02*
X174622671Y-93393514D01*
X174622671Y-93222085D02*
X174022671Y-93222085D01*
X174022671Y-93222085D02*
X174108385Y-93279228D01*
X174108385Y-93279228D02*
X174165528Y-93336371D01*
X174165528Y-93336371D02*
X174194100Y-93393514D01*
X174408385Y-105807800D02*
X174408385Y-105607800D01*
X174722671Y-105522086D02*
X174722671Y-105807800D01*
X174722671Y-105807800D02*
X174122671Y-105807800D01*
X174122671Y-105807800D02*
X174122671Y-105522086D01*
X174694100Y-105293515D02*
X174722671Y-105207801D01*
X174722671Y-105207801D02*
X174722671Y-105064943D01*
X174722671Y-105064943D02*
X174694100Y-105007801D01*
X174694100Y-105007801D02*
X174665528Y-104979229D01*
X174665528Y-104979229D02*
X174608385Y-104950658D01*
X174608385Y-104950658D02*
X174551242Y-104950658D01*
X174551242Y-104950658D02*
X174494100Y-104979229D01*
X174494100Y-104979229D02*
X174465528Y-105007801D01*
X174465528Y-105007801D02*
X174436957Y-105064943D01*
X174436957Y-105064943D02*
X174408385Y-105179229D01*
X174408385Y-105179229D02*
X174379814Y-105236372D01*
X174379814Y-105236372D02*
X174351242Y-105264943D01*
X174351242Y-105264943D02*
X174294100Y-105293515D01*
X174294100Y-105293515D02*
X174236957Y-105293515D01*
X174236957Y-105293515D02*
X174179814Y-105264943D01*
X174179814Y-105264943D02*
X174151242Y-105236372D01*
X174151242Y-105236372D02*
X174122671Y-105179229D01*
X174122671Y-105179229D02*
X174122671Y-105036372D01*
X174122671Y-105036372D02*
X174151242Y-104950658D01*
X174665528Y-104350657D02*
X174694100Y-104379229D01*
X174694100Y-104379229D02*
X174722671Y-104464943D01*
X174722671Y-104464943D02*
X174722671Y-104522086D01*
X174722671Y-104522086D02*
X174694100Y-104607800D01*
X174694100Y-104607800D02*
X174636957Y-104664943D01*
X174636957Y-104664943D02*
X174579814Y-104693514D01*
X174579814Y-104693514D02*
X174465528Y-104722086D01*
X174465528Y-104722086D02*
X174379814Y-104722086D01*
X174379814Y-104722086D02*
X174265528Y-104693514D01*
X174265528Y-104693514D02*
X174208385Y-104664943D01*
X174208385Y-104664943D02*
X174151242Y-104607800D01*
X174151242Y-104607800D02*
X174122671Y-104522086D01*
X174122671Y-104522086D02*
X174122671Y-104464943D01*
X174122671Y-104464943D02*
X174151242Y-104379229D01*
X174151242Y-104379229D02*
X174179814Y-104350657D01*
X174122671Y-103979229D02*
X174122671Y-103922086D01*
X174122671Y-103922086D02*
X174151242Y-103864943D01*
X174151242Y-103864943D02*
X174179814Y-103836372D01*
X174179814Y-103836372D02*
X174236957Y-103807800D01*
X174236957Y-103807800D02*
X174351242Y-103779229D01*
X174351242Y-103779229D02*
X174494100Y-103779229D01*
X174494100Y-103779229D02*
X174608385Y-103807800D01*
X174608385Y-103807800D02*
X174665528Y-103836372D01*
X174665528Y-103836372D02*
X174694100Y-103864943D01*
X174694100Y-103864943D02*
X174722671Y-103922086D01*
X174722671Y-103922086D02*
X174722671Y-103979229D01*
X174722671Y-103979229D02*
X174694100Y-104036372D01*
X174694100Y-104036372D02*
X174665528Y-104064943D01*
X174665528Y-104064943D02*
X174608385Y-104093514D01*
X174608385Y-104093514D02*
X174494100Y-104122086D01*
X174494100Y-104122086D02*
X174351242Y-104122086D01*
X174351242Y-104122086D02*
X174236957Y-104093514D01*
X174236957Y-104093514D02*
X174179814Y-104064943D01*
X174179814Y-104064943D02*
X174151242Y-104036372D01*
X174151242Y-104036372D02*
X174122671Y-103979229D01*
X174408385Y-103064942D02*
X174408385Y-102864942D01*
X174722671Y-102779228D02*
X174722671Y-103064942D01*
X174722671Y-103064942D02*
X174122671Y-103064942D01*
X174122671Y-103064942D02*
X174122671Y-102779228D01*
X174694100Y-102550657D02*
X174722671Y-102464943D01*
X174722671Y-102464943D02*
X174722671Y-102322085D01*
X174722671Y-102322085D02*
X174694100Y-102264943D01*
X174694100Y-102264943D02*
X174665528Y-102236371D01*
X174665528Y-102236371D02*
X174608385Y-102207800D01*
X174608385Y-102207800D02*
X174551242Y-102207800D01*
X174551242Y-102207800D02*
X174494100Y-102236371D01*
X174494100Y-102236371D02*
X174465528Y-102264943D01*
X174465528Y-102264943D02*
X174436957Y-102322085D01*
X174436957Y-102322085D02*
X174408385Y-102436371D01*
X174408385Y-102436371D02*
X174379814Y-102493514D01*
X174379814Y-102493514D02*
X174351242Y-102522085D01*
X174351242Y-102522085D02*
X174294100Y-102550657D01*
X174294100Y-102550657D02*
X174236957Y-102550657D01*
X174236957Y-102550657D02*
X174179814Y-102522085D01*
X174179814Y-102522085D02*
X174151242Y-102493514D01*
X174151242Y-102493514D02*
X174122671Y-102436371D01*
X174122671Y-102436371D02*
X174122671Y-102293514D01*
X174122671Y-102293514D02*
X174151242Y-102207800D01*
X174665528Y-101607799D02*
X174694100Y-101636371D01*
X174694100Y-101636371D02*
X174722671Y-101722085D01*
X174722671Y-101722085D02*
X174722671Y-101779228D01*
X174722671Y-101779228D02*
X174694100Y-101864942D01*
X174694100Y-101864942D02*
X174636957Y-101922085D01*
X174636957Y-101922085D02*
X174579814Y-101950656D01*
X174579814Y-101950656D02*
X174465528Y-101979228D01*
X174465528Y-101979228D02*
X174379814Y-101979228D01*
X174379814Y-101979228D02*
X174265528Y-101950656D01*
X174265528Y-101950656D02*
X174208385Y-101922085D01*
X174208385Y-101922085D02*
X174151242Y-101864942D01*
X174151242Y-101864942D02*
X174122671Y-101779228D01*
X174122671Y-101779228D02*
X174122671Y-101722085D01*
X174122671Y-101722085D02*
X174151242Y-101636371D01*
X174151242Y-101636371D02*
X174179814Y-101607799D01*
X174722671Y-101036371D02*
X174722671Y-101379228D01*
X174722671Y-101207799D02*
X174122671Y-101207799D01*
X174122671Y-101207799D02*
X174208385Y-101264942D01*
X174208385Y-101264942D02*
X174265528Y-101322085D01*
X174265528Y-101322085D02*
X174294100Y-101379228D01*
D10*
X173433884Y-113432475D02*
X173433884Y-112432475D01*
X173433884Y-112432475D02*
X173767217Y-113146760D01*
X173767217Y-113146760D02*
X174100550Y-112432475D01*
X174100550Y-112432475D02*
X174100550Y-113432475D01*
X174529122Y-112527713D02*
X174576741Y-112480094D01*
X174576741Y-112480094D02*
X174671979Y-112432475D01*
X174671979Y-112432475D02*
X174910074Y-112432475D01*
X174910074Y-112432475D02*
X175005312Y-112480094D01*
X175005312Y-112480094D02*
X175052931Y-112527713D01*
X175052931Y-112527713D02*
X175100550Y-112622951D01*
X175100550Y-112622951D02*
X175100550Y-112718189D01*
X175100550Y-112718189D02*
X175052931Y-112861046D01*
X175052931Y-112861046D02*
X174481503Y-113432475D01*
X174481503Y-113432475D02*
X175100550Y-113432475D01*
X173433884Y-114661466D02*
X174195789Y-114661466D01*
X173814836Y-115042419D02*
X173814836Y-114280514D01*
X175433884Y-114661466D02*
X176195789Y-114661466D01*
D12*
X173769580Y-108960357D02*
X173817200Y-109007976D01*
X173817200Y-109007976D02*
X173864819Y-109150833D01*
X173864819Y-109150833D02*
X173864819Y-109246071D01*
X173864819Y-109246071D02*
X173817200Y-109388928D01*
X173817200Y-109388928D02*
X173721961Y-109484166D01*
X173721961Y-109484166D02*
X173626723Y-109531785D01*
X173626723Y-109531785D02*
X173436247Y-109579404D01*
X173436247Y-109579404D02*
X173293390Y-109579404D01*
X173293390Y-109579404D02*
X173102914Y-109531785D01*
X173102914Y-109531785D02*
X173007676Y-109484166D01*
X173007676Y-109484166D02*
X172912438Y-109388928D01*
X172912438Y-109388928D02*
X172864819Y-109246071D01*
X172864819Y-109246071D02*
X172864819Y-109150833D01*
X172864819Y-109150833D02*
X172912438Y-109007976D01*
X172912438Y-109007976D02*
X172960057Y-108960357D01*
X172960057Y-108579404D02*
X172912438Y-108531785D01*
X172912438Y-108531785D02*
X172864819Y-108436547D01*
X172864819Y-108436547D02*
X172864819Y-108198452D01*
X172864819Y-108198452D02*
X172912438Y-108103214D01*
X172912438Y-108103214D02*
X172960057Y-108055595D01*
X172960057Y-108055595D02*
X173055295Y-108007976D01*
X173055295Y-108007976D02*
X173150533Y-108007976D01*
X173150533Y-108007976D02*
X173293390Y-108055595D01*
X173293390Y-108055595D02*
X173864819Y-108627023D01*
X173864819Y-108627023D02*
X173864819Y-108007976D01*
X172960057Y-107627023D02*
X172912438Y-107579404D01*
X172912438Y-107579404D02*
X172864819Y-107484166D01*
X172864819Y-107484166D02*
X172864819Y-107246071D01*
X172864819Y-107246071D02*
X172912438Y-107150833D01*
X172912438Y-107150833D02*
X172960057Y-107103214D01*
X172960057Y-107103214D02*
X173055295Y-107055595D01*
X173055295Y-107055595D02*
X173150533Y-107055595D01*
X173150533Y-107055595D02*
X173293390Y-107103214D01*
X173293390Y-107103214D02*
X173864819Y-107674642D01*
X173864819Y-107674642D02*
X173864819Y-107055595D01*
X176129819Y-90809523D02*
X177129819Y-90142857D01*
X176129819Y-90142857D02*
X177129819Y-90809523D01*
X177129819Y-89238095D02*
X177129819Y-89809523D01*
X177129819Y-89523809D02*
X176129819Y-89523809D01*
X176129819Y-89523809D02*
X176272676Y-89619047D01*
X176272676Y-89619047D02*
X176367914Y-89714285D01*
X176367914Y-89714285D02*
X176415533Y-89809523D01*
X161529819Y-98083333D02*
X162244104Y-98083333D01*
X162244104Y-98083333D02*
X162386961Y-98130952D01*
X162386961Y-98130952D02*
X162482200Y-98226190D01*
X162482200Y-98226190D02*
X162529819Y-98369047D01*
X162529819Y-98369047D02*
X162529819Y-98464285D01*
X161529819Y-97130952D02*
X161529819Y-97607142D01*
X161529819Y-97607142D02*
X162006009Y-97654761D01*
X162006009Y-97654761D02*
X161958390Y-97607142D01*
X161958390Y-97607142D02*
X161910771Y-97511904D01*
X161910771Y-97511904D02*
X161910771Y-97273809D01*
X161910771Y-97273809D02*
X161958390Y-97178571D01*
X161958390Y-97178571D02*
X162006009Y-97130952D01*
X162006009Y-97130952D02*
X162101247Y-97083333D01*
X162101247Y-97083333D02*
X162339342Y-97083333D01*
X162339342Y-97083333D02*
X162434580Y-97130952D01*
X162434580Y-97130952D02*
X162482200Y-97178571D01*
X162482200Y-97178571D02*
X162529819Y-97273809D01*
X162529819Y-97273809D02*
X162529819Y-97511904D01*
X162529819Y-97511904D02*
X162482200Y-97607142D01*
X162482200Y-97607142D02*
X162434580Y-97654761D01*
X171094991Y-108141395D02*
X170285468Y-108141395D01*
X170285468Y-108141395D02*
X170190230Y-108189014D01*
X170190230Y-108189014D02*
X170142611Y-108236633D01*
X170142611Y-108236633D02*
X170094991Y-108331871D01*
X170094991Y-108331871D02*
X170094991Y-108522347D01*
X170094991Y-108522347D02*
X170142611Y-108617585D01*
X170142611Y-108617585D02*
X170190230Y-108665204D01*
X170190230Y-108665204D02*
X170285468Y-108712823D01*
X170285468Y-108712823D02*
X171094991Y-108712823D01*
X170761658Y-109617585D02*
X170094991Y-109617585D01*
X171142611Y-109379490D02*
X170428325Y-109141395D01*
X170428325Y-109141395D02*
X170428325Y-109760442D01*
X168504819Y-90711904D02*
X169314342Y-90711904D01*
X169314342Y-90711904D02*
X169409580Y-90664285D01*
X169409580Y-90664285D02*
X169457200Y-90616666D01*
X169457200Y-90616666D02*
X169504819Y-90521428D01*
X169504819Y-90521428D02*
X169504819Y-90330952D01*
X169504819Y-90330952D02*
X169457200Y-90235714D01*
X169457200Y-90235714D02*
X169409580Y-90188095D01*
X169409580Y-90188095D02*
X169314342Y-90140476D01*
X169314342Y-90140476D02*
X168504819Y-90140476D01*
X169504819Y-89140476D02*
X169504819Y-89711904D01*
X169504819Y-89426190D02*
X168504819Y-89426190D01*
X168504819Y-89426190D02*
X168647676Y-89521428D01*
X168647676Y-89521428D02*
X168742914Y-89616666D01*
X168742914Y-89616666D02*
X168790533Y-89711904D01*
D13*
%TO.C,J7*%
X162420000Y-103895000D02*
X163750000Y-103895000D01*
X162420000Y-105225000D02*
X162420000Y-103895000D01*
X162420000Y-106495000D02*
X162420000Y-109095000D01*
X162420000Y-106495000D02*
X165080000Y-106495000D01*
X162420000Y-109095000D02*
X165080000Y-109095000D01*
X165080000Y-106495000D02*
X165080000Y-109095000D01*
%TO.C,R1*%
X156920000Y-79567621D02*
X156920000Y-79232379D01*
X157680000Y-79567621D02*
X157680000Y-79232379D01*
%TO.C,R11*%
X162020000Y-84967621D02*
X162020000Y-84632379D01*
X162780000Y-84967621D02*
X162780000Y-84632379D01*
%TO.C,D1*%
X151740000Y-77915000D02*
X151740000Y-80185000D01*
X151740000Y-80185000D02*
X155800000Y-80185000D01*
X155800000Y-77915000D02*
X151740000Y-77915000D01*
%TO.C,C21*%
X167390000Y-106115835D02*
X167390000Y-105884165D01*
X168110000Y-106115835D02*
X168110000Y-105884165D01*
%TO.C,L2*%
X170521267Y-88340000D02*
X170178733Y-88340000D01*
X170521267Y-89360000D02*
X170178733Y-89360000D01*
%TO.C,C14*%
X159965835Y-90740000D02*
X159734165Y-90740000D01*
X159965835Y-91460000D02*
X159734165Y-91460000D01*
%TO.C,C8*%
X160540000Y-82215835D02*
X160540000Y-81984165D01*
X161260000Y-82215835D02*
X161260000Y-81984165D01*
%TO.C,J8*%
X151230000Y-91730000D02*
X151230000Y-90400000D01*
X152560000Y-91730000D02*
X151230000Y-91730000D01*
X153830000Y-89070000D02*
X158970000Y-89070000D01*
X153830000Y-91730000D02*
X153830000Y-89070000D01*
X153830000Y-91730000D02*
X158970000Y-91730000D01*
X158970000Y-91730000D02*
X158970000Y-89070000D01*
%TO.C,R4*%
X175582258Y-112280000D02*
X177252742Y-112280000D01*
X175582258Y-114100000D02*
X177252742Y-114100000D01*
%TO.C,REF\u002A\u002A*%
X158890000Y-111654437D02*
X158890000Y-117410000D01*
X158890000Y-117410000D02*
X161240000Y-117410000D01*
X159954437Y-110590000D02*
X158890000Y-111654437D01*
X159954437Y-110590000D02*
X161240000Y-110590000D01*
X164645563Y-110590000D02*
X163360000Y-110590000D01*
X164645563Y-110590000D02*
X165710000Y-111654437D01*
X165710000Y-111654437D02*
X165710000Y-117410000D01*
X165710000Y-117410000D02*
X163360000Y-117410000D01*
%TO.C,C9*%
X174238534Y-86652349D02*
X174402349Y-86488534D01*
X174747651Y-87161466D02*
X174911466Y-86997651D01*
%TO.C,C4*%
X167769684Y-86153852D02*
X167970316Y-86269687D01*
X168129684Y-85530313D02*
X168330316Y-85646148D01*
%TO.C,REF\u002A\u002A*%
X163538748Y-101290000D02*
X164961252Y-101290000D01*
X163538748Y-103110000D02*
X164961252Y-103110000D01*
%TO.C,R15*%
X162332379Y-99370000D02*
X162667621Y-99370000D01*
X162332379Y-100130000D02*
X162667621Y-100130000D01*
%TO.C,C22*%
X171890000Y-108201665D02*
X171890000Y-108433335D01*
X172610000Y-108201665D02*
X172610000Y-108433335D01*
%TO.C,C2*%
X157315835Y-104440000D02*
X157084165Y-104440000D01*
X157315835Y-105160000D02*
X157084165Y-105160000D01*
%TO.C,C12*%
X176015835Y-92140000D02*
X175784165Y-92140000D01*
X176015835Y-92860000D02*
X175784165Y-92860000D01*
%TO.C,R14*%
X162734879Y-95220000D02*
X163070121Y-95220000D01*
X162734879Y-95980000D02*
X163070121Y-95980000D01*
%TO.C,X1*%
X172650000Y-88100000D02*
X172650000Y-91900000D01*
X175800000Y-88100000D02*
X172650000Y-88100000D01*
%TO.C,C19*%
X164640000Y-98951665D02*
X164640000Y-99183335D01*
X165360000Y-98951665D02*
X165360000Y-99183335D01*
%TO.C,R12*%
X162832379Y-96570000D02*
X163167621Y-96570000D01*
X162832379Y-97330000D02*
X163167621Y-97330000D01*
%TO.C,C6*%
X165040000Y-84184165D02*
X165040000Y-84415835D01*
X165760000Y-84184165D02*
X165760000Y-84415835D01*
%TO.C,J9*%
X159170000Y-103870000D02*
X160500000Y-103870000D01*
X159170000Y-105200000D02*
X159170000Y-103870000D01*
X159170000Y-106470000D02*
X159170000Y-109070000D01*
X159170000Y-106470000D02*
X161830000Y-106470000D01*
X159170000Y-109070000D02*
X161830000Y-109070000D01*
X161830000Y-106470000D02*
X161830000Y-109070000D01*
%TO.C,C18*%
X160540000Y-84815835D02*
X160540000Y-84584165D01*
X161260000Y-84815835D02*
X161260000Y-84584165D01*
%TO.C,J5*%
X151545000Y-93155000D02*
X151545000Y-102345000D01*
X154275000Y-93155000D02*
X151545000Y-93155000D01*
X154275000Y-102345000D02*
X151545000Y-102345000D01*
X157875000Y-93155000D02*
X156975000Y-93155000D01*
X157875000Y-102345000D02*
X156975000Y-102345000D01*
X160955000Y-93275000D02*
X160955000Y-102225000D01*
%TO.C,L3*%
X163490000Y-83528733D02*
X163490000Y-83871267D01*
X164510000Y-83528733D02*
X164510000Y-83871267D01*
%TO.C,J1*%
X173130000Y-115170000D02*
X173130000Y-117830000D01*
X175730000Y-115170000D02*
X173130000Y-115170000D01*
X175730000Y-115170000D02*
X175730000Y-117830000D01*
X175730000Y-117830000D02*
X173130000Y-117830000D01*
X177000000Y-115170000D02*
X178330000Y-115170000D01*
X178330000Y-115170000D02*
X178330000Y-116500000D01*
%TO.C,J6*%
X175670000Y-94670000D02*
X177000000Y-94670000D01*
X175670000Y-96000000D02*
X175670000Y-94670000D01*
X175670000Y-97270000D02*
X175670000Y-99870000D01*
X175670000Y-97270000D02*
X178330000Y-97270000D01*
X175670000Y-99870000D02*
X178330000Y-99870000D01*
X178330000Y-97270000D02*
X178330000Y-99870000D01*
%TO.C,R2*%
X156920000Y-81967621D02*
X156920000Y-81632379D01*
X157680000Y-81967621D02*
X157680000Y-81632379D01*
%TO.C,C11*%
X171965835Y-85090000D02*
X171734165Y-85090000D01*
X171965835Y-85810000D02*
X171734165Y-85810000D01*
%TO.C,R3*%
X156920000Y-84267621D02*
X156920000Y-83932379D01*
X157680000Y-84267621D02*
X157680000Y-83932379D01*
%TO.C,L1*%
X169472694Y-84293322D02*
X169643961Y-83996678D01*
X170356039Y-84803322D02*
X170527306Y-84506678D01*
%TO.C,C17*%
X159965835Y-89740000D02*
X159734165Y-89740000D01*
X159965835Y-90460000D02*
X159734165Y-90460000D01*
%TO.C,J10*%
X151245000Y-88330000D02*
X151245000Y-87000000D01*
X152575000Y-88330000D02*
X151245000Y-88330000D01*
X153845000Y-85670000D02*
X158985000Y-85670000D01*
X153845000Y-88330000D02*
X153845000Y-85670000D01*
X153845000Y-88330000D02*
X158985000Y-88330000D01*
X158985000Y-88330000D02*
X158985000Y-85670000D01*
%TO.C,C5*%
X170269684Y-82203853D02*
X170470315Y-82319687D01*
X170629685Y-81580313D02*
X170830316Y-81696147D01*
%TO.C,C7*%
X162040000Y-82315835D02*
X162040000Y-82084165D01*
X162760000Y-82315835D02*
X162760000Y-82084165D01*
D14*
%TO.C,U2*%
X175101978Y-106993474D02*
G75*
G02*
X174898778Y-106993474I-101600J0D01*
G01*
X174898778Y-106993474D02*
G75*
G02*
X175101978Y-106993474I101600J0D01*
G01*
D13*
%TO.C,D2*%
X151740000Y-80265000D02*
X151740000Y-82535000D01*
X151740000Y-82535000D02*
X155800000Y-82535000D01*
X155800000Y-80265000D02*
X151740000Y-80265000D01*
%TO.C,J4*%
X175670000Y-101395000D02*
X177000000Y-101395000D01*
X175670000Y-102725000D02*
X175670000Y-101395000D01*
X175670000Y-103995000D02*
X175670000Y-106595000D01*
X175670000Y-103995000D02*
X178330000Y-103995000D01*
X175670000Y-106595000D02*
X178330000Y-106595000D01*
X178330000Y-103995000D02*
X178330000Y-106595000D01*
%TO.C,REF\u002A\u002A*%
X172750000Y-79700000D02*
X172950000Y-79500000D01*
X172750000Y-80300000D02*
X172249999Y-80300000D01*
X172750000Y-80300000D02*
X172750000Y-79700000D01*
X172750000Y-81700000D02*
X172250000Y-81700000D01*
X172750000Y-82500000D02*
X172750000Y-81700000D01*
X172950000Y-82500000D02*
X172750000Y-82500000D01*
X175550000Y-79500000D02*
X175750000Y-79500000D01*
X175750000Y-79500000D02*
X175750000Y-80300000D01*
X175750000Y-81700000D02*
X175750000Y-82500000D01*
X175750000Y-82500000D02*
X175550000Y-82500000D01*
%TO.C,R5*%
X169364758Y-112190000D02*
X171035242Y-112190000D01*
X169364758Y-114010000D02*
X171035242Y-114010000D01*
D14*
%TO.C,U4*%
X169401600Y-106993474D02*
G75*
G02*
X169198400Y-106993474I-101600J0D01*
G01*
X169198400Y-106993474D02*
G75*
G02*
X169401600Y-106993474I101600J0D01*
G01*
D13*
%TO.C,U3*%
X151710000Y-109230000D02*
X152180000Y-109230000D01*
X151710000Y-115650000D02*
X151710000Y-109230000D01*
X158610000Y-109230000D02*
X158140000Y-109230000D01*
X158610000Y-115650000D02*
X158610000Y-109230000D01*
X158570000Y-107840000D02*
X158100000Y-107500000D01*
X158570000Y-107160000D01*
X158570000Y-107840000D01*
G36*
X158570000Y-107840000D02*
G01*
X158100000Y-107500000D01*
X158570000Y-107160000D01*
X158570000Y-107840000D01*
G37*
%TO.C,C20*%
X165327349Y-95336466D02*
X165163534Y-95172651D01*
X165836466Y-94827349D02*
X165672651Y-94663534D01*
%TO.C,J2*%
X166405000Y-115170000D02*
X166405000Y-117830000D01*
X169005000Y-115170000D02*
X166405000Y-115170000D01*
X169005000Y-115170000D02*
X169005000Y-117830000D01*
X169005000Y-117830000D02*
X166405000Y-117830000D01*
X170275000Y-115170000D02*
X171605000Y-115170000D01*
X171605000Y-115170000D02*
X171605000Y-116500000D01*
%TO.C,C13*%
X159734165Y-88740000D02*
X159965835Y-88740000D01*
X159734165Y-89460000D02*
X159965835Y-89460000D01*
%TO.C,D3*%
X151740000Y-82665000D02*
X151740000Y-84935000D01*
X151740000Y-84935000D02*
X155800000Y-84935000D01*
X155800000Y-82665000D02*
X151740000Y-82665000D01*
%TO.C,U1*%
X162640000Y-87340000D02*
X163115000Y-87340000D01*
X162640000Y-87815000D02*
X162640000Y-87340000D01*
X162640000Y-92085000D02*
X162640000Y-92560000D01*
X162640000Y-92560000D02*
X163115000Y-92560000D01*
X167385000Y-87340000D02*
X167620000Y-87340000D01*
X167860000Y-87815000D02*
X167860000Y-87640000D01*
X167860000Y-92085000D02*
X167860000Y-92560000D01*
X167860000Y-92560000D02*
X167385000Y-92560000D01*
X168190000Y-87580000D02*
X167860000Y-87340000D01*
X168190000Y-87100000D01*
X168190000Y-87580000D01*
G36*
X168190000Y-87580000D02*
G01*
X167860000Y-87340000D01*
X168190000Y-87100000D01*
X168190000Y-87580000D01*
G37*
%TO.C,C3*%
X153853733Y-104090000D02*
X154146267Y-104090000D01*
X153853733Y-105110000D02*
X154146267Y-105110000D01*
%TO.C,R13*%
X163167621Y-97820000D02*
X162832379Y-97820000D01*
X163167621Y-98580000D02*
X162832379Y-98580000D01*
%TO.C,C10*%
X171965835Y-86090000D02*
X171734165Y-86090000D01*
X171965835Y-86810000D02*
X171734165Y-86810000D01*
%TD*%
M02*
