M48
; DRILL file {KiCad 9.0.0} date 2025-09-05T21:38:04-0500
; FORMAT={-:-/ absolute / metric / decimal}
; #@! TF.CreationDate,2025-09-05T21:38:04-05:00
; #@! TF.GenerationSoftware,Kicad,Pcbnew,9.0.0
; #@! TF.FileFunction,MixedPlating,1,2
FMAT,2
METRIC
; #@! TA.AperFunction,Plated,PTH,ViaDrill
T1C0.200
; #@! TA.AperFunction,Plated,PTH,ViaDrill
T2C0.300
; #@! TA.AperFunction,Plated,PTH,ComponentDrill
T3C0.400
; #@! TA.AperFunction,Plated,PTH,ComponentDrill
T4C0.600
; #@! TA.AperFunction,Plated,PTH,ViaDrill
T5C0.750
; #@! TA.AperFunction,Plated,PTH,ViaDrill
T6C1.000
; #@! TA.AperFunction,Plated,PTH,ComponentDrill
T7C1.000
%
G90
G05
T1
X161.45Y-89.315
X161.636Y-91.115
X162.0Y-91.872
X163.432Y-86.953
X164.396Y-86.365
X164.778Y-85.903
X165.373Y-85.827
T2
X152.25Y-105.5
X152.5Y-103.25
X153.8Y-112.2
X153.8Y-114.0
X154.2Y-115.8
X154.6Y-105.6
X154.6Y-113.0
X154.6Y-114.6
X154.862Y-104.6
X155.0Y-113.6
X155.2Y-112.0
X155.4Y-115.4
X155.6Y-104.8
X155.6Y-105.6
X156.0Y-113.4
X156.2Y-114.6
X156.4Y-112.2
X156.632Y-104.8
X156.75Y-103.8
X156.8Y-115.8
X157.0Y-113.8
X157.4Y-115.2
X157.8Y-112.0
X157.8Y-113.4
X158.4Y-114.4
X159.715Y-86.985
X160.2Y-116.6
X160.4Y-112.0
X160.4Y-113.8
X160.417Y-90.1
X160.5Y-93.45
X160.8Y-114.6
X160.8Y-115.4
X161.5Y-94.05
X161.6Y-117.4
X161.85Y-116.2
X161.903Y-99.75
X162.0Y-114.2
X162.375Y-98.125
X162.4Y-84.2
X162.55Y-117.5
X162.75Y-116.5
X163.0Y-92.5
X163.6Y-100.6
X163.6Y-117.1
X163.8Y-114.4
X164.2Y-113.4
X164.45Y-116.3
X164.6Y-100.6
X164.75Y-103.0
X164.8Y-115.2
X165.0Y-117.4
X165.75Y-103.0
X166.3Y-99.7
X166.5Y-89.5
X166.5Y-90.5
X166.5Y-103.75
X166.658Y-98.984
X167.65Y-107.3
X167.758Y-97.453
X167.8Y-79.8
X168.26Y-96.83
X168.3Y-101.9
X168.7Y-83.3
X168.85Y-87.75
X168.888Y-96.215
X169.0Y-81.85
X169.535Y-95.6
X169.8Y-87.0
X170.1Y-106.9
X170.2Y-108.4
X170.4Y-86.2
X170.4Y-99.0
X170.6Y-79.8
X170.7Y-78.9
X170.9Y-108.8
X171.0Y-100.7
X171.1Y-97.9
X171.25Y-85.35
X171.35Y-86.45
X171.4Y-84.55
X171.4Y-103.2
X171.8Y-99.2
X172.0Y-93.0
X172.0Y-94.0
X172.4Y-103.5
X172.4Y-108.8
X172.5Y-83.65
X173.0Y-95.0
X173.0Y-101.0
X173.0Y-104.5
X173.2Y-84.5
X173.2Y-99.8
X173.4Y-91.05
X173.7Y-104.0
X174.0Y-94.5
X174.3Y-104.9
X174.35Y-83.9
X174.4Y-85.5
X174.5Y-100.2
X174.5Y-101.2
X174.6Y-103.6
X175.1Y-84.58
X175.85Y-85.4
X176.25Y-84.3
X176.3Y-108.2
X176.3Y-109.0
X176.5Y-87.5
X176.67Y-93.66
X176.7Y-91.17
X176.88Y-88.77
X176.96Y-89.91
X177.2Y-109.0
X177.3Y-108.2
X177.306Y-85.795
X177.35Y-84.45
X177.4Y-87.15
X177.5Y-93.5
X178.0Y-85.15
X178.0Y-90.0
X178.0Y-91.5
X178.0Y-92.5
X178.041Y-86.455
X178.09Y-107.49
X178.1Y-109.0
T3
X158.925Y-94.775
X158.925Y-95.625
X158.925Y-96.475
X158.925Y-97.325
X158.925Y-98.175
X158.925Y-99.025
X158.925Y-99.875
X158.925Y-100.725
X160.275Y-94.775
X160.275Y-95.625
X160.275Y-96.475
X160.275Y-97.325
X160.275Y-98.175
X160.275Y-99.025
X160.275Y-99.875
X160.275Y-100.725
T5
X171.9Y-113.0
X172.1Y-115.0
X178.2Y-113.1
T6
X166.477Y-110.107
X172.6Y-110.6
T7
X152.56Y-90.4
X152.575Y-87.0
X155.1Y-90.4
X155.115Y-87.0
X157.64Y-90.4
X157.655Y-87.0
X160.5Y-105.2
X160.5Y-107.74
X163.75Y-105.225
X163.75Y-107.765
X167.735Y-116.5
X170.275Y-116.5
X174.46Y-116.5
X177.0Y-96.0
X177.0Y-98.54
X177.0Y-102.725
X177.0Y-105.265
X177.0Y-116.5
T4
G00X156.315Y-93.425
M15
G01X155.515Y-93.425
M16
G05
G00X156.315Y-102.075
M15
G01X155.515Y-102.075
M16
G05
G00X160.045Y-93.425
M15
G01X158.545Y-93.425
M16
G05
G00X160.045Y-102.075
M15
G01X158.545Y-102.075
M16
G05
M30
