%TF.GenerationSoftware,KiCad,Pcbnew,9.0.0*%
%TF.CreationDate,2025-09-05T21:38:02-05:00*%
%TF.ProjectId,RIOT_Receiver_ESP,52494f54-5f52-4656-9365-697665725f45,rev?*%
%TF.SameCoordinates,Original*%
%TF.FileFunction,Legend,Bot*%
%TF.FilePolarity,Positive*%
%FSLAX46Y46*%
G04 Gerber Fmt 4.6, Leading zero omitted, Abs format (unit mm)*
G04 Created by KiCad (PCBNEW 9.0.0) date 2025-09-05 21:38:02*
%MOMM*%
%LPD*%
G01*
G04 APERTURE LIST*
%ADD10C,0.100000*%
%ADD11C,0.093750*%
%ADD12C,0.075000*%
%ADD13C,0.000000*%
G04 APERTURE END LIST*
D10*
X174303884Y-114618477D02*
X175065789Y-114618477D01*
X174684836Y-114237524D02*
X174684836Y-114999429D01*
X176303884Y-114618477D02*
X177065789Y-114618477D01*
X174303884Y-112627580D02*
X174303884Y-113627580D01*
X174303884Y-113627580D02*
X174637217Y-112913295D01*
X174637217Y-112913295D02*
X174970550Y-113627580D01*
X174970550Y-113627580D02*
X174970550Y-112627580D01*
X175589598Y-112627580D02*
X175494360Y-112675200D01*
X175494360Y-112675200D02*
X175446741Y-112722819D01*
X175446741Y-112722819D02*
X175399122Y-112818057D01*
X175399122Y-112818057D02*
X175399122Y-113103771D01*
X175399122Y-113103771D02*
X175446741Y-113199009D01*
X175446741Y-113199009D02*
X175494360Y-113246628D01*
X175494360Y-113246628D02*
X175589598Y-113294247D01*
X175589598Y-113294247D02*
X175732455Y-113294247D01*
X175732455Y-113294247D02*
X175827693Y-113246628D01*
X175827693Y-113246628D02*
X175875312Y-113199009D01*
X175875312Y-113199009D02*
X175922931Y-113103771D01*
X175922931Y-113103771D02*
X175922931Y-112818057D01*
X175922931Y-112818057D02*
X175875312Y-112722819D01*
X175875312Y-112722819D02*
X175827693Y-112675200D01*
X175827693Y-112675200D02*
X175732455Y-112627580D01*
X175732455Y-112627580D02*
X175589598Y-112627580D01*
X176208646Y-113294247D02*
X176589598Y-113294247D01*
X176351503Y-113627580D02*
X176351503Y-112770438D01*
X176351503Y-112770438D02*
X176399122Y-112675200D01*
X176399122Y-112675200D02*
X176494360Y-112627580D01*
X176494360Y-112627580D02*
X176589598Y-112627580D01*
X176875313Y-113532342D02*
X176922932Y-113579961D01*
X176922932Y-113579961D02*
X177018170Y-113627580D01*
X177018170Y-113627580D02*
X177256265Y-113627580D01*
X177256265Y-113627580D02*
X177351503Y-113579961D01*
X177351503Y-113579961D02*
X177399122Y-113532342D01*
X177399122Y-113532342D02*
X177446741Y-113437104D01*
X177446741Y-113437104D02*
X177446741Y-113341866D01*
X177446741Y-113341866D02*
X177399122Y-113199009D01*
X177399122Y-113199009D02*
X176827694Y-112627580D01*
X176827694Y-112627580D02*
X177446741Y-112627580D01*
D11*
X151740248Y-91996660D02*
X151740248Y-92746660D01*
X151740248Y-92746660D02*
X152025962Y-92746660D01*
X152025962Y-92746660D02*
X152097391Y-92710946D01*
X152097391Y-92710946D02*
X152133105Y-92675232D01*
X152133105Y-92675232D02*
X152168819Y-92603803D01*
X152168819Y-92603803D02*
X152168819Y-92496660D01*
X152168819Y-92496660D02*
X152133105Y-92425232D01*
X152133105Y-92425232D02*
X152097391Y-92389517D01*
X152097391Y-92389517D02*
X152025962Y-92353803D01*
X152025962Y-92353803D02*
X151740248Y-92353803D01*
X152418819Y-92746660D02*
X152597391Y-91996660D01*
X152597391Y-91996660D02*
X152740248Y-92532375D01*
X152740248Y-92532375D02*
X152883105Y-91996660D01*
X152883105Y-91996660D02*
X153061677Y-92746660D01*
X153347391Y-91996660D02*
X153347391Y-92746660D01*
X153347391Y-92746660D02*
X153597391Y-92210946D01*
X153597391Y-92210946D02*
X153847391Y-92746660D01*
X153847391Y-92746660D02*
X153847391Y-91996660D01*
X154704534Y-92746660D02*
X155168820Y-92746660D01*
X155168820Y-92746660D02*
X154918820Y-92460946D01*
X154918820Y-92460946D02*
X155025963Y-92460946D01*
X155025963Y-92460946D02*
X155097392Y-92425232D01*
X155097392Y-92425232D02*
X155133106Y-92389517D01*
X155133106Y-92389517D02*
X155168820Y-92318089D01*
X155168820Y-92318089D02*
X155168820Y-92139517D01*
X155168820Y-92139517D02*
X155133106Y-92068089D01*
X155133106Y-92068089D02*
X155097392Y-92032375D01*
X155097392Y-92032375D02*
X155025963Y-91996660D01*
X155025963Y-91996660D02*
X154811677Y-91996660D01*
X154811677Y-91996660D02*
X154740249Y-92032375D01*
X154740249Y-92032375D02*
X154704534Y-92068089D01*
X155490249Y-92068089D02*
X155525963Y-92032375D01*
X155525963Y-92032375D02*
X155490249Y-91996660D01*
X155490249Y-91996660D02*
X155454535Y-92032375D01*
X155454535Y-92032375D02*
X155490249Y-92068089D01*
X155490249Y-92068089D02*
X155490249Y-91996660D01*
X155775963Y-92746660D02*
X156240249Y-92746660D01*
X156240249Y-92746660D02*
X155990249Y-92460946D01*
X155990249Y-92460946D02*
X156097392Y-92460946D01*
X156097392Y-92460946D02*
X156168821Y-92425232D01*
X156168821Y-92425232D02*
X156204535Y-92389517D01*
X156204535Y-92389517D02*
X156240249Y-92318089D01*
X156240249Y-92318089D02*
X156240249Y-92139517D01*
X156240249Y-92139517D02*
X156204535Y-92068089D01*
X156204535Y-92068089D02*
X156168821Y-92032375D01*
X156168821Y-92032375D02*
X156097392Y-91996660D01*
X156097392Y-91996660D02*
X155883106Y-91996660D01*
X155883106Y-91996660D02*
X155811678Y-92032375D01*
X155811678Y-92032375D02*
X155775963Y-92068089D01*
X157525964Y-92710946D02*
X157454536Y-92746660D01*
X157454536Y-92746660D02*
X157347393Y-92746660D01*
X157347393Y-92746660D02*
X157240250Y-92710946D01*
X157240250Y-92710946D02*
X157168821Y-92639517D01*
X157168821Y-92639517D02*
X157133107Y-92568089D01*
X157133107Y-92568089D02*
X157097393Y-92425232D01*
X157097393Y-92425232D02*
X157097393Y-92318089D01*
X157097393Y-92318089D02*
X157133107Y-92175232D01*
X157133107Y-92175232D02*
X157168821Y-92103803D01*
X157168821Y-92103803D02*
X157240250Y-92032375D01*
X157240250Y-92032375D02*
X157347393Y-91996660D01*
X157347393Y-91996660D02*
X157418821Y-91996660D01*
X157418821Y-91996660D02*
X157525964Y-92032375D01*
X157525964Y-92032375D02*
X157561678Y-92068089D01*
X157561678Y-92068089D02*
X157561678Y-92318089D01*
X157561678Y-92318089D02*
X157418821Y-92318089D01*
X157883107Y-91996660D02*
X157883107Y-92746660D01*
X157883107Y-92746660D02*
X158311678Y-91996660D01*
X158311678Y-91996660D02*
X158311678Y-92746660D01*
X158668821Y-91996660D02*
X158668821Y-92746660D01*
X158668821Y-92746660D02*
X158847392Y-92746660D01*
X158847392Y-92746660D02*
X158954535Y-92710946D01*
X158954535Y-92710946D02*
X159025964Y-92639517D01*
X159025964Y-92639517D02*
X159061678Y-92568089D01*
X159061678Y-92568089D02*
X159097392Y-92425232D01*
X159097392Y-92425232D02*
X159097392Y-92318089D01*
X159097392Y-92318089D02*
X159061678Y-92175232D01*
X159061678Y-92175232D02*
X159025964Y-92103803D01*
X159025964Y-92103803D02*
X158954535Y-92032375D01*
X158954535Y-92032375D02*
X158847392Y-91996660D01*
X158847392Y-91996660D02*
X158668821Y-91996660D01*
D12*
X178194100Y-93836372D02*
X178222671Y-93750658D01*
X178222671Y-93750658D02*
X178222671Y-93607800D01*
X178222671Y-93607800D02*
X178194100Y-93550658D01*
X178194100Y-93550658D02*
X178165528Y-93522086D01*
X178165528Y-93522086D02*
X178108385Y-93493515D01*
X178108385Y-93493515D02*
X178051242Y-93493515D01*
X178051242Y-93493515D02*
X177994100Y-93522086D01*
X177994100Y-93522086D02*
X177965528Y-93550658D01*
X177965528Y-93550658D02*
X177936957Y-93607800D01*
X177936957Y-93607800D02*
X177908385Y-93722086D01*
X177908385Y-93722086D02*
X177879814Y-93779229D01*
X177879814Y-93779229D02*
X177851242Y-93807800D01*
X177851242Y-93807800D02*
X177794100Y-93836372D01*
X177794100Y-93836372D02*
X177736957Y-93836372D01*
X177736957Y-93836372D02*
X177679814Y-93807800D01*
X177679814Y-93807800D02*
X177651242Y-93779229D01*
X177651242Y-93779229D02*
X177622671Y-93722086D01*
X177622671Y-93722086D02*
X177622671Y-93579229D01*
X177622671Y-93579229D02*
X177651242Y-93493515D01*
X177908385Y-93236371D02*
X177908385Y-93036371D01*
X178222671Y-92950657D02*
X178222671Y-93236371D01*
X178222671Y-93236371D02*
X177622671Y-93236371D01*
X177622671Y-93236371D02*
X177622671Y-92950657D01*
X178222671Y-92350657D02*
X177936957Y-92550657D01*
X178222671Y-92693514D02*
X177622671Y-92693514D01*
X177622671Y-92693514D02*
X177622671Y-92464943D01*
X177622671Y-92464943D02*
X177651242Y-92407800D01*
X177651242Y-92407800D02*
X177679814Y-92379229D01*
X177679814Y-92379229D02*
X177736957Y-92350657D01*
X177736957Y-92350657D02*
X177822671Y-92350657D01*
X177822671Y-92350657D02*
X177879814Y-92379229D01*
X177879814Y-92379229D02*
X177908385Y-92407800D01*
X177908385Y-92407800D02*
X177936957Y-92464943D01*
X177936957Y-92464943D02*
X177936957Y-92693514D01*
X177622671Y-92179229D02*
X178222671Y-91979229D01*
X178222671Y-91979229D02*
X177622671Y-91779229D01*
X177622671Y-91464943D02*
X177622671Y-91350657D01*
X177622671Y-91350657D02*
X177651242Y-91293514D01*
X177651242Y-91293514D02*
X177708385Y-91236371D01*
X177708385Y-91236371D02*
X177822671Y-91207800D01*
X177822671Y-91207800D02*
X178022671Y-91207800D01*
X178022671Y-91207800D02*
X178136957Y-91236371D01*
X178136957Y-91236371D02*
X178194100Y-91293514D01*
X178194100Y-91293514D02*
X178222671Y-91350657D01*
X178222671Y-91350657D02*
X178222671Y-91464943D01*
X178222671Y-91464943D02*
X178194100Y-91522086D01*
X178194100Y-91522086D02*
X178136957Y-91579228D01*
X178136957Y-91579228D02*
X178022671Y-91607800D01*
X178022671Y-91607800D02*
X177822671Y-91607800D01*
X177822671Y-91607800D02*
X177708385Y-91579228D01*
X177708385Y-91579228D02*
X177651242Y-91522086D01*
X177651242Y-91522086D02*
X177622671Y-91464943D01*
X177622671Y-90836372D02*
X177622671Y-90779229D01*
X177622671Y-90779229D02*
X177651242Y-90722086D01*
X177651242Y-90722086D02*
X177679814Y-90693515D01*
X177679814Y-90693515D02*
X177736957Y-90664943D01*
X177736957Y-90664943D02*
X177851242Y-90636372D01*
X177851242Y-90636372D02*
X177994100Y-90636372D01*
X177994100Y-90636372D02*
X178108385Y-90664943D01*
X178108385Y-90664943D02*
X178165528Y-90693515D01*
X178165528Y-90693515D02*
X178194100Y-90722086D01*
X178194100Y-90722086D02*
X178222671Y-90779229D01*
X178222671Y-90779229D02*
X178222671Y-90836372D01*
X178222671Y-90836372D02*
X178194100Y-90893515D01*
X178194100Y-90893515D02*
X178165528Y-90922086D01*
X178165528Y-90922086D02*
X178108385Y-90950657D01*
X178108385Y-90950657D02*
X177994100Y-90979229D01*
X177994100Y-90979229D02*
X177851242Y-90979229D01*
X177851242Y-90979229D02*
X177736957Y-90950657D01*
X177736957Y-90950657D02*
X177679814Y-90922086D01*
X177679814Y-90922086D02*
X177651242Y-90893515D01*
X177651242Y-90893515D02*
X177622671Y-90836372D01*
X177994100Y-89922085D02*
X177994100Y-89464943D01*
X178194100Y-88750657D02*
X178222671Y-88664943D01*
X178222671Y-88664943D02*
X178222671Y-88522085D01*
X178222671Y-88522085D02*
X178194100Y-88464943D01*
X178194100Y-88464943D02*
X178165528Y-88436371D01*
X178165528Y-88436371D02*
X178108385Y-88407800D01*
X178108385Y-88407800D02*
X178051242Y-88407800D01*
X178051242Y-88407800D02*
X177994100Y-88436371D01*
X177994100Y-88436371D02*
X177965528Y-88464943D01*
X177965528Y-88464943D02*
X177936957Y-88522085D01*
X177936957Y-88522085D02*
X177908385Y-88636371D01*
X177908385Y-88636371D02*
X177879814Y-88693514D01*
X177879814Y-88693514D02*
X177851242Y-88722085D01*
X177851242Y-88722085D02*
X177794100Y-88750657D01*
X177794100Y-88750657D02*
X177736957Y-88750657D01*
X177736957Y-88750657D02*
X177679814Y-88722085D01*
X177679814Y-88722085D02*
X177651242Y-88693514D01*
X177651242Y-88693514D02*
X177622671Y-88636371D01*
X177622671Y-88636371D02*
X177622671Y-88493514D01*
X177622671Y-88493514D02*
X177651242Y-88407800D01*
X177908385Y-88150656D02*
X177908385Y-87950656D01*
X178222671Y-87864942D02*
X178222671Y-88150656D01*
X178222671Y-88150656D02*
X177622671Y-88150656D01*
X177622671Y-88150656D02*
X177622671Y-87864942D01*
X178222671Y-87264942D02*
X177936957Y-87464942D01*
X178222671Y-87607799D02*
X177622671Y-87607799D01*
X177622671Y-87607799D02*
X177622671Y-87379228D01*
X177622671Y-87379228D02*
X177651242Y-87322085D01*
X177651242Y-87322085D02*
X177679814Y-87293514D01*
X177679814Y-87293514D02*
X177736957Y-87264942D01*
X177736957Y-87264942D02*
X177822671Y-87264942D01*
X177822671Y-87264942D02*
X177879814Y-87293514D01*
X177879814Y-87293514D02*
X177908385Y-87322085D01*
X177908385Y-87322085D02*
X177936957Y-87379228D01*
X177936957Y-87379228D02*
X177936957Y-87607799D01*
X177622671Y-87093514D02*
X178222671Y-86893514D01*
X178222671Y-86893514D02*
X177622671Y-86693514D01*
X177622671Y-86379228D02*
X177622671Y-86264942D01*
X177622671Y-86264942D02*
X177651242Y-86207799D01*
X177651242Y-86207799D02*
X177708385Y-86150656D01*
X177708385Y-86150656D02*
X177822671Y-86122085D01*
X177822671Y-86122085D02*
X178022671Y-86122085D01*
X178022671Y-86122085D02*
X178136957Y-86150656D01*
X178136957Y-86150656D02*
X178194100Y-86207799D01*
X178194100Y-86207799D02*
X178222671Y-86264942D01*
X178222671Y-86264942D02*
X178222671Y-86379228D01*
X178222671Y-86379228D02*
X178194100Y-86436371D01*
X178194100Y-86436371D02*
X178136957Y-86493513D01*
X178136957Y-86493513D02*
X178022671Y-86522085D01*
X178022671Y-86522085D02*
X177822671Y-86522085D01*
X177822671Y-86522085D02*
X177708385Y-86493513D01*
X177708385Y-86493513D02*
X177651242Y-86436371D01*
X177651242Y-86436371D02*
X177622671Y-86379228D01*
X178222671Y-85550657D02*
X178222671Y-85893514D01*
X178222671Y-85722085D02*
X177622671Y-85722085D01*
X177622671Y-85722085D02*
X177708385Y-85779228D01*
X177708385Y-85779228D02*
X177765528Y-85836371D01*
X177765528Y-85836371D02*
X177794100Y-85893514D01*
D10*
X167803884Y-114618477D02*
X168565789Y-114618477D01*
X168184836Y-114237524D02*
X168184836Y-114999429D01*
X169803884Y-114618477D02*
X170565789Y-114618477D01*
X167803884Y-112627580D02*
X167803884Y-113627580D01*
X167803884Y-113627580D02*
X168137217Y-112913295D01*
X168137217Y-112913295D02*
X168470550Y-113627580D01*
X168470550Y-113627580D02*
X168470550Y-112627580D01*
X169089598Y-112627580D02*
X168994360Y-112675200D01*
X168994360Y-112675200D02*
X168946741Y-112722819D01*
X168946741Y-112722819D02*
X168899122Y-112818057D01*
X168899122Y-112818057D02*
X168899122Y-113103771D01*
X168899122Y-113103771D02*
X168946741Y-113199009D01*
X168946741Y-113199009D02*
X168994360Y-113246628D01*
X168994360Y-113246628D02*
X169089598Y-113294247D01*
X169089598Y-113294247D02*
X169232455Y-113294247D01*
X169232455Y-113294247D02*
X169327693Y-113246628D01*
X169327693Y-113246628D02*
X169375312Y-113199009D01*
X169375312Y-113199009D02*
X169422931Y-113103771D01*
X169422931Y-113103771D02*
X169422931Y-112818057D01*
X169422931Y-112818057D02*
X169375312Y-112722819D01*
X169375312Y-112722819D02*
X169327693Y-112675200D01*
X169327693Y-112675200D02*
X169232455Y-112627580D01*
X169232455Y-112627580D02*
X169089598Y-112627580D01*
X169708646Y-113294247D02*
X170089598Y-113294247D01*
X169851503Y-113627580D02*
X169851503Y-112770438D01*
X169851503Y-112770438D02*
X169899122Y-112675200D01*
X169899122Y-112675200D02*
X169994360Y-112627580D01*
X169994360Y-112627580D02*
X170089598Y-112627580D01*
X170946741Y-112627580D02*
X170375313Y-112627580D01*
X170661027Y-112627580D02*
X170661027Y-113627580D01*
X170661027Y-113627580D02*
X170565789Y-113484723D01*
X170565789Y-113484723D02*
X170470551Y-113389485D01*
X170470551Y-113389485D02*
X170375313Y-113341866D01*
D12*
X177008385Y-111407800D02*
X177008385Y-111207800D01*
X177322671Y-111122086D02*
X177322671Y-111407800D01*
X177322671Y-111407800D02*
X176722671Y-111407800D01*
X176722671Y-111407800D02*
X176722671Y-111122086D01*
X177294100Y-110893515D02*
X177322671Y-110807801D01*
X177322671Y-110807801D02*
X177322671Y-110664943D01*
X177322671Y-110664943D02*
X177294100Y-110607801D01*
X177294100Y-110607801D02*
X177265528Y-110579229D01*
X177265528Y-110579229D02*
X177208385Y-110550658D01*
X177208385Y-110550658D02*
X177151242Y-110550658D01*
X177151242Y-110550658D02*
X177094100Y-110579229D01*
X177094100Y-110579229D02*
X177065528Y-110607801D01*
X177065528Y-110607801D02*
X177036957Y-110664943D01*
X177036957Y-110664943D02*
X177008385Y-110779229D01*
X177008385Y-110779229D02*
X176979814Y-110836372D01*
X176979814Y-110836372D02*
X176951242Y-110864943D01*
X176951242Y-110864943D02*
X176894100Y-110893515D01*
X176894100Y-110893515D02*
X176836957Y-110893515D01*
X176836957Y-110893515D02*
X176779814Y-110864943D01*
X176779814Y-110864943D02*
X176751242Y-110836372D01*
X176751242Y-110836372D02*
X176722671Y-110779229D01*
X176722671Y-110779229D02*
X176722671Y-110636372D01*
X176722671Y-110636372D02*
X176751242Y-110550658D01*
X177265528Y-109950657D02*
X177294100Y-109979229D01*
X177294100Y-109979229D02*
X177322671Y-110064943D01*
X177322671Y-110064943D02*
X177322671Y-110122086D01*
X177322671Y-110122086D02*
X177294100Y-110207800D01*
X177294100Y-110207800D02*
X177236957Y-110264943D01*
X177236957Y-110264943D02*
X177179814Y-110293514D01*
X177179814Y-110293514D02*
X177065528Y-110322086D01*
X177065528Y-110322086D02*
X176979814Y-110322086D01*
X176979814Y-110322086D02*
X176865528Y-110293514D01*
X176865528Y-110293514D02*
X176808385Y-110264943D01*
X176808385Y-110264943D02*
X176751242Y-110207800D01*
X176751242Y-110207800D02*
X176722671Y-110122086D01*
X176722671Y-110122086D02*
X176722671Y-110064943D01*
X176722671Y-110064943D02*
X176751242Y-109979229D01*
X176751242Y-109979229D02*
X176779814Y-109950657D01*
X176722671Y-109579229D02*
X176722671Y-109522086D01*
X176722671Y-109522086D02*
X176751242Y-109464943D01*
X176751242Y-109464943D02*
X176779814Y-109436372D01*
X176779814Y-109436372D02*
X176836957Y-109407800D01*
X176836957Y-109407800D02*
X176951242Y-109379229D01*
X176951242Y-109379229D02*
X177094100Y-109379229D01*
X177094100Y-109379229D02*
X177208385Y-109407800D01*
X177208385Y-109407800D02*
X177265528Y-109436372D01*
X177265528Y-109436372D02*
X177294100Y-109464943D01*
X177294100Y-109464943D02*
X177322671Y-109522086D01*
X177322671Y-109522086D02*
X177322671Y-109579229D01*
X177322671Y-109579229D02*
X177294100Y-109636372D01*
X177294100Y-109636372D02*
X177265528Y-109664943D01*
X177265528Y-109664943D02*
X177208385Y-109693514D01*
X177208385Y-109693514D02*
X177094100Y-109722086D01*
X177094100Y-109722086D02*
X176951242Y-109722086D01*
X176951242Y-109722086D02*
X176836957Y-109693514D01*
X176836957Y-109693514D02*
X176779814Y-109664943D01*
X176779814Y-109664943D02*
X176751242Y-109636372D01*
X176751242Y-109636372D02*
X176722671Y-109579229D01*
X177008385Y-108664942D02*
X177008385Y-108464942D01*
X177322671Y-108379228D02*
X177322671Y-108664942D01*
X177322671Y-108664942D02*
X176722671Y-108664942D01*
X176722671Y-108664942D02*
X176722671Y-108379228D01*
X177294100Y-108150657D02*
X177322671Y-108064943D01*
X177322671Y-108064943D02*
X177322671Y-107922085D01*
X177322671Y-107922085D02*
X177294100Y-107864943D01*
X177294100Y-107864943D02*
X177265528Y-107836371D01*
X177265528Y-107836371D02*
X177208385Y-107807800D01*
X177208385Y-107807800D02*
X177151242Y-107807800D01*
X177151242Y-107807800D02*
X177094100Y-107836371D01*
X177094100Y-107836371D02*
X177065528Y-107864943D01*
X177065528Y-107864943D02*
X177036957Y-107922085D01*
X177036957Y-107922085D02*
X177008385Y-108036371D01*
X177008385Y-108036371D02*
X176979814Y-108093514D01*
X176979814Y-108093514D02*
X176951242Y-108122085D01*
X176951242Y-108122085D02*
X176894100Y-108150657D01*
X176894100Y-108150657D02*
X176836957Y-108150657D01*
X176836957Y-108150657D02*
X176779814Y-108122085D01*
X176779814Y-108122085D02*
X176751242Y-108093514D01*
X176751242Y-108093514D02*
X176722671Y-108036371D01*
X176722671Y-108036371D02*
X176722671Y-107893514D01*
X176722671Y-107893514D02*
X176751242Y-107807800D01*
X177265528Y-107207799D02*
X177294100Y-107236371D01*
X177294100Y-107236371D02*
X177322671Y-107322085D01*
X177322671Y-107322085D02*
X177322671Y-107379228D01*
X177322671Y-107379228D02*
X177294100Y-107464942D01*
X177294100Y-107464942D02*
X177236957Y-107522085D01*
X177236957Y-107522085D02*
X177179814Y-107550656D01*
X177179814Y-107550656D02*
X177065528Y-107579228D01*
X177065528Y-107579228D02*
X176979814Y-107579228D01*
X176979814Y-107579228D02*
X176865528Y-107550656D01*
X176865528Y-107550656D02*
X176808385Y-107522085D01*
X176808385Y-107522085D02*
X176751242Y-107464942D01*
X176751242Y-107464942D02*
X176722671Y-107379228D01*
X176722671Y-107379228D02*
X176722671Y-107322085D01*
X176722671Y-107322085D02*
X176751242Y-107236371D01*
X176751242Y-107236371D02*
X176779814Y-107207799D01*
X177322671Y-106636371D02*
X177322671Y-106979228D01*
X177322671Y-106807799D02*
X176722671Y-106807799D01*
X176722671Y-106807799D02*
X176808385Y-106864942D01*
X176808385Y-106864942D02*
X176865528Y-106922085D01*
X176865528Y-106922085D02*
X176894100Y-106979228D01*
D10*
X169538972Y-105262475D02*
X169205639Y-106262475D01*
X169205639Y-106262475D02*
X168872306Y-105262475D01*
X168205639Y-105738665D02*
X168062782Y-105786284D01*
X168062782Y-105786284D02*
X168015163Y-105833903D01*
X168015163Y-105833903D02*
X167967544Y-105929141D01*
X167967544Y-105929141D02*
X167967544Y-106071998D01*
X167967544Y-106071998D02*
X168015163Y-106167236D01*
X168015163Y-106167236D02*
X168062782Y-106214856D01*
X168062782Y-106214856D02*
X168158020Y-106262475D01*
X168158020Y-106262475D02*
X168538972Y-106262475D01*
X168538972Y-106262475D02*
X168538972Y-105262475D01*
X168538972Y-105262475D02*
X168205639Y-105262475D01*
X168205639Y-105262475D02*
X168110401Y-105310094D01*
X168110401Y-105310094D02*
X168062782Y-105357713D01*
X168062782Y-105357713D02*
X168015163Y-105452951D01*
X168015163Y-105452951D02*
X168015163Y-105548189D01*
X168015163Y-105548189D02*
X168062782Y-105643427D01*
X168062782Y-105643427D02*
X168110401Y-105691046D01*
X168110401Y-105691046D02*
X168205639Y-105738665D01*
X168205639Y-105738665D02*
X168538972Y-105738665D01*
X167586591Y-105976760D02*
X167110401Y-105976760D01*
X167681829Y-106262475D02*
X167348496Y-105262475D01*
X167348496Y-105262475D02*
X167015163Y-106262475D01*
X166824686Y-105262475D02*
X166253258Y-105262475D01*
X166538972Y-106262475D02*
X166538972Y-105262475D01*
X166062781Y-105262475D02*
X165491353Y-105262475D01*
X165777067Y-106262475D02*
X165777067Y-105262475D01*
X168872306Y-106920038D02*
X168967544Y-106872419D01*
X168967544Y-106872419D02*
X169110401Y-106872419D01*
X169110401Y-106872419D02*
X169253258Y-106920038D01*
X169253258Y-106920038D02*
X169348496Y-107015276D01*
X169348496Y-107015276D02*
X169396115Y-107110514D01*
X169396115Y-107110514D02*
X169443734Y-107300990D01*
X169443734Y-107300990D02*
X169443734Y-107443847D01*
X169443734Y-107443847D02*
X169396115Y-107634323D01*
X169396115Y-107634323D02*
X169348496Y-107729561D01*
X169348496Y-107729561D02*
X169253258Y-107824800D01*
X169253258Y-107824800D02*
X169110401Y-107872419D01*
X169110401Y-107872419D02*
X169015163Y-107872419D01*
X169015163Y-107872419D02*
X168872306Y-107824800D01*
X168872306Y-107824800D02*
X168824687Y-107777180D01*
X168824687Y-107777180D02*
X168824687Y-107443847D01*
X168824687Y-107443847D02*
X169015163Y-107443847D01*
X168396115Y-107872419D02*
X168396115Y-106872419D01*
X168396115Y-106872419D02*
X167824687Y-107872419D01*
X167824687Y-107872419D02*
X167824687Y-106872419D01*
X167348496Y-107872419D02*
X167348496Y-106872419D01*
X167348496Y-106872419D02*
X167110401Y-106872419D01*
X167110401Y-106872419D02*
X166967544Y-106920038D01*
X166967544Y-106920038D02*
X166872306Y-107015276D01*
X166872306Y-107015276D02*
X166824687Y-107110514D01*
X166824687Y-107110514D02*
X166777068Y-107300990D01*
X166777068Y-107300990D02*
X166777068Y-107443847D01*
X166777068Y-107443847D02*
X166824687Y-107634323D01*
X166824687Y-107634323D02*
X166872306Y-107729561D01*
X166872306Y-107729561D02*
X166967544Y-107824800D01*
X166967544Y-107824800D02*
X167110401Y-107872419D01*
X167110401Y-107872419D02*
X167348496Y-107872419D01*
G36*
X173911827Y-99264444D02*
G01*
X173926238Y-99273646D01*
X173935193Y-99288251D01*
X173938511Y-99309916D01*
X173934313Y-99334510D01*
X173923490Y-99348262D01*
X173903575Y-99355360D01*
X173855835Y-99358764D01*
X173833304Y-99358764D01*
X173833304Y-99972302D01*
X173855835Y-99972302D01*
X173907233Y-99975625D01*
X173927581Y-99982377D01*
X173938390Y-99995718D01*
X173942602Y-100020113D01*
X173939330Y-100042826D01*
X173930696Y-100057543D01*
X173916506Y-100066610D01*
X173894792Y-100070000D01*
X173588756Y-100070000D01*
X173530015Y-100070000D01*
X173459116Y-100067532D01*
X173413878Y-100061451D01*
X173374359Y-100050059D01*
X173339384Y-100033668D01*
X173289273Y-99995720D01*
X173252677Y-99949405D01*
X173235636Y-99914057D01*
X173225386Y-99876333D01*
X173221903Y-99835587D01*
X173222258Y-99831618D01*
X173340788Y-99831618D01*
X173347187Y-99879038D01*
X173364791Y-99914002D01*
X173393422Y-99939696D01*
X173430454Y-99955915D01*
X173488247Y-99967654D01*
X173574406Y-99972302D01*
X173726081Y-99972302D01*
X173726081Y-99690935D01*
X173567568Y-99690935D01*
X173482773Y-99695562D01*
X173426545Y-99707190D01*
X173391041Y-99723175D01*
X173363900Y-99748480D01*
X173346992Y-99783498D01*
X173340788Y-99831618D01*
X173222258Y-99831618D01*
X173226217Y-99787415D01*
X173238376Y-99747293D01*
X173257807Y-99713649D01*
X173284537Y-99685188D01*
X173320447Y-99660221D01*
X173367411Y-99638911D01*
X173326765Y-99609066D01*
X173298473Y-99573148D01*
X173281239Y-99530558D01*
X173275721Y-99483817D01*
X173392690Y-99483817D01*
X173398247Y-99523870D01*
X173413805Y-99554584D01*
X173439523Y-99578278D01*
X173472333Y-99593957D01*
X173518856Y-99604746D01*
X173583321Y-99608869D01*
X173726081Y-99608869D01*
X173726081Y-99358764D01*
X173556638Y-99358764D01*
X173504630Y-99362903D01*
X173465013Y-99374076D01*
X173435066Y-99391065D01*
X173411799Y-99415296D01*
X173397692Y-99445573D01*
X173392690Y-99483817D01*
X173275721Y-99483817D01*
X173275209Y-99479481D01*
X173280320Y-99427599D01*
X173294794Y-99384305D01*
X173318158Y-99347836D01*
X173351046Y-99317060D01*
X173389680Y-99294217D01*
X173437923Y-99276697D01*
X173497791Y-99265235D01*
X173571659Y-99261067D01*
X173890701Y-99261067D01*
X173911827Y-99264444D01*
G37*
G36*
X172805296Y-99424885D02*
G01*
X172868847Y-99434740D01*
X172920019Y-99449684D01*
X172966653Y-99473194D01*
X172988943Y-99495975D01*
X172995490Y-99518988D01*
X172992068Y-99542494D01*
X172982484Y-99560326D01*
X172967694Y-99572368D01*
X172949694Y-99576324D01*
X172923748Y-99571176D01*
X172862927Y-99547686D01*
X172798151Y-99525625D01*
X172744042Y-99518988D01*
X172692544Y-99523812D01*
X172654746Y-99536723D01*
X172627294Y-99556418D01*
X172607465Y-99583795D01*
X172594510Y-99621299D01*
X172589680Y-99672189D01*
X172589680Y-99676952D01*
X172672356Y-99660893D01*
X172752285Y-99655764D01*
X172828678Y-99660104D01*
X172891631Y-99672130D01*
X172943321Y-99690676D01*
X172985598Y-99715054D01*
X173022018Y-99747827D01*
X173047530Y-99785780D01*
X173063126Y-99829923D01*
X173068579Y-99881933D01*
X173061370Y-99939568D01*
X173040649Y-99987883D01*
X173006114Y-100029089D01*
X172961439Y-100059811D01*
X172907504Y-100078869D01*
X172841800Y-100085631D01*
X172773232Y-100078994D01*
X172706184Y-100058948D01*
X172643171Y-100026485D01*
X172584246Y-99981461D01*
X172578750Y-100023960D01*
X172572308Y-100044312D01*
X172562386Y-100058154D01*
X172548582Y-100066953D01*
X172530940Y-100070000D01*
X172423717Y-100070000D01*
X172398744Y-100066537D01*
X172382745Y-100057482D01*
X172372765Y-100042578D01*
X172369068Y-100019930D01*
X172373557Y-99996138D01*
X172385493Y-99982377D01*
X172406080Y-99975216D01*
X172450340Y-99971936D01*
X172483801Y-99971936D01*
X172483801Y-99769214D01*
X172589680Y-99769214D01*
X172589680Y-99841999D01*
X172596391Y-99870842D01*
X172618846Y-99901379D01*
X172663808Y-99935300D01*
X172714756Y-99960246D01*
X172768101Y-99975109D01*
X172824703Y-99980118D01*
X172862862Y-99976572D01*
X172894659Y-99966561D01*
X172921362Y-99950504D01*
X172942707Y-99928540D01*
X172955076Y-99903744D01*
X172959281Y-99875033D01*
X172952793Y-99838888D01*
X172933365Y-99807955D01*
X172898464Y-99780694D01*
X172856396Y-99762301D01*
X172802054Y-99750133D01*
X172732440Y-99745645D01*
X172662465Y-99751385D01*
X172589680Y-99769214D01*
X172483801Y-99769214D01*
X172483801Y-99662847D01*
X172488228Y-99602957D01*
X172500504Y-99554206D01*
X172519620Y-99514536D01*
X172545289Y-99482351D01*
X172577642Y-99456895D01*
X172617560Y-99437905D01*
X172666658Y-99425696D01*
X172727006Y-99421290D01*
X172805296Y-99424885D01*
G37*
G36*
X171715657Y-99472093D02*
G01*
X171684910Y-99475489D01*
X171666809Y-99483878D01*
X171655564Y-99498427D01*
X171651421Y-99521308D01*
X171655255Y-99543138D01*
X171665771Y-99557700D01*
X171682507Y-99566418D01*
X171708818Y-99569790D01*
X171985484Y-99569790D01*
X171985484Y-99799623D01*
X171981117Y-99875594D01*
X171970512Y-99921992D01*
X171956481Y-99948244D01*
X171934444Y-99967016D01*
X171902491Y-99979355D01*
X171857013Y-99984026D01*
X171816170Y-99980555D01*
X171767104Y-99969108D01*
X171708147Y-99947817D01*
X171628626Y-99917633D01*
X171600863Y-99911608D01*
X171583198Y-99915029D01*
X171568440Y-99925286D01*
X171558492Y-99940370D01*
X171555129Y-99958747D01*
X171559259Y-99979704D01*
X171571859Y-99998009D01*
X171592236Y-100013193D01*
X171628890Y-100030493D01*
X171694629Y-100054228D01*
X171749485Y-100069450D01*
X171802468Y-100078774D01*
X171850235Y-100081723D01*
X171903087Y-100078562D01*
X171947394Y-100069728D01*
X171984508Y-100055956D01*
X172017966Y-100035728D01*
X172044682Y-100010337D01*
X172065413Y-99979324D01*
X172076886Y-99953723D01*
X172084891Y-99922294D01*
X172088973Y-99884840D01*
X172090692Y-99820628D01*
X172090692Y-99799317D01*
X172090692Y-99569790D01*
X172206769Y-99569790D01*
X172232937Y-99566536D01*
X172248473Y-99558372D01*
X172257828Y-99544372D01*
X172261418Y-99521308D01*
X172256567Y-99496508D01*
X172243649Y-99482473D01*
X172220745Y-99475435D01*
X172167873Y-99472093D01*
X172090692Y-99472093D01*
X172090692Y-99333913D01*
X172090692Y-99298131D01*
X172087155Y-99271746D01*
X172078053Y-99255389D01*
X172062826Y-99245324D01*
X172038790Y-99241528D01*
X172012222Y-99246199D01*
X171997086Y-99258381D01*
X171989261Y-99280820D01*
X171985484Y-99335256D01*
X171985484Y-99472093D01*
X171715657Y-99472093D01*
G37*
G36*
X170876439Y-99472093D02*
G01*
X170845692Y-99475489D01*
X170827590Y-99483878D01*
X170816345Y-99498427D01*
X170812203Y-99521308D01*
X170816037Y-99543138D01*
X170826552Y-99557700D01*
X170843288Y-99566418D01*
X170869600Y-99569790D01*
X171146266Y-99569790D01*
X171146266Y-99799623D01*
X171141899Y-99875594D01*
X171131293Y-99921992D01*
X171117262Y-99948244D01*
X171095226Y-99967016D01*
X171063272Y-99979355D01*
X171017794Y-99984026D01*
X170976952Y-99980555D01*
X170927885Y-99969108D01*
X170868928Y-99947817D01*
X170789408Y-99917633D01*
X170761645Y-99911608D01*
X170743980Y-99915029D01*
X170729221Y-99925286D01*
X170719273Y-99940370D01*
X170715910Y-99958747D01*
X170720040Y-99979704D01*
X170732641Y-99998009D01*
X170753017Y-100013193D01*
X170789672Y-100030493D01*
X170855411Y-100054228D01*
X170910266Y-100069450D01*
X170963249Y-100078774D01*
X171011017Y-100081723D01*
X171063868Y-100078562D01*
X171108175Y-100069728D01*
X171145289Y-100055956D01*
X171178747Y-100035728D01*
X171205464Y-100010337D01*
X171226195Y-99979324D01*
X171237667Y-99953723D01*
X171245673Y-99922294D01*
X171249754Y-99884840D01*
X171251474Y-99820628D01*
X171251474Y-99799317D01*
X171251474Y-99569790D01*
X171367550Y-99569790D01*
X171393719Y-99566536D01*
X171409255Y-99558372D01*
X171418610Y-99544372D01*
X171422199Y-99521308D01*
X171417349Y-99496508D01*
X171404431Y-99482473D01*
X171381526Y-99475435D01*
X171328654Y-99472093D01*
X171251474Y-99472093D01*
X171251474Y-99333913D01*
X171251474Y-99298131D01*
X171247936Y-99271746D01*
X171238834Y-99255389D01*
X171223608Y-99245324D01*
X171199572Y-99241528D01*
X171173004Y-99246199D01*
X171157868Y-99258381D01*
X171150042Y-99280820D01*
X171146266Y-99335256D01*
X171146266Y-99472093D01*
X170876439Y-99472093D01*
G37*
G36*
X170269434Y-99272791D02*
G01*
X170385572Y-99272791D01*
X170445647Y-99269285D01*
X170468614Y-99262288D01*
X170480757Y-99248349D01*
X170485345Y-99223942D01*
X170481590Y-99201907D01*
X170471362Y-99187306D01*
X170455124Y-99178441D01*
X170430696Y-99175094D01*
X170205259Y-99175094D01*
X170188170Y-99177159D01*
X170176561Y-99182604D01*
X170168880Y-99191449D01*
X170166303Y-99203060D01*
X170166303Y-99972302D01*
X169951796Y-99972302D01*
X169928223Y-99975513D01*
X169913939Y-99983721D01*
X169905302Y-99997535D01*
X169901971Y-100020113D01*
X169905351Y-100045623D01*
X169913572Y-100059253D01*
X169928252Y-100066772D01*
X169957292Y-100070000D01*
X170461409Y-100070000D01*
X170485815Y-100066593D01*
X170502076Y-100057543D01*
X170512295Y-100042626D01*
X170516058Y-100020113D01*
X170512211Y-99998348D01*
X170501709Y-99984087D01*
X170485003Y-99975598D01*
X170458661Y-99972302D01*
X170269434Y-99972302D01*
X170269434Y-99272791D01*
G37*
G36*
X169455588Y-99427590D02*
G01*
X169523682Y-99445580D01*
X169583090Y-99474544D01*
X169635197Y-99514652D01*
X169678189Y-99564421D01*
X169708822Y-99620717D01*
X169727669Y-99684832D01*
X169734237Y-99758590D01*
X169727960Y-99831249D01*
X169710027Y-99893899D01*
X169681049Y-99948389D01*
X169640631Y-99996055D01*
X169591376Y-100034359D01*
X169534462Y-100062157D01*
X169468421Y-100079520D01*
X169391320Y-100085631D01*
X169319702Y-100081204D01*
X169246851Y-100067740D01*
X169175319Y-100045946D01*
X169105739Y-100016144D01*
X169077181Y-99999155D01*
X169060005Y-99983904D01*
X169049152Y-99966362D01*
X169045655Y-99947634D01*
X169049088Y-99930033D01*
X169059333Y-99915577D01*
X169074486Y-99905895D01*
X169093466Y-99902571D01*
X169121274Y-99909422D01*
X169207527Y-99945252D01*
X169271519Y-99969825D01*
X169329241Y-99983584D01*
X169381734Y-99987934D01*
X169450450Y-99981426D01*
X169505138Y-99963390D01*
X169548796Y-99934933D01*
X169582613Y-99895861D01*
X169604921Y-99846710D01*
X169615352Y-99784724D01*
X169156297Y-99784724D01*
X169146039Y-99784724D01*
X169082098Y-99780359D01*
X169058967Y-99771779D01*
X169047631Y-99754578D01*
X169042908Y-99720488D01*
X169045460Y-99694842D01*
X169167227Y-99694842D01*
X169611933Y-99694842D01*
X169593591Y-99642850D01*
X169566378Y-99600284D01*
X169529989Y-99565638D01*
X169486435Y-99540190D01*
X169435989Y-99524489D01*
X169376971Y-99518988D01*
X169322721Y-99524606D01*
X169276014Y-99540759D01*
X169235249Y-99567287D01*
X169202158Y-99602731D01*
X169179612Y-99644742D01*
X169167227Y-99694842D01*
X169045460Y-99694842D01*
X169048884Y-99660432D01*
X169066414Y-99605906D01*
X169095676Y-99555627D01*
X169137857Y-99508729D01*
X169187740Y-99470884D01*
X169243416Y-99443775D01*
X169306000Y-99427087D01*
X169376971Y-99421290D01*
X169455588Y-99427590D01*
G37*
G36*
X168876517Y-99264444D02*
G01*
X168890928Y-99273646D01*
X168899882Y-99288251D01*
X168903201Y-99309916D01*
X168899002Y-99334510D01*
X168888180Y-99348262D01*
X168868265Y-99355360D01*
X168820525Y-99358764D01*
X168797993Y-99358764D01*
X168797993Y-99972302D01*
X168820525Y-99972302D01*
X168871923Y-99975625D01*
X168892271Y-99982377D01*
X168903079Y-99995718D01*
X168907292Y-100020113D01*
X168904020Y-100042826D01*
X168895385Y-100057543D01*
X168881196Y-100066610D01*
X168859481Y-100070000D01*
X168553445Y-100070000D01*
X168494705Y-100070000D01*
X168423806Y-100067532D01*
X168378567Y-100061451D01*
X168339048Y-100050059D01*
X168304073Y-100033668D01*
X168253962Y-99995720D01*
X168217367Y-99949405D01*
X168200325Y-99914057D01*
X168190076Y-99876333D01*
X168186592Y-99835587D01*
X168186947Y-99831618D01*
X168305478Y-99831618D01*
X168311877Y-99879038D01*
X168329481Y-99914002D01*
X168358112Y-99939696D01*
X168395143Y-99955915D01*
X168452936Y-99967654D01*
X168539096Y-99972302D01*
X168690771Y-99972302D01*
X168690771Y-99690935D01*
X168532257Y-99690935D01*
X168447462Y-99695562D01*
X168391234Y-99707190D01*
X168355730Y-99723175D01*
X168328590Y-99748480D01*
X168311681Y-99783498D01*
X168305478Y-99831618D01*
X168186947Y-99831618D01*
X168190906Y-99787415D01*
X168203066Y-99747293D01*
X168222496Y-99713649D01*
X168249226Y-99685188D01*
X168285137Y-99660221D01*
X168332100Y-99638911D01*
X168291455Y-99609066D01*
X168263162Y-99573148D01*
X168245929Y-99530558D01*
X168240410Y-99483817D01*
X168357379Y-99483817D01*
X168362936Y-99523870D01*
X168378494Y-99554584D01*
X168404213Y-99578278D01*
X168437023Y-99593957D01*
X168483546Y-99604746D01*
X168548011Y-99608869D01*
X168690771Y-99608869D01*
X168690771Y-99358764D01*
X168521327Y-99358764D01*
X168469319Y-99362903D01*
X168429702Y-99374076D01*
X168399755Y-99391065D01*
X168376488Y-99415296D01*
X168362382Y-99445573D01*
X168357379Y-99483817D01*
X168240410Y-99483817D01*
X168239898Y-99479481D01*
X168245009Y-99427599D01*
X168259484Y-99384305D01*
X168282848Y-99347836D01*
X168315736Y-99317060D01*
X168354369Y-99294217D01*
X168402612Y-99276697D01*
X168462480Y-99265235D01*
X168536348Y-99261067D01*
X168855390Y-99261067D01*
X168876517Y-99264444D01*
G37*
G36*
X167784355Y-99431411D02*
G01*
X167852382Y-99449172D01*
X167911903Y-99477783D01*
X167964270Y-99517400D01*
X168007794Y-99566664D01*
X168038602Y-99621811D01*
X168057445Y-99684034D01*
X168063982Y-99755048D01*
X168057450Y-99826092D01*
X168038612Y-99888403D01*
X168007802Y-99943684D01*
X167964270Y-99993124D01*
X167911885Y-100032884D01*
X167852357Y-100061587D01*
X167784337Y-100079400D01*
X167706045Y-100085631D01*
X167627355Y-100079389D01*
X167559108Y-100061557D01*
X167499496Y-100032851D01*
X167447147Y-99993124D01*
X167403586Y-99943681D01*
X167372758Y-99888398D01*
X167353910Y-99826088D01*
X167347470Y-99756086D01*
X167466259Y-99756086D01*
X167470675Y-99805573D01*
X167483414Y-99849121D01*
X167504224Y-99887860D01*
X167533548Y-99922599D01*
X167569074Y-99950870D01*
X167609040Y-99971112D01*
X167654308Y-99983590D01*
X167706045Y-99987934D01*
X167757774Y-99983607D01*
X167802974Y-99971187D01*
X167842818Y-99951056D01*
X167878175Y-99922965D01*
X167907282Y-99888402D01*
X167927985Y-99849676D01*
X167940686Y-99805958D01*
X167945097Y-99756086D01*
X167940691Y-99706607D01*
X167927965Y-99662936D01*
X167907153Y-99623965D01*
X167877808Y-99588902D01*
X167842235Y-99560280D01*
X167802362Y-99539839D01*
X167757349Y-99527266D01*
X167706045Y-99522896D01*
X167654712Y-99527263D01*
X167609622Y-99539831D01*
X167569635Y-99560273D01*
X167533914Y-99588902D01*
X167504394Y-99623987D01*
X167483472Y-99662966D01*
X167470685Y-99706628D01*
X167466259Y-99756086D01*
X167347470Y-99756086D01*
X167347374Y-99755048D01*
X167353914Y-99684418D01*
X167372792Y-99622355D01*
X167403708Y-99567174D01*
X167447452Y-99517705D01*
X167499985Y-99477938D01*
X167559628Y-99449234D01*
X167627725Y-99431425D01*
X167706045Y-99425198D01*
X167784355Y-99431411D01*
G37*
G36*
X166680347Y-99472093D02*
G01*
X166649599Y-99475489D01*
X166631498Y-99483878D01*
X166620253Y-99498427D01*
X166616111Y-99521308D01*
X166619945Y-99543138D01*
X166630460Y-99557700D01*
X166647196Y-99566418D01*
X166673508Y-99569790D01*
X166950174Y-99569790D01*
X166950174Y-99799623D01*
X166945807Y-99875594D01*
X166935201Y-99921992D01*
X166921170Y-99948244D01*
X166899134Y-99967016D01*
X166867180Y-99979355D01*
X166821702Y-99984026D01*
X166780860Y-99980555D01*
X166731793Y-99969108D01*
X166672836Y-99947817D01*
X166593315Y-99917633D01*
X166565553Y-99911608D01*
X166547888Y-99915029D01*
X166533129Y-99925286D01*
X166523181Y-99940370D01*
X166519818Y-99958747D01*
X166523948Y-99979704D01*
X166536549Y-99998009D01*
X166556925Y-100013193D01*
X166593579Y-100030493D01*
X166659319Y-100054228D01*
X166714174Y-100069450D01*
X166767157Y-100078774D01*
X166814924Y-100081723D01*
X166867776Y-100078562D01*
X166912083Y-100069728D01*
X166949197Y-100055956D01*
X166982655Y-100035728D01*
X167009372Y-100010337D01*
X167030102Y-99979324D01*
X167041575Y-99953723D01*
X167049581Y-99922294D01*
X167053662Y-99884840D01*
X167055382Y-99820628D01*
X167055382Y-99799317D01*
X167055382Y-99569790D01*
X167171458Y-99569790D01*
X167197627Y-99566536D01*
X167213162Y-99558372D01*
X167222518Y-99544372D01*
X167226107Y-99521308D01*
X167221256Y-99496508D01*
X167208339Y-99482473D01*
X167185434Y-99475435D01*
X167132562Y-99472093D01*
X167055382Y-99472093D01*
X167055382Y-99333913D01*
X167055382Y-99298131D01*
X167051844Y-99271746D01*
X167042742Y-99255389D01*
X167027516Y-99245324D01*
X167003480Y-99241528D01*
X166976911Y-99246199D01*
X166961775Y-99258381D01*
X166953950Y-99280820D01*
X166950174Y-99335256D01*
X166950174Y-99472093D01*
X166680347Y-99472093D01*
G37*
G36*
X165541425Y-99264309D02*
G01*
X165555547Y-99272913D01*
X165564246Y-99286864D01*
X165567515Y-99308328D01*
X165563321Y-99332091D01*
X165552494Y-99345148D01*
X165532808Y-99351715D01*
X165486243Y-99354856D01*
X165446615Y-99354856D01*
X165446615Y-99972302D01*
X165486243Y-99972302D01*
X165508775Y-99972302D01*
X165537506Y-99975529D01*
X165553899Y-99983415D01*
X165563753Y-99997184D01*
X165567515Y-100020113D01*
X165564190Y-100042254D01*
X165555242Y-100057177D01*
X165540808Y-100066566D01*
X165519705Y-100070000D01*
X165290177Y-100070000D01*
X165254099Y-100066624D01*
X165236200Y-100058948D01*
X165225863Y-100044787D01*
X165221851Y-100020113D01*
X165226252Y-99997473D01*
X165238276Y-99983415D01*
X165257900Y-99975622D01*
X165294269Y-99972302D01*
X165340736Y-99972302D01*
X165340736Y-99718290D01*
X165249877Y-99718290D01*
X165209668Y-99723106D01*
X165180573Y-99736120D01*
X165154306Y-99760543D01*
X165113895Y-99814766D01*
X164982737Y-100013885D01*
X164976631Y-100020724D01*
X164952596Y-100050521D01*
X164931132Y-100065509D01*
X164911051Y-100070000D01*
X164833871Y-100070000D01*
X164812787Y-100066548D01*
X164798700Y-100057177D01*
X164789984Y-100042283D01*
X164786732Y-100020113D01*
X164790704Y-99996731D01*
X164801081Y-99983049D01*
X164818742Y-99975567D01*
X164853654Y-99972302D01*
X164876186Y-99972302D01*
X165013511Y-99762620D01*
X165040500Y-99729952D01*
X165072252Y-99706139D01*
X165017390Y-99687024D01*
X164973228Y-99661002D01*
X164938040Y-99628225D01*
X164911377Y-99588526D01*
X164895367Y-99544188D01*
X164889863Y-99493831D01*
X164890043Y-99492304D01*
X165007344Y-99492304D01*
X165013058Y-99534968D01*
X165029092Y-99568165D01*
X165055521Y-99594214D01*
X165089479Y-99611951D01*
X165136156Y-99623904D01*
X165199319Y-99628408D01*
X165340736Y-99628408D01*
X165340736Y-99354856D01*
X165195228Y-99354856D01*
X165133488Y-99359395D01*
X165087800Y-99371456D01*
X165054483Y-99389417D01*
X165028708Y-99415585D01*
X165012972Y-99449091D01*
X165007344Y-99492304D01*
X164890043Y-99492304D01*
X164896474Y-99437710D01*
X164916181Y-99385631D01*
X164947456Y-99340036D01*
X164988232Y-99304603D01*
X165026656Y-99284724D01*
X165075366Y-99270959D01*
X165133537Y-99263984D01*
X165231437Y-99261067D01*
X165519705Y-99261067D01*
X165541425Y-99264309D01*
G37*
G36*
X164420278Y-99427590D02*
G01*
X164488372Y-99445580D01*
X164547779Y-99474544D01*
X164599886Y-99514652D01*
X164642879Y-99564421D01*
X164673511Y-99620717D01*
X164692359Y-99684832D01*
X164698927Y-99758590D01*
X164692650Y-99831249D01*
X164674717Y-99893899D01*
X164645739Y-99948389D01*
X164605321Y-99996055D01*
X164556066Y-100034359D01*
X164499151Y-100062157D01*
X164433111Y-100079520D01*
X164356010Y-100085631D01*
X164284392Y-100081204D01*
X164211540Y-100067740D01*
X164140008Y-100045946D01*
X164070429Y-100016144D01*
X164041871Y-99999155D01*
X164024694Y-99983904D01*
X164013842Y-99966362D01*
X164010345Y-99947634D01*
X164013777Y-99930033D01*
X164024023Y-99915577D01*
X164039176Y-99905895D01*
X164058155Y-99902571D01*
X164085964Y-99909422D01*
X164172217Y-99945252D01*
X164236208Y-99969825D01*
X164293930Y-99983584D01*
X164346423Y-99987934D01*
X164415140Y-99981426D01*
X164469828Y-99963390D01*
X164513485Y-99934933D01*
X164547302Y-99895861D01*
X164569611Y-99846710D01*
X164580041Y-99784724D01*
X164120987Y-99784724D01*
X164110729Y-99784724D01*
X164046787Y-99780359D01*
X164023656Y-99771779D01*
X164012320Y-99754578D01*
X164007597Y-99720488D01*
X164010149Y-99694842D01*
X164131917Y-99694842D01*
X164576622Y-99694842D01*
X164558281Y-99642850D01*
X164531067Y-99600284D01*
X164494678Y-99565638D01*
X164451124Y-99540190D01*
X164400679Y-99524489D01*
X164341660Y-99518988D01*
X164287411Y-99524606D01*
X164240704Y-99540759D01*
X164199938Y-99567287D01*
X164166847Y-99602731D01*
X164144301Y-99644742D01*
X164131917Y-99694842D01*
X164010149Y-99694842D01*
X164013573Y-99660432D01*
X164031103Y-99605906D01*
X164060365Y-99555627D01*
X164102547Y-99508729D01*
X164152429Y-99470884D01*
X164208106Y-99443775D01*
X164270689Y-99427087D01*
X164341660Y-99421290D01*
X164420278Y-99427590D01*
G37*
G36*
X163304300Y-99478504D02*
G01*
X163304300Y-99475757D01*
X163300810Y-99456027D01*
X163291355Y-99443394D01*
X163276091Y-99435963D01*
X163251055Y-99433014D01*
X163226444Y-99437539D01*
X163212465Y-99449439D01*
X163205216Y-99470368D01*
X163201840Y-99517095D01*
X163201840Y-99644284D01*
X163205384Y-99667232D01*
X163214846Y-99682203D01*
X163230128Y-99691371D01*
X163253803Y-99694842D01*
X163271116Y-99692119D01*
X163285554Y-99684157D01*
X163298611Y-99670008D01*
X163317978Y-99639766D01*
X163355103Y-99589894D01*
X163397601Y-99555380D01*
X163447189Y-99534134D01*
X163505190Y-99526803D01*
X163557831Y-99531015D01*
X163603476Y-99543047D01*
X163643345Y-99562427D01*
X163678358Y-99589269D01*
X163707340Y-99622569D01*
X163727915Y-99659979D01*
X163740530Y-99702324D01*
X163744914Y-99750774D01*
X163740672Y-99800410D01*
X163728490Y-99843782D01*
X163708711Y-99882034D01*
X163681045Y-99916004D01*
X163647200Y-99943808D01*
X163609147Y-99963657D01*
X163566057Y-99975869D01*
X163516791Y-99980118D01*
X163471806Y-99976914D01*
X163429658Y-99967479D01*
X163389593Y-99951756D01*
X163351439Y-99929560D01*
X163316634Y-99904281D01*
X163273243Y-99875240D01*
X163246964Y-99868072D01*
X163227481Y-99871502D01*
X163212465Y-99881383D01*
X163202584Y-99896400D01*
X163199153Y-99915882D01*
X163203831Y-99939162D01*
X163219392Y-99964708D01*
X163249902Y-99993913D01*
X163301308Y-100027745D01*
X163371208Y-100060061D01*
X163443147Y-100079216D01*
X163518135Y-100085631D01*
X163590824Y-100079407D01*
X163655270Y-100061422D01*
X163712998Y-100032041D01*
X163765125Y-99990743D01*
X163808414Y-99940157D01*
X163838900Y-99884592D01*
X163857419Y-99822987D01*
X163863799Y-99753827D01*
X163857439Y-99684620D01*
X163838974Y-99622932D01*
X163808579Y-99567259D01*
X163765430Y-99516545D01*
X163713452Y-99475053D01*
X163655943Y-99445566D01*
X163591792Y-99427529D01*
X163519478Y-99421290D01*
X163467754Y-99424752D01*
X163415369Y-99435273D01*
X163362878Y-99452495D01*
X163304300Y-99478504D01*
G37*
G36*
X162741841Y-99427590D02*
G01*
X162809935Y-99445580D01*
X162869342Y-99474544D01*
X162921449Y-99514652D01*
X162964442Y-99564421D01*
X162995074Y-99620717D01*
X163013922Y-99684832D01*
X163020490Y-99758590D01*
X163014213Y-99831249D01*
X162996280Y-99893899D01*
X162967302Y-99948389D01*
X162926884Y-99996055D01*
X162877629Y-100034359D01*
X162820714Y-100062157D01*
X162754674Y-100079520D01*
X162677573Y-100085631D01*
X162605955Y-100081204D01*
X162533103Y-100067740D01*
X162461571Y-100045946D01*
X162391992Y-100016144D01*
X162363434Y-99999155D01*
X162346257Y-99983904D01*
X162335405Y-99966362D01*
X162331908Y-99947634D01*
X162335341Y-99930033D01*
X162345586Y-99915577D01*
X162360739Y-99905895D01*
X162379719Y-99902571D01*
X162407527Y-99909422D01*
X162493780Y-99945252D01*
X162557772Y-99969825D01*
X162615494Y-99983584D01*
X162667986Y-99987934D01*
X162736703Y-99981426D01*
X162791391Y-99963390D01*
X162835048Y-99934933D01*
X162868865Y-99895861D01*
X162891174Y-99846710D01*
X162901605Y-99784724D01*
X162442550Y-99784724D01*
X162432292Y-99784724D01*
X162368350Y-99780359D01*
X162345219Y-99771779D01*
X162333883Y-99754578D01*
X162329160Y-99720488D01*
X162331712Y-99694842D01*
X162453480Y-99694842D01*
X162898185Y-99694842D01*
X162879844Y-99642850D01*
X162852631Y-99600284D01*
X162816242Y-99565638D01*
X162772687Y-99540190D01*
X162722242Y-99524489D01*
X162663224Y-99518988D01*
X162608974Y-99524606D01*
X162562267Y-99540759D01*
X162521502Y-99567287D01*
X162488411Y-99602731D01*
X162465865Y-99644742D01*
X162453480Y-99694842D01*
X162331712Y-99694842D01*
X162335136Y-99660432D01*
X162352666Y-99605906D01*
X162381928Y-99555627D01*
X162424110Y-99508729D01*
X162473992Y-99470884D01*
X162529669Y-99443775D01*
X162592252Y-99427087D01*
X162663224Y-99421290D01*
X162741841Y-99427590D01*
G37*
G36*
X161894347Y-99240734D02*
G01*
X161889943Y-99173641D01*
X161881036Y-99147433D01*
X161862541Y-99133879D01*
X161824005Y-99128199D01*
X161786206Y-99133037D01*
X161768012Y-99144319D01*
X161758777Y-99166377D01*
X161754335Y-99220828D01*
X161758519Y-99273847D01*
X161766974Y-99293918D01*
X161784331Y-99303583D01*
X161824005Y-99307962D01*
X161863325Y-99303913D01*
X161881036Y-99294956D01*
X161890263Y-99277707D01*
X161894347Y-99240734D01*
G37*
G36*
X161767951Y-99972302D02*
G01*
X161548682Y-99972302D01*
X161524400Y-99975507D01*
X161509420Y-99983721D01*
X161500273Y-99997604D01*
X161496781Y-100020113D01*
X161500253Y-100045581D01*
X161508749Y-100059253D01*
X161523729Y-100066788D01*
X161552773Y-100070000D01*
X162082903Y-100070000D01*
X162107838Y-100066557D01*
X162123874Y-100057543D01*
X162133859Y-100042655D01*
X162137552Y-100020113D01*
X162133705Y-99998348D01*
X162123203Y-99984087D01*
X162106496Y-99975598D01*
X162080155Y-99972302D01*
X161871816Y-99972302D01*
X161871816Y-99534619D01*
X162004989Y-99534619D01*
X162030710Y-99531131D01*
X162047732Y-99521919D01*
X162058513Y-99506850D01*
X162062386Y-99485099D01*
X162058707Y-99463332D01*
X162048709Y-99448951D01*
X162032714Y-99440260D01*
X162007737Y-99436922D01*
X161807580Y-99436922D01*
X161790445Y-99438976D01*
X161778576Y-99444433D01*
X161770607Y-99453317D01*
X161767951Y-99464949D01*
X161767951Y-99972302D01*
G37*
G36*
X161305172Y-99534619D02*
G01*
X161346412Y-99531245D01*
X161366966Y-99523628D01*
X161379145Y-99509294D01*
X161383696Y-99485099D01*
X161380031Y-99463326D01*
X161370080Y-99448951D01*
X161354078Y-99440262D01*
X161329047Y-99436922D01*
X161137805Y-99436922D01*
X161102494Y-99440233D01*
X161085903Y-99447608D01*
X161076577Y-99461112D01*
X161072897Y-99485099D01*
X161077530Y-99509255D01*
X161089994Y-99523628D01*
X161110895Y-99531243D01*
X161152826Y-99534619D01*
X161178105Y-99534619D01*
X161000479Y-99977065D01*
X160803070Y-99534619D01*
X160844042Y-99534619D01*
X160892239Y-99531293D01*
X160915116Y-99523995D01*
X160928581Y-99509677D01*
X160933557Y-99485099D01*
X160929891Y-99461105D01*
X160920612Y-99447608D01*
X160903969Y-99440231D01*
X160868649Y-99436922D01*
X160657562Y-99436922D01*
X160632585Y-99440260D01*
X160616591Y-99448951D01*
X160606592Y-99463332D01*
X160602913Y-99485099D01*
X160607464Y-99509294D01*
X160619644Y-99523628D01*
X160640204Y-99531244D01*
X160681498Y-99534619D01*
X160693771Y-99534619D01*
X160919207Y-100033241D01*
X160937793Y-100066545D01*
X160953035Y-100082151D01*
X160972117Y-100090266D01*
X161001823Y-100093447D01*
X161029145Y-100090407D01*
X161047313Y-100082517D01*
X161061884Y-100067199D01*
X161080408Y-100033241D01*
X161305172Y-99534619D01*
G37*
G36*
X160224185Y-99427590D02*
G01*
X160292280Y-99445580D01*
X160351687Y-99474544D01*
X160403794Y-99514652D01*
X160446787Y-99564421D01*
X160477419Y-99620717D01*
X160496267Y-99684832D01*
X160502834Y-99758590D01*
X160496557Y-99831249D01*
X160478625Y-99893899D01*
X160449647Y-99948389D01*
X160409228Y-99996055D01*
X160359974Y-100034359D01*
X160303059Y-100062157D01*
X160237019Y-100079520D01*
X160159918Y-100085631D01*
X160088300Y-100081204D01*
X160015448Y-100067740D01*
X159943916Y-100045946D01*
X159874337Y-100016144D01*
X159845779Y-99999155D01*
X159828602Y-99983904D01*
X159817749Y-99966362D01*
X159814253Y-99947634D01*
X159817685Y-99930033D01*
X159827930Y-99915577D01*
X159843084Y-99905895D01*
X159862063Y-99902571D01*
X159889872Y-99909422D01*
X159976125Y-99945252D01*
X160040116Y-99969825D01*
X160097838Y-99983584D01*
X160150331Y-99987934D01*
X160219048Y-99981426D01*
X160273736Y-99963390D01*
X160317393Y-99934933D01*
X160351210Y-99895861D01*
X160373519Y-99846710D01*
X160383949Y-99784724D01*
X159924895Y-99784724D01*
X159914637Y-99784724D01*
X159850695Y-99780359D01*
X159827564Y-99771779D01*
X159816228Y-99754578D01*
X159811505Y-99720488D01*
X159814057Y-99694842D01*
X159935825Y-99694842D01*
X160380530Y-99694842D01*
X160362189Y-99642850D01*
X160334975Y-99600284D01*
X160298586Y-99565638D01*
X160255032Y-99540190D01*
X160204587Y-99524489D01*
X160145568Y-99518988D01*
X160091319Y-99524606D01*
X160044612Y-99540759D01*
X160003846Y-99567287D01*
X159970755Y-99602731D01*
X159948209Y-99644742D01*
X159935825Y-99694842D01*
X159814057Y-99694842D01*
X159817481Y-99660432D01*
X159835011Y-99605906D01*
X159864273Y-99555627D01*
X159906454Y-99508729D01*
X159956337Y-99470884D01*
X160012013Y-99443775D01*
X160074597Y-99427087D01*
X160145568Y-99421290D01*
X160224185Y-99427590D01*
G37*
G36*
X159380783Y-99972302D02*
G01*
X159154003Y-99972302D01*
X159129721Y-99975507D01*
X159114741Y-99983721D01*
X159105594Y-99997604D01*
X159102102Y-100020113D01*
X159105574Y-100045581D01*
X159114070Y-100059253D01*
X159129005Y-100066784D01*
X159158094Y-100070000D01*
X159604876Y-100070000D01*
X159629222Y-100066579D01*
X159645176Y-100057543D01*
X159655161Y-100042655D01*
X159658853Y-100020113D01*
X159655090Y-99998313D01*
X159644870Y-99984087D01*
X159628342Y-99975630D01*
X159601456Y-99972302D01*
X159482571Y-99972302D01*
X159482571Y-99534619D01*
X159529038Y-99534619D01*
X159589012Y-99531064D01*
X159611714Y-99523995D01*
X159623564Y-99509899D01*
X159628079Y-99485099D01*
X159624484Y-99463297D01*
X159614767Y-99448951D01*
X159599074Y-99440276D01*
X159574101Y-99436922D01*
X159418335Y-99436922D01*
X159401334Y-99438952D01*
X159390369Y-99444188D01*
X159383267Y-99452837D01*
X159380783Y-99465132D01*
X159380783Y-99582124D01*
X159334905Y-99530445D01*
X159289902Y-99490585D01*
X159245533Y-99460980D01*
X159197357Y-99438909D01*
X159147041Y-99425732D01*
X159093859Y-99421290D01*
X159036992Y-99427933D01*
X158995551Y-99445898D01*
X158974067Y-99464552D01*
X158961981Y-99485377D01*
X158957937Y-99509340D01*
X158962553Y-99532919D01*
X158976744Y-99554036D01*
X158996936Y-99568871D01*
X159018082Y-99573515D01*
X159035809Y-99569576D01*
X159071022Y-99552693D01*
X159107870Y-99536582D01*
X159137578Y-99531871D01*
X159172141Y-99535722D01*
X159209316Y-99547887D01*
X159249991Y-99569790D01*
X159308453Y-99615226D01*
X159380783Y-99689591D01*
X159380783Y-99972302D01*
G37*
G36*
X173579169Y-101414410D02*
G01*
X173432318Y-100987473D01*
X173420467Y-100965663D01*
X173406001Y-100951997D01*
X173387030Y-100944136D01*
X173357885Y-100941067D01*
X173245839Y-100941067D01*
X173226030Y-100944333D01*
X173212744Y-100953218D01*
X173204518Y-100967326D01*
X173201448Y-100988328D01*
X173205362Y-101011679D01*
X173215430Y-101024781D01*
X173232687Y-101031783D01*
X173267027Y-101034856D01*
X173277957Y-101034856D01*
X173258845Y-101652302D01*
X173243091Y-101652302D01*
X173202606Y-101655457D01*
X173183679Y-101662377D01*
X173172870Y-101675718D01*
X173168658Y-101700113D01*
X173171997Y-101722249D01*
X173180992Y-101737177D01*
X173195375Y-101746564D01*
X173216468Y-101750000D01*
X173408443Y-101750000D01*
X173444468Y-101746626D01*
X173462360Y-101738948D01*
X173472697Y-101724787D01*
X173476709Y-101700113D01*
X173472085Y-101676451D01*
X173459673Y-101662683D01*
X173438459Y-101655540D01*
X173394094Y-101652302D01*
X173364724Y-101652302D01*
X173379073Y-101067280D01*
X173514323Y-101460083D01*
X173526608Y-101485624D01*
X173539602Y-101499712D01*
X173556955Y-101507549D01*
X173584665Y-101510642D01*
X173611160Y-101507508D01*
X173628384Y-101499406D01*
X173641301Y-101485096D01*
X173652991Y-101460083D01*
X173790256Y-101067280D01*
X173802590Y-101652302D01*
X173756795Y-101652302D01*
X173719832Y-101655636D01*
X173700130Y-101663415D01*
X173688106Y-101677473D01*
X173683705Y-101700113D01*
X173687718Y-101724787D01*
X173698054Y-101738948D01*
X173716030Y-101746611D01*
X173752704Y-101750000D01*
X173944007Y-101750000D01*
X173965668Y-101746613D01*
X173979849Y-101737543D01*
X173988531Y-101722820D01*
X173991817Y-101700113D01*
X173987605Y-101675718D01*
X173976796Y-101662377D01*
X173957817Y-101655455D01*
X173917323Y-101652302D01*
X173902302Y-101652302D01*
X173882519Y-101034856D01*
X173893449Y-101034856D01*
X173927788Y-101031797D01*
X173945350Y-101024781D01*
X173955699Y-101011638D01*
X173959699Y-100988328D01*
X173956556Y-100967355D01*
X173948098Y-100953218D01*
X173934509Y-100944319D01*
X173914637Y-100941067D01*
X173802590Y-100941067D01*
X173773392Y-100944137D01*
X173754413Y-100951997D01*
X173740088Y-100965683D01*
X173728768Y-100987473D01*
X173579169Y-101414410D01*
G37*
G36*
X172986333Y-100944636D02*
G01*
X173007458Y-100951570D01*
X173017999Y-100965281D01*
X173022112Y-100989916D01*
X173017614Y-101013246D01*
X173005382Y-101027590D01*
X172985199Y-101035399D01*
X172946946Y-101038764D01*
X172847234Y-101038764D01*
X173079448Y-101652302D01*
X173092454Y-101652302D01*
X173129790Y-101655512D01*
X173147775Y-101662683D01*
X173158109Y-101676160D01*
X173162124Y-101700113D01*
X173158072Y-101725308D01*
X173147775Y-101739253D01*
X173129437Y-101746635D01*
X173089706Y-101750000D01*
X172910066Y-101750000D01*
X172864832Y-101746547D01*
X172845525Y-101739253D01*
X172834948Y-101725267D01*
X172830809Y-101700113D01*
X172835252Y-101676950D01*
X172847234Y-101663049D01*
X172867459Y-101655620D01*
X172908722Y-101652302D01*
X172974973Y-101652302D01*
X172916233Y-101492079D01*
X172569164Y-101492079D01*
X172502913Y-101652302D01*
X172566477Y-101652302D01*
X172607050Y-101655618D01*
X172626927Y-101663049D01*
X172638625Y-101676912D01*
X172642986Y-101700113D01*
X172638861Y-101725273D01*
X172628332Y-101739253D01*
X172608741Y-101746520D01*
X172561714Y-101750000D01*
X172375907Y-101750000D01*
X172343630Y-101746743D01*
X172327424Y-101739253D01*
X172318148Y-101725461D01*
X172314419Y-101700113D01*
X172318276Y-101676085D01*
X172328096Y-101662683D01*
X172344994Y-101655462D01*
X172378654Y-101652302D01*
X172390256Y-101652302D01*
X172490711Y-101402198D01*
X172602686Y-101402198D01*
X172882039Y-101402198D01*
X172749537Y-101040169D01*
X172602686Y-101402198D01*
X172490711Y-101402198D01*
X172657336Y-100987351D01*
X172669755Y-100963657D01*
X172681577Y-100950959D01*
X172698242Y-100944113D01*
X172732501Y-100941067D01*
X172927163Y-100941067D01*
X172986333Y-100944636D01*
G37*
G36*
X172189733Y-101038764D02*
G01*
X172216460Y-101034484D01*
X172231742Y-101026247D01*
X172240878Y-101012499D01*
X172244382Y-100989916D01*
X172241136Y-100968223D01*
X172232414Y-100953646D01*
X172218307Y-100944457D01*
X172197243Y-100941067D01*
X172025052Y-100941067D01*
X172001952Y-100944484D01*
X171986461Y-100953646D01*
X171976712Y-100968348D01*
X171973150Y-100989916D01*
X171977511Y-101010628D01*
X171990247Y-101025881D01*
X172009501Y-101035248D01*
X172037386Y-101038764D01*
X172050331Y-101038764D01*
X172057170Y-101038764D01*
X171902137Y-101258217D01*
X171740936Y-101038764D01*
X171747775Y-101038764D01*
X171762124Y-101038764D01*
X171792555Y-101035141D01*
X171813354Y-101025575D01*
X171827201Y-101010004D01*
X171831795Y-100989916D01*
X171828075Y-100969487D01*
X171817445Y-100954317D01*
X171801114Y-100944582D01*
X171778489Y-100941067D01*
X171606359Y-100941067D01*
X171585295Y-100944457D01*
X171571188Y-100953646D01*
X171562466Y-100968223D01*
X171559220Y-100989916D01*
X171563054Y-101013001D01*
X171573203Y-101027224D01*
X171589977Y-101035419D01*
X171619303Y-101038764D01*
X171837229Y-101332955D01*
X171599520Y-101652302D01*
X171571992Y-101657261D01*
X171555129Y-101666163D01*
X171544537Y-101680146D01*
X171540779Y-101700113D01*
X171544352Y-101721032D01*
X171554457Y-101736505D01*
X171570022Y-101746454D01*
X171591338Y-101750000D01*
X171774398Y-101750000D01*
X171806491Y-101746637D01*
X171822208Y-101738948D01*
X171830970Y-101725018D01*
X171834481Y-101700113D01*
X171830310Y-101676234D01*
X171819460Y-101662683D01*
X171800584Y-101655536D01*
X171760720Y-101652302D01*
X171732693Y-101652302D01*
X171907571Y-101413066D01*
X172079762Y-101652302D01*
X172048988Y-101652302D01*
X172005911Y-101655544D01*
X171985484Y-101662683D01*
X171973548Y-101676386D01*
X171969059Y-101700113D01*
X171972750Y-101724936D01*
X171982065Y-101738948D01*
X171998304Y-101746660D01*
X172030547Y-101750000D01*
X172212264Y-101750000D01*
X172233537Y-101746458D01*
X172249145Y-101736505D01*
X172259249Y-101721032D01*
X172262822Y-101700113D01*
X172259003Y-101678931D01*
X172248473Y-101664759D01*
X172231441Y-101656205D01*
X172202677Y-101652302D01*
X171971807Y-101337046D01*
X172189733Y-101038764D01*
G37*
G36*
X170554953Y-100944444D02*
G01*
X170569364Y-100953646D01*
X170578319Y-100968251D01*
X170581638Y-100989916D01*
X170577439Y-101014510D01*
X170566617Y-101028262D01*
X170546701Y-101035360D01*
X170498961Y-101038764D01*
X170476430Y-101038764D01*
X170476430Y-101652302D01*
X170498961Y-101652302D01*
X170550360Y-101655625D01*
X170570708Y-101662377D01*
X170581516Y-101675718D01*
X170585729Y-101700113D01*
X170582457Y-101722826D01*
X170573822Y-101737543D01*
X170559632Y-101746610D01*
X170537918Y-101750000D01*
X170231882Y-101750000D01*
X170173142Y-101750000D01*
X170102243Y-101747532D01*
X170057004Y-101741451D01*
X170017485Y-101730059D01*
X169982510Y-101713668D01*
X169932399Y-101675720D01*
X169895804Y-101629405D01*
X169878762Y-101594057D01*
X169868513Y-101556333D01*
X169865029Y-101515587D01*
X169865384Y-101511618D01*
X169983914Y-101511618D01*
X169990314Y-101559038D01*
X170007917Y-101594002D01*
X170036549Y-101619696D01*
X170073580Y-101635915D01*
X170131373Y-101647654D01*
X170217533Y-101652302D01*
X170369207Y-101652302D01*
X170369207Y-101370935D01*
X170210694Y-101370935D01*
X170125899Y-101375562D01*
X170069671Y-101387190D01*
X170034167Y-101403175D01*
X170007027Y-101428480D01*
X169990118Y-101463498D01*
X169983914Y-101511618D01*
X169865384Y-101511618D01*
X169869343Y-101467415D01*
X169881503Y-101427293D01*
X169900933Y-101393649D01*
X169927663Y-101365188D01*
X169963574Y-101340221D01*
X170010537Y-101318911D01*
X169969892Y-101289066D01*
X169941599Y-101253148D01*
X169924366Y-101210558D01*
X169918847Y-101163817D01*
X170035816Y-101163817D01*
X170041373Y-101203870D01*
X170056931Y-101234584D01*
X170082650Y-101258278D01*
X170115460Y-101273957D01*
X170161982Y-101284746D01*
X170226448Y-101288869D01*
X170369207Y-101288869D01*
X170369207Y-101038764D01*
X170199764Y-101038764D01*
X170147756Y-101042903D01*
X170108139Y-101054076D01*
X170078192Y-101071065D01*
X170054925Y-101095296D01*
X170040818Y-101125573D01*
X170035816Y-101163817D01*
X169918847Y-101163817D01*
X169918335Y-101159481D01*
X169923446Y-101107599D01*
X169937920Y-101064305D01*
X169961285Y-101027836D01*
X169994173Y-100997060D01*
X170032806Y-100974217D01*
X170081049Y-100956697D01*
X170140917Y-100945235D01*
X170214785Y-100941067D01*
X170533827Y-100941067D01*
X170554953Y-100944444D01*
G37*
G36*
X169448422Y-101104885D02*
G01*
X169511974Y-101114740D01*
X169563145Y-101129684D01*
X169609779Y-101153194D01*
X169632069Y-101175975D01*
X169638616Y-101198988D01*
X169635194Y-101222494D01*
X169625610Y-101240326D01*
X169610820Y-101252368D01*
X169592821Y-101256324D01*
X169566875Y-101251176D01*
X169506053Y-101227686D01*
X169441278Y-101205625D01*
X169387168Y-101198988D01*
X169335670Y-101203812D01*
X169297872Y-101216723D01*
X169270420Y-101236418D01*
X169250591Y-101263795D01*
X169237636Y-101301299D01*
X169232807Y-101352189D01*
X169232807Y-101356952D01*
X169315483Y-101340893D01*
X169395411Y-101335764D01*
X169471805Y-101340104D01*
X169534758Y-101352130D01*
X169586447Y-101370676D01*
X169628724Y-101395054D01*
X169665145Y-101427827D01*
X169690657Y-101465780D01*
X169706253Y-101509923D01*
X169711706Y-101561933D01*
X169704496Y-101619568D01*
X169683775Y-101667883D01*
X169649241Y-101709089D01*
X169604565Y-101739811D01*
X169550631Y-101758869D01*
X169484926Y-101765631D01*
X169416358Y-101758994D01*
X169349310Y-101738948D01*
X169286297Y-101706485D01*
X169227372Y-101661461D01*
X169221877Y-101703960D01*
X169215434Y-101724312D01*
X169205512Y-101738154D01*
X169191709Y-101746953D01*
X169174066Y-101750000D01*
X169066844Y-101750000D01*
X169041870Y-101746537D01*
X169025872Y-101737482D01*
X169015891Y-101722578D01*
X169012194Y-101699930D01*
X169016684Y-101676138D01*
X169028620Y-101662377D01*
X169049207Y-101655216D01*
X169093466Y-101651936D01*
X169126927Y-101651936D01*
X169126927Y-101449214D01*
X169232807Y-101449214D01*
X169232807Y-101521999D01*
X169239517Y-101550842D01*
X169261972Y-101581379D01*
X169306934Y-101615300D01*
X169357882Y-101640246D01*
X169411227Y-101655109D01*
X169467829Y-101660118D01*
X169505988Y-101656572D01*
X169537785Y-101646561D01*
X169564488Y-101630504D01*
X169585834Y-101608540D01*
X169598202Y-101583744D01*
X169602407Y-101555033D01*
X169595919Y-101518888D01*
X169576491Y-101487955D01*
X169541591Y-101460694D01*
X169499522Y-101442301D01*
X169445180Y-101430133D01*
X169375566Y-101425645D01*
X169305591Y-101431385D01*
X169232807Y-101449214D01*
X169126927Y-101449214D01*
X169126927Y-101342847D01*
X169131354Y-101282957D01*
X169143630Y-101234206D01*
X169162747Y-101194536D01*
X169188415Y-101162351D01*
X169220768Y-101136895D01*
X169260686Y-101117905D01*
X169309784Y-101105696D01*
X169370132Y-101101290D01*
X169448422Y-101104885D01*
G37*
G36*
X168358784Y-101152093D02*
G01*
X168328036Y-101155489D01*
X168309935Y-101163878D01*
X168298690Y-101178427D01*
X168294548Y-101201308D01*
X168298382Y-101223138D01*
X168308897Y-101237700D01*
X168325633Y-101246418D01*
X168351945Y-101249790D01*
X168628611Y-101249790D01*
X168628611Y-101479623D01*
X168624243Y-101555594D01*
X168613638Y-101601992D01*
X168599607Y-101628244D01*
X168577570Y-101647016D01*
X168545617Y-101659355D01*
X168500139Y-101664026D01*
X168459297Y-101660555D01*
X168410230Y-101649108D01*
X168351273Y-101627817D01*
X168271752Y-101597633D01*
X168243989Y-101591608D01*
X168226325Y-101595029D01*
X168211566Y-101605286D01*
X168201618Y-101620370D01*
X168198255Y-101638747D01*
X168202385Y-101659704D01*
X168214986Y-101678009D01*
X168235362Y-101693193D01*
X168272016Y-101710493D01*
X168337756Y-101734228D01*
X168392611Y-101749450D01*
X168445594Y-101758774D01*
X168493361Y-101761723D01*
X168546213Y-101758562D01*
X168590520Y-101749728D01*
X168627634Y-101735956D01*
X168661092Y-101715728D01*
X168687809Y-101690337D01*
X168708539Y-101659324D01*
X168720012Y-101633723D01*
X168728018Y-101602294D01*
X168732099Y-101564840D01*
X168733818Y-101500628D01*
X168733818Y-101479317D01*
X168733818Y-101249790D01*
X168849895Y-101249790D01*
X168876064Y-101246536D01*
X168891599Y-101238372D01*
X168900955Y-101224372D01*
X168904544Y-101201308D01*
X168899693Y-101176508D01*
X168886775Y-101162473D01*
X168863871Y-101155435D01*
X168810999Y-101152093D01*
X168733818Y-101152093D01*
X168733818Y-101013913D01*
X168733818Y-100978131D01*
X168730281Y-100951746D01*
X168721179Y-100935389D01*
X168705953Y-100925324D01*
X168681917Y-100921528D01*
X168655348Y-100926199D01*
X168640212Y-100938381D01*
X168632387Y-100960820D01*
X168628611Y-101015256D01*
X168628611Y-101152093D01*
X168358784Y-101152093D01*
G37*
G36*
X167519565Y-101152093D02*
G01*
X167488818Y-101155489D01*
X167470717Y-101163878D01*
X167459472Y-101178427D01*
X167455329Y-101201308D01*
X167459163Y-101223138D01*
X167469678Y-101237700D01*
X167486415Y-101246418D01*
X167512726Y-101249790D01*
X167789392Y-101249790D01*
X167789392Y-101479623D01*
X167785025Y-101555594D01*
X167774420Y-101601992D01*
X167760389Y-101628244D01*
X167738352Y-101647016D01*
X167706399Y-101659355D01*
X167660921Y-101664026D01*
X167620078Y-101660555D01*
X167571012Y-101649108D01*
X167512055Y-101627817D01*
X167432534Y-101597633D01*
X167404771Y-101591608D01*
X167387106Y-101595029D01*
X167372348Y-101605286D01*
X167362400Y-101620370D01*
X167359036Y-101638747D01*
X167363167Y-101659704D01*
X167375767Y-101678009D01*
X167396144Y-101693193D01*
X167432798Y-101710493D01*
X167498537Y-101734228D01*
X167553393Y-101749450D01*
X167606376Y-101758774D01*
X167654143Y-101761723D01*
X167706994Y-101758562D01*
X167751302Y-101749728D01*
X167788415Y-101735956D01*
X167821874Y-101715728D01*
X167848590Y-101690337D01*
X167869321Y-101659324D01*
X167880794Y-101633723D01*
X167888799Y-101602294D01*
X167892880Y-101564840D01*
X167894600Y-101500628D01*
X167894600Y-101479317D01*
X167894600Y-101249790D01*
X168010676Y-101249790D01*
X168036845Y-101246536D01*
X168052381Y-101238372D01*
X168061736Y-101224372D01*
X168065326Y-101201308D01*
X168060475Y-101176508D01*
X168047557Y-101162473D01*
X168024653Y-101155435D01*
X167971781Y-101152093D01*
X167894600Y-101152093D01*
X167894600Y-101013913D01*
X167894600Y-100978131D01*
X167891063Y-100951746D01*
X167881960Y-100935389D01*
X167866734Y-100925324D01*
X167842698Y-100921528D01*
X167816130Y-100926199D01*
X167800994Y-100938381D01*
X167793168Y-100960820D01*
X167789392Y-101015256D01*
X167789392Y-101152093D01*
X167519565Y-101152093D01*
G37*
G36*
X166937933Y-101107590D02*
G01*
X167006027Y-101125580D01*
X167065434Y-101154544D01*
X167117541Y-101194652D01*
X167160534Y-101244421D01*
X167191166Y-101300717D01*
X167210014Y-101364832D01*
X167216582Y-101438590D01*
X167210305Y-101511249D01*
X167192372Y-101573899D01*
X167163394Y-101628389D01*
X167122976Y-101676055D01*
X167073721Y-101714359D01*
X167016806Y-101742157D01*
X166950766Y-101759520D01*
X166873665Y-101765631D01*
X166802047Y-101761204D01*
X166729195Y-101747740D01*
X166657663Y-101725946D01*
X166588084Y-101696144D01*
X166559526Y-101679155D01*
X166542349Y-101663904D01*
X166531497Y-101646362D01*
X166528000Y-101627634D01*
X166531433Y-101610033D01*
X166541678Y-101595577D01*
X166556831Y-101585895D01*
X166575811Y-101582571D01*
X166603619Y-101589422D01*
X166689872Y-101625252D01*
X166753864Y-101649825D01*
X166811586Y-101663584D01*
X166864078Y-101667934D01*
X166932795Y-101661426D01*
X166987483Y-101643390D01*
X167031140Y-101614933D01*
X167064957Y-101575861D01*
X167087266Y-101526710D01*
X167097697Y-101464724D01*
X166638642Y-101464724D01*
X166628384Y-101464724D01*
X166564443Y-101460359D01*
X166541311Y-101451779D01*
X166529975Y-101434578D01*
X166525252Y-101400488D01*
X166527804Y-101374842D01*
X166649572Y-101374842D01*
X167094277Y-101374842D01*
X167075936Y-101322850D01*
X167048723Y-101280284D01*
X167012334Y-101245638D01*
X166968780Y-101220190D01*
X166918334Y-101204489D01*
X166859316Y-101198988D01*
X166805066Y-101204606D01*
X166758359Y-101220759D01*
X166717594Y-101247287D01*
X166684503Y-101282731D01*
X166661957Y-101324742D01*
X166649572Y-101374842D01*
X166527804Y-101374842D01*
X166531228Y-101340432D01*
X166548758Y-101285906D01*
X166578021Y-101235627D01*
X166620202Y-101188729D01*
X166670085Y-101150884D01*
X166725761Y-101123775D01*
X166788344Y-101107087D01*
X166859316Y-101101290D01*
X166937933Y-101107590D01*
G37*
G36*
X166094530Y-101652302D02*
G01*
X165867751Y-101652302D01*
X165843469Y-101655507D01*
X165828489Y-101663721D01*
X165819341Y-101677604D01*
X165815849Y-101700113D01*
X165819322Y-101725581D01*
X165827817Y-101739253D01*
X165842753Y-101746784D01*
X165871842Y-101750000D01*
X166318623Y-101750000D01*
X166342970Y-101746579D01*
X166358923Y-101737543D01*
X166368908Y-101722655D01*
X166372601Y-101700113D01*
X166368837Y-101678313D01*
X166358618Y-101664087D01*
X166342089Y-101655630D01*
X166315204Y-101652302D01*
X166196318Y-101652302D01*
X166196318Y-101214619D01*
X166242786Y-101214619D01*
X166302759Y-101211064D01*
X166325462Y-101203995D01*
X166337311Y-101189899D01*
X166341826Y-101165099D01*
X166338232Y-101143297D01*
X166328515Y-101128951D01*
X166312821Y-101120276D01*
X166287848Y-101116922D01*
X166132083Y-101116922D01*
X166115081Y-101118952D01*
X166104117Y-101124188D01*
X166097015Y-101132837D01*
X166094530Y-101145132D01*
X166094530Y-101262124D01*
X166048652Y-101210445D01*
X166003649Y-101170585D01*
X165959281Y-101140980D01*
X165911104Y-101118909D01*
X165860789Y-101105732D01*
X165807606Y-101101290D01*
X165750739Y-101107933D01*
X165709298Y-101125898D01*
X165687814Y-101144552D01*
X165675728Y-101165377D01*
X165671685Y-101189340D01*
X165676301Y-101212919D01*
X165690491Y-101234036D01*
X165710684Y-101248871D01*
X165731830Y-101253515D01*
X165749557Y-101249576D01*
X165784769Y-101232693D01*
X165821617Y-101216582D01*
X165851325Y-101211871D01*
X165885888Y-101215722D01*
X165923063Y-101227887D01*
X165963738Y-101249790D01*
X166022201Y-101295226D01*
X166094530Y-101369591D01*
X166094530Y-101652302D01*
G37*
G36*
X165239619Y-101925854D02*
G01*
X165210249Y-101925854D01*
X165164565Y-101929145D01*
X165142594Y-101936418D01*
X165129647Y-101950591D01*
X165124825Y-101975069D01*
X165128570Y-101996632D01*
X165138869Y-102011217D01*
X165155067Y-102020172D01*
X165179474Y-102023551D01*
X165494426Y-102023551D01*
X165523556Y-102020317D01*
X165539122Y-102012622D01*
X165548191Y-101998937D01*
X165551762Y-101975069D01*
X165548160Y-101952789D01*
X165538450Y-101938128D01*
X165522822Y-101929244D01*
X165498517Y-101925854D01*
X165350261Y-101925854D01*
X165239619Y-101707257D01*
X165490334Y-101214619D01*
X165531574Y-101211245D01*
X165552128Y-101203628D01*
X165564307Y-101189294D01*
X165568859Y-101165099D01*
X165565179Y-101143332D01*
X165555181Y-101128951D01*
X165539186Y-101120260D01*
X165514209Y-101116922D01*
X165323639Y-101116922D01*
X165288923Y-101120220D01*
X165272409Y-101127608D01*
X165263083Y-101141112D01*
X165259403Y-101165099D01*
X165264036Y-101189255D01*
X165276500Y-101203628D01*
X165297400Y-101211243D01*
X165339331Y-101214619D01*
X165364610Y-101214619D01*
X165179474Y-101591852D01*
X164990980Y-101214619D01*
X165017602Y-101214619D01*
X165060824Y-101211245D01*
X165082510Y-101203628D01*
X165095497Y-101189186D01*
X165100279Y-101165099D01*
X165096613Y-101141105D01*
X165087334Y-101127608D01*
X165070691Y-101120231D01*
X165035371Y-101116922D01*
X164866660Y-101116922D01*
X164841097Y-101120297D01*
X164825322Y-101128951D01*
X164815605Y-101143297D01*
X164812011Y-101165099D01*
X164816120Y-101188295D01*
X164827032Y-101202224D01*
X164845346Y-101210196D01*
X164880338Y-101214619D01*
X165239619Y-101925854D01*
G37*
G36*
X163848046Y-101038764D02*
G01*
X163856960Y-101038764D01*
X163888163Y-101035478D01*
X163905443Y-101027590D01*
X163915834Y-101013493D01*
X163919792Y-100989916D01*
X163916473Y-100968251D01*
X163907519Y-100953646D01*
X163893108Y-100944444D01*
X163871981Y-100941067D01*
X163665047Y-100941067D01*
X163628409Y-100944418D01*
X163610764Y-100951936D01*
X163600646Y-100965786D01*
X163596720Y-100989916D01*
X163600751Y-101012379D01*
X163611741Y-101026919D01*
X163629504Y-101035361D01*
X163659551Y-101038764D01*
X163734717Y-101038764D01*
X163502442Y-101633740D01*
X163276334Y-101038764D01*
X163367192Y-101038764D01*
X163396702Y-101035392D01*
X163414698Y-101026919D01*
X163425923Y-101012349D01*
X163430024Y-100989916D01*
X163426025Y-100965819D01*
X163415675Y-100951936D01*
X163397795Y-100944391D01*
X163361697Y-100941067D01*
X163147191Y-100941067D01*
X163126127Y-100944457D01*
X163112020Y-100953646D01*
X163103298Y-100968223D01*
X163100052Y-100989916D01*
X163104010Y-101013493D01*
X163114401Y-101027590D01*
X163131842Y-101035445D01*
X163164288Y-101038764D01*
X163172470Y-101038764D01*
X163418361Y-101681428D01*
X163439687Y-101727329D01*
X163451884Y-101745237D01*
X163465696Y-101754602D01*
X163483269Y-101757815D01*
X163522226Y-101757815D01*
X163547998Y-101751162D01*
X163572038Y-101729392D01*
X163595315Y-101685519D01*
X163596659Y-101681428D01*
X163848046Y-101038764D01*
G37*
G36*
X162749044Y-101111411D02*
G01*
X162817071Y-101129172D01*
X162876593Y-101157783D01*
X162928960Y-101197400D01*
X162972483Y-101246664D01*
X163003292Y-101301811D01*
X163022135Y-101364034D01*
X163028672Y-101435048D01*
X163022139Y-101506092D01*
X163003301Y-101568403D01*
X162972492Y-101623684D01*
X162928960Y-101673124D01*
X162876574Y-101712884D01*
X162817047Y-101741587D01*
X162749026Y-101759400D01*
X162670734Y-101765631D01*
X162592044Y-101759389D01*
X162523797Y-101741557D01*
X162464185Y-101712851D01*
X162411837Y-101673124D01*
X162368275Y-101623681D01*
X162337447Y-101568398D01*
X162318599Y-101506088D01*
X162312159Y-101436086D01*
X162430949Y-101436086D01*
X162435365Y-101485573D01*
X162448103Y-101529121D01*
X162468913Y-101567860D01*
X162498237Y-101602599D01*
X162533763Y-101630870D01*
X162573729Y-101651112D01*
X162618997Y-101663590D01*
X162670734Y-101667934D01*
X162722464Y-101663607D01*
X162767664Y-101651187D01*
X162807508Y-101631056D01*
X162842864Y-101602965D01*
X162871971Y-101568402D01*
X162892674Y-101529676D01*
X162905375Y-101485958D01*
X162909787Y-101436086D01*
X162905380Y-101386607D01*
X162892655Y-101342936D01*
X162871843Y-101303965D01*
X162842498Y-101268902D01*
X162806924Y-101240280D01*
X162767052Y-101219839D01*
X162722038Y-101207266D01*
X162670734Y-101202896D01*
X162619401Y-101207263D01*
X162574311Y-101219831D01*
X162534324Y-101240273D01*
X162498604Y-101268902D01*
X162469084Y-101303987D01*
X162448162Y-101342966D01*
X162435375Y-101386628D01*
X162430949Y-101436086D01*
X162312159Y-101436086D01*
X162312063Y-101435048D01*
X162318603Y-101364418D01*
X162337481Y-101302355D01*
X162368397Y-101247174D01*
X162412142Y-101197705D01*
X162464674Y-101157938D01*
X162524318Y-101129234D01*
X162592414Y-101111425D01*
X162670734Y-101105198D01*
X162749044Y-101111411D01*
G37*
G36*
X161877250Y-100952791D02*
G01*
X161993387Y-100952791D01*
X162053463Y-100949285D01*
X162076430Y-100942288D01*
X162088573Y-100928349D01*
X162093161Y-100903942D01*
X162089405Y-100881907D01*
X162079178Y-100867306D01*
X162062940Y-100858441D01*
X162038511Y-100855094D01*
X161813075Y-100855094D01*
X161795986Y-100857159D01*
X161784377Y-100862604D01*
X161776695Y-100871449D01*
X161774118Y-100883060D01*
X161774118Y-101652302D01*
X161559612Y-101652302D01*
X161536039Y-101655513D01*
X161521755Y-101663721D01*
X161513118Y-101677535D01*
X161509787Y-101700113D01*
X161513167Y-101725623D01*
X161521388Y-101739253D01*
X161536067Y-101746772D01*
X161565108Y-101750000D01*
X162069225Y-101750000D01*
X162093631Y-101746593D01*
X162109891Y-101737543D01*
X162120111Y-101722626D01*
X162123874Y-101700113D01*
X162120027Y-101678348D01*
X162109525Y-101664087D01*
X162092819Y-101655598D01*
X162066477Y-101652302D01*
X161877250Y-101652302D01*
X161877250Y-100952791D01*
G37*
G36*
X160805818Y-101152093D02*
G01*
X160775070Y-101155489D01*
X160756969Y-101163878D01*
X160745724Y-101178427D01*
X160741582Y-101201308D01*
X160745416Y-101223138D01*
X160755931Y-101237700D01*
X160772667Y-101246418D01*
X160798979Y-101249790D01*
X161075645Y-101249790D01*
X161075645Y-101479623D01*
X161071278Y-101555594D01*
X161060672Y-101601992D01*
X161046641Y-101628244D01*
X161024605Y-101647016D01*
X160992651Y-101659355D01*
X160947173Y-101664026D01*
X160906331Y-101660555D01*
X160857264Y-101649108D01*
X160798307Y-101627817D01*
X160718787Y-101597633D01*
X160691024Y-101591608D01*
X160673359Y-101595029D01*
X160658600Y-101605286D01*
X160648652Y-101620370D01*
X160645289Y-101638747D01*
X160649419Y-101659704D01*
X160662020Y-101678009D01*
X160682396Y-101693193D01*
X160719050Y-101710493D01*
X160784790Y-101734228D01*
X160839645Y-101749450D01*
X160892628Y-101758774D01*
X160940396Y-101761723D01*
X160993247Y-101758562D01*
X161037554Y-101749728D01*
X161074668Y-101735956D01*
X161108126Y-101715728D01*
X161134843Y-101690337D01*
X161155573Y-101659324D01*
X161167046Y-101633723D01*
X161175052Y-101602294D01*
X161179133Y-101564840D01*
X161180853Y-101500628D01*
X161180853Y-101479317D01*
X161180853Y-101249790D01*
X161296929Y-101249790D01*
X161323098Y-101246536D01*
X161338633Y-101238372D01*
X161347989Y-101224372D01*
X161351578Y-101201308D01*
X161346728Y-101176508D01*
X161333810Y-101162473D01*
X161310905Y-101155435D01*
X161258033Y-101152093D01*
X161180853Y-101152093D01*
X161180853Y-101013913D01*
X161180853Y-100978131D01*
X161177315Y-100951746D01*
X161168213Y-100935389D01*
X161152987Y-100925324D01*
X161128951Y-100921528D01*
X161102382Y-100926199D01*
X161087247Y-100938381D01*
X161079421Y-100960820D01*
X161075645Y-101015256D01*
X161075645Y-101152093D01*
X160805818Y-101152093D01*
G37*
G36*
X160217019Y-101104885D02*
G01*
X160280571Y-101114740D01*
X160331742Y-101129684D01*
X160378376Y-101153194D01*
X160400666Y-101175975D01*
X160407213Y-101198988D01*
X160403792Y-101222494D01*
X160394207Y-101240326D01*
X160379418Y-101252368D01*
X160361418Y-101256324D01*
X160335472Y-101251176D01*
X160274651Y-101227686D01*
X160209875Y-101205625D01*
X160155765Y-101198988D01*
X160104268Y-101203812D01*
X160066469Y-101216723D01*
X160039017Y-101236418D01*
X160019188Y-101263795D01*
X160006233Y-101301299D01*
X160001404Y-101352189D01*
X160001404Y-101356952D01*
X160084080Y-101340893D01*
X160164009Y-101335764D01*
X160240402Y-101340104D01*
X160303355Y-101352130D01*
X160355044Y-101370676D01*
X160397322Y-101395054D01*
X160433742Y-101427827D01*
X160459254Y-101465780D01*
X160474850Y-101509923D01*
X160480303Y-101561933D01*
X160473094Y-101619568D01*
X160452372Y-101667883D01*
X160417838Y-101709089D01*
X160373162Y-101739811D01*
X160319228Y-101758869D01*
X160253524Y-101765631D01*
X160184956Y-101758994D01*
X160117908Y-101738948D01*
X160054894Y-101706485D01*
X159995969Y-101661461D01*
X159990474Y-101703960D01*
X159984032Y-101724312D01*
X159974110Y-101738154D01*
X159960306Y-101746953D01*
X159942663Y-101750000D01*
X159835441Y-101750000D01*
X159810467Y-101746537D01*
X159794469Y-101737482D01*
X159784489Y-101722578D01*
X159780792Y-101699930D01*
X159785281Y-101676138D01*
X159797217Y-101662377D01*
X159817804Y-101655216D01*
X159862063Y-101651936D01*
X159895525Y-101651936D01*
X159895525Y-101449214D01*
X160001404Y-101449214D01*
X160001404Y-101521999D01*
X160008114Y-101550842D01*
X160030569Y-101581379D01*
X160075532Y-101615300D01*
X160126480Y-101640246D01*
X160179824Y-101655109D01*
X160236427Y-101660118D01*
X160274585Y-101656572D01*
X160306383Y-101646561D01*
X160333086Y-101630504D01*
X160354431Y-101608540D01*
X160366800Y-101583744D01*
X160371004Y-101555033D01*
X160364516Y-101518888D01*
X160345089Y-101487955D01*
X160310188Y-101460694D01*
X160268120Y-101442301D01*
X160213777Y-101430133D01*
X160144164Y-101425645D01*
X160074188Y-101431385D01*
X160001404Y-101449214D01*
X159895525Y-101449214D01*
X159895525Y-101342847D01*
X159899951Y-101282957D01*
X159912227Y-101234206D01*
X159931344Y-101194536D01*
X159957013Y-101162351D01*
X159989366Y-101136895D01*
X160029284Y-101117905D01*
X160078382Y-101105696D01*
X160138729Y-101101290D01*
X160217019Y-101104885D01*
G37*
G36*
X159118929Y-101118907D02*
G01*
X159129762Y-101123822D01*
X159136534Y-101132288D01*
X159138982Y-101145193D01*
X159138982Y-101194836D01*
X159191143Y-101159843D01*
X159240465Y-101136217D01*
X159291393Y-101121720D01*
X159343230Y-101116922D01*
X159405220Y-101122524D01*
X159460603Y-101138791D01*
X159510684Y-101165558D01*
X159556393Y-101203506D01*
X159593886Y-101249376D01*
X159620508Y-101300258D01*
X159636792Y-101357164D01*
X159642428Y-101421493D01*
X159636915Y-101485615D01*
X159621024Y-101542109D01*
X159595124Y-101592383D01*
X159558775Y-101637465D01*
X159514310Y-101674633D01*
X159464973Y-101700977D01*
X159409773Y-101717074D01*
X159347322Y-101722644D01*
X159284272Y-101716755D01*
X159231184Y-101700052D01*
X159183689Y-101671583D01*
X159138982Y-101628794D01*
X159138982Y-101711714D01*
X159144787Y-101786311D01*
X159159736Y-101837427D01*
X159181359Y-101871388D01*
X159212921Y-101895656D01*
X159258982Y-101911861D01*
X159324790Y-101918039D01*
X159382859Y-101912909D01*
X159439523Y-101907780D01*
X159461859Y-101911793D01*
X159480861Y-101923778D01*
X159494045Y-101941373D01*
X159498264Y-101960903D01*
X159494430Y-101980376D01*
X159483068Y-101995937D01*
X159462421Y-102008531D01*
X159421180Y-102019077D01*
X159348665Y-102023551D01*
X159286665Y-102020372D01*
X159232847Y-102011366D01*
X159186121Y-101997173D01*
X159142439Y-101976237D01*
X159107078Y-101950564D01*
X159078899Y-101920115D01*
X159059228Y-101887803D01*
X159046109Y-101849834D01*
X159039450Y-101802810D01*
X159036523Y-101713852D01*
X159036523Y-101418196D01*
X159130068Y-101418196D01*
X159136672Y-101473884D01*
X159155644Y-101520906D01*
X159187098Y-101561261D01*
X159228080Y-101591983D01*
X159276030Y-101610622D01*
X159332972Y-101617131D01*
X159390355Y-101610599D01*
X159438404Y-101591939D01*
X159479213Y-101561261D01*
X159510449Y-101520933D01*
X159529309Y-101473910D01*
X159535877Y-101418196D01*
X159529265Y-101361555D01*
X159510366Y-101314226D01*
X159479213Y-101274092D01*
X159438427Y-101243594D01*
X159390376Y-101225029D01*
X159332972Y-101218527D01*
X159276060Y-101225078D01*
X159228111Y-101243851D01*
X159187098Y-101274825D01*
X159155633Y-101315367D01*
X159136665Y-101362498D01*
X159130068Y-101418196D01*
X159036523Y-101418196D01*
X159036523Y-101214436D01*
X159024249Y-101214436D01*
X158981077Y-101211036D01*
X158960013Y-101203445D01*
X158947552Y-101189122D01*
X158942916Y-101164977D01*
X158946591Y-101143316D01*
X158956594Y-101128951D01*
X158972589Y-101120260D01*
X158997566Y-101116922D01*
X159100697Y-101116922D01*
X159118929Y-101118907D01*
G37*
G36*
X158545749Y-101107590D02*
G01*
X158613843Y-101125580D01*
X158673250Y-101154544D01*
X158725357Y-101194652D01*
X158768350Y-101244421D01*
X158798982Y-101300717D01*
X158817830Y-101364832D01*
X158824398Y-101438590D01*
X158818121Y-101511249D01*
X158800188Y-101573899D01*
X158771210Y-101628389D01*
X158730792Y-101676055D01*
X158681537Y-101714359D01*
X158624622Y-101742157D01*
X158558582Y-101759520D01*
X158481481Y-101765631D01*
X158409863Y-101761204D01*
X158337011Y-101747740D01*
X158265479Y-101725946D01*
X158195900Y-101696144D01*
X158167342Y-101679155D01*
X158150165Y-101663904D01*
X158139313Y-101646362D01*
X158135816Y-101627634D01*
X158139248Y-101610033D01*
X158149494Y-101595577D01*
X158164647Y-101585895D01*
X158183627Y-101582571D01*
X158211435Y-101589422D01*
X158297688Y-101625252D01*
X158361680Y-101649825D01*
X158419401Y-101663584D01*
X158471894Y-101667934D01*
X158540611Y-101661426D01*
X158595299Y-101643390D01*
X158638956Y-101614933D01*
X158672773Y-101575861D01*
X158695082Y-101526710D01*
X158705512Y-101464724D01*
X158246458Y-101464724D01*
X158236200Y-101464724D01*
X158172258Y-101460359D01*
X158149127Y-101451779D01*
X158137791Y-101434578D01*
X158133068Y-101400488D01*
X158135620Y-101374842D01*
X158257388Y-101374842D01*
X158702093Y-101374842D01*
X158683752Y-101322850D01*
X158656538Y-101280284D01*
X158620150Y-101245638D01*
X158576595Y-101220190D01*
X158526150Y-101204489D01*
X158467131Y-101198988D01*
X158412882Y-101204606D01*
X158366175Y-101220759D01*
X158325409Y-101247287D01*
X158292318Y-101282731D01*
X158269772Y-101324742D01*
X158257388Y-101374842D01*
X158135620Y-101374842D01*
X158139044Y-101340432D01*
X158156574Y-101285906D01*
X158185836Y-101235627D01*
X158228018Y-101188729D01*
X158277900Y-101150884D01*
X158333577Y-101123775D01*
X158396160Y-101107087D01*
X158467131Y-101101290D01*
X158545749Y-101107590D01*
G37*
G36*
X157769330Y-101261514D02*
G01*
X157765064Y-101227781D01*
X157752737Y-101199170D01*
X157732083Y-101174441D01*
X157705465Y-101155859D01*
X157673713Y-101144410D01*
X157635423Y-101140369D01*
X157596143Y-101144374D01*
X157564092Y-101155628D01*
X157537726Y-101173709D01*
X157517389Y-101198033D01*
X157505129Y-101226843D01*
X157500846Y-101261514D01*
X157505165Y-101296158D01*
X157517537Y-101324968D01*
X157538093Y-101349319D01*
X157564670Y-101367445D01*
X157596630Y-101378678D01*
X157635423Y-101382658D01*
X157674251Y-101378669D01*
X157706096Y-101367429D01*
X157732449Y-101349319D01*
X157752786Y-101324995D01*
X157765046Y-101296185D01*
X157769330Y-101261514D01*
G37*
G36*
X157769330Y-101636671D02*
G01*
X157765064Y-101602938D01*
X157752737Y-101574327D01*
X157732083Y-101549598D01*
X157705465Y-101531016D01*
X157673713Y-101519567D01*
X157635423Y-101515526D01*
X157596143Y-101519531D01*
X157564092Y-101530785D01*
X157537726Y-101548866D01*
X157517389Y-101573190D01*
X157505129Y-101602000D01*
X157500846Y-101636671D01*
X157505165Y-101671315D01*
X157517537Y-101700125D01*
X157538093Y-101724476D01*
X157564670Y-101742602D01*
X157596630Y-101753835D01*
X157635423Y-101757815D01*
X157674251Y-101753826D01*
X157706096Y-101742586D01*
X157732449Y-101724476D01*
X157752786Y-101700152D01*
X157765046Y-101671342D01*
X157769330Y-101636671D01*
G37*
G36*
X155850436Y-101280870D02*
G01*
X155799954Y-101300023D01*
X155759116Y-101326530D01*
X155726421Y-101360493D01*
X155702309Y-101400960D01*
X155687504Y-101447474D01*
X155682336Y-101501543D01*
X155687851Y-101559721D01*
X155703789Y-101610873D01*
X155729951Y-101656413D01*
X155767088Y-101697304D01*
X155811408Y-101729941D01*
X155861901Y-101753584D01*
X155919717Y-101768294D01*
X155986357Y-101773447D01*
X156054620Y-101768771D01*
X156115853Y-101755268D01*
X156171127Y-101733391D01*
X156220710Y-101702004D01*
X156244932Y-101673190D01*
X156252093Y-101645403D01*
X156248395Y-101626609D01*
X156237438Y-101611575D01*
X156221255Y-101601647D01*
X156201535Y-101598264D01*
X156183461Y-101603462D01*
X156117210Y-101633129D01*
X156067735Y-101653146D01*
X156022799Y-101664374D01*
X155981594Y-101667934D01*
X155929159Y-101662431D01*
X155885737Y-101646849D01*
X155849398Y-101621589D01*
X155821222Y-101587849D01*
X155804339Y-101548445D01*
X155798473Y-101501605D01*
X155802561Y-101462474D01*
X155814333Y-101428681D01*
X155833705Y-101399084D01*
X155859542Y-101374878D01*
X155891348Y-101357033D01*
X155930364Y-101345533D01*
X155978846Y-101340099D01*
X156012726Y-101332339D01*
X156030243Y-101316740D01*
X156036243Y-101292349D01*
X156030601Y-101270200D01*
X156013604Y-101254734D01*
X155980251Y-101245333D01*
X155944042Y-101240570D01*
X155910076Y-101231824D01*
X155881702Y-101217301D01*
X155857946Y-101196973D01*
X155839761Y-101171718D01*
X155828891Y-101143400D01*
X155825157Y-101111060D01*
X155829872Y-101069565D01*
X155843335Y-101034860D01*
X155865457Y-101005425D01*
X155894507Y-100982838D01*
X155928193Y-100969239D01*
X155967916Y-100964515D01*
X156005313Y-100968222D01*
X156044363Y-100979740D01*
X156085764Y-101000052D01*
X156141627Y-101029714D01*
X156161235Y-101035528D01*
X156178895Y-101032395D01*
X156192986Y-101023255D01*
X156202426Y-101009522D01*
X156205626Y-100992480D01*
X156199143Y-100968125D01*
X156176504Y-100940847D01*
X156129117Y-100908766D01*
X156076727Y-100885610D01*
X156020560Y-100871596D01*
X155959734Y-100866817D01*
X155907253Y-100871094D01*
X155860891Y-100883417D01*
X155819570Y-100903447D01*
X155782475Y-100931420D01*
X155751173Y-100966048D01*
X155729373Y-101003554D01*
X155716256Y-101044614D01*
X155711767Y-101090239D01*
X155715844Y-101137006D01*
X155727316Y-101175905D01*
X155745594Y-101208452D01*
X155770937Y-101235963D01*
X155805263Y-101260153D01*
X155850436Y-101280870D01*
G37*
G36*
X155039348Y-100872776D02*
G01*
X155108338Y-100889988D01*
X155170380Y-100917980D01*
X155226572Y-100956986D01*
X155277625Y-101007929D01*
X155319258Y-101065669D01*
X155352241Y-101130727D01*
X155376578Y-101204126D01*
X155391841Y-101287140D01*
X155397182Y-101381254D01*
X155391480Y-101470919D01*
X155375435Y-101546993D01*
X155350196Y-101611608D01*
X155316277Y-101666530D01*
X155271831Y-101713824D01*
X155221957Y-101746693D01*
X155165537Y-101766572D01*
X155100732Y-101773447D01*
X155045152Y-101768232D01*
X154996241Y-101753165D01*
X154952668Y-101728446D01*
X154913520Y-101693396D01*
X154882034Y-101651379D01*
X154859357Y-101603999D01*
X154845325Y-101550244D01*
X154840814Y-101493606D01*
X154956568Y-101493606D01*
X154961631Y-101546382D01*
X154975848Y-101589652D01*
X154998578Y-101625375D01*
X155029445Y-101653523D01*
X155064789Y-101670072D01*
X155106167Y-101675750D01*
X155150118Y-101669715D01*
X155187583Y-101652140D01*
X155220228Y-101622260D01*
X155244302Y-101584372D01*
X155259298Y-101538904D01*
X155264619Y-101483897D01*
X155259475Y-101433067D01*
X155244886Y-101390646D01*
X155221266Y-101354876D01*
X155189527Y-101326719D01*
X155153477Y-101310169D01*
X155111601Y-101304501D01*
X155068544Y-101310421D01*
X155031885Y-101327655D01*
X154999982Y-101356952D01*
X154976482Y-101394113D01*
X154961794Y-101438999D01*
X154956568Y-101493606D01*
X154840814Y-101493606D01*
X154840430Y-101488782D01*
X154845360Y-101430357D01*
X154859642Y-101378179D01*
X154883018Y-101331097D01*
X154915901Y-101288258D01*
X154956343Y-101252130D01*
X154999830Y-101227018D01*
X155047119Y-101211948D01*
X155099328Y-101206803D01*
X155150820Y-101212732D01*
X155197697Y-101230251D01*
X155239893Y-101258798D01*
X155279640Y-101300471D01*
X155261203Y-101208022D01*
X155232519Y-101132549D01*
X155194583Y-101071188D01*
X155158053Y-101031396D01*
X155117099Y-101000574D01*
X155071174Y-100977995D01*
X155019399Y-100963476D01*
X154933975Y-100956699D01*
X154893175Y-100952198D01*
X154869673Y-100942534D01*
X154857427Y-100929403D01*
X154853375Y-100912124D01*
X154858867Y-100889650D01*
X154874563Y-100876282D01*
X154901376Y-100869858D01*
X154962002Y-100866817D01*
X155039348Y-100872776D01*
G37*
G36*
X154616643Y-101038764D02*
G01*
X154625558Y-101038764D01*
X154656760Y-101035478D01*
X154674040Y-101027590D01*
X154684431Y-101013493D01*
X154688389Y-100989916D01*
X154685071Y-100968251D01*
X154676116Y-100953646D01*
X154661705Y-100944444D01*
X154640579Y-100941067D01*
X154433644Y-100941067D01*
X154397006Y-100944418D01*
X154379361Y-100951936D01*
X154369244Y-100965786D01*
X154365317Y-100989916D01*
X154369348Y-101012379D01*
X154380338Y-101026919D01*
X154398101Y-101035361D01*
X154428148Y-101038764D01*
X154503314Y-101038764D01*
X154271039Y-101633740D01*
X154044931Y-101038764D01*
X154135790Y-101038764D01*
X154165299Y-101035392D01*
X154183295Y-101026919D01*
X154194521Y-101012349D01*
X154198621Y-100989916D01*
X154194623Y-100965819D01*
X154184272Y-100951936D01*
X154166392Y-100944391D01*
X154130294Y-100941067D01*
X153915788Y-100941067D01*
X153894724Y-100944457D01*
X153880617Y-100953646D01*
X153871895Y-100968223D01*
X153868649Y-100989916D01*
X153872607Y-101013493D01*
X153882998Y-101027590D01*
X153900440Y-101035445D01*
X153932885Y-101038764D01*
X153941067Y-101038764D01*
X154186959Y-101681428D01*
X154208284Y-101727329D01*
X154220481Y-101745237D01*
X154234294Y-101754602D01*
X154251866Y-101757815D01*
X154290823Y-101757815D01*
X154316595Y-101751162D01*
X154340635Y-101729392D01*
X154363913Y-101685519D01*
X154365256Y-101681428D01*
X154616643Y-101038764D01*
G37*
G36*
X173872932Y-103430000D02*
G01*
X173905050Y-103430000D01*
X173927464Y-103426611D01*
X173942297Y-103417543D01*
X173951489Y-103402755D01*
X173954937Y-103380113D01*
X173950809Y-103355676D01*
X173940282Y-103342377D01*
X173920667Y-103335585D01*
X173872932Y-103332302D01*
X173829213Y-103332302D01*
X173829213Y-102718764D01*
X173872932Y-102718764D01*
X173919480Y-102715392D01*
X173939549Y-102708262D01*
X173950654Y-102694469D01*
X173954937Y-102669916D01*
X173951457Y-102647227D01*
X173942297Y-102632974D01*
X173927350Y-102624370D01*
X173903707Y-102621067D01*
X173872932Y-102621067D01*
X173308670Y-102621067D01*
X173287738Y-102624781D01*
X173273499Y-102635050D01*
X173264819Y-102651147D01*
X173261531Y-102675472D01*
X173261531Y-102835940D01*
X173264625Y-102868262D01*
X173271789Y-102884972D01*
X173285025Y-102894710D01*
X173308670Y-102898527D01*
X173333454Y-102894340D01*
X173347322Y-102883567D01*
X173354466Y-102863675D01*
X173357885Y-102816156D01*
X173357885Y-102718764D01*
X173721257Y-102718764D01*
X173721257Y-102945422D01*
X173542288Y-102945422D01*
X173542288Y-102909274D01*
X173539293Y-102875574D01*
X173532397Y-102858166D01*
X173519631Y-102847750D01*
X173497897Y-102843817D01*
X173477045Y-102847987D01*
X173464802Y-102859265D01*
X173458554Y-102879175D01*
X173455582Y-102925394D01*
X173455582Y-103052827D01*
X173458709Y-103099481D01*
X173465169Y-103118651D01*
X173477638Y-103129053D01*
X173499302Y-103133000D01*
X173520607Y-103128534D01*
X173533068Y-103116331D01*
X173539393Y-103095643D01*
X173542288Y-103051789D01*
X173542288Y-103027487D01*
X173721257Y-103027487D01*
X173721257Y-103332302D01*
X173357885Y-103332302D01*
X173357885Y-103221355D01*
X173354461Y-103173512D01*
X173347322Y-103153578D01*
X173333440Y-103142711D01*
X173308670Y-103138496D01*
X173285615Y-103142403D01*
X173272156Y-103152601D01*
X173264785Y-103170192D01*
X173261531Y-103205846D01*
X173261531Y-103379136D01*
X173264879Y-103401738D01*
X173273866Y-103416933D01*
X173288183Y-103426533D01*
X173308670Y-103430000D01*
X173872932Y-103430000D01*
G37*
G36*
X172940840Y-103404842D02*
G01*
X172947128Y-103433506D01*
X172956533Y-103448928D01*
X172971307Y-103457817D01*
X172995490Y-103461263D01*
X173021227Y-103456731D01*
X173038171Y-103444349D01*
X173048568Y-103424209D01*
X173054230Y-103389516D01*
X173063084Y-103229537D01*
X173063084Y-103217142D01*
X173059420Y-103187098D01*
X173050444Y-103170247D01*
X173034882Y-103160329D01*
X173008435Y-103156448D01*
X172985100Y-103162192D01*
X172965778Y-103180151D01*
X172949694Y-103215310D01*
X172934002Y-103259762D01*
X172915174Y-103289007D01*
X172890283Y-103313511D01*
X172858531Y-103333646D01*
X172803583Y-103352793D01*
X172735188Y-103359658D01*
X172677767Y-103354615D01*
X172630766Y-103340520D01*
X172592123Y-103318197D01*
X172561083Y-103287345D01*
X172543181Y-103252510D01*
X172537107Y-103212135D01*
X172541087Y-103177791D01*
X172552397Y-103149488D01*
X172570935Y-103125856D01*
X172595326Y-103107555D01*
X172627571Y-103093303D01*
X172669609Y-103083663D01*
X172770725Y-103070047D01*
X172863818Y-103051050D01*
X172930596Y-103025807D01*
X172977049Y-102995980D01*
X173004988Y-102966596D01*
X173025026Y-102932071D01*
X173037495Y-102891376D01*
X173041896Y-102843023D01*
X173036512Y-102793180D01*
X173020699Y-102748176D01*
X172994148Y-102706808D01*
X172955495Y-102668328D01*
X172910608Y-102637934D01*
X172860405Y-102615959D01*
X172803925Y-102602355D01*
X172739951Y-102597620D01*
X172702029Y-102600041D01*
X172660755Y-102607634D01*
X172618066Y-102619913D01*
X172566477Y-102639019D01*
X172562635Y-102619972D01*
X172555547Y-102609649D01*
X172543888Y-102603907D01*
X172522758Y-102601528D01*
X172495348Y-102604192D01*
X172481114Y-102610382D01*
X172472526Y-102623001D01*
X172466704Y-102652513D01*
X172457178Y-102794541D01*
X172457178Y-102801318D01*
X172460801Y-102823032D01*
X172470856Y-102838382D01*
X172486577Y-102848092D01*
X172509080Y-102851632D01*
X172530185Y-102846788D01*
X172548576Y-102831626D01*
X172565073Y-102802418D01*
X172584246Y-102760530D01*
X172611183Y-102731569D01*
X172649153Y-102709361D01*
X172693420Y-102696079D01*
X172745446Y-102691409D01*
X172799189Y-102696349D01*
X172843299Y-102710201D01*
X172879719Y-102732259D01*
X172908508Y-102762481D01*
X172925430Y-102797527D01*
X172931254Y-102839054D01*
X172926810Y-102871644D01*
X172914064Y-102898379D01*
X172892663Y-102920692D01*
X172865324Y-102937184D01*
X172827043Y-102951092D01*
X172774816Y-102961542D01*
X172665518Y-102975158D01*
X172588287Y-102991523D01*
X172529931Y-103016084D01*
X172486549Y-103047637D01*
X172453690Y-103088956D01*
X172433537Y-103139209D01*
X172426404Y-103201022D01*
X172431964Y-103256399D01*
X172447985Y-103304498D01*
X172474300Y-103346835D01*
X172511828Y-103384387D01*
X172555949Y-103413472D01*
X172607692Y-103434988D01*
X172668468Y-103448614D01*
X172740012Y-103453447D01*
X172788917Y-103450497D01*
X172837709Y-103441601D01*
X172886481Y-103426964D01*
X172940840Y-103404842D01*
G37*
G36*
X172234734Y-102624444D02*
G01*
X172249145Y-102633646D01*
X172258099Y-102648251D01*
X172261418Y-102669916D01*
X172257305Y-102694551D01*
X172246763Y-102708262D01*
X172226260Y-102715256D01*
X172171964Y-102718764D01*
X172124153Y-102718764D01*
X172124153Y-103332302D01*
X172212264Y-103332302D01*
X172235220Y-103335578D01*
X172249511Y-103344087D01*
X172258142Y-103358109D01*
X172261418Y-103380113D01*
X172258093Y-103402254D01*
X172249145Y-103417177D01*
X172234711Y-103426566D01*
X172213607Y-103430000D01*
X171879605Y-103430000D01*
X171842932Y-103426611D01*
X171824956Y-103418948D01*
X171814619Y-103404787D01*
X171810607Y-103380113D01*
X171814651Y-103357845D01*
X171825628Y-103343721D01*
X171843425Y-103335612D01*
X171874110Y-103332302D01*
X172016870Y-103332302D01*
X172016870Y-103125184D01*
X171897313Y-103125184D01*
X171811741Y-103120426D01*
X171742972Y-103107394D01*
X171688097Y-103087573D01*
X171644644Y-103061864D01*
X171607835Y-103027033D01*
X171581495Y-102985152D01*
X171565057Y-102934798D01*
X171559465Y-102876362D01*
X171675357Y-102876362D01*
X171681778Y-102926909D01*
X171699631Y-102965747D01*
X171728663Y-102995736D01*
X171766359Y-103016268D01*
X171818403Y-103030090D01*
X171889131Y-103035303D01*
X172016870Y-103035303D01*
X172016870Y-102718764D01*
X171889131Y-102718764D01*
X171818872Y-102723958D01*
X171766883Y-102737764D01*
X171728968Y-102758332D01*
X171699680Y-102788308D01*
X171681769Y-102826744D01*
X171675357Y-102876362D01*
X171559465Y-102876362D01*
X171559220Y-102873797D01*
X171565084Y-102812850D01*
X171581620Y-102762391D01*
X171608164Y-102720280D01*
X171645315Y-102685120D01*
X171689158Y-102659026D01*
X171744126Y-102638982D01*
X171812582Y-102625850D01*
X171897313Y-102621067D01*
X172213607Y-102621067D01*
X172234734Y-102624444D01*
G37*
G36*
X171347766Y-103179895D02*
G01*
X171360223Y-103177666D01*
X171369321Y-103171346D01*
X171375046Y-103161569D01*
X171377137Y-103147716D01*
X171377137Y-103075115D01*
X171375089Y-103063239D01*
X171369321Y-103054598D01*
X171360308Y-103049032D01*
X171347766Y-103047027D01*
X170781489Y-103047027D01*
X170766979Y-103049072D01*
X170756882Y-103054598D01*
X170750261Y-103063335D01*
X170747967Y-103075115D01*
X170747967Y-103147716D01*
X170750434Y-103159241D01*
X170758225Y-103170003D01*
X170769307Y-103177480D01*
X170781489Y-103179895D01*
X171347766Y-103179895D01*
G37*
G36*
X170409508Y-103332302D02*
G01*
X170374642Y-103332302D01*
X170324145Y-103332302D01*
X170290305Y-103335587D01*
X170271571Y-103343415D01*
X170260070Y-103357405D01*
X170255818Y-103380113D01*
X170259957Y-103405267D01*
X170270533Y-103419253D01*
X170289841Y-103426547D01*
X170335075Y-103430000D01*
X170505861Y-103430000D01*
X170537918Y-103430000D01*
X170560281Y-103426599D01*
X170574860Y-103417543D01*
X170583773Y-103402791D01*
X170587133Y-103380113D01*
X170583164Y-103355599D01*
X170573150Y-103342377D01*
X170555533Y-103335423D01*
X170518806Y-103332302D01*
X170505800Y-103332302D01*
X170505800Y-102718764D01*
X170522897Y-102718764D01*
X170575503Y-102715317D01*
X170600444Y-102707773D01*
X170615304Y-102693090D01*
X170620594Y-102669244D01*
X170616000Y-102646801D01*
X170603192Y-102632424D01*
X170582688Y-102624401D01*
X170546833Y-102621067D01*
X170533155Y-102621067D01*
X170505800Y-102621067D01*
X170441564Y-102621067D01*
X170412667Y-102623255D01*
X170397540Y-102628272D01*
X170385444Y-102638990D01*
X170367803Y-102664787D01*
X170023543Y-103258724D01*
X170023543Y-102718764D01*
X170050165Y-102718764D01*
X170098709Y-102718764D01*
X170132628Y-102715319D01*
X170152320Y-102706919D01*
X170164638Y-102692213D01*
X170169050Y-102669916D01*
X170165009Y-102645246D01*
X170154701Y-102631570D01*
X170136149Y-102624395D01*
X170094556Y-102621067D01*
X169931280Y-102621067D01*
X169898490Y-102621067D01*
X169876219Y-102624421D01*
X169861976Y-102633279D01*
X169853289Y-102647686D01*
X169850008Y-102669916D01*
X169854092Y-102693972D01*
X169864724Y-102707896D01*
X169882787Y-102715465D01*
X169918335Y-102718764D01*
X169926517Y-102718764D01*
X169926517Y-103406857D01*
X169929156Y-103424559D01*
X169935737Y-103434213D01*
X169948197Y-103439294D01*
X169978419Y-103441723D01*
X170019818Y-103437876D01*
X170027986Y-103430014D01*
X170046074Y-103401973D01*
X170409508Y-102774146D01*
X170409508Y-103332302D01*
G37*
G36*
X169448414Y-102602584D02*
G01*
X169505987Y-102616984D01*
X169558294Y-102640512D01*
X169606186Y-102673431D01*
X169650218Y-102716566D01*
X169694323Y-102778561D01*
X169726370Y-102849251D01*
X169746347Y-102930240D01*
X169753349Y-103023579D01*
X169746331Y-103115711D01*
X169726242Y-103196204D01*
X169693886Y-103267002D01*
X169649180Y-103329616D01*
X169604674Y-103373272D01*
X169556616Y-103406486D01*
X169504480Y-103430144D01*
X169447452Y-103444578D01*
X169384481Y-103449539D01*
X169320866Y-103444566D01*
X169263436Y-103430123D01*
X169211113Y-103406491D01*
X169163064Y-103373375D01*
X169118745Y-103329921D01*
X169074219Y-103267511D01*
X169041954Y-103196750D01*
X169021896Y-103116099D01*
X169014881Y-103023579D01*
X169137857Y-103023579D01*
X169142600Y-103101190D01*
X169155831Y-103165887D01*
X169176425Y-103219752D01*
X169203803Y-103264525D01*
X169239964Y-103302862D01*
X169281334Y-103329731D01*
X169328950Y-103346128D01*
X169384481Y-103351842D01*
X169439620Y-103346143D01*
X169487011Y-103329770D01*
X169528295Y-103302905D01*
X169564488Y-103264525D01*
X169591838Y-103219756D01*
X169612414Y-103165892D01*
X169625633Y-103101194D01*
X169630373Y-103023579D01*
X169625649Y-102945110D01*
X169612511Y-102880085D01*
X169592138Y-102826314D01*
X169565160Y-102781962D01*
X169529332Y-102744007D01*
X169488098Y-102717337D01*
X169440385Y-102701017D01*
X169384481Y-102695317D01*
X169328954Y-102701034D01*
X169281339Y-102717441D01*
X169239968Y-102744328D01*
X169203803Y-102782695D01*
X169176428Y-102827438D01*
X169155834Y-102881282D01*
X169142601Y-102945967D01*
X169137857Y-103023579D01*
X169014881Y-103023579D01*
X169021882Y-102931429D01*
X169041919Y-102850941D01*
X169074182Y-102780170D01*
X169118745Y-102717604D01*
X169163083Y-102674002D01*
X169211143Y-102640784D01*
X169263464Y-102617085D01*
X169320884Y-102602605D01*
X169384481Y-102597620D01*
X169448414Y-102602584D01*
G37*
G36*
X168721484Y-103255366D02*
G01*
X168604003Y-102848824D01*
X168596623Y-102829524D01*
X168590020Y-102821285D01*
X168580364Y-102817238D01*
X168561627Y-102815484D01*
X168530914Y-102815484D01*
X168512756Y-102817281D01*
X168502581Y-102821591D01*
X168495237Y-102829780D01*
X168487866Y-102846076D01*
X168354692Y-103255366D01*
X168287709Y-102714856D01*
X168394993Y-102714856D01*
X168423826Y-102711670D01*
X168441093Y-102703743D01*
X168451804Y-102689993D01*
X168455748Y-102668328D01*
X168451842Y-102644868D01*
X168441765Y-102631509D01*
X168424350Y-102624254D01*
X168389497Y-102621067D01*
X168168824Y-102621067D01*
X168154961Y-102624304D01*
X168142201Y-102634623D01*
X168133591Y-102649566D01*
X168130600Y-102668328D01*
X168134124Y-102689639D01*
X168143606Y-102703438D01*
X168158761Y-102711685D01*
X168182501Y-102714856D01*
X168190744Y-102714856D01*
X168287709Y-103395317D01*
X168291179Y-103414377D01*
X168295586Y-103423222D01*
X168302708Y-103428131D01*
X168314331Y-103430000D01*
X168362875Y-103430000D01*
X168377371Y-103428297D01*
X168386810Y-103423893D01*
X168393928Y-103415875D01*
X168401099Y-103400690D01*
X168549354Y-102931378D01*
X168680512Y-103402034D01*
X168686511Y-103417129D01*
X168692847Y-103424565D01*
X168701753Y-103428410D01*
X168717393Y-103430000D01*
X168768623Y-103430000D01*
X168781044Y-103428206D01*
X168788834Y-103423527D01*
X168793773Y-103414671D01*
X168797993Y-103393913D01*
X168901857Y-102714856D01*
X168910040Y-102714856D01*
X168934446Y-102711585D01*
X168950034Y-102703072D01*
X168959793Y-102689037D01*
X168963346Y-102668328D01*
X168960472Y-102648937D01*
X168952416Y-102634256D01*
X168940141Y-102624289D01*
X168925793Y-102621067D01*
X168704448Y-102621067D01*
X168670199Y-102624242D01*
X168652913Y-102631509D01*
X168642789Y-102644874D01*
X168638869Y-102668328D01*
X168642827Y-102689987D01*
X168653585Y-102703743D01*
X168670722Y-102711685D01*
X168698953Y-102714856D01*
X168795245Y-102714856D01*
X168721484Y-103255366D01*
G37*
G36*
X167199423Y-102624444D02*
G01*
X167213834Y-102633646D01*
X167222789Y-102648251D01*
X167226107Y-102669916D01*
X167221994Y-102694551D01*
X167211453Y-102708262D01*
X167190950Y-102715256D01*
X167136653Y-102718764D01*
X167088843Y-102718764D01*
X167088843Y-103332302D01*
X167176953Y-103332302D01*
X167199909Y-103335578D01*
X167214200Y-103344087D01*
X167222831Y-103358109D01*
X167226107Y-103380113D01*
X167222782Y-103402254D01*
X167213834Y-103417177D01*
X167199400Y-103426566D01*
X167178297Y-103430000D01*
X166844295Y-103430000D01*
X166807621Y-103426611D01*
X166789645Y-103418948D01*
X166779309Y-103404787D01*
X166775296Y-103380113D01*
X166779340Y-103357845D01*
X166790317Y-103343721D01*
X166808115Y-103335612D01*
X166838799Y-103332302D01*
X166981559Y-103332302D01*
X166981559Y-103125184D01*
X166862002Y-103125184D01*
X166776431Y-103120426D01*
X166707662Y-103107394D01*
X166652786Y-103087573D01*
X166609333Y-103061864D01*
X166572525Y-103027033D01*
X166546184Y-102985152D01*
X166529747Y-102934798D01*
X166524154Y-102876362D01*
X166640047Y-102876362D01*
X166646467Y-102926909D01*
X166664321Y-102965747D01*
X166693353Y-102995736D01*
X166731049Y-103016268D01*
X166783092Y-103030090D01*
X166853820Y-103035303D01*
X166981559Y-103035303D01*
X166981559Y-102718764D01*
X166853820Y-102718764D01*
X166783562Y-102723958D01*
X166731572Y-102737764D01*
X166693658Y-102758332D01*
X166664370Y-102788308D01*
X166646458Y-102826744D01*
X166640047Y-102876362D01*
X166524154Y-102876362D01*
X166523909Y-102873797D01*
X166529773Y-102812850D01*
X166546309Y-102762391D01*
X166572853Y-102720280D01*
X166610005Y-102685120D01*
X166653848Y-102659026D01*
X166708816Y-102638982D01*
X166777272Y-102625850D01*
X166862002Y-102621067D01*
X167178297Y-102621067D01*
X167199423Y-102624444D01*
G37*
G36*
X166094530Y-103332302D02*
G01*
X165867751Y-103332302D01*
X165843469Y-103335507D01*
X165828489Y-103343721D01*
X165819341Y-103357604D01*
X165815849Y-103380113D01*
X165819322Y-103405581D01*
X165827817Y-103419253D01*
X165842753Y-103426784D01*
X165871842Y-103430000D01*
X166318623Y-103430000D01*
X166342970Y-103426579D01*
X166358923Y-103417543D01*
X166368908Y-103402655D01*
X166372601Y-103380113D01*
X166368837Y-103358313D01*
X166358618Y-103344087D01*
X166342089Y-103335630D01*
X166315204Y-103332302D01*
X166196318Y-103332302D01*
X166196318Y-102894619D01*
X166242786Y-102894619D01*
X166302759Y-102891064D01*
X166325462Y-102883995D01*
X166337311Y-102869899D01*
X166341826Y-102845099D01*
X166338232Y-102823297D01*
X166328515Y-102808951D01*
X166312821Y-102800276D01*
X166287848Y-102796922D01*
X166132083Y-102796922D01*
X166115081Y-102798952D01*
X166104117Y-102804188D01*
X166097015Y-102812837D01*
X166094530Y-102825132D01*
X166094530Y-102942124D01*
X166048652Y-102890445D01*
X166003649Y-102850585D01*
X165959281Y-102820980D01*
X165911104Y-102798909D01*
X165860789Y-102785732D01*
X165807606Y-102781290D01*
X165750739Y-102787933D01*
X165709298Y-102805898D01*
X165687814Y-102824552D01*
X165675728Y-102845377D01*
X165671685Y-102869340D01*
X165676301Y-102892919D01*
X165690491Y-102914036D01*
X165710684Y-102928871D01*
X165731830Y-102933515D01*
X165749557Y-102929576D01*
X165784769Y-102912693D01*
X165821617Y-102896582D01*
X165851325Y-102891871D01*
X165885888Y-102895722D01*
X165923063Y-102907887D01*
X165963738Y-102929790D01*
X166022201Y-102975226D01*
X166094530Y-103049591D01*
X166094530Y-103332302D01*
G37*
G36*
X165266700Y-102791411D02*
G01*
X165334727Y-102809172D01*
X165394248Y-102837783D01*
X165446615Y-102877400D01*
X165490139Y-102926664D01*
X165520947Y-102981811D01*
X165539790Y-103044034D01*
X165546327Y-103115048D01*
X165539794Y-103186092D01*
X165520957Y-103248403D01*
X165490147Y-103303684D01*
X165446615Y-103353124D01*
X165394229Y-103392884D01*
X165334702Y-103421587D01*
X165266682Y-103439400D01*
X165188389Y-103445631D01*
X165109700Y-103439389D01*
X165041452Y-103421557D01*
X164981841Y-103392851D01*
X164929492Y-103353124D01*
X164885931Y-103303681D01*
X164855103Y-103248398D01*
X164836255Y-103186088D01*
X164829815Y-103116086D01*
X164948604Y-103116086D01*
X164953020Y-103165573D01*
X164965758Y-103209121D01*
X164986569Y-103247860D01*
X165015893Y-103282599D01*
X165051418Y-103310870D01*
X165091384Y-103331112D01*
X165136653Y-103343590D01*
X165188389Y-103347934D01*
X165240119Y-103343607D01*
X165285319Y-103331187D01*
X165325163Y-103311056D01*
X165360519Y-103282965D01*
X165389627Y-103248402D01*
X165410329Y-103209676D01*
X165423031Y-103165958D01*
X165427442Y-103116086D01*
X165423036Y-103066607D01*
X165410310Y-103022936D01*
X165389498Y-102983965D01*
X165360153Y-102948902D01*
X165324580Y-102920280D01*
X165284707Y-102899839D01*
X165239693Y-102887266D01*
X165188389Y-102882896D01*
X165137057Y-102887263D01*
X165091967Y-102899831D01*
X165051980Y-102920273D01*
X165016259Y-102948902D01*
X164986739Y-102983987D01*
X164965817Y-103022966D01*
X164953030Y-103066628D01*
X164948604Y-103116086D01*
X164829815Y-103116086D01*
X164829719Y-103115048D01*
X164836259Y-103044418D01*
X164855136Y-102982355D01*
X164886053Y-102927174D01*
X164929797Y-102877705D01*
X164982330Y-102837938D01*
X165041973Y-102809234D01*
X165110070Y-102791425D01*
X165188389Y-102785198D01*
X165266700Y-102791411D01*
G37*
G36*
X164162691Y-102832093D02*
G01*
X164131944Y-102835489D01*
X164113843Y-102843878D01*
X164102598Y-102858427D01*
X164098456Y-102881308D01*
X164102289Y-102903138D01*
X164112805Y-102917700D01*
X164129541Y-102926418D01*
X164155853Y-102929790D01*
X164432519Y-102929790D01*
X164432519Y-103159623D01*
X164428151Y-103235594D01*
X164417546Y-103281992D01*
X164403515Y-103308244D01*
X164381478Y-103327016D01*
X164349525Y-103339355D01*
X164304047Y-103344026D01*
X164263205Y-103340555D01*
X164214138Y-103329108D01*
X164155181Y-103307817D01*
X164075660Y-103277633D01*
X164047897Y-103271608D01*
X164030233Y-103275029D01*
X164015474Y-103285286D01*
X164005526Y-103300370D01*
X164002163Y-103318747D01*
X164006293Y-103339704D01*
X164018893Y-103358009D01*
X164039270Y-103373193D01*
X164075924Y-103390493D01*
X164141664Y-103414228D01*
X164196519Y-103429450D01*
X164249502Y-103438774D01*
X164297269Y-103441723D01*
X164350121Y-103438562D01*
X164394428Y-103429728D01*
X164431542Y-103415956D01*
X164465000Y-103395728D01*
X164491717Y-103370337D01*
X164512447Y-103339324D01*
X164523920Y-103313723D01*
X164531926Y-103282294D01*
X164536007Y-103244840D01*
X164537726Y-103180628D01*
X164537726Y-103159317D01*
X164537726Y-102929790D01*
X164653803Y-102929790D01*
X164679971Y-102926536D01*
X164695507Y-102918372D01*
X164704862Y-102904372D01*
X164708452Y-102881308D01*
X164703601Y-102856508D01*
X164690683Y-102842473D01*
X164667779Y-102835435D01*
X164614907Y-102832093D01*
X164537726Y-102832093D01*
X164537726Y-102693913D01*
X164537726Y-102658131D01*
X164534189Y-102631746D01*
X164525087Y-102615389D01*
X164509861Y-102605324D01*
X164485825Y-102601528D01*
X164459256Y-102606199D01*
X164444120Y-102618381D01*
X164436295Y-102640820D01*
X164432519Y-102695256D01*
X164432519Y-102832093D01*
X164162691Y-102832093D01*
G37*
G36*
X163588263Y-102791411D02*
G01*
X163656290Y-102809172D01*
X163715811Y-102837783D01*
X163768178Y-102877400D01*
X163811702Y-102926664D01*
X163842510Y-102981811D01*
X163861353Y-103044034D01*
X163867890Y-103115048D01*
X163861357Y-103186092D01*
X163842520Y-103248403D01*
X163811710Y-103303684D01*
X163768178Y-103353124D01*
X163715793Y-103392884D01*
X163656265Y-103421587D01*
X163588245Y-103439400D01*
X163509952Y-103445631D01*
X163431263Y-103439389D01*
X163363016Y-103421557D01*
X163303404Y-103392851D01*
X163251055Y-103353124D01*
X163207494Y-103303681D01*
X163176666Y-103248398D01*
X163157818Y-103186088D01*
X163151378Y-103116086D01*
X163270167Y-103116086D01*
X163274583Y-103165573D01*
X163287321Y-103209121D01*
X163308132Y-103247860D01*
X163337456Y-103282599D01*
X163372981Y-103310870D01*
X163412948Y-103331112D01*
X163458216Y-103343590D01*
X163509952Y-103347934D01*
X163561682Y-103343607D01*
X163606882Y-103331187D01*
X163646726Y-103311056D01*
X163682083Y-103282965D01*
X163711190Y-103248402D01*
X163731893Y-103209676D01*
X163744594Y-103165958D01*
X163749005Y-103116086D01*
X163744599Y-103066607D01*
X163731873Y-103022936D01*
X163711061Y-102983965D01*
X163681716Y-102948902D01*
X163646143Y-102920280D01*
X163606270Y-102899839D01*
X163561256Y-102887266D01*
X163509952Y-102882896D01*
X163458620Y-102887263D01*
X163413530Y-102899831D01*
X163373543Y-102920273D01*
X163337822Y-102948902D01*
X163308302Y-102983987D01*
X163287380Y-103022966D01*
X163274593Y-103066628D01*
X163270167Y-103116086D01*
X163151378Y-103116086D01*
X163151282Y-103115048D01*
X163157822Y-103044418D01*
X163176700Y-102982355D01*
X163207616Y-102927174D01*
X163251360Y-102877705D01*
X163303893Y-102837938D01*
X163363536Y-102809234D01*
X163431633Y-102791425D01*
X163509952Y-102785198D01*
X163588263Y-102791411D01*
G37*
G36*
X162465081Y-102838504D02*
G01*
X162465081Y-102835757D01*
X162461592Y-102816027D01*
X162452137Y-102803394D01*
X162436872Y-102795963D01*
X162411837Y-102793014D01*
X162387226Y-102797539D01*
X162373246Y-102809439D01*
X162365998Y-102830368D01*
X162362622Y-102877095D01*
X162362622Y-103004284D01*
X162366166Y-103027232D01*
X162375628Y-103042203D01*
X162390910Y-103051371D01*
X162414584Y-103054842D01*
X162431897Y-103052119D01*
X162446336Y-103044157D01*
X162459392Y-103030008D01*
X162478759Y-102999766D01*
X162515885Y-102949894D01*
X162558382Y-102915380D01*
X162607970Y-102894134D01*
X162665971Y-102886803D01*
X162718612Y-102891015D01*
X162764258Y-102903047D01*
X162804127Y-102922427D01*
X162839139Y-102949269D01*
X162868121Y-102982569D01*
X162888697Y-103019979D01*
X162901312Y-103062324D01*
X162905696Y-103110774D01*
X162901454Y-103160410D01*
X162889271Y-103203782D01*
X162869493Y-103242034D01*
X162841826Y-103276004D01*
X162807982Y-103303808D01*
X162769928Y-103323657D01*
X162726838Y-103335869D01*
X162677573Y-103340118D01*
X162632588Y-103336914D01*
X162590439Y-103327479D01*
X162550374Y-103311756D01*
X162512220Y-103289560D01*
X162477416Y-103264281D01*
X162434024Y-103235240D01*
X162407745Y-103228072D01*
X162388263Y-103231502D01*
X162373246Y-103241383D01*
X162363365Y-103256400D01*
X162359935Y-103275882D01*
X162364612Y-103299162D01*
X162380174Y-103324708D01*
X162410683Y-103353913D01*
X162462090Y-103387745D01*
X162531989Y-103420061D01*
X162603929Y-103439216D01*
X162678916Y-103445631D01*
X162751606Y-103439407D01*
X162816052Y-103421422D01*
X162873779Y-103392041D01*
X162925907Y-103350743D01*
X162969196Y-103300157D01*
X162999681Y-103244592D01*
X163018200Y-103182987D01*
X163024581Y-103113827D01*
X163018220Y-103044620D01*
X162999755Y-102982932D01*
X162969361Y-102927259D01*
X162926212Y-102876545D01*
X162874233Y-102835053D01*
X162816725Y-102805566D01*
X162752574Y-102787529D01*
X162680259Y-102781290D01*
X162628535Y-102784752D01*
X162576151Y-102795273D01*
X162523659Y-102812495D01*
X162465081Y-102838504D01*
G37*
G36*
X161909826Y-102791411D02*
G01*
X161977853Y-102809172D01*
X162037374Y-102837783D01*
X162089741Y-102877400D01*
X162133265Y-102926664D01*
X162164073Y-102981811D01*
X162182916Y-103044034D01*
X162189453Y-103115048D01*
X162182921Y-103186092D01*
X162164083Y-103248403D01*
X162133273Y-103303684D01*
X162089741Y-103353124D01*
X162037356Y-103392884D01*
X161977828Y-103421587D01*
X161909808Y-103439400D01*
X161831516Y-103445631D01*
X161752826Y-103439389D01*
X161684579Y-103421557D01*
X161624967Y-103392851D01*
X161572618Y-103353124D01*
X161529057Y-103303681D01*
X161498229Y-103248398D01*
X161479381Y-103186088D01*
X161472941Y-103116086D01*
X161591730Y-103116086D01*
X161596146Y-103165573D01*
X161608885Y-103209121D01*
X161629695Y-103247860D01*
X161659019Y-103282599D01*
X161694545Y-103310870D01*
X161734511Y-103331112D01*
X161779779Y-103343590D01*
X161831516Y-103347934D01*
X161883245Y-103343607D01*
X161928445Y-103331187D01*
X161968289Y-103311056D01*
X162003646Y-103282965D01*
X162032753Y-103248402D01*
X162053456Y-103209676D01*
X162066157Y-103165958D01*
X162070568Y-103116086D01*
X162066162Y-103066607D01*
X162053436Y-103022936D01*
X162032625Y-102983965D01*
X162003279Y-102948902D01*
X161967706Y-102920280D01*
X161927833Y-102899839D01*
X161882820Y-102887266D01*
X161831516Y-102882896D01*
X161780183Y-102887263D01*
X161735093Y-102899831D01*
X161695106Y-102920273D01*
X161659385Y-102948902D01*
X161629865Y-102983987D01*
X161608943Y-103022966D01*
X161596157Y-103066628D01*
X161591730Y-103116086D01*
X161472941Y-103116086D01*
X161472845Y-103115048D01*
X161479385Y-103044418D01*
X161498263Y-102982355D01*
X161529179Y-102927174D01*
X161572923Y-102877705D01*
X161625456Y-102837938D01*
X161685099Y-102809234D01*
X161753196Y-102791425D01*
X161831516Y-102785198D01*
X161909826Y-102791411D01*
G37*
G36*
X161038032Y-102632791D02*
G01*
X161154169Y-102632791D01*
X161214245Y-102629285D01*
X161237212Y-102622288D01*
X161249354Y-102608349D01*
X161253942Y-102583942D01*
X161250187Y-102561907D01*
X161239959Y-102547306D01*
X161223721Y-102538441D01*
X161199293Y-102535094D01*
X160973857Y-102535094D01*
X160956768Y-102537159D01*
X160945158Y-102542604D01*
X160937477Y-102551449D01*
X160934900Y-102563060D01*
X160934900Y-103332302D01*
X160720394Y-103332302D01*
X160696821Y-103335513D01*
X160682536Y-103343721D01*
X160673899Y-103357535D01*
X160670568Y-103380113D01*
X160673948Y-103405623D01*
X160682170Y-103419253D01*
X160696849Y-103426772D01*
X160725889Y-103430000D01*
X161230006Y-103430000D01*
X161254412Y-103426593D01*
X161270673Y-103417543D01*
X161280892Y-103402626D01*
X161284656Y-103380113D01*
X161280808Y-103358348D01*
X161270307Y-103344087D01*
X161253600Y-103335598D01*
X161227259Y-103332302D01*
X161038032Y-103332302D01*
X161038032Y-102632791D01*
G37*
D13*
%TO.C,G\u002A\u002A\u002A*%
G36*
X159689745Y-93105328D02*
G01*
X159814676Y-93163825D01*
X159912293Y-93264811D01*
X159968788Y-93409540D01*
X159973065Y-93442334D01*
X159953424Y-93588365D01*
X159881329Y-93720985D01*
X159769727Y-93813898D01*
X159750242Y-93822323D01*
X159647043Y-93847890D01*
X159527991Y-93858445D01*
X159429947Y-93851540D01*
X159343579Y-93816561D01*
X159252290Y-93738017D01*
X159200904Y-93682192D01*
X159146306Y-93589906D01*
X159131338Y-93485596D01*
X159138588Y-93406298D01*
X159192998Y-93271156D01*
X159289126Y-93172235D01*
X159413164Y-93110787D01*
X159551305Y-93088067D01*
X159689745Y-93105328D01*
G37*
G36*
X159916382Y-95325162D02*
G01*
X159916735Y-95464545D01*
X159917817Y-95747611D01*
X159919297Y-96011244D01*
X159921088Y-96245103D01*
X159923106Y-96438842D01*
X159925264Y-96582120D01*
X159927476Y-96664592D01*
X159928285Y-96686523D01*
X159920180Y-96826590D01*
X159886950Y-96904718D01*
X159861980Y-96919702D01*
X159772464Y-96941405D01*
X159646547Y-96953489D01*
X159505605Y-96955937D01*
X159371017Y-96948731D01*
X159264158Y-96931854D01*
X159206405Y-96905288D01*
X159196336Y-96874224D01*
X159187148Y-96793028D01*
X159180350Y-96659489D01*
X159175857Y-96469850D01*
X159173586Y-96220357D01*
X159173451Y-95907255D01*
X159175368Y-95526786D01*
X159184699Y-94196925D01*
X159549335Y-94186787D01*
X159913971Y-94176649D01*
X159916382Y-95325162D01*
G37*
G36*
X165529316Y-81030985D02*
G01*
X166055707Y-81114570D01*
X166575010Y-81268742D01*
X167086706Y-81493393D01*
X167590274Y-81788413D01*
X167718155Y-81879881D01*
X167866663Y-81998740D01*
X168018304Y-82130444D01*
X168163256Y-82265491D01*
X168291702Y-82394380D01*
X168393822Y-82507611D01*
X168459796Y-82595683D01*
X168479804Y-82649095D01*
X168475922Y-82661030D01*
X168440539Y-82690418D01*
X168359990Y-82710229D01*
X168221297Y-82724236D01*
X167973676Y-82742023D01*
X167901703Y-82928788D01*
X167868810Y-83006582D01*
X167826965Y-83085129D01*
X167797862Y-83115552D01*
X167774285Y-83102576D01*
X167706950Y-83049206D01*
X167609888Y-82964091D01*
X167495235Y-82857576D01*
X167402683Y-82771980D01*
X167024440Y-82474015D01*
X166624662Y-82241348D01*
X166195813Y-82070130D01*
X165730358Y-81956515D01*
X165524927Y-81926684D01*
X165047210Y-81907329D01*
X164575024Y-81956998D01*
X164113324Y-82074217D01*
X163667064Y-82257511D01*
X163241201Y-82505405D01*
X162840691Y-82816424D01*
X162654666Y-82981210D01*
X162520523Y-82912214D01*
X162512113Y-82907989D01*
X162405571Y-82862164D01*
X162262244Y-82809093D01*
X162110680Y-82759420D01*
X162074307Y-82747988D01*
X161951776Y-82703064D01*
X161866786Y-82661571D01*
X161834980Y-82630808D01*
X161841968Y-82607479D01*
X161891860Y-82533050D01*
X161981121Y-82429077D01*
X162099517Y-82305979D01*
X162236812Y-82174176D01*
X162382772Y-82044087D01*
X162527161Y-81926132D01*
X162568590Y-81894391D01*
X162979947Y-81613186D01*
X163397626Y-81392749D01*
X163839629Y-81224814D01*
X164323959Y-81101117D01*
X164457358Y-81076017D01*
X164996360Y-81018098D01*
X165529316Y-81030985D01*
G37*
G36*
X166292979Y-95648308D02*
G01*
X166278464Y-95896921D01*
X166241720Y-96098867D01*
X166176975Y-96271246D01*
X166078453Y-96431162D01*
X165940381Y-96595716D01*
X165901417Y-96636625D01*
X165724922Y-96787955D01*
X165534426Y-96888579D01*
X165303467Y-96953355D01*
X165104203Y-96980792D01*
X164796231Y-96971738D01*
X164510580Y-96898231D01*
X164252940Y-96762005D01*
X164029001Y-96564797D01*
X164011456Y-96544873D01*
X163860408Y-96318988D01*
X163756407Y-96057126D01*
X163699029Y-95772404D01*
X163690719Y-95553478D01*
X164467473Y-95553478D01*
X164481618Y-95805080D01*
X164529108Y-96016884D01*
X164611733Y-96174255D01*
X164731216Y-96281953D01*
X164788170Y-96310230D01*
X164951833Y-96346089D01*
X165125654Y-96334898D01*
X165279206Y-96276936D01*
X165289092Y-96270657D01*
X165400500Y-96158170D01*
X165483793Y-95995951D01*
X165537323Y-95799169D01*
X165559448Y-95582994D01*
X165548521Y-95362595D01*
X165502899Y-95153141D01*
X165420937Y-94969802D01*
X165323989Y-94856657D01*
X165178057Y-94772765D01*
X165013565Y-94743640D01*
X164847853Y-94771910D01*
X164698265Y-94860207D01*
X164632393Y-94923773D01*
X164552100Y-95033434D01*
X164501467Y-95164071D01*
X164475067Y-95331986D01*
X164467473Y-95553478D01*
X163690719Y-95553478D01*
X163687852Y-95477939D01*
X163722453Y-95186848D01*
X163802409Y-94912248D01*
X163927298Y-94667257D01*
X164096695Y-94464993D01*
X164163055Y-94407832D01*
X164408536Y-94251982D01*
X164676793Y-94154805D01*
X164956759Y-94115890D01*
X165237369Y-94134826D01*
X165507557Y-94211203D01*
X165756255Y-94344609D01*
X165972399Y-94534633D01*
X165981639Y-94544974D01*
X166108012Y-94706334D01*
X166197185Y-94870867D01*
X166254395Y-95055098D01*
X166284879Y-95275549D01*
X166293877Y-95548746D01*
X166293568Y-95582994D01*
X166292979Y-95648308D01*
G37*
G36*
X177316866Y-85623344D02*
G01*
X177232042Y-85910089D01*
X177088925Y-86162594D01*
X176891460Y-86375157D01*
X176643591Y-86542074D01*
X176349265Y-86657644D01*
X176276407Y-86675361D01*
X175992759Y-86698748D01*
X175701570Y-86653344D01*
X175408331Y-86539838D01*
X175275481Y-86455705D01*
X175131655Y-86336903D01*
X174995536Y-86201575D01*
X174884905Y-86067411D01*
X174817542Y-85952097D01*
X174813063Y-85940931D01*
X174779000Y-85861377D01*
X174757198Y-85819194D01*
X174751772Y-85817281D01*
X174692033Y-85810876D01*
X174575330Y-85803815D01*
X174412279Y-85796591D01*
X174213496Y-85789695D01*
X173989598Y-85783620D01*
X173236520Y-85765833D01*
X173236520Y-85363979D01*
X175537951Y-85363979D01*
X175563104Y-85532890D01*
X175646067Y-85679801D01*
X175782271Y-85789765D01*
X175862927Y-85825068D01*
X176042894Y-85850026D01*
X176227773Y-85804202D01*
X176266096Y-85785723D01*
X176398625Y-85682404D01*
X176478880Y-85550902D01*
X176509750Y-85404149D01*
X176494124Y-85255077D01*
X176434892Y-85116620D01*
X176334944Y-85001711D01*
X176197169Y-84923281D01*
X176024457Y-84894264D01*
X176008071Y-84894430D01*
X175827221Y-84925333D01*
X175689176Y-85011777D01*
X175588805Y-85156853D01*
X175575177Y-85188016D01*
X175537951Y-85363979D01*
X173236520Y-85363979D01*
X173236520Y-85356729D01*
X173236520Y-84947625D01*
X173989471Y-84938033D01*
X174742422Y-84928441D01*
X174854479Y-84729887D01*
X174975707Y-84547107D01*
X175180886Y-84331101D01*
X175418250Y-84167205D01*
X175678466Y-84060131D01*
X175952198Y-84014593D01*
X176230112Y-84035303D01*
X176504450Y-84118316D01*
X176767304Y-84260754D01*
X176988669Y-84450765D01*
X177161704Y-84680940D01*
X177279571Y-84943875D01*
X177335430Y-85232164D01*
X177339450Y-85308062D01*
X177332567Y-85404149D01*
X177316866Y-85623344D01*
G37*
G36*
X158108246Y-89299628D02*
G01*
X158173230Y-89431228D01*
X158208351Y-89519601D01*
X158217593Y-89575486D01*
X158204938Y-89609620D01*
X158196611Y-89617165D01*
X158163794Y-89631051D01*
X158104691Y-89641794D01*
X158011824Y-89649762D01*
X157877719Y-89655321D01*
X157694899Y-89658837D01*
X157455889Y-89660678D01*
X157153212Y-89661211D01*
X156144301Y-89661211D01*
X156052261Y-89842844D01*
X156016419Y-89907803D01*
X155847612Y-90128394D01*
X155629800Y-90316628D01*
X155378653Y-90460764D01*
X155109839Y-90549061D01*
X155058289Y-90558266D01*
X154794942Y-90564879D01*
X154525659Y-90511772D01*
X154265709Y-90404881D01*
X154030362Y-90250141D01*
X153834888Y-90053486D01*
X153724753Y-89892113D01*
X153603777Y-89618361D01*
X153547837Y-89329216D01*
X153550869Y-89234320D01*
X154399966Y-89234320D01*
X154414180Y-89365251D01*
X154478645Y-89522739D01*
X154588605Y-89635553D01*
X154711395Y-89691984D01*
X154882289Y-89714305D01*
X155049624Y-89683563D01*
X155190063Y-89601094D01*
X155199672Y-89592198D01*
X155307106Y-89449200D01*
X155354555Y-89292397D01*
X155347024Y-89134845D01*
X155289513Y-88989599D01*
X155187025Y-88869714D01*
X155044562Y-88788247D01*
X154867127Y-88758252D01*
X154821175Y-88759904D01*
X154645737Y-88803178D01*
X154513127Y-88900676D01*
X154429238Y-89046393D01*
X154399966Y-89234320D01*
X153550869Y-89234320D01*
X153557280Y-89033673D01*
X153632451Y-88740730D01*
X153773695Y-88459382D01*
X153819479Y-88392790D01*
X154011362Y-88190373D01*
X154252385Y-88037472D01*
X154545110Y-87932338D01*
X154828312Y-87891432D01*
X155119523Y-87914532D01*
X155396600Y-88001722D01*
X155651492Y-88149395D01*
X155876145Y-88353947D01*
X156062506Y-88611771D01*
X156165823Y-88789642D01*
X157005822Y-88799174D01*
X157845822Y-88808705D01*
X158046788Y-89183368D01*
X158104424Y-89292397D01*
X158108246Y-89299628D01*
G37*
G36*
X157096249Y-85427877D02*
G01*
X157085820Y-85765833D01*
X156214251Y-85783620D01*
X155342683Y-85801407D01*
X155285429Y-85916001D01*
X155203087Y-86058393D01*
X155005867Y-86295636D01*
X154761753Y-86486635D01*
X154481813Y-86621669D01*
X154373994Y-86656737D01*
X154172620Y-86698611D01*
X153977103Y-86699166D01*
X153754384Y-86660151D01*
X153619684Y-86619717D01*
X153367094Y-86495078D01*
X153143312Y-86320679D01*
X152961948Y-86108245D01*
X152836612Y-85869500D01*
X152787628Y-85688413D01*
X152760551Y-85456230D01*
X152761027Y-85394321D01*
X153585612Y-85394321D01*
X153621318Y-85556840D01*
X153709590Y-85697004D01*
X153845608Y-85797619D01*
X153862604Y-85805330D01*
X154036551Y-85847631D01*
X154205913Y-85830414D01*
X154356144Y-85760183D01*
X154472699Y-85643440D01*
X154541033Y-85486688D01*
X154546654Y-85459743D01*
X154554151Y-85306347D01*
X154507649Y-85171102D01*
X154400642Y-85032980D01*
X154346676Y-84978276D01*
X154273641Y-84922458D01*
X154193947Y-84899026D01*
X154075434Y-84894264D01*
X154004506Y-84896363D01*
X153860462Y-84924627D01*
X153751675Y-84995415D01*
X153655824Y-85120775D01*
X153607294Y-85226639D01*
X153585612Y-85394321D01*
X152761027Y-85394321D01*
X152762397Y-85216277D01*
X152792825Y-84992963D01*
X152851490Y-84810693D01*
X153003764Y-84556976D01*
X153213700Y-84333961D01*
X153467358Y-84165459D01*
X153760044Y-84055370D01*
X153899323Y-84027523D01*
X154192060Y-84019580D01*
X154473716Y-84079398D01*
X154736048Y-84204676D01*
X154970815Y-84393116D01*
X154973933Y-84396259D01*
X155084598Y-84517657D01*
X155185927Y-84645266D01*
X155256342Y-84751967D01*
X155344026Y-84912051D01*
X156205510Y-84921576D01*
X156392435Y-84923117D01*
X156629075Y-84924823D01*
X156807680Y-84929650D01*
X156936146Y-84942087D01*
X157022371Y-84966623D01*
X157074250Y-85007745D01*
X157099680Y-85069944D01*
X157106559Y-85157706D01*
X157102783Y-85275521D01*
X157101461Y-85306347D01*
X157096249Y-85427877D01*
G37*
G36*
X172147981Y-95867031D02*
G01*
X172073085Y-96150806D01*
X171956594Y-96403905D01*
X171802798Y-96610153D01*
X171631630Y-96751971D01*
X171419471Y-96872980D01*
X171200041Y-96953204D01*
X171084634Y-96970905D01*
X170899211Y-96975177D01*
X170695008Y-96961195D01*
X170499309Y-96931062D01*
X170339402Y-96886881D01*
X170239076Y-96844108D01*
X170026667Y-96710728D01*
X169852883Y-96528545D01*
X169707065Y-96287455D01*
X169698843Y-96270814D01*
X169645620Y-96160303D01*
X169609960Y-96072087D01*
X169588389Y-95987478D01*
X169577438Y-95887787D01*
X169573635Y-95754325D01*
X169573533Y-95604624D01*
X170308810Y-95604624D01*
X170337991Y-95841313D01*
X170407009Y-96050583D01*
X170511035Y-96213927D01*
X170543032Y-96247956D01*
X170610149Y-96299446D01*
X170693723Y-96326296D01*
X170821078Y-96339581D01*
X170920900Y-96340822D01*
X171090912Y-96308052D01*
X171220541Y-96224927D01*
X171312868Y-96087690D01*
X171370970Y-95892586D01*
X171397926Y-95635860D01*
X171400172Y-95568903D01*
X171393686Y-95337808D01*
X171359423Y-95156078D01*
X171293433Y-95009289D01*
X171191768Y-94883019D01*
X171157272Y-94849294D01*
X171075468Y-94783845D01*
X170995054Y-94754913D01*
X170883913Y-94748459D01*
X170706154Y-94772797D01*
X170551079Y-94854428D01*
X170434345Y-94994497D01*
X170355152Y-95193993D01*
X170312699Y-95453904D01*
X170308810Y-95604624D01*
X169573533Y-95604624D01*
X169573508Y-95568404D01*
X169577830Y-95362810D01*
X169598536Y-95133488D01*
X169641498Y-94946575D01*
X169712383Y-94786162D01*
X169816855Y-94636334D01*
X169960578Y-94481181D01*
X170039884Y-94406556D01*
X170217912Y-94271892D01*
X170402455Y-94186050D01*
X170613450Y-94141338D01*
X170870834Y-94130067D01*
X170978801Y-94134335D01*
X171284065Y-94186458D01*
X171548266Y-94296140D01*
X171769510Y-94461693D01*
X171945903Y-94681426D01*
X172075551Y-94953650D01*
X172156560Y-95276678D01*
X172176991Y-95568753D01*
X172176976Y-95568903D01*
X172147981Y-95867031D01*
G37*
G36*
X158258980Y-93504052D02*
G01*
X158358092Y-93515886D01*
X158416424Y-93550642D01*
X158445717Y-93620309D01*
X158457717Y-93736875D01*
X158464167Y-93912331D01*
X158473215Y-94161351D01*
X158651086Y-94179138D01*
X158828957Y-94196925D01*
X158839629Y-94422370D01*
X158841922Y-94493701D01*
X158833331Y-94623498D01*
X158797738Y-94701024D01*
X158726545Y-94738544D01*
X158611156Y-94748326D01*
X158455428Y-94748326D01*
X158455428Y-95524502D01*
X158455316Y-95606912D01*
X158451844Y-95913087D01*
X158441899Y-96159085D01*
X158423312Y-96353694D01*
X158393912Y-96505702D01*
X158351530Y-96623896D01*
X158293997Y-96717063D01*
X158219141Y-96793991D01*
X158124794Y-96863466D01*
X158028540Y-96914529D01*
X157912030Y-96957220D01*
X157909932Y-96957746D01*
X157815044Y-96970023D01*
X157678994Y-96974529D01*
X157530498Y-96970281D01*
X157401228Y-96959001D01*
X157283383Y-96932218D01*
X157214718Y-96882327D01*
X157182811Y-96798881D01*
X157175241Y-96671428D01*
X157176918Y-96572605D01*
X157189197Y-96455087D01*
X157220249Y-96387458D01*
X157278061Y-96356543D01*
X157370622Y-96349166D01*
X157489489Y-96335471D01*
X157606599Y-96281210D01*
X157628360Y-96262811D01*
X157651218Y-96236141D01*
X157667655Y-96198170D01*
X157678731Y-96138923D01*
X157685503Y-96048425D01*
X157689030Y-95916702D01*
X157690370Y-95733779D01*
X157690582Y-95489683D01*
X157690582Y-94766113D01*
X157496002Y-94755089D01*
X157418666Y-94748054D01*
X157315312Y-94729421D01*
X157255876Y-94706265D01*
X157232298Y-94655133D01*
X157216061Y-94556512D01*
X157209725Y-94436762D01*
X157214582Y-94321267D01*
X157231923Y-94235409D01*
X157253350Y-94208061D01*
X157320686Y-94185748D01*
X157444117Y-94179138D01*
X157476895Y-94178828D01*
X157580721Y-94168389D01*
X157648096Y-94134355D01*
X157686705Y-94064895D01*
X157704234Y-93948178D01*
X157708369Y-93772373D01*
X157708369Y-93503227D01*
X158063433Y-93503227D01*
X158107341Y-93503149D01*
X158258980Y-93504052D01*
G37*
G36*
X168988405Y-86869360D02*
G01*
X169054190Y-86906820D01*
X169065920Y-86977651D01*
X169029339Y-87090709D01*
X168950193Y-87254851D01*
X168767232Y-87575034D01*
X168461485Y-87996248D01*
X168106398Y-88377085D01*
X167709007Y-88712478D01*
X167276346Y-88997356D01*
X166815448Y-89226651D01*
X166333348Y-89395295D01*
X165837080Y-89498217D01*
X165734595Y-89506192D01*
X165575919Y-89510179D01*
X165378216Y-89510171D01*
X165155258Y-89506637D01*
X164920815Y-89500046D01*
X164688662Y-89490866D01*
X164472568Y-89479567D01*
X164286307Y-89466618D01*
X164143650Y-89452488D01*
X164058369Y-89437645D01*
X163558828Y-89261398D01*
X163056488Y-89012199D01*
X162589921Y-88701756D01*
X162161530Y-88331470D01*
X162090222Y-88260902D01*
X161909575Y-88071569D01*
X161785227Y-87921229D01*
X161716159Y-87807846D01*
X161701354Y-87729381D01*
X161739792Y-87683796D01*
X161830455Y-87669054D01*
X161836660Y-87668917D01*
X161926737Y-87655286D01*
X162055137Y-87623695D01*
X162196208Y-87580366D01*
X162219015Y-87572695D01*
X162349023Y-87531551D01*
X162453773Y-87502505D01*
X162512377Y-87491431D01*
X162556428Y-87510230D01*
X162634946Y-87568956D01*
X162725822Y-87653753D01*
X162986488Y-87893348D01*
X163377362Y-88170478D01*
X163806669Y-88390865D01*
X164268305Y-88551514D01*
X164756164Y-88649432D01*
X164910692Y-88668273D01*
X165064755Y-88680658D01*
X165205754Y-88681110D01*
X165361400Y-88669497D01*
X165559407Y-88645693D01*
X165786142Y-88611211D01*
X166126879Y-88535278D01*
X166436996Y-88429602D01*
X166733728Y-88286634D01*
X167034311Y-88098823D01*
X167355981Y-87858617D01*
X167449195Y-87785591D01*
X167541947Y-87720968D01*
X167617504Y-87686065D01*
X167697297Y-87671791D01*
X167802753Y-87669054D01*
X167893702Y-87665109D01*
X168004076Y-87648957D01*
X168071311Y-87624586D01*
X168094860Y-87594716D01*
X168140932Y-87505630D01*
X168195173Y-87376672D01*
X168250193Y-87224376D01*
X168369062Y-86868634D01*
X168693066Y-86858431D01*
X168862821Y-86856414D01*
X168988405Y-86869360D01*
G37*
G36*
X176435177Y-89394221D02*
G01*
X176428094Y-89522519D01*
X176411958Y-89618585D01*
X176383174Y-89702887D01*
X176338147Y-89795891D01*
X176216054Y-89994640D01*
X176012698Y-90218937D01*
X175762833Y-90391861D01*
X175461369Y-90517603D01*
X175379067Y-90543111D01*
X175274001Y-90570612D01*
X175187170Y-90579915D01*
X175089135Y-90572992D01*
X174950459Y-90551816D01*
X174866300Y-90535414D01*
X174579589Y-90437637D01*
X174324204Y-90284598D01*
X174110770Y-90083824D01*
X173949911Y-89842844D01*
X173857871Y-89661211D01*
X172995795Y-89660666D01*
X172827971Y-89659981D01*
X172599630Y-89657071D01*
X172400794Y-89652213D01*
X172241873Y-89645764D01*
X172133277Y-89638080D01*
X172085418Y-89629517D01*
X172074310Y-89616307D01*
X172074483Y-89574276D01*
X172100805Y-89499045D01*
X172156829Y-89381384D01*
X172193848Y-89311176D01*
X174657188Y-89311176D01*
X174710938Y-89468982D01*
X174817536Y-89601709D01*
X174973080Y-89694415D01*
X175028962Y-89711751D01*
X175195179Y-89720760D01*
X175348212Y-89672624D01*
X175476627Y-89577848D01*
X175568989Y-89446935D01*
X175613863Y-89290388D01*
X175599814Y-89118712D01*
X175581659Y-89063764D01*
X175492137Y-88918061D01*
X175364703Y-88816021D01*
X175214061Y-88761232D01*
X175054913Y-88757281D01*
X174901963Y-88807754D01*
X174769914Y-88916240D01*
X174723837Y-88980106D01*
X174660187Y-89143236D01*
X174657188Y-89311176D01*
X172193848Y-89311176D01*
X172246107Y-89212064D01*
X172455097Y-88825216D01*
X173150349Y-88815593D01*
X173845601Y-88805970D01*
X173918800Y-88655509D01*
X173992093Y-88527560D01*
X174156917Y-88320760D01*
X174355280Y-88143396D01*
X174566302Y-88016087D01*
X174607629Y-87998098D01*
X174900945Y-87910974D01*
X175194053Y-87889842D01*
X175478022Y-87931463D01*
X175743919Y-88032596D01*
X175982811Y-88190004D01*
X176185767Y-88400446D01*
X176343854Y-88660684D01*
X176376122Y-88733512D01*
X176408089Y-88827023D01*
X176426543Y-88927389D01*
X176434951Y-89056018D01*
X176436781Y-89234320D01*
X176436219Y-89290388D01*
X176435177Y-89394221D01*
G37*
G36*
X157972805Y-81657482D02*
G01*
X157897905Y-81782241D01*
X157839152Y-81871994D01*
X157805241Y-81912869D01*
X157789735Y-81916995D01*
X157710953Y-81924581D01*
X157577172Y-81931136D01*
X157399110Y-81936303D01*
X157187486Y-81939729D01*
X156953016Y-81941058D01*
X156144301Y-81941603D01*
X156051811Y-82124123D01*
X156033804Y-82158300D01*
X155866852Y-82395377D01*
X155652194Y-82593317D01*
X155403575Y-82741547D01*
X155134740Y-82829495D01*
X155089919Y-82837976D01*
X154909467Y-82859541D01*
X154750018Y-82850388D01*
X154575400Y-82809204D01*
X154352645Y-82728475D01*
X154078240Y-82574801D01*
X153860049Y-82378191D01*
X153699009Y-82139803D01*
X153596057Y-81860799D01*
X153553544Y-81552591D01*
X154400740Y-81552591D01*
X154442684Y-81716879D01*
X154526366Y-81859003D01*
X154645645Y-81957663D01*
X154684505Y-81975998D01*
X154849662Y-82015787D01*
X155001957Y-81997506D01*
X155134878Y-81931667D01*
X155241909Y-81828780D01*
X155316536Y-81699358D01*
X155352246Y-81553911D01*
X155342523Y-81402951D01*
X155280854Y-81256989D01*
X155160725Y-81126537D01*
X155148011Y-81117066D01*
X155010193Y-81058872D01*
X154849792Y-81049714D01*
X154688308Y-81085192D01*
X154547241Y-81160902D01*
X154448093Y-81272443D01*
X154406676Y-81387438D01*
X154400740Y-81552591D01*
X153553544Y-81552591D01*
X153552130Y-81542337D01*
X153551342Y-81523285D01*
X153547437Y-81380177D01*
X153553327Y-81274753D01*
X153574511Y-81181680D01*
X153616486Y-81075623D01*
X153684751Y-80931248D01*
X153770508Y-80771400D01*
X153921359Y-80565960D01*
X154101450Y-80411299D01*
X154323767Y-80297251D01*
X154601296Y-80213648D01*
X154623075Y-80208797D01*
X154914142Y-80182094D01*
X155207248Y-80226142D01*
X155503397Y-80341081D01*
X155506917Y-80342870D01*
X155679382Y-80456555D01*
X155847949Y-80611580D01*
X155991680Y-80785925D01*
X156089635Y-80957570D01*
X156144058Y-81087821D01*
X157153090Y-81087821D01*
X157403849Y-81088263D01*
X157663506Y-81090250D01*
X157863696Y-81094098D01*
X158010945Y-81100094D01*
X158111780Y-81108525D01*
X158172728Y-81119678D01*
X158200313Y-81133839D01*
X158201124Y-81134858D01*
X158208121Y-81175235D01*
X158186476Y-81249193D01*
X158132781Y-81365405D01*
X158043629Y-81532541D01*
X158031515Y-81553911D01*
X157972805Y-81657482D01*
G37*
G36*
X156035058Y-94140861D02*
G01*
X156071972Y-94147917D01*
X156334893Y-94228580D01*
X156553350Y-94351544D01*
X156721431Y-94511375D01*
X156833224Y-94702642D01*
X156882819Y-94919913D01*
X156883571Y-95050386D01*
X156846479Y-95231784D01*
X156759113Y-95389406D01*
X156617342Y-95526903D01*
X156417034Y-95647927D01*
X156154056Y-95756126D01*
X155824276Y-95855154D01*
X155761195Y-95872678D01*
X155561313Y-95946727D01*
X155429269Y-96030750D01*
X155365826Y-96123780D01*
X155371745Y-96224851D01*
X155447788Y-96332996D01*
X155482362Y-96364445D01*
X155545118Y-96399815D01*
X155631532Y-96416272D01*
X155765227Y-96420314D01*
X155832113Y-96419541D01*
X155946917Y-96409562D01*
X156027724Y-96382666D01*
X156100185Y-96332099D01*
X156107383Y-96325883D01*
X156190636Y-96233830D01*
X156249527Y-96136441D01*
X156294031Y-96028998D01*
X156611000Y-96028998D01*
X156665638Y-96029162D01*
X156813981Y-96034375D01*
X156905283Y-96052521D01*
X156950448Y-96091108D01*
X156960380Y-96157643D01*
X156945982Y-96259633D01*
X156894348Y-96405405D01*
X156777553Y-96571935D01*
X156611478Y-96722641D01*
X156407921Y-96847142D01*
X156178677Y-96935053D01*
X156165376Y-96938629D01*
X155940514Y-96973359D01*
X155685737Y-96974539D01*
X155430918Y-96943777D01*
X155205928Y-96882682D01*
X155191500Y-96877112D01*
X154973083Y-96760986D01*
X154803514Y-96609370D01*
X154685946Y-96431792D01*
X154623532Y-96237779D01*
X154619426Y-96036858D01*
X154676780Y-95838556D01*
X154798748Y-95652400D01*
X154820554Y-95628332D01*
X154910368Y-95545835D01*
X155018256Y-95475983D01*
X155157227Y-95412584D01*
X155340289Y-95349449D01*
X155580451Y-95280385D01*
X155603597Y-95274088D01*
X155808618Y-95215712D01*
X155954743Y-95166442D01*
X156051612Y-95120545D01*
X156108868Y-95072286D01*
X156136151Y-95015931D01*
X156143103Y-94945746D01*
X156135087Y-94878947D01*
X156074377Y-94771019D01*
X155960710Y-94701679D01*
X155802024Y-94677177D01*
X155759426Y-94678033D01*
X155598945Y-94705398D01*
X155485384Y-94776285D01*
X155406524Y-94897501D01*
X155345719Y-95035318D01*
X155006246Y-95025225D01*
X154666772Y-95015132D01*
X154655147Y-94913479D01*
X154652450Y-94875510D01*
X154680544Y-94705874D01*
X154768371Y-94548176D01*
X154906740Y-94407562D01*
X155086462Y-94289178D01*
X155298345Y-94198171D01*
X155533198Y-94139685D01*
X155781833Y-94118866D01*
X156035058Y-94140861D01*
G37*
G36*
X161626768Y-83175122D02*
G01*
X161945631Y-83232626D01*
X162250653Y-83347606D01*
X162331836Y-83390799D01*
X162580590Y-83574496D01*
X162786842Y-83813788D01*
X162948822Y-84106283D01*
X163064763Y-84449586D01*
X163090261Y-84584956D01*
X163112707Y-84792901D01*
X163126090Y-85031688D01*
X163130143Y-85281071D01*
X163124602Y-85520804D01*
X163109200Y-85730643D01*
X163083672Y-85890342D01*
X163003633Y-86147896D01*
X162857104Y-86448205D01*
X162667430Y-86707616D01*
X162441092Y-86919096D01*
X162184572Y-87075609D01*
X161904353Y-87170122D01*
X161824275Y-87182419D01*
X161644960Y-87192675D01*
X161437348Y-87189682D01*
X161226192Y-87174795D01*
X161036246Y-87149367D01*
X160892262Y-87114753D01*
X160702184Y-87034231D01*
X160449305Y-86873599D01*
X160238105Y-86672023D01*
X160082102Y-86440751D01*
X160055458Y-86379978D01*
X160011686Y-86256930D01*
X159972032Y-86122389D01*
X159966866Y-86102481D01*
X159940735Y-85985000D01*
X159939802Y-85905186D01*
X159973238Y-85856256D01*
X160050213Y-85831426D01*
X160179897Y-85823915D01*
X160371460Y-85826938D01*
X160747180Y-85836981D01*
X160769136Y-85943704D01*
X160774893Y-85969441D01*
X160834160Y-86138593D01*
X160919984Y-86286995D01*
X161018284Y-86389458D01*
X161103278Y-86437150D01*
X161283293Y-86491861D01*
X161487953Y-86511268D01*
X161692027Y-86491548D01*
X161802506Y-86459788D01*
X161981057Y-86356451D01*
X162117927Y-86196134D01*
X162214286Y-85977686D01*
X162241551Y-85856443D01*
X162265308Y-85665508D01*
X162279837Y-85439798D01*
X162285139Y-85196867D01*
X162281217Y-84954269D01*
X162268073Y-84729559D01*
X162245707Y-84540289D01*
X162214123Y-84404014D01*
X162179372Y-84315237D01*
X162059863Y-84115312D01*
X161901665Y-83974681D01*
X161702016Y-83891366D01*
X161458152Y-83863393D01*
X161344706Y-83868783D01*
X161133817Y-83920005D01*
X160969118Y-84025306D01*
X160850665Y-84184660D01*
X160825518Y-84237346D01*
X160785136Y-84341769D01*
X160768755Y-84415791D01*
X160758309Y-84482378D01*
X160721027Y-84528580D01*
X160645911Y-84556567D01*
X160521942Y-84570389D01*
X160338103Y-84574096D01*
X160163919Y-84572008D01*
X160038119Y-84559982D01*
X159965870Y-84529723D01*
X159938099Y-84472939D01*
X159945729Y-84381339D01*
X159979686Y-84246633D01*
X159982613Y-84236175D01*
X160085039Y-83959804D01*
X160227255Y-83729597D01*
X160420664Y-83526946D01*
X160457557Y-83495892D01*
X160709460Y-83335479D01*
X160996451Y-83227747D01*
X161306298Y-83173895D01*
X161626768Y-83175122D01*
G37*
G36*
X166522191Y-85170997D02*
G01*
X166525958Y-85961491D01*
X166531392Y-87101932D01*
X166451043Y-87134977D01*
X166402897Y-87144845D01*
X166288897Y-87154521D01*
X166126817Y-87161344D01*
X165929413Y-87165338D01*
X165709438Y-87166531D01*
X165479646Y-87164950D01*
X165252793Y-87160619D01*
X165041632Y-87153566D01*
X164858917Y-87143818D01*
X164717403Y-87131399D01*
X164447259Y-87080454D01*
X164174027Y-86978962D01*
X163950320Y-86834985D01*
X163780514Y-86651443D01*
X163668983Y-86431258D01*
X163631595Y-86270052D01*
X163614169Y-86078975D01*
X163615788Y-85961249D01*
X164449814Y-85961249D01*
X164460436Y-86129132D01*
X164500423Y-86253241D01*
X164579272Y-86341688D01*
X164706456Y-86411078D01*
X164711573Y-86413155D01*
X164824551Y-86438735D01*
X165004711Y-86454285D01*
X165248963Y-86459530D01*
X165676996Y-86459530D01*
X165676996Y-85961491D01*
X165676996Y-85463452D01*
X165230552Y-85463452D01*
X165094093Y-85464408D01*
X164909755Y-85471920D01*
X164774234Y-85489862D01*
X164673561Y-85521735D01*
X164593765Y-85571038D01*
X164520878Y-85641273D01*
X164508461Y-85655958D01*
X164472844Y-85721937D01*
X164454844Y-85816725D01*
X164449814Y-85961249D01*
X163615788Y-85961249D01*
X163616855Y-85883722D01*
X163639308Y-85708534D01*
X163681181Y-85577651D01*
X163716372Y-85514247D01*
X163862820Y-85326999D01*
X164040251Y-85196816D01*
X164156418Y-85136744D01*
X163996560Y-84988823D01*
X163929103Y-84922864D01*
X163803041Y-84762122D01*
X163728493Y-84588314D01*
X163693582Y-84377476D01*
X163693284Y-84363116D01*
X164538621Y-84363116D01*
X164548736Y-84492672D01*
X164603994Y-84645306D01*
X164711047Y-84752124D01*
X164874046Y-84818767D01*
X164943738Y-84832960D01*
X165082934Y-84849676D01*
X165237183Y-84858126D01*
X165389326Y-84858455D01*
X165522202Y-84850806D01*
X165618651Y-84835323D01*
X165661514Y-84812151D01*
X165667530Y-84762568D01*
X165671129Y-84656611D01*
X165671803Y-84510735D01*
X165669291Y-84340792D01*
X165659209Y-83915973D01*
X165330019Y-83905742D01*
X165074548Y-83907463D01*
X164866259Y-83934225D01*
X164714280Y-83989843D01*
X164612853Y-84077646D01*
X164556219Y-84200961D01*
X164538621Y-84363116D01*
X163693284Y-84363116D01*
X163690482Y-84228242D01*
X163731647Y-83970396D01*
X163830553Y-83744100D01*
X163983344Y-83556882D01*
X164186160Y-83416270D01*
X164267923Y-83376882D01*
X164393131Y-83326548D01*
X164525511Y-83288246D01*
X164675708Y-83260643D01*
X164854366Y-83242404D01*
X165072127Y-83232194D01*
X165339635Y-83228679D01*
X165667534Y-83230523D01*
X166512991Y-83240062D01*
X166519045Y-84510735D01*
X166522191Y-85170997D01*
G37*
G36*
X176433938Y-81672173D02*
G01*
X176418460Y-81840307D01*
X176383279Y-81979238D01*
X176322210Y-82111759D01*
X176229070Y-82260659D01*
X176174574Y-82336517D01*
X175996186Y-82526072D01*
X175780876Y-82671199D01*
X175513271Y-82783118D01*
X175425436Y-82803110D01*
X175262205Y-82818839D01*
X175068593Y-82819900D01*
X175061043Y-82819636D01*
X174899214Y-82810101D01*
X174778826Y-82790468D01*
X174671346Y-82753786D01*
X174548237Y-82693099D01*
X174326533Y-82550615D01*
X174105475Y-82345501D01*
X173940624Y-82112222D01*
X173847762Y-81941603D01*
X173181861Y-81941603D01*
X173147467Y-81941591D01*
X172916039Y-81940522D01*
X172744873Y-81937191D01*
X172624329Y-81930846D01*
X172544764Y-81920740D01*
X172496539Y-81906120D01*
X172470012Y-81886239D01*
X172442184Y-81848118D01*
X172383542Y-81754350D01*
X172313372Y-81632088D01*
X172273805Y-81559306D01*
X174653580Y-81559306D01*
X174700036Y-81726056D01*
X174800914Y-81866256D01*
X174948913Y-81963701D01*
X174962745Y-81969286D01*
X175140648Y-82005623D01*
X175304312Y-81974189D01*
X175446579Y-81877844D01*
X175560290Y-81719448D01*
X175575004Y-81690401D01*
X175615539Y-81592701D01*
X175623524Y-81512152D01*
X175603889Y-81414239D01*
X175572676Y-81328412D01*
X175473767Y-81182454D01*
X175338369Y-81077593D01*
X175181507Y-81023671D01*
X175018207Y-81030534D01*
X174987376Y-81040193D01*
X174859565Y-81115214D01*
X174747354Y-81229289D01*
X174676127Y-81358111D01*
X174668846Y-81382212D01*
X174653580Y-81559306D01*
X172273805Y-81559306D01*
X172239566Y-81496325D01*
X172170014Y-81362057D01*
X172112609Y-81244278D01*
X172075241Y-81157983D01*
X172065802Y-81118167D01*
X172087104Y-81112087D01*
X172171042Y-81104263D01*
X172309097Y-81097583D01*
X172491324Y-81092388D01*
X172707778Y-81089020D01*
X172948512Y-81087821D01*
X172969091Y-81087822D01*
X173242790Y-81087715D01*
X173454785Y-81086077D01*
X173613930Y-81081017D01*
X173729079Y-81070643D01*
X173809086Y-81053063D01*
X173862807Y-81026387D01*
X173899094Y-80988723D01*
X173926803Y-80938178D01*
X173954787Y-80872863D01*
X173956169Y-80869730D01*
X174001469Y-80796479D01*
X174079293Y-80694515D01*
X174173636Y-80584896D01*
X174252333Y-80505836D01*
X174487836Y-80333757D01*
X174750281Y-80221429D01*
X175029434Y-80170015D01*
X175315058Y-80180675D01*
X175596918Y-80254573D01*
X175864778Y-80392871D01*
X175925702Y-80434667D01*
X176100640Y-80579660D01*
X176233041Y-80741824D01*
X176344036Y-80945524D01*
X176360502Y-80982190D01*
X176398493Y-81083862D01*
X176421249Y-81188389D01*
X176432572Y-81318500D01*
X176436264Y-81496925D01*
X176436062Y-81512152D01*
X176433938Y-81672173D01*
G37*
G36*
X169128596Y-95818979D02*
G01*
X169128001Y-96110307D01*
X169125397Y-96347673D01*
X169119799Y-96536532D01*
X169110221Y-96682343D01*
X169095676Y-96790562D01*
X169075178Y-96866647D01*
X169047741Y-96916054D01*
X169012379Y-96944241D01*
X168968105Y-96956665D01*
X168913934Y-96958782D01*
X168848879Y-96956051D01*
X168771954Y-96953928D01*
X168617132Y-96946884D01*
X168499852Y-96919613D01*
X168435708Y-96868054D01*
X168416212Y-96788253D01*
X168413801Y-96732628D01*
X168393585Y-96717447D01*
X168336170Y-96753760D01*
X168278423Y-96793395D01*
X168098780Y-96895586D01*
X167935960Y-96958413D01*
X167896881Y-96966663D01*
X167739900Y-96976908D01*
X167559005Y-96964891D01*
X167385515Y-96933872D01*
X167250751Y-96887110D01*
X167066583Y-96762595D01*
X166892068Y-96567327D01*
X166758235Y-96320696D01*
X166669350Y-96028998D01*
X166646749Y-95855322D01*
X166639389Y-95638981D01*
X166642395Y-95539342D01*
X167386116Y-95539342D01*
X167393906Y-95760620D01*
X167428447Y-95969549D01*
X167492889Y-96128392D01*
X167589810Y-96246093D01*
X167590045Y-96246299D01*
X167677628Y-96311078D01*
X167767156Y-96341078D01*
X167892730Y-96347742D01*
X167895446Y-96347717D01*
X168078867Y-96325210D01*
X168220579Y-96265280D01*
X168308595Y-96172966D01*
X168315305Y-96151324D01*
X168327218Y-96061385D01*
X168336640Y-95919772D01*
X168342835Y-95739429D01*
X168345064Y-95533297D01*
X168345003Y-95449654D01*
X168343768Y-95256386D01*
X168339939Y-95118547D01*
X168332205Y-95024523D01*
X168319259Y-94962700D01*
X168299791Y-94921465D01*
X168272494Y-94889202D01*
X168136401Y-94796096D01*
X167966652Y-94750913D01*
X167790554Y-94761265D01*
X167629946Y-94829191D01*
X167556919Y-94893220D01*
X167463389Y-95049019D01*
X167406348Y-95264705D01*
X167386116Y-95539342D01*
X166642395Y-95539342D01*
X166646462Y-95404539D01*
X166666660Y-95174160D01*
X166698670Y-94970006D01*
X166741183Y-94814241D01*
X166780358Y-94724420D01*
X166912260Y-94514355D01*
X167080407Y-94337530D01*
X167268218Y-94212867D01*
X167423724Y-94156452D01*
X167664201Y-94123769D01*
X167906716Y-94146253D01*
X168127424Y-94223606D01*
X168213086Y-94267237D01*
X168293780Y-94306359D01*
X168330559Y-94321435D01*
X168334329Y-94300677D01*
X168338607Y-94219541D01*
X168342008Y-94087868D01*
X168344253Y-93917234D01*
X168345064Y-93719214D01*
X168345353Y-93481704D01*
X168349632Y-93300339D01*
X168363088Y-93172000D01*
X168390908Y-93087529D01*
X168438280Y-93037769D01*
X168510394Y-93013564D01*
X168612435Y-93005756D01*
X168749593Y-93005188D01*
X168905870Y-93010062D01*
X169024850Y-93024796D01*
X169085008Y-93047877D01*
X169094425Y-93073343D01*
X169102980Y-93136923D01*
X169110093Y-93242217D01*
X169115858Y-93393429D01*
X169120367Y-93594765D01*
X169123713Y-93850428D01*
X169125988Y-94164622D01*
X169127285Y-94541552D01*
X169127697Y-94985421D01*
X169127708Y-95052604D01*
X169128170Y-95468230D01*
X169128249Y-95533297D01*
X169128596Y-95818979D01*
G37*
G36*
X175309038Y-95074717D02*
G01*
X175310427Y-95361571D01*
X175311914Y-95725615D01*
X175312602Y-96028159D01*
X175312328Y-96274934D01*
X175310926Y-96471673D01*
X175308231Y-96624109D01*
X175304079Y-96737973D01*
X175298303Y-96818997D01*
X175290740Y-96872914D01*
X175281225Y-96905457D01*
X175269592Y-96922356D01*
X175255676Y-96929344D01*
X175176575Y-96942199D01*
X175049068Y-96949734D01*
X174905450Y-96949572D01*
X174767489Y-96942369D01*
X174656957Y-96928779D01*
X174595623Y-96909460D01*
X174593411Y-96907755D01*
X174571898Y-96881384D01*
X174555939Y-96834787D01*
X174544481Y-96757778D01*
X174536470Y-96640174D01*
X174530850Y-96471790D01*
X174526569Y-96242443D01*
X174517192Y-95619894D01*
X174231226Y-95609683D01*
X173945259Y-95599473D01*
X173631800Y-96214445D01*
X173627163Y-96223534D01*
X173525738Y-96418245D01*
X173430695Y-96593488D01*
X173348329Y-96738190D01*
X173284934Y-96841277D01*
X173246808Y-96891673D01*
X173208709Y-96917093D01*
X173137180Y-96939296D01*
X173026971Y-96950705D01*
X172861959Y-96953928D01*
X172806468Y-96953721D01*
X172631816Y-96948569D01*
X172517478Y-96935386D01*
X172455043Y-96912694D01*
X172436100Y-96879013D01*
X172439701Y-96867894D01*
X172469955Y-96802609D01*
X172526985Y-96688527D01*
X172605977Y-96535051D01*
X172702116Y-96351585D01*
X172810589Y-96147532D01*
X172862796Y-96049501D01*
X172965163Y-95854256D01*
X173052241Y-95684085D01*
X173119358Y-95548347D01*
X173161842Y-95456400D01*
X173175019Y-95417605D01*
X173151327Y-95389317D01*
X173084252Y-95329304D01*
X172990809Y-95254642D01*
X172955744Y-95226174D01*
X172818307Y-95085065D01*
X172708169Y-94928521D01*
X172704791Y-94922482D01*
X172649964Y-94813494D01*
X172615838Y-94710670D01*
X172596149Y-94588249D01*
X172584634Y-94420467D01*
X172586269Y-94329846D01*
X173365001Y-94329846D01*
X173365116Y-94497423D01*
X173409275Y-94654509D01*
X173496915Y-94785547D01*
X173627473Y-94874976D01*
X173673477Y-94889419D01*
X173788451Y-94909199D01*
X173933349Y-94922090D01*
X174091391Y-94927998D01*
X174245796Y-94926829D01*
X174379785Y-94918491D01*
X174476576Y-94902891D01*
X174519391Y-94879934D01*
X174520842Y-94874389D01*
X174526211Y-94809746D01*
X174529200Y-94691866D01*
X174529592Y-94535454D01*
X174527168Y-94355214D01*
X174517192Y-93876757D01*
X174102408Y-93879454D01*
X174024008Y-93880241D01*
X173853015Y-93885457D01*
X173733747Y-93896571D01*
X173652052Y-93915371D01*
X173593776Y-93943642D01*
X173499153Y-94025460D01*
X173409492Y-94167339D01*
X173365001Y-94329846D01*
X172586269Y-94329846D01*
X172589181Y-94168487D01*
X172641039Y-93915029D01*
X172745620Y-93705240D01*
X172905414Y-93534392D01*
X173122910Y-93397755D01*
X173184006Y-93368867D01*
X173305885Y-93319358D01*
X173432286Y-93281847D01*
X173574298Y-93254980D01*
X173743005Y-93237400D01*
X173949496Y-93227750D01*
X174204857Y-93224675D01*
X174520175Y-93226817D01*
X175299825Y-93236421D01*
X175306335Y-94535454D01*
X175309038Y-95074717D01*
G37*
G36*
X163070411Y-93227388D02*
G01*
X163142332Y-93235496D01*
X163222374Y-93255563D01*
X163222374Y-95067404D01*
X163222349Y-95269584D01*
X163222058Y-95644418D01*
X163221283Y-95956714D01*
X163219828Y-96212304D01*
X163217496Y-96417021D01*
X163214091Y-96576696D01*
X163209416Y-96697163D01*
X163203275Y-96784254D01*
X163195471Y-96843801D01*
X163185808Y-96881637D01*
X163174090Y-96903594D01*
X163160120Y-96915504D01*
X163157263Y-96917026D01*
X163087612Y-96933795D01*
X162971454Y-96945645D01*
X162831502Y-96951999D01*
X162690469Y-96952283D01*
X162571069Y-96945920D01*
X162496012Y-96932335D01*
X162484442Y-96925940D01*
X162465363Y-96898042D01*
X162452474Y-96841738D01*
X162444654Y-96746350D01*
X162440783Y-96601195D01*
X162439741Y-96395593D01*
X162439741Y-95880444D01*
X162244204Y-95679021D01*
X162242949Y-95677728D01*
X162135110Y-95574678D01*
X162059512Y-95519440D01*
X162021865Y-95516196D01*
X162013325Y-95529028D01*
X161970200Y-95595238D01*
X161897367Y-95707757D01*
X161800688Y-95857511D01*
X161686022Y-96035429D01*
X161559228Y-96232439D01*
X161402328Y-96472878D01*
X161267653Y-96670608D01*
X161164193Y-96811260D01*
X161090069Y-96897381D01*
X161043402Y-96931519D01*
X160988800Y-96940759D01*
X160873542Y-96949087D01*
X160730280Y-96952446D01*
X160578826Y-96951096D01*
X160438990Y-96945298D01*
X160330586Y-96935312D01*
X160273423Y-96921399D01*
X160251501Y-96899585D01*
X160242668Y-96840718D01*
X160247376Y-96831561D01*
X160284818Y-96769784D01*
X160354678Y-96659364D01*
X160451981Y-96508015D01*
X160571751Y-96323448D01*
X160709014Y-96113378D01*
X160858795Y-95885517D01*
X160915234Y-95799658D01*
X161061103Y-95575402D01*
X161192345Y-95370292D01*
X161303979Y-95192330D01*
X161391026Y-95049517D01*
X161448502Y-94949857D01*
X161471428Y-94901350D01*
X161471509Y-94886174D01*
X161453790Y-94836453D01*
X161408606Y-94758924D01*
X161332221Y-94648319D01*
X161220897Y-94499368D01*
X161070898Y-94306803D01*
X160878486Y-94065355D01*
X160868813Y-94053299D01*
X160710277Y-93853858D01*
X160568503Y-93672116D01*
X160449125Y-93515567D01*
X160357780Y-93391703D01*
X160300102Y-93308015D01*
X160281728Y-93271995D01*
X160285997Y-93267716D01*
X160341010Y-93253919D01*
X160445636Y-93242265D01*
X160583148Y-93233252D01*
X160736817Y-93227380D01*
X160889918Y-93225147D01*
X161025723Y-93227051D01*
X161127506Y-93233591D01*
X161178539Y-93245265D01*
X161206761Y-93275819D01*
X161272166Y-93354762D01*
X161366581Y-93472172D01*
X161482640Y-93618623D01*
X161612977Y-93784688D01*
X161750228Y-93960944D01*
X161887027Y-94137963D01*
X162016007Y-94306321D01*
X162129803Y-94456591D01*
X162221050Y-94579348D01*
X162227079Y-94587545D01*
X162304786Y-94686782D01*
X162368377Y-94757158D01*
X162404596Y-94783900D01*
X162406482Y-94782958D01*
X162417634Y-94737764D01*
X162427783Y-94630277D01*
X162436501Y-94468106D01*
X162443363Y-94258864D01*
X162447941Y-94010160D01*
X162457529Y-93236421D01*
X162759909Y-93225924D01*
X162803738Y-93224635D01*
X162950019Y-93223580D01*
X163070411Y-93227388D01*
G37*
G36*
X170028196Y-85714234D02*
G01*
X170109454Y-85932223D01*
X170196138Y-86164552D01*
X170281095Y-86392033D01*
X170354435Y-86591140D01*
X170418799Y-86771365D01*
X170469662Y-86919654D01*
X170503076Y-87024491D01*
X170515092Y-87074362D01*
X170497615Y-87112636D01*
X170435050Y-87145909D01*
X170415085Y-87149139D01*
X170314009Y-87158145D01*
X170178953Y-87163762D01*
X170030921Y-87165872D01*
X169890915Y-87164355D01*
X169779940Y-87159093D01*
X169718998Y-87149965D01*
X169701463Y-87133997D01*
X169658784Y-87059735D01*
X169607046Y-86938830D01*
X169552659Y-86785329D01*
X169520080Y-86687691D01*
X169471132Y-86550883D01*
X169430269Y-86448184D01*
X169403966Y-86396524D01*
X169395570Y-86389520D01*
X169350048Y-86374959D01*
X169264081Y-86365201D01*
X169130010Y-86359867D01*
X168940180Y-86358577D01*
X168686933Y-86360950D01*
X168007108Y-86370594D01*
X167881182Y-86744124D01*
X167755256Y-87117653D01*
X167578801Y-87141217D01*
X167437301Y-87156151D01*
X167267444Y-87165274D01*
X167113066Y-87165139D01*
X166992537Y-87155849D01*
X166924224Y-87137509D01*
X166917564Y-87132025D01*
X166908776Y-87113108D01*
X166908467Y-87079351D01*
X166918541Y-87025029D01*
X166940904Y-86944415D01*
X166977461Y-86831784D01*
X167030118Y-86681410D01*
X167100779Y-86487567D01*
X167191351Y-86244528D01*
X167303739Y-85946568D01*
X167423901Y-85629975D01*
X168289251Y-85629975D01*
X168321191Y-85648843D01*
X168409554Y-85665330D01*
X168535999Y-85675627D01*
X168682803Y-85679682D01*
X168832243Y-85677442D01*
X168966596Y-85668855D01*
X169068140Y-85653868D01*
X169119152Y-85632429D01*
X169125096Y-85611094D01*
X169116980Y-85536014D01*
X169085807Y-85407388D01*
X169030504Y-85221025D01*
X168949996Y-84972736D01*
X168887466Y-84786497D01*
X168827920Y-84612255D01*
X168779087Y-84472665D01*
X168744811Y-84378703D01*
X168728934Y-84341347D01*
X168711621Y-84343696D01*
X168686106Y-84382982D01*
X168649901Y-84465437D01*
X168600519Y-84597289D01*
X168535471Y-84784769D01*
X168452270Y-85034107D01*
X168412284Y-85157933D01*
X168358776Y-85333274D01*
X168318162Y-85478700D01*
X168293851Y-85581753D01*
X168289251Y-85629975D01*
X167423901Y-85629975D01*
X167439847Y-85587961D01*
X167473052Y-85500428D01*
X167551437Y-85292853D01*
X167644883Y-85044495D01*
X167747026Y-84772300D01*
X167851505Y-84493211D01*
X167951956Y-84224174D01*
X168029127Y-84018021D01*
X168112552Y-83797163D01*
X168186273Y-83604120D01*
X168246545Y-83448620D01*
X168289625Y-83340392D01*
X168311768Y-83289166D01*
X168313079Y-83286749D01*
X168336327Y-83256672D01*
X168375217Y-83237944D01*
X168443604Y-83228579D01*
X168555345Y-83226588D01*
X168724297Y-83229984D01*
X169099759Y-83240062D01*
X169181883Y-83453508D01*
X169214496Y-83538816D01*
X169274004Y-83695759D01*
X169342357Y-83877057D01*
X169410323Y-84058270D01*
X169453501Y-84173741D01*
X169532786Y-84385752D01*
X169611078Y-84595083D01*
X169676416Y-84769754D01*
X169694567Y-84818300D01*
X169769048Y-85017851D01*
X169849579Y-85234028D01*
X169921645Y-85427877D01*
X169959519Y-85529777D01*
X169989795Y-85611094D01*
X170028196Y-85714234D01*
G37*
G36*
X165764803Y-78321181D02*
G01*
X165929173Y-78326991D01*
X166029917Y-78336721D01*
X166069455Y-78350453D01*
X166074221Y-78363490D01*
X166077310Y-78436721D01*
X166064625Y-78537889D01*
X166060369Y-78560974D01*
X166042386Y-78687759D01*
X166034288Y-78796117D01*
X166032739Y-78905674D01*
X166495552Y-79001434D01*
X166680050Y-79042930D01*
X166905685Y-79100515D01*
X167118792Y-79161297D01*
X167290607Y-79217461D01*
X167384078Y-79249914D01*
X167514401Y-79290001D01*
X167610256Y-79312952D01*
X167655689Y-79314525D01*
X167662704Y-79307063D01*
X167699100Y-79247530D01*
X167751896Y-79145181D01*
X167812245Y-79016843D01*
X167882101Y-78874077D01*
X167946929Y-78774541D01*
X167996857Y-78741142D01*
X168036476Y-78746436D01*
X168143140Y-78782362D01*
X168287815Y-78847023D01*
X168460352Y-78934332D01*
X168650602Y-79038203D01*
X168848414Y-79152552D01*
X169043639Y-79271291D01*
X169226129Y-79388335D01*
X169385733Y-79497599D01*
X169512301Y-79592997D01*
X169595686Y-79668442D01*
X169625736Y-79717849D01*
X169624411Y-79724952D01*
X169593956Y-79783002D01*
X169531458Y-79875174D01*
X169447865Y-79985020D01*
X169427050Y-80011439D01*
X169347168Y-80120793D01*
X169291130Y-80210392D01*
X169269994Y-80262959D01*
X169273606Y-80274224D01*
X169315181Y-80333444D01*
X169395922Y-80427117D01*
X169506614Y-80544894D01*
X169638045Y-80676422D01*
X169659618Y-80697471D01*
X169811648Y-80848931D01*
X169960126Y-81001604D01*
X170089016Y-81138776D01*
X170182286Y-81243735D01*
X170358476Y-81453010D01*
X170637749Y-81252629D01*
X170711307Y-81200525D01*
X170823063Y-81124233D01*
X170905367Y-81071765D01*
X170944260Y-81052247D01*
X170968174Y-81069086D01*
X171023360Y-81130424D01*
X171092882Y-81221225D01*
X171102792Y-81235114D01*
X171209163Y-81394188D01*
X171321129Y-81577179D01*
X171433336Y-81773517D01*
X171540430Y-81972636D01*
X171637057Y-82163969D01*
X171717861Y-82336947D01*
X171777489Y-82481003D01*
X171810587Y-82585569D01*
X171811799Y-82640079D01*
X171805876Y-82647168D01*
X171745224Y-82689192D01*
X171640785Y-82743429D01*
X171511170Y-82799979D01*
X171477600Y-82813553D01*
X171353333Y-82866439D01*
X171258959Y-82910671D01*
X171212740Y-82937815D01*
X171207753Y-82956234D01*
X171215999Y-83034379D01*
X171244161Y-83159279D01*
X171289611Y-83317932D01*
X171319798Y-83416395D01*
X171363786Y-83565074D01*
X171397252Y-83684695D01*
X171414667Y-83755889D01*
X171415574Y-83760718D01*
X171432012Y-83844057D01*
X171457509Y-83969425D01*
X171486948Y-84111631D01*
X171489821Y-84125437D01*
X171518228Y-84267044D01*
X171541059Y-84389406D01*
X171553599Y-84467373D01*
X171555752Y-84482801D01*
X171570076Y-84523919D01*
X171607058Y-84548423D01*
X171682837Y-84562941D01*
X171813551Y-84574096D01*
X172062571Y-84591883D01*
X172072654Y-85303368D01*
X172073059Y-85333181D01*
X172074907Y-85554039D01*
X172074659Y-85753051D01*
X172072467Y-85917895D01*
X172068482Y-86036249D01*
X172062858Y-86095792D01*
X172060358Y-86105621D01*
X172043566Y-86144485D01*
X172008423Y-86162697D01*
X171937505Y-86164269D01*
X171813387Y-86153210D01*
X171713011Y-86142506D01*
X171638037Y-86141091D01*
X171591371Y-86162109D01*
X171562075Y-86217317D01*
X171539213Y-86318468D01*
X171511850Y-86477317D01*
X171491964Y-86585880D01*
X171451703Y-86781421D01*
X171407359Y-86973352D01*
X171362415Y-87148418D01*
X171320358Y-87293363D01*
X171284671Y-87394932D01*
X171258837Y-87439869D01*
X171252685Y-87439047D01*
X171228360Y-87405694D01*
X171189003Y-87325552D01*
X171133238Y-87195215D01*
X171059686Y-87011276D01*
X170966971Y-86770329D01*
X170853714Y-86468969D01*
X170718538Y-86103788D01*
X170716882Y-86099289D01*
X170635839Y-85877195D01*
X170576191Y-85705931D01*
X170534186Y-85570070D01*
X170506068Y-85454186D01*
X170488085Y-85342853D01*
X170476483Y-85220645D01*
X170467509Y-85072135D01*
X170456180Y-84904338D01*
X170371793Y-84288141D01*
X170221728Y-83699271D01*
X170006175Y-83138166D01*
X169725328Y-82605268D01*
X169379376Y-82101016D01*
X168968512Y-81625851D01*
X168563815Y-81241960D01*
X168080402Y-80869364D01*
X167569913Y-80562468D01*
X167032073Y-80321108D01*
X166466608Y-80145124D01*
X166236055Y-80090587D01*
X165992915Y-80042004D01*
X165768398Y-80010467D01*
X165540176Y-79993727D01*
X165285919Y-79989531D01*
X164983299Y-79995631D01*
X164690092Y-80009460D01*
X164362780Y-80040790D01*
X164059022Y-80091875D01*
X163752783Y-80167305D01*
X163418033Y-80271671D01*
X163276496Y-80325781D01*
X163094800Y-80405137D01*
X162892828Y-80500253D01*
X162687786Y-80602540D01*
X162496880Y-80703410D01*
X162337315Y-80794275D01*
X162226296Y-80866546D01*
X161968360Y-81063906D01*
X161608644Y-81366401D01*
X161297546Y-81668410D01*
X161023279Y-81982730D01*
X160774055Y-82322159D01*
X160538086Y-82699496D01*
X160513544Y-82738239D01*
X160377443Y-82896060D01*
X160182203Y-83059991D01*
X160127106Y-83102523D01*
X159878809Y-83346778D01*
X159677643Y-83638976D01*
X159530620Y-83969334D01*
X159505547Y-84055818D01*
X159472678Y-84200961D01*
X159440984Y-84370358D01*
X159412702Y-84548361D01*
X159390070Y-84719322D01*
X159375326Y-84867594D01*
X159370707Y-84977527D01*
X159378450Y-85033475D01*
X159409918Y-85049904D01*
X159495668Y-85067812D01*
X159612444Y-85079013D01*
X159613162Y-85079050D01*
X159731301Y-85087328D01*
X159796068Y-85102337D01*
X159825135Y-85132568D01*
X159836172Y-85186511D01*
X159838088Y-85213089D01*
X159826515Y-85263933D01*
X159781408Y-85296235D01*
X159690230Y-85316057D01*
X159540442Y-85329460D01*
X159398145Y-85338942D01*
X159408704Y-85659110D01*
X159432361Y-85970491D01*
X159500698Y-86317017D01*
X159615951Y-86623307D01*
X159782334Y-86899967D01*
X160004061Y-87157601D01*
X160091945Y-87249389D01*
X160237853Y-87428964D01*
X160321655Y-87581352D01*
X160390353Y-87735081D01*
X160503850Y-87946027D01*
X160645675Y-88181550D01*
X160805822Y-88426419D01*
X160974287Y-88665404D01*
X161141064Y-88883273D01*
X161296148Y-89064795D01*
X161427883Y-89200178D01*
X161751341Y-89487423D01*
X162116621Y-89761708D01*
X162504958Y-90010548D01*
X162897585Y-90221456D01*
X163275736Y-90381945D01*
X163477874Y-90452474D01*
X163833036Y-90562370D01*
X164160128Y-90640969D01*
X164480613Y-90692155D01*
X164815955Y-90719810D01*
X165187617Y-90727816D01*
X165359159Y-90725923D01*
X165693207Y-90709392D01*
X166001956Y-90672630D01*
X166307090Y-90611723D01*
X166630292Y-90522755D01*
X166993243Y-90401813D01*
X167204988Y-90320972D01*
X167726177Y-90069724D01*
X168218349Y-89755931D01*
X168677807Y-89382812D01*
X169100851Y-88953585D01*
X169483784Y-88471468D01*
X169822905Y-87939680D01*
X169966713Y-87686841D01*
X170558404Y-87677099D01*
X170710226Y-87674769D01*
X170886969Y-87673301D01*
X171009910Y-87675195D01*
X171089469Y-87681462D01*
X171136068Y-87693111D01*
X171160129Y-87711154D01*
X171172072Y-87736600D01*
X171212620Y-87784676D01*
X171315812Y-87842995D01*
X171484980Y-87910936D01*
X171535944Y-87930012D01*
X171665409Y-87984828D01*
X171763404Y-88035479D01*
X171811849Y-88073000D01*
X171818393Y-88110780D01*
X171802892Y-88178110D01*
X171762012Y-88282927D01*
X171692568Y-88433395D01*
X171591371Y-88637678D01*
X171512483Y-88790017D01*
X171395926Y-89002982D01*
X171280597Y-89201193D01*
X171172634Y-89374883D01*
X171078177Y-89514286D01*
X171003363Y-89609635D01*
X170954332Y-89651165D01*
X170935340Y-89647314D01*
X170866249Y-89611528D01*
X170763231Y-89546385D01*
X170640578Y-89460566D01*
X170363052Y-89257891D01*
X170201876Y-89450657D01*
X170172317Y-89485068D01*
X170071793Y-89596100D01*
X169939954Y-89736354D01*
X169790532Y-89891336D01*
X169637263Y-90046550D01*
X169583006Y-90101217D01*
X169440915Y-90249815D01*
X169336140Y-90368325D01*
X169273755Y-90450783D01*
X169258835Y-90491228D01*
X169260839Y-90494392D01*
X169299429Y-90546359D01*
X169368574Y-90633642D01*
X169454790Y-90739178D01*
X169467117Y-90754191D01*
X169547496Y-90859158D01*
X169604240Y-90945431D01*
X169625736Y-90995591D01*
X169623065Y-91005777D01*
X169577586Y-91061506D01*
X169482451Y-91145307D01*
X169346289Y-91250416D01*
X169177729Y-91370071D01*
X168985400Y-91497506D01*
X168892983Y-91554263D01*
X168742539Y-91640061D01*
X168577028Y-91728881D01*
X168409289Y-91814392D01*
X168252161Y-91890264D01*
X168118483Y-91950167D01*
X168021094Y-91987770D01*
X167972833Y-91996744D01*
X167962593Y-91988563D01*
X167922686Y-91928091D01*
X167869854Y-91823798D01*
X167812714Y-91692078D01*
X167769905Y-91587402D01*
X167717343Y-91480619D01*
X167662762Y-91424330D01*
X167589904Y-91411867D01*
X167482515Y-91436561D01*
X167324340Y-91491746D01*
X167177157Y-91543352D01*
X167012636Y-91595684D01*
X166843991Y-91641912D01*
X166649207Y-91687988D01*
X166406268Y-91739861D01*
X166050526Y-91813452D01*
X166061158Y-92104237D01*
X166064750Y-92216848D01*
X166063997Y-92317211D01*
X166053630Y-92372886D01*
X166030138Y-92398996D01*
X165990009Y-92410667D01*
X165988234Y-92410993D01*
X165913033Y-92417736D01*
X165783602Y-92422651D01*
X165613873Y-92425802D01*
X165417774Y-92427253D01*
X165209234Y-92427065D01*
X165002185Y-92425303D01*
X164810554Y-92422028D01*
X164648272Y-92417306D01*
X164529268Y-92411198D01*
X164467473Y-92403767D01*
X164437032Y-92393892D01*
X164404402Y-92370919D01*
X164386904Y-92324928D01*
X164379847Y-92239878D01*
X164378537Y-92099729D01*
X164378537Y-91820831D01*
X163956121Y-91738490D01*
X163735186Y-91693549D01*
X163521240Y-91643490D01*
X163327375Y-91588282D01*
X163126480Y-91520098D01*
X162891447Y-91431113D01*
X162828863Y-91407206D01*
X162697941Y-91363519D01*
X162616460Y-91349285D01*
X162574277Y-91362306D01*
X162567008Y-91371422D01*
X162529438Y-91437860D01*
X162477439Y-91546453D01*
X162419969Y-91678830D01*
X162400615Y-91723983D01*
X162341935Y-91844316D01*
X162289188Y-91930582D01*
X162251888Y-91966501D01*
X162251171Y-91966635D01*
X162187628Y-91954747D01*
X162078435Y-91910448D01*
X161934486Y-91840229D01*
X161766673Y-91750582D01*
X161585892Y-91648001D01*
X161403035Y-91538976D01*
X161228997Y-91430001D01*
X161074670Y-91327566D01*
X160950950Y-91238165D01*
X160868729Y-91168289D01*
X160838901Y-91124431D01*
X160843138Y-91107912D01*
X160880275Y-91037836D01*
X160947436Y-90935194D01*
X161034559Y-90815854D01*
X161076378Y-90760455D01*
X161155239Y-90650879D01*
X161209821Y-90567760D01*
X161230218Y-90525788D01*
X161217908Y-90505078D01*
X161161441Y-90444269D01*
X161069638Y-90357264D01*
X160954070Y-90255397D01*
X160939279Y-90242703D01*
X160665617Y-89987197D01*
X160388724Y-89693065D01*
X160132407Y-89385510D01*
X160083899Y-89327376D01*
X160016741Y-89260690D01*
X159973237Y-89235006D01*
X159957344Y-89240140D01*
X159890272Y-89278379D01*
X159789397Y-89345757D01*
X159669762Y-89432487D01*
X159610546Y-89475621D01*
X159494612Y-89552223D01*
X159402305Y-89602942D01*
X159349594Y-89618503D01*
X159338278Y-89613666D01*
X159283074Y-89564304D01*
X159207094Y-89474393D01*
X159123268Y-89358768D01*
X159059223Y-89258657D01*
X158969657Y-89106627D01*
X158873874Y-88933946D01*
X158777807Y-88752388D01*
X158687389Y-88573727D01*
X158608552Y-88409737D01*
X158547229Y-88272192D01*
X158509353Y-88172866D01*
X158500856Y-88123533D01*
X158512227Y-88110724D01*
X158577823Y-88069936D01*
X158686631Y-88017126D01*
X158822555Y-87960453D01*
X158887518Y-87934590D01*
X159017147Y-87878657D01*
X159114562Y-87830696D01*
X159162458Y-87798931D01*
X159170712Y-87777789D01*
X159166763Y-87701744D01*
X159137331Y-87572144D01*
X159081254Y-87383022D01*
X159075640Y-87365163D01*
X158978766Y-87022067D01*
X158894957Y-86650153D01*
X158819424Y-86228298D01*
X158790819Y-86050426D01*
X158525294Y-86050426D01*
X158259769Y-86050426D01*
X158250108Y-85365622D01*
X158248070Y-85188364D01*
X158247770Y-84985190D01*
X158250985Y-84840220D01*
X158258113Y-84745811D01*
X158269546Y-84694324D01*
X158285682Y-84678119D01*
X158334919Y-84677420D01*
X158435971Y-84678135D01*
X158562857Y-84680241D01*
X158794795Y-84685061D01*
X158839466Y-84389452D01*
X158842048Y-84372419D01*
X158877011Y-84156551D01*
X158913252Y-83968445D01*
X158956286Y-83784359D01*
X159011629Y-83580548D01*
X159084796Y-83333269D01*
X159129832Y-83175175D01*
X159162740Y-83040444D01*
X159179925Y-82944956D01*
X159178298Y-82902934D01*
X159167243Y-82895877D01*
X159100619Y-82863738D01*
X158991586Y-82816579D01*
X158857197Y-82761890D01*
X158803095Y-82739929D01*
X158673733Y-82682738D01*
X158575125Y-82632516D01*
X158525254Y-82598132D01*
X158516501Y-82577026D01*
X158521895Y-82522784D01*
X158552179Y-82433230D01*
X158610580Y-82299407D01*
X158700327Y-82112357D01*
X158761534Y-81990399D01*
X158877661Y-81771239D01*
X158993066Y-81567441D01*
X159101715Y-81388749D01*
X159197573Y-81244910D01*
X159274603Y-81145669D01*
X159326771Y-81100772D01*
X159334296Y-81099309D01*
X159400019Y-81119546D01*
X159507185Y-81181346D01*
X159646484Y-81279503D01*
X159708606Y-81325247D01*
X159823338Y-81404232D01*
X159913018Y-81458784D01*
X159962201Y-81479138D01*
X159974878Y-81475008D01*
X160032114Y-81430498D01*
X160114212Y-81347512D01*
X160207905Y-81239012D01*
X160258343Y-81178449D01*
X160393353Y-81025272D01*
X160548957Y-80857740D01*
X160711774Y-80689526D01*
X160868423Y-80534303D01*
X161005521Y-80405746D01*
X161109689Y-80317527D01*
X161139073Y-80294017D01*
X161204224Y-80231585D01*
X161230218Y-80189324D01*
X161224433Y-80173178D01*
X161184840Y-80107272D01*
X161115968Y-80007546D01*
X161027555Y-79888459D01*
X161024933Y-79885036D01*
X160927087Y-79754009D01*
X160872001Y-79659272D01*
X160862894Y-79585571D01*
X160902982Y-79517649D01*
X160995482Y-79440250D01*
X161143612Y-79338118D01*
X161186925Y-79309533D01*
X161324571Y-79224316D01*
X161485563Y-79130594D01*
X161657811Y-79034746D01*
X161829225Y-78943148D01*
X161987712Y-78862177D01*
X162121183Y-78798210D01*
X162217547Y-78757625D01*
X162264714Y-78746799D01*
X162273781Y-78754003D01*
X162312230Y-78811683D01*
X162365606Y-78913069D01*
X162425250Y-79042227D01*
X162447617Y-79093031D01*
X162504941Y-79217550D01*
X162551490Y-79310839D01*
X162578851Y-79355726D01*
X162600101Y-79359437D01*
X162678356Y-79345840D01*
X162798046Y-79311705D01*
X162944162Y-79260926D01*
X162955204Y-79256805D01*
X163299976Y-79142174D01*
X163686550Y-79040160D01*
X164129517Y-78946898D01*
X164378537Y-78899726D01*
X164378537Y-78615272D01*
X164378537Y-78330819D01*
X165212017Y-78321254D01*
X165235507Y-78320991D01*
X165534388Y-78319208D01*
X165764803Y-78321181D01*
G37*
%TD*%
M02*
