M48
; DRILL file {KiCad 9.0.0} date 2025-09-05T21:39:47-0500
; FORMAT={-:-/ absolute / metric / decimal}
; #@! TF.CreationDate,2025-09-05T21:39:47-05:00
; #@! TF.GenerationSoftware,Kicad,Pcbnew,9.0.0
; #@! TF.FileFunction,MixedPlating,1,2
FMAT,2
METRIC
; #@! TA.AperFunction,Plated,PTH,ViaDrill
T1C0.200
; #@! TA.AperFunction,Plated,PTH,ViaDrill
T2C0.300
; #@! TA.AperFunction,Plated,PTH,ComponentDrill
T3C0.400
; #@! TA.AperFunction,Plated,PTH,ViaDrill
T4C0.500
; #@! TA.AperFunction,Plated,PTH,ComponentDrill
T5C0.600
; #@! TA.AperFunction,Plated,PTH,ComponentDrill
T6C0.813
; #@! TA.AperFunction,Plated,PTH,ComponentDrill
T7C0.889
; #@! TA.AperFunction,Plated,PTH,ComponentDrill
T8C0.900
; #@! TA.AperFunction,Plated,PTH,ComponentDrill
T9C0.990
; #@! TA.AperFunction,Plated,PTH,ComponentDrill
T10C1.000
; #@! TA.AperFunction,Plated,PTH,ComponentDrill
T11C1.100
; #@! TA.AperFunction,Plated,PTH,ComponentDrill
T12C1.300
; #@! TA.AperFunction,Plated,PTH,ComponentDrill
T13C1.397
; #@! TA.AperFunction,Plated,PTH,ComponentDrill
T14C1.499
; #@! TA.AperFunction,NonPlated,NPTH,ComponentDrill
T15C2.700
%
G90
G05
T1
X156.9Y-74.0
X160.26Y-69.925
X175.82Y-69.932
X191.403Y-37.85
T2
X104.525Y-44.25
X104.525Y-46.85
X107.225Y-69.55
X107.8Y-72.625
X108.2Y-47.275
X108.2Y-49.075
X108.625Y-67.275
X108.85Y-44.9
X109.175Y-59.6
X109.8Y-73.675
X110.2Y-65.225
X110.925Y-67.45
X111.05Y-71.925
X111.95Y-63.8
X112.275Y-59.925
X112.7Y-55.575
X113.45Y-69.1
X113.575Y-38.7
X113.575Y-41.7
X114.125Y-40.725
X114.7Y-43.9
X115.55Y-63.875
X115.675Y-40.9
X115.675Y-42.625
X116.975Y-64.375
X117.3Y-59.85
X118.15Y-57.25
X119.65Y-62.45
X120.25Y-70.625
X120.25Y-73.075
X120.575Y-60.7
X120.875Y-54.2
X120.875Y-55.95
X121.4Y-67.725
X122.5Y-52.625
X123.325Y-72.425
X123.675Y-46.525
X123.75Y-44.95
X123.95Y-51.95
X124.05Y-50.425
X124.25Y-67.7
X125.2Y-54.2
X125.475Y-44.8
X125.5Y-72.0
X125.725Y-51.65
X126.225Y-69.825
X127.2Y-41.6
X127.95Y-54.25
X128.25Y-41.125
X128.425Y-44.95
X128.6Y-78.325
X129.075Y-76.275
X129.725Y-80.225
X130.2Y-72.2
X130.9Y-70.8
X131.125Y-42.55
X131.325Y-44.95
X131.8Y-55.0
X132.65Y-58.4
X132.8Y-72.4
X133.4Y-61.3
X133.406Y-69.694
X133.475Y-54.4
X134.2Y-62.0
X134.475Y-58.925
X134.775Y-45.0
X135.075Y-41.4
X136.725Y-69.95
X137.175Y-56.875
X137.425Y-45.0
X137.5Y-41.4
X137.5Y-64.4
X138.05Y-51.375
X138.7Y-62.0
X138.975Y-50.325
X139.0Y-68.6
X139.175Y-57.5
X139.25Y-54.3
X139.35Y-55.45
X140.05Y-49.2
X140.4Y-69.8
X140.9Y-64.1
X140.95Y-44.575
X141.9Y-37.825
X141.975Y-42.5
X142.225Y-55.575
X142.3Y-47.775
X142.3Y-72.1
X142.8Y-69.7
X143.65Y-46.85
X143.95Y-56.45
X144.0Y-44.925
X144.1Y-40.2
X144.3Y-58.15
X144.6Y-36.65
X144.675Y-38.8
X144.95Y-64.2
X144.95Y-67.025
X145.75Y-41.4
X146.15Y-44.925
X146.525Y-37.575
X146.775Y-70.125
X147.7Y-71.65
X147.85Y-67.525
X148.025Y-69.3
X148.15Y-73.725
X148.2Y-60.25
X148.525Y-37.45
X149.125Y-44.275
X149.375Y-63.875
X149.375Y-66.25
X149.725Y-36.475
X149.865Y-44.578
X150.8Y-47.376
X151.2Y-44.85
X151.25Y-66.9
X151.35Y-37.775
X151.8Y-46.75
X152.15Y-36.825
X152.325Y-61.825
X152.35Y-60.275
X152.925Y-63.325
X152.975Y-49.875
X153.0Y-51.7
X153.096Y-44.511
X153.175Y-65.275
X153.2Y-58.425
X153.4Y-52.325
X153.487Y-42.174
X153.725Y-36.45
X153.975Y-37.825
X153.975Y-53.775
X154.0Y-43.875
X154.225Y-64.375
X154.425Y-57.7
X154.65Y-52.5
X155.0Y-40.925
X155.1Y-36.125
X155.305Y-48.98
X155.6Y-39.125
X155.604Y-41.775
X155.675Y-57.475
X155.9Y-37.625
X156.35Y-46.0
X156.375Y-45.225
X156.6Y-57.275
X156.7Y-38.2
X156.8Y-44.5
X156.825Y-75.775
X156.95Y-46.5
X157.125Y-45.45
X157.2Y-69.45
X157.225Y-37.075
X157.7Y-38.725
X157.875Y-46.5
X157.9Y-44.35
X158.375Y-45.6
X158.425Y-77.875
X158.525Y-75.225
X158.575Y-72.45
X158.775Y-46.5
X158.95Y-44.475
X161.375Y-57.35
X161.5Y-38.75
X161.5Y-43.826
X161.5Y-66.1
X161.55Y-39.6
X161.55Y-40.525
X161.575Y-37.65
X162.125Y-58.425
X162.4Y-39.025
X162.4Y-40.1
X162.475Y-65.6
X162.75Y-64.6
X162.825Y-41.25
X162.825Y-63.55
X162.925Y-37.675
X162.95Y-59.8
X163.55Y-38.775
X163.675Y-62.3
X163.7Y-61.125
X163.85Y-40.15
X164.15Y-37.275
X164.475Y-38.775
X165.0Y-48.1
X165.237Y-69.725
X165.475Y-43.925
X165.525Y-41.325
X165.6Y-48.25
X165.65Y-37.825
X165.95Y-42.675
X165.95Y-49.15
X166.225Y-39.65
X166.275Y-43.375
X166.8Y-49.875
X167.775Y-37.75
X168.225Y-39.125
X168.225Y-52.525
X168.65Y-63.075
X168.725Y-53.619
X168.775Y-41.325
X168.925Y-55.2
X169.075Y-65.75
X169.1Y-70.697
X169.225Y-59.25
X169.375Y-37.75
X170.1Y-40.775
X170.275Y-43.475
X170.4Y-60.95
X170.725Y-39.475
X170.875Y-69.375
X170.9Y-37.85
X170.925Y-43.55
X170.95Y-50.125
X171.05Y-73.75
X171.175Y-44.7
X171.175Y-45.975
X171.275Y-64.35
X171.6Y-48.9
X171.625Y-47.5
X171.925Y-46.15
X172.125Y-39.525
X172.4Y-73.25
X172.625Y-75.35
X172.725Y-38.0
X172.975Y-43.925
X173.15Y-40.325
X174.525Y-38.85
X174.95Y-40.225
X175.55Y-36.975
X175.9Y-42.6
X177.275Y-40.825
X178.15Y-75.55
X178.2Y-51.475
X178.5Y-50.3
X178.575Y-37.15
X178.975Y-56.625
X179.0Y-38.75
X179.25Y-69.1
X180.05Y-56.125
X180.8Y-70.8
X181.775Y-52.525
X182.275Y-48.2
X182.75Y-40.925
X183.2Y-56.325
X183.55Y-58.85
X183.875Y-37.3
X184.325Y-49.9
X184.625Y-45.6
X185.4Y-70.675
X185.475Y-75.875
X185.6Y-41.175
X186.2Y-58.5
X186.575Y-52.575
X186.8Y-36.925
X187.05Y-79.575
X187.8Y-40.8
X189.325Y-48.5
X189.4Y-37.525
X189.925Y-51.025
X190.7Y-76.725
X191.1Y-55.15
X191.275Y-70.75
X192.3Y-49.475
X192.475Y-68.975
X193.575Y-48.8
X194.125Y-63.675
X194.925Y-73.475
X196.2Y-59.85
X196.25Y-58.05
X196.9Y-44.625
X196.975Y-68.975
X197.625Y-59.0
X198.125Y-60.6
X198.625Y-73.65
X198.8Y-43.35
X200.725Y-75.175
X202.775Y-43.725
T3
X161.702Y-72.725
X161.702Y-74.075
X162.552Y-72.725
X162.552Y-74.075
X163.403Y-72.725
X163.403Y-74.075
X164.252Y-72.725
X164.252Y-74.075
X165.102Y-72.725
X165.102Y-74.075
X165.952Y-72.725
X165.952Y-74.075
X166.802Y-72.725
X166.802Y-74.075
X167.653Y-72.725
X167.653Y-74.075
T4
X155.425Y-65.425
X155.8Y-61.95
T6
X149.056Y-78.862
X151.056Y-78.862
X153.056Y-78.862
T7
X106.265Y-59.86
X106.265Y-62.4
X106.265Y-64.94
X113.885Y-52.24
X116.425Y-52.24
X118.965Y-52.24
X181.16Y-43.459
X183.7Y-43.459
X186.24Y-43.459
X193.86Y-51.079
X193.86Y-53.619
X193.86Y-56.159
T8
X124.045Y-59.225
X124.045Y-65.575
X129.125Y-59.225
X129.125Y-65.575
X180.525Y-61.239
X180.525Y-66.319
X186.875Y-61.239
X186.875Y-66.319
T9
X105.5Y-38.3
X110.0Y-38.3
X196.675Y-38.262
X201.175Y-38.262
T10
X146.833Y-49.708
X148.629Y-51.504
X150.425Y-53.3
X151.46Y-73.6
X152.221Y-55.096
X154.0Y-73.6
T11
X117.55Y-37.975
X117.55Y-42.475
X124.05Y-37.975
X124.05Y-42.475
X175.89Y-73.81
X175.89Y-78.31
X182.39Y-73.81
X182.39Y-78.31
X193.87Y-67.0
X193.87Y-71.5
X200.37Y-67.0
X200.37Y-71.5
T12
X104.25Y-40.79
X111.26Y-40.79
X195.425Y-40.752
X202.435Y-40.752
T13
X109.757Y-54.78
X109.757Y-70.02
X123.093Y-54.78
X123.093Y-70.02
X176.08Y-46.951
X176.08Y-60.286
X191.32Y-46.951
X191.32Y-60.286
T14
X146.956Y-78.862
X155.156Y-78.862
T15
X109.0Y-78.0
X200.0Y-50.0
T5
G00X160.352Y-72.955
M15
G01X160.352Y-74.455
M16
G05
G00X160.352Y-76.685
M15
G01X160.352Y-77.485
M16
G05
G00X169.002Y-72.955
M15
G01X169.002Y-74.455
M16
G05
G00X169.002Y-76.685
M15
G01X169.002Y-77.485
M16
G05
M30
