%TF.GenerationSoftware,KiCad,Pcbnew,9.0.0*%
%TF.CreationDate,2025-09-05T21:39:46-05:00*%
%TF.ProjectId,RIOT_Remote_ESP,52494f54-5f52-4656-9d6f-74655f455350,rev?*%
%TF.SameCoordinates,Original*%
%TF.FileFunction,Legend,Top*%
%TF.FilePolarity,Positive*%
%FSLAX46Y46*%
G04 Gerber Fmt 4.6, Leading zero omitted, Abs format (unit mm)*
G04 Created by KiCad (PCBNEW 9.0.0) date 2025-09-05 21:39:46*
%MOMM*%
%LPD*%
G01*
G04 APERTURE LIST*
%ADD10C,0.100000*%
%ADD11C,0.150000*%
%ADD12C,0.120000*%
%ADD13C,0.127000*%
%ADD14C,0.200000*%
%ADD15C,0.000000*%
%ADD16C,0.152400*%
%ADD17C,0.508000*%
G04 APERTURE END LIST*
D10*
X159669687Y-70722819D02*
X159717306Y-70675200D01*
X159717306Y-70675200D02*
X159860163Y-70627580D01*
X159860163Y-70627580D02*
X159955401Y-70627580D01*
X159955401Y-70627580D02*
X160098258Y-70675200D01*
X160098258Y-70675200D02*
X160193496Y-70770438D01*
X160193496Y-70770438D02*
X160241115Y-70865676D01*
X160241115Y-70865676D02*
X160288734Y-71056152D01*
X160288734Y-71056152D02*
X160288734Y-71199009D01*
X160288734Y-71199009D02*
X160241115Y-71389485D01*
X160241115Y-71389485D02*
X160193496Y-71484723D01*
X160193496Y-71484723D02*
X160098258Y-71579961D01*
X160098258Y-71579961D02*
X159955401Y-71627580D01*
X159955401Y-71627580D02*
X159860163Y-71627580D01*
X159860163Y-71627580D02*
X159717306Y-71579961D01*
X159717306Y-71579961D02*
X159669687Y-71532342D01*
X159241115Y-70627580D02*
X159241115Y-71627580D01*
X159241115Y-71151390D02*
X158669687Y-71151390D01*
X158669687Y-70627580D02*
X158669687Y-71627580D01*
X158241115Y-70913295D02*
X157764925Y-70913295D01*
X158336353Y-70627580D02*
X158003020Y-71627580D01*
X158003020Y-71627580D02*
X157669687Y-70627580D01*
X156764925Y-70627580D02*
X157098258Y-71103771D01*
X157336353Y-70627580D02*
X157336353Y-71627580D01*
X157336353Y-71627580D02*
X156955401Y-71627580D01*
X156955401Y-71627580D02*
X156860163Y-71579961D01*
X156860163Y-71579961D02*
X156812544Y-71532342D01*
X156812544Y-71532342D02*
X156764925Y-71437104D01*
X156764925Y-71437104D02*
X156764925Y-71294247D01*
X156764925Y-71294247D02*
X156812544Y-71199009D01*
X156812544Y-71199009D02*
X156860163Y-71151390D01*
X156860163Y-71151390D02*
X156955401Y-71103771D01*
X156955401Y-71103771D02*
X157336353Y-71103771D01*
X155812544Y-71579961D02*
X155907782Y-71627580D01*
X155907782Y-71627580D02*
X156050639Y-71627580D01*
X156050639Y-71627580D02*
X156193496Y-71579961D01*
X156193496Y-71579961D02*
X156288734Y-71484723D01*
X156288734Y-71484723D02*
X156336353Y-71389485D01*
X156336353Y-71389485D02*
X156383972Y-71199009D01*
X156383972Y-71199009D02*
X156383972Y-71056152D01*
X156383972Y-71056152D02*
X156336353Y-70865676D01*
X156336353Y-70865676D02*
X156288734Y-70770438D01*
X156288734Y-70770438D02*
X156193496Y-70675200D01*
X156193496Y-70675200D02*
X156050639Y-70627580D01*
X156050639Y-70627580D02*
X155955401Y-70627580D01*
X155955401Y-70627580D02*
X155812544Y-70675200D01*
X155812544Y-70675200D02*
X155764925Y-70722819D01*
X155764925Y-70722819D02*
X155764925Y-71056152D01*
X155764925Y-71056152D02*
X155955401Y-71056152D01*
X155336353Y-71151390D02*
X155003020Y-71151390D01*
X154860163Y-70627580D02*
X155336353Y-70627580D01*
X155336353Y-70627580D02*
X155336353Y-71627580D01*
X155336353Y-71627580D02*
X154860163Y-71627580D01*
D11*
X198666666Y-46754819D02*
X198333333Y-46278628D01*
X198095238Y-46754819D02*
X198095238Y-45754819D01*
X198095238Y-45754819D02*
X198476190Y-45754819D01*
X198476190Y-45754819D02*
X198571428Y-45802438D01*
X198571428Y-45802438D02*
X198619047Y-45850057D01*
X198619047Y-45850057D02*
X198666666Y-45945295D01*
X198666666Y-45945295D02*
X198666666Y-46088152D01*
X198666666Y-46088152D02*
X198619047Y-46183390D01*
X198619047Y-46183390D02*
X198571428Y-46231009D01*
X198571428Y-46231009D02*
X198476190Y-46278628D01*
X198476190Y-46278628D02*
X198095238Y-46278628D01*
X199095238Y-46231009D02*
X199428571Y-46231009D01*
X199571428Y-46754819D02*
X199095238Y-46754819D01*
X199095238Y-46754819D02*
X199095238Y-45754819D01*
X199095238Y-45754819D02*
X199571428Y-45754819D01*
X200333333Y-46231009D02*
X200000000Y-46231009D01*
X200000000Y-46754819D02*
X200000000Y-45754819D01*
X200000000Y-45754819D02*
X200476190Y-45754819D01*
X201000000Y-45754819D02*
X201000000Y-45992914D01*
X200761905Y-45897676D02*
X201000000Y-45992914D01*
X201000000Y-45992914D02*
X201238095Y-45897676D01*
X200857143Y-46183390D02*
X201000000Y-45992914D01*
X201000000Y-45992914D02*
X201142857Y-46183390D01*
X201761905Y-45754819D02*
X201761905Y-45992914D01*
X201523810Y-45897676D02*
X201761905Y-45992914D01*
X201761905Y-45992914D02*
X202000000Y-45897676D01*
X201619048Y-46183390D02*
X201761905Y-45992914D01*
X201761905Y-45992914D02*
X201904762Y-46183390D01*
X154031655Y-46867356D02*
X154031655Y-46934700D01*
X154031655Y-46934700D02*
X153964311Y-47069387D01*
X153964311Y-47069387D02*
X153896968Y-47136730D01*
X153896968Y-47136730D02*
X153762281Y-47204074D01*
X153762281Y-47204074D02*
X153627594Y-47204074D01*
X153627594Y-47204074D02*
X153526579Y-47170402D01*
X153526579Y-47170402D02*
X153358220Y-47069387D01*
X153358220Y-47069387D02*
X153257205Y-46968372D01*
X153257205Y-46968372D02*
X153156189Y-46800013D01*
X153156189Y-46800013D02*
X153122518Y-46698998D01*
X153122518Y-46698998D02*
X153122518Y-46564311D01*
X153122518Y-46564311D02*
X153189861Y-46429624D01*
X153189861Y-46429624D02*
X153257205Y-46362280D01*
X153257205Y-46362280D02*
X153391892Y-46294937D01*
X153391892Y-46294937D02*
X153459235Y-46294937D01*
X153627594Y-45991891D02*
X154098998Y-45520486D01*
X154098998Y-45520486D02*
X154503059Y-46530639D01*
X148758618Y-38519228D02*
X148710999Y-38566848D01*
X148710999Y-38566848D02*
X148568142Y-38614467D01*
X148568142Y-38614467D02*
X148472904Y-38614467D01*
X148472904Y-38614467D02*
X148330047Y-38566848D01*
X148330047Y-38566848D02*
X148234809Y-38471609D01*
X148234809Y-38471609D02*
X148187190Y-38376371D01*
X148187190Y-38376371D02*
X148139571Y-38185895D01*
X148139571Y-38185895D02*
X148139571Y-38043038D01*
X148139571Y-38043038D02*
X148187190Y-37852562D01*
X148187190Y-37852562D02*
X148234809Y-37757324D01*
X148234809Y-37757324D02*
X148330047Y-37662086D01*
X148330047Y-37662086D02*
X148472904Y-37614467D01*
X148472904Y-37614467D02*
X148568142Y-37614467D01*
X148568142Y-37614467D02*
X148710999Y-37662086D01*
X148710999Y-37662086D02*
X148758618Y-37709705D01*
X149091952Y-37614467D02*
X149710999Y-37614467D01*
X149710999Y-37614467D02*
X149377666Y-37995419D01*
X149377666Y-37995419D02*
X149520523Y-37995419D01*
X149520523Y-37995419D02*
X149615761Y-38043038D01*
X149615761Y-38043038D02*
X149663380Y-38090657D01*
X149663380Y-38090657D02*
X149710999Y-38185895D01*
X149710999Y-38185895D02*
X149710999Y-38423990D01*
X149710999Y-38423990D02*
X149663380Y-38519228D01*
X149663380Y-38519228D02*
X149615761Y-38566848D01*
X149615761Y-38566848D02*
X149520523Y-38614467D01*
X149520523Y-38614467D02*
X149234809Y-38614467D01*
X149234809Y-38614467D02*
X149139571Y-38566848D01*
X149139571Y-38566848D02*
X149091952Y-38519228D01*
X177806667Y-72217200D02*
X177949524Y-72264819D01*
X177949524Y-72264819D02*
X178187619Y-72264819D01*
X178187619Y-72264819D02*
X178282857Y-72217200D01*
X178282857Y-72217200D02*
X178330476Y-72169580D01*
X178330476Y-72169580D02*
X178378095Y-72074342D01*
X178378095Y-72074342D02*
X178378095Y-71979104D01*
X178378095Y-71979104D02*
X178330476Y-71883866D01*
X178330476Y-71883866D02*
X178282857Y-71836247D01*
X178282857Y-71836247D02*
X178187619Y-71788628D01*
X178187619Y-71788628D02*
X177997143Y-71741009D01*
X177997143Y-71741009D02*
X177901905Y-71693390D01*
X177901905Y-71693390D02*
X177854286Y-71645771D01*
X177854286Y-71645771D02*
X177806667Y-71550533D01*
X177806667Y-71550533D02*
X177806667Y-71455295D01*
X177806667Y-71455295D02*
X177854286Y-71360057D01*
X177854286Y-71360057D02*
X177901905Y-71312438D01*
X177901905Y-71312438D02*
X177997143Y-71264819D01*
X177997143Y-71264819D02*
X178235238Y-71264819D01*
X178235238Y-71264819D02*
X178378095Y-71312438D01*
X178711429Y-71264819D02*
X178949524Y-72264819D01*
X178949524Y-72264819D02*
X179140000Y-71550533D01*
X179140000Y-71550533D02*
X179330476Y-72264819D01*
X179330476Y-72264819D02*
X179568572Y-71264819D01*
X180425714Y-71264819D02*
X179949524Y-71264819D01*
X179949524Y-71264819D02*
X179901905Y-71741009D01*
X179901905Y-71741009D02*
X179949524Y-71693390D01*
X179949524Y-71693390D02*
X180044762Y-71645771D01*
X180044762Y-71645771D02*
X180282857Y-71645771D01*
X180282857Y-71645771D02*
X180378095Y-71693390D01*
X180378095Y-71693390D02*
X180425714Y-71741009D01*
X180425714Y-71741009D02*
X180473333Y-71836247D01*
X180473333Y-71836247D02*
X180473333Y-72074342D01*
X180473333Y-72074342D02*
X180425714Y-72169580D01*
X180425714Y-72169580D02*
X180378095Y-72217200D01*
X180378095Y-72217200D02*
X180282857Y-72264819D01*
X180282857Y-72264819D02*
X180044762Y-72264819D01*
X180044762Y-72264819D02*
X179949524Y-72217200D01*
X179949524Y-72217200D02*
X179901905Y-72169580D01*
X132229580Y-66242857D02*
X132277200Y-66290476D01*
X132277200Y-66290476D02*
X132324819Y-66433333D01*
X132324819Y-66433333D02*
X132324819Y-66528571D01*
X132324819Y-66528571D02*
X132277200Y-66671428D01*
X132277200Y-66671428D02*
X132181961Y-66766666D01*
X132181961Y-66766666D02*
X132086723Y-66814285D01*
X132086723Y-66814285D02*
X131896247Y-66861904D01*
X131896247Y-66861904D02*
X131753390Y-66861904D01*
X131753390Y-66861904D02*
X131562914Y-66814285D01*
X131562914Y-66814285D02*
X131467676Y-66766666D01*
X131467676Y-66766666D02*
X131372438Y-66671428D01*
X131372438Y-66671428D02*
X131324819Y-66528571D01*
X131324819Y-66528571D02*
X131324819Y-66433333D01*
X131324819Y-66433333D02*
X131372438Y-66290476D01*
X131372438Y-66290476D02*
X131420057Y-66242857D01*
X131420057Y-65861904D02*
X131372438Y-65814285D01*
X131372438Y-65814285D02*
X131324819Y-65719047D01*
X131324819Y-65719047D02*
X131324819Y-65480952D01*
X131324819Y-65480952D02*
X131372438Y-65385714D01*
X131372438Y-65385714D02*
X131420057Y-65338095D01*
X131420057Y-65338095D02*
X131515295Y-65290476D01*
X131515295Y-65290476D02*
X131610533Y-65290476D01*
X131610533Y-65290476D02*
X131753390Y-65338095D01*
X131753390Y-65338095D02*
X132324819Y-65909523D01*
X132324819Y-65909523D02*
X132324819Y-65290476D01*
X131324819Y-64957142D02*
X131324819Y-64290476D01*
X131324819Y-64290476D02*
X132324819Y-64719047D01*
X164344166Y-70379819D02*
X164344166Y-71094104D01*
X164344166Y-71094104D02*
X164296547Y-71236961D01*
X164296547Y-71236961D02*
X164201309Y-71332200D01*
X164201309Y-71332200D02*
X164058452Y-71379819D01*
X164058452Y-71379819D02*
X163963214Y-71379819D01*
X164772738Y-70475057D02*
X164820357Y-70427438D01*
X164820357Y-70427438D02*
X164915595Y-70379819D01*
X164915595Y-70379819D02*
X165153690Y-70379819D01*
X165153690Y-70379819D02*
X165248928Y-70427438D01*
X165248928Y-70427438D02*
X165296547Y-70475057D01*
X165296547Y-70475057D02*
X165344166Y-70570295D01*
X165344166Y-70570295D02*
X165344166Y-70665533D01*
X165344166Y-70665533D02*
X165296547Y-70808390D01*
X165296547Y-70808390D02*
X164725119Y-71379819D01*
X164725119Y-71379819D02*
X165344166Y-71379819D01*
X168383333Y-49624580D02*
X168335714Y-49672200D01*
X168335714Y-49672200D02*
X168192857Y-49719819D01*
X168192857Y-49719819D02*
X168097619Y-49719819D01*
X168097619Y-49719819D02*
X167954762Y-49672200D01*
X167954762Y-49672200D02*
X167859524Y-49576961D01*
X167859524Y-49576961D02*
X167811905Y-49481723D01*
X167811905Y-49481723D02*
X167764286Y-49291247D01*
X167764286Y-49291247D02*
X167764286Y-49148390D01*
X167764286Y-49148390D02*
X167811905Y-48957914D01*
X167811905Y-48957914D02*
X167859524Y-48862676D01*
X167859524Y-48862676D02*
X167954762Y-48767438D01*
X167954762Y-48767438D02*
X168097619Y-48719819D01*
X168097619Y-48719819D02*
X168192857Y-48719819D01*
X168192857Y-48719819D02*
X168335714Y-48767438D01*
X168335714Y-48767438D02*
X168383333Y-48815057D01*
X169335714Y-49719819D02*
X168764286Y-49719819D01*
X169050000Y-49719819D02*
X169050000Y-48719819D01*
X169050000Y-48719819D02*
X168954762Y-48862676D01*
X168954762Y-48862676D02*
X168859524Y-48957914D01*
X168859524Y-48957914D02*
X168764286Y-49005533D01*
X147486510Y-56164351D02*
X147587525Y-55591932D01*
X147082449Y-55760290D02*
X147789556Y-55053184D01*
X147789556Y-55053184D02*
X148058930Y-55322558D01*
X148058930Y-55322558D02*
X148092602Y-55423573D01*
X148092602Y-55423573D02*
X148092602Y-55490916D01*
X148092602Y-55490916D02*
X148058930Y-55591932D01*
X148058930Y-55591932D02*
X147957915Y-55692947D01*
X147957915Y-55692947D02*
X147856899Y-55726619D01*
X147856899Y-55726619D02*
X147789556Y-55726619D01*
X147789556Y-55726619D02*
X147688541Y-55692947D01*
X147688541Y-55692947D02*
X147419167Y-55423573D01*
X148159945Y-56837786D02*
X147755884Y-56433725D01*
X147957915Y-56635756D02*
X148665021Y-55928649D01*
X148665021Y-55928649D02*
X148496663Y-55962321D01*
X148496663Y-55962321D02*
X148361976Y-55962321D01*
X148361976Y-55962321D02*
X148260960Y-55928649D01*
X149506815Y-56770443D02*
X149170098Y-56433725D01*
X149170098Y-56433725D02*
X148799709Y-56736771D01*
X148799709Y-56736771D02*
X148867052Y-56736771D01*
X148867052Y-56736771D02*
X148968067Y-56770443D01*
X148968067Y-56770443D02*
X149136426Y-56938802D01*
X149136426Y-56938802D02*
X149170098Y-57039817D01*
X149170098Y-57039817D02*
X149170098Y-57107161D01*
X149170098Y-57107161D02*
X149136426Y-57208176D01*
X149136426Y-57208176D02*
X148968067Y-57376535D01*
X148968067Y-57376535D02*
X148867052Y-57410206D01*
X148867052Y-57410206D02*
X148799709Y-57410206D01*
X148799709Y-57410206D02*
X148698693Y-57376535D01*
X148698693Y-57376535D02*
X148530335Y-57208176D01*
X148530335Y-57208176D02*
X148496663Y-57107161D01*
X148496663Y-57107161D02*
X148496663Y-57039817D01*
X156224819Y-73933333D02*
X156939104Y-73933333D01*
X156939104Y-73933333D02*
X157081961Y-73980952D01*
X157081961Y-73980952D02*
X157177200Y-74076190D01*
X157177200Y-74076190D02*
X157224819Y-74219047D01*
X157224819Y-74219047D02*
X157224819Y-74314285D01*
X157224819Y-72933333D02*
X157224819Y-73504761D01*
X157224819Y-73219047D02*
X156224819Y-73219047D01*
X156224819Y-73219047D02*
X156367676Y-73314285D01*
X156367676Y-73314285D02*
X156462914Y-73409523D01*
X156462914Y-73409523D02*
X156510533Y-73504761D01*
X106416667Y-40387200D02*
X106559524Y-40434819D01*
X106559524Y-40434819D02*
X106797619Y-40434819D01*
X106797619Y-40434819D02*
X106892857Y-40387200D01*
X106892857Y-40387200D02*
X106940476Y-40339580D01*
X106940476Y-40339580D02*
X106988095Y-40244342D01*
X106988095Y-40244342D02*
X106988095Y-40149104D01*
X106988095Y-40149104D02*
X106940476Y-40053866D01*
X106940476Y-40053866D02*
X106892857Y-40006247D01*
X106892857Y-40006247D02*
X106797619Y-39958628D01*
X106797619Y-39958628D02*
X106607143Y-39911009D01*
X106607143Y-39911009D02*
X106511905Y-39863390D01*
X106511905Y-39863390D02*
X106464286Y-39815771D01*
X106464286Y-39815771D02*
X106416667Y-39720533D01*
X106416667Y-39720533D02*
X106416667Y-39625295D01*
X106416667Y-39625295D02*
X106464286Y-39530057D01*
X106464286Y-39530057D02*
X106511905Y-39482438D01*
X106511905Y-39482438D02*
X106607143Y-39434819D01*
X106607143Y-39434819D02*
X106845238Y-39434819D01*
X106845238Y-39434819D02*
X106988095Y-39482438D01*
X107321429Y-39434819D02*
X107559524Y-40434819D01*
X107559524Y-40434819D02*
X107750000Y-39720533D01*
X107750000Y-39720533D02*
X107940476Y-40434819D01*
X107940476Y-40434819D02*
X108178572Y-39434819D01*
X108464286Y-39434819D02*
X109130952Y-39434819D01*
X109130952Y-39434819D02*
X108702381Y-40434819D01*
X134833333Y-74354819D02*
X134357143Y-74354819D01*
X134357143Y-74354819D02*
X134357143Y-73354819D01*
X135642857Y-73354819D02*
X135166667Y-73354819D01*
X135166667Y-73354819D02*
X135119048Y-73831009D01*
X135119048Y-73831009D02*
X135166667Y-73783390D01*
X135166667Y-73783390D02*
X135261905Y-73735771D01*
X135261905Y-73735771D02*
X135500000Y-73735771D01*
X135500000Y-73735771D02*
X135595238Y-73783390D01*
X135595238Y-73783390D02*
X135642857Y-73831009D01*
X135642857Y-73831009D02*
X135690476Y-73926247D01*
X135690476Y-73926247D02*
X135690476Y-74164342D01*
X135690476Y-74164342D02*
X135642857Y-74259580D01*
X135642857Y-74259580D02*
X135595238Y-74307200D01*
X135595238Y-74307200D02*
X135500000Y-74354819D01*
X135500000Y-74354819D02*
X135261905Y-74354819D01*
X135261905Y-74354819D02*
X135166667Y-74307200D01*
X135166667Y-74307200D02*
X135119048Y-74259580D01*
X169983333Y-43209580D02*
X169935714Y-43257200D01*
X169935714Y-43257200D02*
X169792857Y-43304819D01*
X169792857Y-43304819D02*
X169697619Y-43304819D01*
X169697619Y-43304819D02*
X169554762Y-43257200D01*
X169554762Y-43257200D02*
X169459524Y-43161961D01*
X169459524Y-43161961D02*
X169411905Y-43066723D01*
X169411905Y-43066723D02*
X169364286Y-42876247D01*
X169364286Y-42876247D02*
X169364286Y-42733390D01*
X169364286Y-42733390D02*
X169411905Y-42542914D01*
X169411905Y-42542914D02*
X169459524Y-42447676D01*
X169459524Y-42447676D02*
X169554762Y-42352438D01*
X169554762Y-42352438D02*
X169697619Y-42304819D01*
X169697619Y-42304819D02*
X169792857Y-42304819D01*
X169792857Y-42304819D02*
X169935714Y-42352438D01*
X169935714Y-42352438D02*
X169983333Y-42400057D01*
X170364286Y-42400057D02*
X170411905Y-42352438D01*
X170411905Y-42352438D02*
X170507143Y-42304819D01*
X170507143Y-42304819D02*
X170745238Y-42304819D01*
X170745238Y-42304819D02*
X170840476Y-42352438D01*
X170840476Y-42352438D02*
X170888095Y-42400057D01*
X170888095Y-42400057D02*
X170935714Y-42495295D01*
X170935714Y-42495295D02*
X170935714Y-42590533D01*
X170935714Y-42590533D02*
X170888095Y-42733390D01*
X170888095Y-42733390D02*
X170316667Y-43304819D01*
X170316667Y-43304819D02*
X170935714Y-43304819D01*
X143259580Y-77942857D02*
X143307200Y-77990476D01*
X143307200Y-77990476D02*
X143354819Y-78133333D01*
X143354819Y-78133333D02*
X143354819Y-78228571D01*
X143354819Y-78228571D02*
X143307200Y-78371428D01*
X143307200Y-78371428D02*
X143211961Y-78466666D01*
X143211961Y-78466666D02*
X143116723Y-78514285D01*
X143116723Y-78514285D02*
X142926247Y-78561904D01*
X142926247Y-78561904D02*
X142783390Y-78561904D01*
X142783390Y-78561904D02*
X142592914Y-78514285D01*
X142592914Y-78514285D02*
X142497676Y-78466666D01*
X142497676Y-78466666D02*
X142402438Y-78371428D01*
X142402438Y-78371428D02*
X142354819Y-78228571D01*
X142354819Y-78228571D02*
X142354819Y-78133333D01*
X142354819Y-78133333D02*
X142402438Y-77990476D01*
X142402438Y-77990476D02*
X142450057Y-77942857D01*
X143354819Y-76990476D02*
X143354819Y-77561904D01*
X143354819Y-77276190D02*
X142354819Y-77276190D01*
X142354819Y-77276190D02*
X142497676Y-77371428D01*
X142497676Y-77371428D02*
X142592914Y-77466666D01*
X142592914Y-77466666D02*
X142640533Y-77561904D01*
X142354819Y-76657142D02*
X142354819Y-76038095D01*
X142354819Y-76038095D02*
X142735771Y-76371428D01*
X142735771Y-76371428D02*
X142735771Y-76228571D01*
X142735771Y-76228571D02*
X142783390Y-76133333D01*
X142783390Y-76133333D02*
X142831009Y-76085714D01*
X142831009Y-76085714D02*
X142926247Y-76038095D01*
X142926247Y-76038095D02*
X143164342Y-76038095D01*
X143164342Y-76038095D02*
X143259580Y-76085714D01*
X143259580Y-76085714D02*
X143307200Y-76133333D01*
X143307200Y-76133333D02*
X143354819Y-76228571D01*
X143354819Y-76228571D02*
X143354819Y-76514285D01*
X143354819Y-76514285D02*
X143307200Y-76609523D01*
X143307200Y-76609523D02*
X143259580Y-76657142D01*
X164008333Y-47359819D02*
X163532143Y-47359819D01*
X163532143Y-47359819D02*
X163532143Y-46359819D01*
X164865476Y-47359819D02*
X164294048Y-47359819D01*
X164579762Y-47359819D02*
X164579762Y-46359819D01*
X164579762Y-46359819D02*
X164484524Y-46502676D01*
X164484524Y-46502676D02*
X164389286Y-46597914D01*
X164389286Y-46597914D02*
X164294048Y-46645533D01*
X136457142Y-74859580D02*
X136409523Y-74907200D01*
X136409523Y-74907200D02*
X136266666Y-74954819D01*
X136266666Y-74954819D02*
X136171428Y-74954819D01*
X136171428Y-74954819D02*
X136028571Y-74907200D01*
X136028571Y-74907200D02*
X135933333Y-74811961D01*
X135933333Y-74811961D02*
X135885714Y-74716723D01*
X135885714Y-74716723D02*
X135838095Y-74526247D01*
X135838095Y-74526247D02*
X135838095Y-74383390D01*
X135838095Y-74383390D02*
X135885714Y-74192914D01*
X135885714Y-74192914D02*
X135933333Y-74097676D01*
X135933333Y-74097676D02*
X136028571Y-74002438D01*
X136028571Y-74002438D02*
X136171428Y-73954819D01*
X136171428Y-73954819D02*
X136266666Y-73954819D01*
X136266666Y-73954819D02*
X136409523Y-74002438D01*
X136409523Y-74002438D02*
X136457142Y-74050057D01*
X136838095Y-74050057D02*
X136885714Y-74002438D01*
X136885714Y-74002438D02*
X136980952Y-73954819D01*
X136980952Y-73954819D02*
X137219047Y-73954819D01*
X137219047Y-73954819D02*
X137314285Y-74002438D01*
X137314285Y-74002438D02*
X137361904Y-74050057D01*
X137361904Y-74050057D02*
X137409523Y-74145295D01*
X137409523Y-74145295D02*
X137409523Y-74240533D01*
X137409523Y-74240533D02*
X137361904Y-74383390D01*
X137361904Y-74383390D02*
X136790476Y-74954819D01*
X136790476Y-74954819D02*
X137409523Y-74954819D01*
X137885714Y-74954819D02*
X138076190Y-74954819D01*
X138076190Y-74954819D02*
X138171428Y-74907200D01*
X138171428Y-74907200D02*
X138219047Y-74859580D01*
X138219047Y-74859580D02*
X138314285Y-74716723D01*
X138314285Y-74716723D02*
X138361904Y-74526247D01*
X138361904Y-74526247D02*
X138361904Y-74145295D01*
X138361904Y-74145295D02*
X138314285Y-74050057D01*
X138314285Y-74050057D02*
X138266666Y-74002438D01*
X138266666Y-74002438D02*
X138171428Y-73954819D01*
X138171428Y-73954819D02*
X137980952Y-73954819D01*
X137980952Y-73954819D02*
X137885714Y-74002438D01*
X137885714Y-74002438D02*
X137838095Y-74050057D01*
X137838095Y-74050057D02*
X137790476Y-74145295D01*
X137790476Y-74145295D02*
X137790476Y-74383390D01*
X137790476Y-74383390D02*
X137838095Y-74478628D01*
X137838095Y-74478628D02*
X137885714Y-74526247D01*
X137885714Y-74526247D02*
X137980952Y-74573866D01*
X137980952Y-74573866D02*
X138171428Y-74573866D01*
X138171428Y-74573866D02*
X138266666Y-74526247D01*
X138266666Y-74526247D02*
X138314285Y-74478628D01*
X138314285Y-74478628D02*
X138361904Y-74383390D01*
X145011510Y-53689351D02*
X145112525Y-53116932D01*
X144607449Y-53285290D02*
X145314556Y-52578184D01*
X145314556Y-52578184D02*
X145583930Y-52847558D01*
X145583930Y-52847558D02*
X145617602Y-52948573D01*
X145617602Y-52948573D02*
X145617602Y-53015916D01*
X145617602Y-53015916D02*
X145583930Y-53116932D01*
X145583930Y-53116932D02*
X145482915Y-53217947D01*
X145482915Y-53217947D02*
X145381899Y-53251619D01*
X145381899Y-53251619D02*
X145314556Y-53251619D01*
X145314556Y-53251619D02*
X145213541Y-53217947D01*
X145213541Y-53217947D02*
X144944167Y-52948573D01*
X145684945Y-54362786D02*
X145280884Y-53958725D01*
X145482915Y-54160756D02*
X146190021Y-53453649D01*
X146190021Y-53453649D02*
X146021663Y-53487321D01*
X146021663Y-53487321D02*
X145886976Y-53487321D01*
X145886976Y-53487321D02*
X145785960Y-53453649D01*
X146762441Y-54497474D02*
X146291037Y-54968878D01*
X146863457Y-54059741D02*
X146190022Y-54396458D01*
X146190022Y-54396458D02*
X146627754Y-54834191D01*
X137059580Y-66242857D02*
X137107200Y-66290476D01*
X137107200Y-66290476D02*
X137154819Y-66433333D01*
X137154819Y-66433333D02*
X137154819Y-66528571D01*
X137154819Y-66528571D02*
X137107200Y-66671428D01*
X137107200Y-66671428D02*
X137011961Y-66766666D01*
X137011961Y-66766666D02*
X136916723Y-66814285D01*
X136916723Y-66814285D02*
X136726247Y-66861904D01*
X136726247Y-66861904D02*
X136583390Y-66861904D01*
X136583390Y-66861904D02*
X136392914Y-66814285D01*
X136392914Y-66814285D02*
X136297676Y-66766666D01*
X136297676Y-66766666D02*
X136202438Y-66671428D01*
X136202438Y-66671428D02*
X136154819Y-66528571D01*
X136154819Y-66528571D02*
X136154819Y-66433333D01*
X136154819Y-66433333D02*
X136202438Y-66290476D01*
X136202438Y-66290476D02*
X136250057Y-66242857D01*
X136250057Y-65861904D02*
X136202438Y-65814285D01*
X136202438Y-65814285D02*
X136154819Y-65719047D01*
X136154819Y-65719047D02*
X136154819Y-65480952D01*
X136154819Y-65480952D02*
X136202438Y-65385714D01*
X136202438Y-65385714D02*
X136250057Y-65338095D01*
X136250057Y-65338095D02*
X136345295Y-65290476D01*
X136345295Y-65290476D02*
X136440533Y-65290476D01*
X136440533Y-65290476D02*
X136583390Y-65338095D01*
X136583390Y-65338095D02*
X137154819Y-65909523D01*
X137154819Y-65909523D02*
X137154819Y-65290476D01*
X136583390Y-64719047D02*
X136535771Y-64814285D01*
X136535771Y-64814285D02*
X136488152Y-64861904D01*
X136488152Y-64861904D02*
X136392914Y-64909523D01*
X136392914Y-64909523D02*
X136345295Y-64909523D01*
X136345295Y-64909523D02*
X136250057Y-64861904D01*
X136250057Y-64861904D02*
X136202438Y-64814285D01*
X136202438Y-64814285D02*
X136154819Y-64719047D01*
X136154819Y-64719047D02*
X136154819Y-64528571D01*
X136154819Y-64528571D02*
X136202438Y-64433333D01*
X136202438Y-64433333D02*
X136250057Y-64385714D01*
X136250057Y-64385714D02*
X136345295Y-64338095D01*
X136345295Y-64338095D02*
X136392914Y-64338095D01*
X136392914Y-64338095D02*
X136488152Y-64385714D01*
X136488152Y-64385714D02*
X136535771Y-64433333D01*
X136535771Y-64433333D02*
X136583390Y-64528571D01*
X136583390Y-64528571D02*
X136583390Y-64719047D01*
X136583390Y-64719047D02*
X136631009Y-64814285D01*
X136631009Y-64814285D02*
X136678628Y-64861904D01*
X136678628Y-64861904D02*
X136773866Y-64909523D01*
X136773866Y-64909523D02*
X136964342Y-64909523D01*
X136964342Y-64909523D02*
X137059580Y-64861904D01*
X137059580Y-64861904D02*
X137107200Y-64814285D01*
X137107200Y-64814285D02*
X137154819Y-64719047D01*
X137154819Y-64719047D02*
X137154819Y-64528571D01*
X137154819Y-64528571D02*
X137107200Y-64433333D01*
X137107200Y-64433333D02*
X137059580Y-64385714D01*
X137059580Y-64385714D02*
X136964342Y-64338095D01*
X136964342Y-64338095D02*
X136773866Y-64338095D01*
X136773866Y-64338095D02*
X136678628Y-64385714D01*
X136678628Y-64385714D02*
X136631009Y-64433333D01*
X136631009Y-64433333D02*
X136583390Y-64528571D01*
X197591667Y-40349700D02*
X197734524Y-40397319D01*
X197734524Y-40397319D02*
X197972619Y-40397319D01*
X197972619Y-40397319D02*
X198067857Y-40349700D01*
X198067857Y-40349700D02*
X198115476Y-40302080D01*
X198115476Y-40302080D02*
X198163095Y-40206842D01*
X198163095Y-40206842D02*
X198163095Y-40111604D01*
X198163095Y-40111604D02*
X198115476Y-40016366D01*
X198115476Y-40016366D02*
X198067857Y-39968747D01*
X198067857Y-39968747D02*
X197972619Y-39921128D01*
X197972619Y-39921128D02*
X197782143Y-39873509D01*
X197782143Y-39873509D02*
X197686905Y-39825890D01*
X197686905Y-39825890D02*
X197639286Y-39778271D01*
X197639286Y-39778271D02*
X197591667Y-39683033D01*
X197591667Y-39683033D02*
X197591667Y-39587795D01*
X197591667Y-39587795D02*
X197639286Y-39492557D01*
X197639286Y-39492557D02*
X197686905Y-39444938D01*
X197686905Y-39444938D02*
X197782143Y-39397319D01*
X197782143Y-39397319D02*
X198020238Y-39397319D01*
X198020238Y-39397319D02*
X198163095Y-39444938D01*
X198496429Y-39397319D02*
X198734524Y-40397319D01*
X198734524Y-40397319D02*
X198925000Y-39683033D01*
X198925000Y-39683033D02*
X199115476Y-40397319D01*
X199115476Y-40397319D02*
X199353572Y-39397319D01*
X200163095Y-39730652D02*
X200163095Y-40397319D01*
X199925000Y-39349700D02*
X199686905Y-40063985D01*
X199686905Y-40063985D02*
X200305952Y-40063985D01*
X191833333Y-39474819D02*
X191500000Y-38998628D01*
X191261905Y-39474819D02*
X191261905Y-38474819D01*
X191261905Y-38474819D02*
X191642857Y-38474819D01*
X191642857Y-38474819D02*
X191738095Y-38522438D01*
X191738095Y-38522438D02*
X191785714Y-38570057D01*
X191785714Y-38570057D02*
X191833333Y-38665295D01*
X191833333Y-38665295D02*
X191833333Y-38808152D01*
X191833333Y-38808152D02*
X191785714Y-38903390D01*
X191785714Y-38903390D02*
X191738095Y-38951009D01*
X191738095Y-38951009D02*
X191642857Y-38998628D01*
X191642857Y-38998628D02*
X191261905Y-38998628D01*
X192166667Y-38474819D02*
X192833333Y-38474819D01*
X192833333Y-38474819D02*
X192404762Y-39474819D01*
X195786667Y-65407200D02*
X195929524Y-65454819D01*
X195929524Y-65454819D02*
X196167619Y-65454819D01*
X196167619Y-65454819D02*
X196262857Y-65407200D01*
X196262857Y-65407200D02*
X196310476Y-65359580D01*
X196310476Y-65359580D02*
X196358095Y-65264342D01*
X196358095Y-65264342D02*
X196358095Y-65169104D01*
X196358095Y-65169104D02*
X196310476Y-65073866D01*
X196310476Y-65073866D02*
X196262857Y-65026247D01*
X196262857Y-65026247D02*
X196167619Y-64978628D01*
X196167619Y-64978628D02*
X195977143Y-64931009D01*
X195977143Y-64931009D02*
X195881905Y-64883390D01*
X195881905Y-64883390D02*
X195834286Y-64835771D01*
X195834286Y-64835771D02*
X195786667Y-64740533D01*
X195786667Y-64740533D02*
X195786667Y-64645295D01*
X195786667Y-64645295D02*
X195834286Y-64550057D01*
X195834286Y-64550057D02*
X195881905Y-64502438D01*
X195881905Y-64502438D02*
X195977143Y-64454819D01*
X195977143Y-64454819D02*
X196215238Y-64454819D01*
X196215238Y-64454819D02*
X196358095Y-64502438D01*
X196691429Y-64454819D02*
X196929524Y-65454819D01*
X196929524Y-65454819D02*
X197120000Y-64740533D01*
X197120000Y-64740533D02*
X197310476Y-65454819D01*
X197310476Y-65454819D02*
X197548572Y-64454819D01*
X198358095Y-64454819D02*
X198167619Y-64454819D01*
X198167619Y-64454819D02*
X198072381Y-64502438D01*
X198072381Y-64502438D02*
X198024762Y-64550057D01*
X198024762Y-64550057D02*
X197929524Y-64692914D01*
X197929524Y-64692914D02*
X197881905Y-64883390D01*
X197881905Y-64883390D02*
X197881905Y-65264342D01*
X197881905Y-65264342D02*
X197929524Y-65359580D01*
X197929524Y-65359580D02*
X197977143Y-65407200D01*
X197977143Y-65407200D02*
X198072381Y-65454819D01*
X198072381Y-65454819D02*
X198262857Y-65454819D01*
X198262857Y-65454819D02*
X198358095Y-65407200D01*
X198358095Y-65407200D02*
X198405714Y-65359580D01*
X198405714Y-65359580D02*
X198453333Y-65264342D01*
X198453333Y-65264342D02*
X198453333Y-65026247D01*
X198453333Y-65026247D02*
X198405714Y-64931009D01*
X198405714Y-64931009D02*
X198358095Y-64883390D01*
X198358095Y-64883390D02*
X198262857Y-64835771D01*
X198262857Y-64835771D02*
X198072381Y-64835771D01*
X198072381Y-64835771D02*
X197977143Y-64883390D01*
X197977143Y-64883390D02*
X197929524Y-64931009D01*
X197929524Y-64931009D02*
X197881905Y-65026247D01*
X132054819Y-72061904D02*
X132864342Y-72061904D01*
X132864342Y-72061904D02*
X132959580Y-72014285D01*
X132959580Y-72014285D02*
X133007200Y-71966666D01*
X133007200Y-71966666D02*
X133054819Y-71871428D01*
X133054819Y-71871428D02*
X133054819Y-71680952D01*
X133054819Y-71680952D02*
X133007200Y-71585714D01*
X133007200Y-71585714D02*
X132959580Y-71538095D01*
X132959580Y-71538095D02*
X132864342Y-71490476D01*
X132864342Y-71490476D02*
X132054819Y-71490476D01*
X132054819Y-71109523D02*
X132054819Y-70490476D01*
X132054819Y-70490476D02*
X132435771Y-70823809D01*
X132435771Y-70823809D02*
X132435771Y-70680952D01*
X132435771Y-70680952D02*
X132483390Y-70585714D01*
X132483390Y-70585714D02*
X132531009Y-70538095D01*
X132531009Y-70538095D02*
X132626247Y-70490476D01*
X132626247Y-70490476D02*
X132864342Y-70490476D01*
X132864342Y-70490476D02*
X132959580Y-70538095D01*
X132959580Y-70538095D02*
X133007200Y-70585714D01*
X133007200Y-70585714D02*
X133054819Y-70680952D01*
X133054819Y-70680952D02*
X133054819Y-70966666D01*
X133054819Y-70966666D02*
X133007200Y-71061904D01*
X133007200Y-71061904D02*
X132959580Y-71109523D01*
X185563095Y-68308538D02*
X185563095Y-69118061D01*
X185563095Y-69118061D02*
X185610714Y-69213299D01*
X185610714Y-69213299D02*
X185658333Y-69260919D01*
X185658333Y-69260919D02*
X185753571Y-69308538D01*
X185753571Y-69308538D02*
X185944047Y-69308538D01*
X185944047Y-69308538D02*
X186039285Y-69260919D01*
X186039285Y-69260919D02*
X186086904Y-69213299D01*
X186086904Y-69213299D02*
X186134523Y-69118061D01*
X186134523Y-69118061D02*
X186134523Y-68308538D01*
X186515476Y-68308538D02*
X187182142Y-68308538D01*
X187182142Y-68308538D02*
X186753571Y-69308538D01*
X152909580Y-38196666D02*
X152957200Y-38244285D01*
X152957200Y-38244285D02*
X153004819Y-38387142D01*
X153004819Y-38387142D02*
X153004819Y-38482380D01*
X153004819Y-38482380D02*
X152957200Y-38625237D01*
X152957200Y-38625237D02*
X152861961Y-38720475D01*
X152861961Y-38720475D02*
X152766723Y-38768094D01*
X152766723Y-38768094D02*
X152576247Y-38815713D01*
X152576247Y-38815713D02*
X152433390Y-38815713D01*
X152433390Y-38815713D02*
X152242914Y-38768094D01*
X152242914Y-38768094D02*
X152147676Y-38720475D01*
X152147676Y-38720475D02*
X152052438Y-38625237D01*
X152052438Y-38625237D02*
X152004819Y-38482380D01*
X152004819Y-38482380D02*
X152004819Y-38387142D01*
X152004819Y-38387142D02*
X152052438Y-38244285D01*
X152052438Y-38244285D02*
X152100057Y-38196666D01*
X152338152Y-37339523D02*
X153004819Y-37339523D01*
X151957200Y-37577618D02*
X152671485Y-37815713D01*
X152671485Y-37815713D02*
X152671485Y-37196666D01*
X168384819Y-70742857D02*
X167908628Y-71076190D01*
X168384819Y-71314285D02*
X167384819Y-71314285D01*
X167384819Y-71314285D02*
X167384819Y-70933333D01*
X167384819Y-70933333D02*
X167432438Y-70838095D01*
X167432438Y-70838095D02*
X167480057Y-70790476D01*
X167480057Y-70790476D02*
X167575295Y-70742857D01*
X167575295Y-70742857D02*
X167718152Y-70742857D01*
X167718152Y-70742857D02*
X167813390Y-70790476D01*
X167813390Y-70790476D02*
X167861009Y-70838095D01*
X167861009Y-70838095D02*
X167908628Y-70933333D01*
X167908628Y-70933333D02*
X167908628Y-71314285D01*
X168384819Y-69790476D02*
X168384819Y-70361904D01*
X168384819Y-70076190D02*
X167384819Y-70076190D01*
X167384819Y-70076190D02*
X167527676Y-70171428D01*
X167527676Y-70171428D02*
X167622914Y-70266666D01*
X167622914Y-70266666D02*
X167670533Y-70361904D01*
X167384819Y-69457142D02*
X167384819Y-68838095D01*
X167384819Y-68838095D02*
X167765771Y-69171428D01*
X167765771Y-69171428D02*
X167765771Y-69028571D01*
X167765771Y-69028571D02*
X167813390Y-68933333D01*
X167813390Y-68933333D02*
X167861009Y-68885714D01*
X167861009Y-68885714D02*
X167956247Y-68838095D01*
X167956247Y-68838095D02*
X168194342Y-68838095D01*
X168194342Y-68838095D02*
X168289580Y-68885714D01*
X168289580Y-68885714D02*
X168337200Y-68933333D01*
X168337200Y-68933333D02*
X168384819Y-69028571D01*
X168384819Y-69028571D02*
X168384819Y-69314285D01*
X168384819Y-69314285D02*
X168337200Y-69409523D01*
X168337200Y-69409523D02*
X168289580Y-69457142D01*
X144684580Y-73892857D02*
X144732200Y-73940476D01*
X144732200Y-73940476D02*
X144779819Y-74083333D01*
X144779819Y-74083333D02*
X144779819Y-74178571D01*
X144779819Y-74178571D02*
X144732200Y-74321428D01*
X144732200Y-74321428D02*
X144636961Y-74416666D01*
X144636961Y-74416666D02*
X144541723Y-74464285D01*
X144541723Y-74464285D02*
X144351247Y-74511904D01*
X144351247Y-74511904D02*
X144208390Y-74511904D01*
X144208390Y-74511904D02*
X144017914Y-74464285D01*
X144017914Y-74464285D02*
X143922676Y-74416666D01*
X143922676Y-74416666D02*
X143827438Y-74321428D01*
X143827438Y-74321428D02*
X143779819Y-74178571D01*
X143779819Y-74178571D02*
X143779819Y-74083333D01*
X143779819Y-74083333D02*
X143827438Y-73940476D01*
X143827438Y-73940476D02*
X143875057Y-73892857D01*
X144779819Y-72940476D02*
X144779819Y-73511904D01*
X144779819Y-73226190D02*
X143779819Y-73226190D01*
X143779819Y-73226190D02*
X143922676Y-73321428D01*
X143922676Y-73321428D02*
X144017914Y-73416666D01*
X144017914Y-73416666D02*
X144065533Y-73511904D01*
X143779819Y-72607142D02*
X143779819Y-71940476D01*
X143779819Y-71940476D02*
X144779819Y-72369047D01*
X151686905Y-72079819D02*
X151686905Y-71079819D01*
X151686905Y-71079819D02*
X151925000Y-71079819D01*
X151925000Y-71079819D02*
X152067857Y-71127438D01*
X152067857Y-71127438D02*
X152163095Y-71222676D01*
X152163095Y-71222676D02*
X152210714Y-71317914D01*
X152210714Y-71317914D02*
X152258333Y-71508390D01*
X152258333Y-71508390D02*
X152258333Y-71651247D01*
X152258333Y-71651247D02*
X152210714Y-71841723D01*
X152210714Y-71841723D02*
X152163095Y-71936961D01*
X152163095Y-71936961D02*
X152067857Y-72032200D01*
X152067857Y-72032200D02*
X151925000Y-72079819D01*
X151925000Y-72079819D02*
X151686905Y-72079819D01*
X153210714Y-72079819D02*
X152639286Y-72079819D01*
X152925000Y-72079819D02*
X152925000Y-71079819D01*
X152925000Y-71079819D02*
X152829762Y-71222676D01*
X152829762Y-71222676D02*
X152734524Y-71317914D01*
X152734524Y-71317914D02*
X152639286Y-71365533D01*
X144564135Y-47910540D02*
X145069211Y-48415616D01*
X145069211Y-48415616D02*
X145136555Y-48550303D01*
X145136555Y-48550303D02*
X145136555Y-48684990D01*
X145136555Y-48684990D02*
X145069211Y-48819677D01*
X145069211Y-48819677D02*
X145001868Y-48887021D01*
X144833509Y-47641166D02*
X145271242Y-47203433D01*
X145271242Y-47203433D02*
X145304914Y-47708509D01*
X145304914Y-47708509D02*
X145405929Y-47607494D01*
X145405929Y-47607494D02*
X145506944Y-47573822D01*
X145506944Y-47573822D02*
X145574288Y-47573822D01*
X145574288Y-47573822D02*
X145675303Y-47607494D01*
X145675303Y-47607494D02*
X145843662Y-47775853D01*
X145843662Y-47775853D02*
X145877333Y-47876868D01*
X145877333Y-47876868D02*
X145877333Y-47944211D01*
X145877333Y-47944211D02*
X145843662Y-48045227D01*
X145843662Y-48045227D02*
X145641631Y-48247257D01*
X145641631Y-48247257D02*
X145540616Y-48280929D01*
X145540616Y-48280929D02*
X145473272Y-48280929D01*
X199614819Y-61336666D02*
X199138628Y-61669999D01*
X199614819Y-61908094D02*
X198614819Y-61908094D01*
X198614819Y-61908094D02*
X198614819Y-61527142D01*
X198614819Y-61527142D02*
X198662438Y-61431904D01*
X198662438Y-61431904D02*
X198710057Y-61384285D01*
X198710057Y-61384285D02*
X198805295Y-61336666D01*
X198805295Y-61336666D02*
X198948152Y-61336666D01*
X198948152Y-61336666D02*
X199043390Y-61384285D01*
X199043390Y-61384285D02*
X199091009Y-61431904D01*
X199091009Y-61431904D02*
X199138628Y-61527142D01*
X199138628Y-61527142D02*
X199138628Y-61908094D01*
X198614819Y-60479523D02*
X198614819Y-60669999D01*
X198614819Y-60669999D02*
X198662438Y-60765237D01*
X198662438Y-60765237D02*
X198710057Y-60812856D01*
X198710057Y-60812856D02*
X198852914Y-60908094D01*
X198852914Y-60908094D02*
X199043390Y-60955713D01*
X199043390Y-60955713D02*
X199424342Y-60955713D01*
X199424342Y-60955713D02*
X199519580Y-60908094D01*
X199519580Y-60908094D02*
X199567200Y-60860475D01*
X199567200Y-60860475D02*
X199614819Y-60765237D01*
X199614819Y-60765237D02*
X199614819Y-60574761D01*
X199614819Y-60574761D02*
X199567200Y-60479523D01*
X199567200Y-60479523D02*
X199519580Y-60431904D01*
X199519580Y-60431904D02*
X199424342Y-60384285D01*
X199424342Y-60384285D02*
X199186247Y-60384285D01*
X199186247Y-60384285D02*
X199091009Y-60431904D01*
X199091009Y-60431904D02*
X199043390Y-60479523D01*
X199043390Y-60479523D02*
X198995771Y-60574761D01*
X198995771Y-60574761D02*
X198995771Y-60765237D01*
X198995771Y-60765237D02*
X199043390Y-60860475D01*
X199043390Y-60860475D02*
X199091009Y-60908094D01*
X199091009Y-60908094D02*
X199186247Y-60955713D01*
X128259819Y-62781904D02*
X129069342Y-62781904D01*
X129069342Y-62781904D02*
X129164580Y-62734285D01*
X129164580Y-62734285D02*
X129212200Y-62686666D01*
X129212200Y-62686666D02*
X129259819Y-62591428D01*
X129259819Y-62591428D02*
X129259819Y-62400952D01*
X129259819Y-62400952D02*
X129212200Y-62305714D01*
X129212200Y-62305714D02*
X129164580Y-62258095D01*
X129164580Y-62258095D02*
X129069342Y-62210476D01*
X129069342Y-62210476D02*
X128259819Y-62210476D01*
X128259819Y-61305714D02*
X128259819Y-61496190D01*
X128259819Y-61496190D02*
X128307438Y-61591428D01*
X128307438Y-61591428D02*
X128355057Y-61639047D01*
X128355057Y-61639047D02*
X128497914Y-61734285D01*
X128497914Y-61734285D02*
X128688390Y-61781904D01*
X128688390Y-61781904D02*
X129069342Y-61781904D01*
X129069342Y-61781904D02*
X129164580Y-61734285D01*
X129164580Y-61734285D02*
X129212200Y-61686666D01*
X129212200Y-61686666D02*
X129259819Y-61591428D01*
X129259819Y-61591428D02*
X129259819Y-61400952D01*
X129259819Y-61400952D02*
X129212200Y-61305714D01*
X129212200Y-61305714D02*
X129164580Y-61258095D01*
X129164580Y-61258095D02*
X129069342Y-61210476D01*
X129069342Y-61210476D02*
X128831247Y-61210476D01*
X128831247Y-61210476D02*
X128736009Y-61258095D01*
X128736009Y-61258095D02*
X128688390Y-61305714D01*
X128688390Y-61305714D02*
X128640771Y-61400952D01*
X128640771Y-61400952D02*
X128640771Y-61591428D01*
X128640771Y-61591428D02*
X128688390Y-61686666D01*
X128688390Y-61686666D02*
X128736009Y-61734285D01*
X128736009Y-61734285D02*
X128831247Y-61781904D01*
X112274819Y-44664166D02*
X111798628Y-44997499D01*
X112274819Y-45235594D02*
X111274819Y-45235594D01*
X111274819Y-45235594D02*
X111274819Y-44854642D01*
X111274819Y-44854642D02*
X111322438Y-44759404D01*
X111322438Y-44759404D02*
X111370057Y-44711785D01*
X111370057Y-44711785D02*
X111465295Y-44664166D01*
X111465295Y-44664166D02*
X111608152Y-44664166D01*
X111608152Y-44664166D02*
X111703390Y-44711785D01*
X111703390Y-44711785D02*
X111751009Y-44759404D01*
X111751009Y-44759404D02*
X111798628Y-44854642D01*
X111798628Y-44854642D02*
X111798628Y-45235594D01*
X111274819Y-43759404D02*
X111274819Y-44235594D01*
X111274819Y-44235594D02*
X111751009Y-44283213D01*
X111751009Y-44283213D02*
X111703390Y-44235594D01*
X111703390Y-44235594D02*
X111655771Y-44140356D01*
X111655771Y-44140356D02*
X111655771Y-43902261D01*
X111655771Y-43902261D02*
X111703390Y-43807023D01*
X111703390Y-43807023D02*
X111751009Y-43759404D01*
X111751009Y-43759404D02*
X111846247Y-43711785D01*
X111846247Y-43711785D02*
X112084342Y-43711785D01*
X112084342Y-43711785D02*
X112179580Y-43759404D01*
X112179580Y-43759404D02*
X112227200Y-43807023D01*
X112227200Y-43807023D02*
X112274819Y-43902261D01*
X112274819Y-43902261D02*
X112274819Y-44140356D01*
X112274819Y-44140356D02*
X112227200Y-44235594D01*
X112227200Y-44235594D02*
X112179580Y-44283213D01*
X170804819Y-49469523D02*
X171804819Y-48802857D01*
X170804819Y-48802857D02*
X171804819Y-49469523D01*
X171804819Y-47898095D02*
X171804819Y-48469523D01*
X171804819Y-48183809D02*
X170804819Y-48183809D01*
X170804819Y-48183809D02*
X170947676Y-48279047D01*
X170947676Y-48279047D02*
X171042914Y-48374285D01*
X171042914Y-48374285D02*
X171090533Y-48469523D01*
X149722568Y-79269650D02*
X149865425Y-79317269D01*
X149865425Y-79317269D02*
X150103520Y-79317269D01*
X150103520Y-79317269D02*
X150198758Y-79269650D01*
X150198758Y-79269650D02*
X150246377Y-79222030D01*
X150246377Y-79222030D02*
X150293996Y-79126792D01*
X150293996Y-79126792D02*
X150293996Y-79031554D01*
X150293996Y-79031554D02*
X150246377Y-78936316D01*
X150246377Y-78936316D02*
X150198758Y-78888697D01*
X150198758Y-78888697D02*
X150103520Y-78841078D01*
X150103520Y-78841078D02*
X149913044Y-78793459D01*
X149913044Y-78793459D02*
X149817806Y-78745840D01*
X149817806Y-78745840D02*
X149770187Y-78698221D01*
X149770187Y-78698221D02*
X149722568Y-78602983D01*
X149722568Y-78602983D02*
X149722568Y-78507745D01*
X149722568Y-78507745D02*
X149770187Y-78412507D01*
X149770187Y-78412507D02*
X149817806Y-78364888D01*
X149817806Y-78364888D02*
X149913044Y-78317269D01*
X149913044Y-78317269D02*
X150151139Y-78317269D01*
X150151139Y-78317269D02*
X150293996Y-78364888D01*
X150627330Y-78317269D02*
X150865425Y-79317269D01*
X150865425Y-79317269D02*
X151055901Y-78602983D01*
X151055901Y-78602983D02*
X151246377Y-79317269D01*
X151246377Y-79317269D02*
X151484473Y-78317269D01*
X152389234Y-79317269D02*
X151817806Y-79317269D01*
X152103520Y-79317269D02*
X152103520Y-78317269D01*
X152103520Y-78317269D02*
X152008282Y-78460126D01*
X152008282Y-78460126D02*
X151913044Y-78555364D01*
X151913044Y-78555364D02*
X151817806Y-78602983D01*
X135457142Y-67799580D02*
X135409523Y-67847200D01*
X135409523Y-67847200D02*
X135266666Y-67894819D01*
X135266666Y-67894819D02*
X135171428Y-67894819D01*
X135171428Y-67894819D02*
X135028571Y-67847200D01*
X135028571Y-67847200D02*
X134933333Y-67751961D01*
X134933333Y-67751961D02*
X134885714Y-67656723D01*
X134885714Y-67656723D02*
X134838095Y-67466247D01*
X134838095Y-67466247D02*
X134838095Y-67323390D01*
X134838095Y-67323390D02*
X134885714Y-67132914D01*
X134885714Y-67132914D02*
X134933333Y-67037676D01*
X134933333Y-67037676D02*
X135028571Y-66942438D01*
X135028571Y-66942438D02*
X135171428Y-66894819D01*
X135171428Y-66894819D02*
X135266666Y-66894819D01*
X135266666Y-66894819D02*
X135409523Y-66942438D01*
X135409523Y-66942438D02*
X135457142Y-66990057D01*
X135838095Y-66990057D02*
X135885714Y-66942438D01*
X135885714Y-66942438D02*
X135980952Y-66894819D01*
X135980952Y-66894819D02*
X136219047Y-66894819D01*
X136219047Y-66894819D02*
X136314285Y-66942438D01*
X136314285Y-66942438D02*
X136361904Y-66990057D01*
X136361904Y-66990057D02*
X136409523Y-67085295D01*
X136409523Y-67085295D02*
X136409523Y-67180533D01*
X136409523Y-67180533D02*
X136361904Y-67323390D01*
X136361904Y-67323390D02*
X135790476Y-67894819D01*
X135790476Y-67894819D02*
X136409523Y-67894819D01*
X137266666Y-66894819D02*
X137076190Y-66894819D01*
X137076190Y-66894819D02*
X136980952Y-66942438D01*
X136980952Y-66942438D02*
X136933333Y-66990057D01*
X136933333Y-66990057D02*
X136838095Y-67132914D01*
X136838095Y-67132914D02*
X136790476Y-67323390D01*
X136790476Y-67323390D02*
X136790476Y-67704342D01*
X136790476Y-67704342D02*
X136838095Y-67799580D01*
X136838095Y-67799580D02*
X136885714Y-67847200D01*
X136885714Y-67847200D02*
X136980952Y-67894819D01*
X136980952Y-67894819D02*
X137171428Y-67894819D01*
X137171428Y-67894819D02*
X137266666Y-67847200D01*
X137266666Y-67847200D02*
X137314285Y-67799580D01*
X137314285Y-67799580D02*
X137361904Y-67704342D01*
X137361904Y-67704342D02*
X137361904Y-67466247D01*
X137361904Y-67466247D02*
X137314285Y-67371009D01*
X137314285Y-67371009D02*
X137266666Y-67323390D01*
X137266666Y-67323390D02*
X137171428Y-67275771D01*
X137171428Y-67275771D02*
X136980952Y-67275771D01*
X136980952Y-67275771D02*
X136885714Y-67323390D01*
X136885714Y-67323390D02*
X136838095Y-67371009D01*
X136838095Y-67371009D02*
X136790476Y-67466247D01*
X147729819Y-43216666D02*
X147253628Y-43549999D01*
X147729819Y-43788094D02*
X146729819Y-43788094D01*
X146729819Y-43788094D02*
X146729819Y-43407142D01*
X146729819Y-43407142D02*
X146777438Y-43311904D01*
X146777438Y-43311904D02*
X146825057Y-43264285D01*
X146825057Y-43264285D02*
X146920295Y-43216666D01*
X146920295Y-43216666D02*
X147063152Y-43216666D01*
X147063152Y-43216666D02*
X147158390Y-43264285D01*
X147158390Y-43264285D02*
X147206009Y-43311904D01*
X147206009Y-43311904D02*
X147253628Y-43407142D01*
X147253628Y-43407142D02*
X147253628Y-43788094D01*
X147063152Y-42359523D02*
X147729819Y-42359523D01*
X146682200Y-42597618D02*
X147396485Y-42835713D01*
X147396485Y-42835713D02*
X147396485Y-42216666D01*
X162584819Y-71117857D02*
X162108628Y-71451190D01*
X162584819Y-71689285D02*
X161584819Y-71689285D01*
X161584819Y-71689285D02*
X161584819Y-71308333D01*
X161584819Y-71308333D02*
X161632438Y-71213095D01*
X161632438Y-71213095D02*
X161680057Y-71165476D01*
X161680057Y-71165476D02*
X161775295Y-71117857D01*
X161775295Y-71117857D02*
X161918152Y-71117857D01*
X161918152Y-71117857D02*
X162013390Y-71165476D01*
X162013390Y-71165476D02*
X162061009Y-71213095D01*
X162061009Y-71213095D02*
X162108628Y-71308333D01*
X162108628Y-71308333D02*
X162108628Y-71689285D01*
X162584819Y-70165476D02*
X162584819Y-70736904D01*
X162584819Y-70451190D02*
X161584819Y-70451190D01*
X161584819Y-70451190D02*
X161727676Y-70546428D01*
X161727676Y-70546428D02*
X161822914Y-70641666D01*
X161822914Y-70641666D02*
X161870533Y-70736904D01*
X161680057Y-69784523D02*
X161632438Y-69736904D01*
X161632438Y-69736904D02*
X161584819Y-69641666D01*
X161584819Y-69641666D02*
X161584819Y-69403571D01*
X161584819Y-69403571D02*
X161632438Y-69308333D01*
X161632438Y-69308333D02*
X161680057Y-69260714D01*
X161680057Y-69260714D02*
X161775295Y-69213095D01*
X161775295Y-69213095D02*
X161870533Y-69213095D01*
X161870533Y-69213095D02*
X162013390Y-69260714D01*
X162013390Y-69260714D02*
X162584819Y-69832142D01*
X162584819Y-69832142D02*
X162584819Y-69213095D01*
X158408333Y-37044104D02*
X158884523Y-37044104D01*
X158313095Y-37329819D02*
X158646428Y-36329819D01*
X158646428Y-36329819D02*
X158979761Y-37329819D01*
X159313095Y-36806009D02*
X159646428Y-36806009D01*
X159789285Y-37329819D02*
X159313095Y-37329819D01*
X159313095Y-37329819D02*
X159313095Y-36329819D01*
X159313095Y-36329819D02*
X159789285Y-36329819D01*
X160741666Y-37329819D02*
X160170238Y-37329819D01*
X160455952Y-37329819D02*
X160455952Y-36329819D01*
X160455952Y-36329819D02*
X160360714Y-36472676D01*
X160360714Y-36472676D02*
X160265476Y-36567914D01*
X160265476Y-36567914D02*
X160170238Y-36615533D01*
X119466667Y-44882200D02*
X119609524Y-44929819D01*
X119609524Y-44929819D02*
X119847619Y-44929819D01*
X119847619Y-44929819D02*
X119942857Y-44882200D01*
X119942857Y-44882200D02*
X119990476Y-44834580D01*
X119990476Y-44834580D02*
X120038095Y-44739342D01*
X120038095Y-44739342D02*
X120038095Y-44644104D01*
X120038095Y-44644104D02*
X119990476Y-44548866D01*
X119990476Y-44548866D02*
X119942857Y-44501247D01*
X119942857Y-44501247D02*
X119847619Y-44453628D01*
X119847619Y-44453628D02*
X119657143Y-44406009D01*
X119657143Y-44406009D02*
X119561905Y-44358390D01*
X119561905Y-44358390D02*
X119514286Y-44310771D01*
X119514286Y-44310771D02*
X119466667Y-44215533D01*
X119466667Y-44215533D02*
X119466667Y-44120295D01*
X119466667Y-44120295D02*
X119514286Y-44025057D01*
X119514286Y-44025057D02*
X119561905Y-43977438D01*
X119561905Y-43977438D02*
X119657143Y-43929819D01*
X119657143Y-43929819D02*
X119895238Y-43929819D01*
X119895238Y-43929819D02*
X120038095Y-43977438D01*
X120371429Y-43929819D02*
X120609524Y-44929819D01*
X120609524Y-44929819D02*
X120800000Y-44215533D01*
X120800000Y-44215533D02*
X120990476Y-44929819D01*
X120990476Y-44929819D02*
X121228572Y-43929819D01*
X121514286Y-43929819D02*
X122133333Y-43929819D01*
X122133333Y-43929819D02*
X121800000Y-44310771D01*
X121800000Y-44310771D02*
X121942857Y-44310771D01*
X121942857Y-44310771D02*
X122038095Y-44358390D01*
X122038095Y-44358390D02*
X122085714Y-44406009D01*
X122085714Y-44406009D02*
X122133333Y-44501247D01*
X122133333Y-44501247D02*
X122133333Y-44739342D01*
X122133333Y-44739342D02*
X122085714Y-44834580D01*
X122085714Y-44834580D02*
X122038095Y-44882200D01*
X122038095Y-44882200D02*
X121942857Y-44929819D01*
X121942857Y-44929819D02*
X121657143Y-44929819D01*
X121657143Y-44929819D02*
X121561905Y-44882200D01*
X121561905Y-44882200D02*
X121514286Y-44834580D01*
X175104819Y-70696666D02*
X174628628Y-71029999D01*
X175104819Y-71268094D02*
X174104819Y-71268094D01*
X174104819Y-71268094D02*
X174104819Y-70887142D01*
X174104819Y-70887142D02*
X174152438Y-70791904D01*
X174152438Y-70791904D02*
X174200057Y-70744285D01*
X174200057Y-70744285D02*
X174295295Y-70696666D01*
X174295295Y-70696666D02*
X174438152Y-70696666D01*
X174438152Y-70696666D02*
X174533390Y-70744285D01*
X174533390Y-70744285D02*
X174581009Y-70791904D01*
X174581009Y-70791904D02*
X174628628Y-70887142D01*
X174628628Y-70887142D02*
X174628628Y-71268094D01*
X174533390Y-70125237D02*
X174485771Y-70220475D01*
X174485771Y-70220475D02*
X174438152Y-70268094D01*
X174438152Y-70268094D02*
X174342914Y-70315713D01*
X174342914Y-70315713D02*
X174295295Y-70315713D01*
X174295295Y-70315713D02*
X174200057Y-70268094D01*
X174200057Y-70268094D02*
X174152438Y-70220475D01*
X174152438Y-70220475D02*
X174104819Y-70125237D01*
X174104819Y-70125237D02*
X174104819Y-69934761D01*
X174104819Y-69934761D02*
X174152438Y-69839523D01*
X174152438Y-69839523D02*
X174200057Y-69791904D01*
X174200057Y-69791904D02*
X174295295Y-69744285D01*
X174295295Y-69744285D02*
X174342914Y-69744285D01*
X174342914Y-69744285D02*
X174438152Y-69791904D01*
X174438152Y-69791904D02*
X174485771Y-69839523D01*
X174485771Y-69839523D02*
X174533390Y-69934761D01*
X174533390Y-69934761D02*
X174533390Y-70125237D01*
X174533390Y-70125237D02*
X174581009Y-70220475D01*
X174581009Y-70220475D02*
X174628628Y-70268094D01*
X174628628Y-70268094D02*
X174723866Y-70315713D01*
X174723866Y-70315713D02*
X174914342Y-70315713D01*
X174914342Y-70315713D02*
X175009580Y-70268094D01*
X175009580Y-70268094D02*
X175057200Y-70220475D01*
X175057200Y-70220475D02*
X175104819Y-70125237D01*
X175104819Y-70125237D02*
X175104819Y-69934761D01*
X175104819Y-69934761D02*
X175057200Y-69839523D01*
X175057200Y-69839523D02*
X175009580Y-69791904D01*
X175009580Y-69791904D02*
X174914342Y-69744285D01*
X174914342Y-69744285D02*
X174723866Y-69744285D01*
X174723866Y-69744285D02*
X174628628Y-69791904D01*
X174628628Y-69791904D02*
X174581009Y-69839523D01*
X174581009Y-69839523D02*
X174533390Y-69934761D01*
X158563095Y-62204819D02*
X158563095Y-63014342D01*
X158563095Y-63014342D02*
X158610714Y-63109580D01*
X158610714Y-63109580D02*
X158658333Y-63157200D01*
X158658333Y-63157200D02*
X158753571Y-63204819D01*
X158753571Y-63204819D02*
X158944047Y-63204819D01*
X158944047Y-63204819D02*
X159039285Y-63157200D01*
X159039285Y-63157200D02*
X159086904Y-63109580D01*
X159086904Y-63109580D02*
X159134523Y-63014342D01*
X159134523Y-63014342D02*
X159134523Y-62204819D01*
X159658333Y-63204819D02*
X159848809Y-63204819D01*
X159848809Y-63204819D02*
X159944047Y-63157200D01*
X159944047Y-63157200D02*
X159991666Y-63109580D01*
X159991666Y-63109580D02*
X160086904Y-62966723D01*
X160086904Y-62966723D02*
X160134523Y-62776247D01*
X160134523Y-62776247D02*
X160134523Y-62395295D01*
X160134523Y-62395295D02*
X160086904Y-62300057D01*
X160086904Y-62300057D02*
X160039285Y-62252438D01*
X160039285Y-62252438D02*
X159944047Y-62204819D01*
X159944047Y-62204819D02*
X159753571Y-62204819D01*
X159753571Y-62204819D02*
X159658333Y-62252438D01*
X159658333Y-62252438D02*
X159610714Y-62300057D01*
X159610714Y-62300057D02*
X159563095Y-62395295D01*
X159563095Y-62395295D02*
X159563095Y-62633390D01*
X159563095Y-62633390D02*
X159610714Y-62728628D01*
X159610714Y-62728628D02*
X159658333Y-62776247D01*
X159658333Y-62776247D02*
X159753571Y-62823866D01*
X159753571Y-62823866D02*
X159944047Y-62823866D01*
X159944047Y-62823866D02*
X160039285Y-62776247D01*
X160039285Y-62776247D02*
X160086904Y-62728628D01*
X160086904Y-62728628D02*
X160134523Y-62633390D01*
X141868410Y-51950113D02*
X141868410Y-52017457D01*
X141868410Y-52017457D02*
X141801066Y-52152144D01*
X141801066Y-52152144D02*
X141733723Y-52219487D01*
X141733723Y-52219487D02*
X141599036Y-52286831D01*
X141599036Y-52286831D02*
X141464349Y-52286831D01*
X141464349Y-52286831D02*
X141363334Y-52253159D01*
X141363334Y-52253159D02*
X141194975Y-52152144D01*
X141194975Y-52152144D02*
X141093960Y-52051129D01*
X141093960Y-52051129D02*
X140992944Y-51882770D01*
X140992944Y-51882770D02*
X140959273Y-51781755D01*
X140959273Y-51781755D02*
X140959273Y-51647068D01*
X140959273Y-51647068D02*
X141026616Y-51512381D01*
X141026616Y-51512381D02*
X141093960Y-51445037D01*
X141093960Y-51445037D02*
X141228647Y-51377694D01*
X141228647Y-51377694D02*
X141295990Y-51377694D01*
X141565364Y-51108320D02*
X141565364Y-51040976D01*
X141565364Y-51040976D02*
X141599036Y-50939961D01*
X141599036Y-50939961D02*
X141767395Y-50771602D01*
X141767395Y-50771602D02*
X141868410Y-50737930D01*
X141868410Y-50737930D02*
X141935753Y-50737930D01*
X141935753Y-50737930D02*
X142036769Y-50771602D01*
X142036769Y-50771602D02*
X142104112Y-50838946D01*
X142104112Y-50838946D02*
X142171456Y-50973633D01*
X142171456Y-50973633D02*
X142171456Y-51781755D01*
X142171456Y-51781755D02*
X142609188Y-51344022D01*
X142137784Y-50401213D02*
X142575517Y-49963480D01*
X142575517Y-49963480D02*
X142609189Y-50468556D01*
X142609189Y-50468556D02*
X142710204Y-50367541D01*
X142710204Y-50367541D02*
X142811219Y-50333869D01*
X142811219Y-50333869D02*
X142878563Y-50333869D01*
X142878563Y-50333869D02*
X142979578Y-50367541D01*
X142979578Y-50367541D02*
X143147937Y-50535900D01*
X143147937Y-50535900D02*
X143181608Y-50636915D01*
X143181608Y-50636915D02*
X143181608Y-50704258D01*
X143181608Y-50704258D02*
X143147937Y-50805274D01*
X143147937Y-50805274D02*
X142945906Y-51007304D01*
X142945906Y-51007304D02*
X142844891Y-51040976D01*
X142844891Y-51040976D02*
X142777547Y-51040976D01*
X157989174Y-41772301D02*
X158036794Y-41819920D01*
X158036794Y-41819920D02*
X158084413Y-41962777D01*
X158084413Y-41962777D02*
X158084413Y-42058015D01*
X158084413Y-42058015D02*
X158036794Y-42200872D01*
X158036794Y-42200872D02*
X157941555Y-42296110D01*
X157941555Y-42296110D02*
X157846317Y-42343729D01*
X157846317Y-42343729D02*
X157655841Y-42391348D01*
X157655841Y-42391348D02*
X157512984Y-42391348D01*
X157512984Y-42391348D02*
X157322508Y-42343729D01*
X157322508Y-42343729D02*
X157227270Y-42296110D01*
X157227270Y-42296110D02*
X157132032Y-42200872D01*
X157132032Y-42200872D02*
X157084413Y-42058015D01*
X157084413Y-42058015D02*
X157084413Y-41962777D01*
X157084413Y-41962777D02*
X157132032Y-41819920D01*
X157132032Y-41819920D02*
X157179651Y-41772301D01*
X157084413Y-40867539D02*
X157084413Y-41343729D01*
X157084413Y-41343729D02*
X157560603Y-41391348D01*
X157560603Y-41391348D02*
X157512984Y-41343729D01*
X157512984Y-41343729D02*
X157465365Y-41248491D01*
X157465365Y-41248491D02*
X157465365Y-41010396D01*
X157465365Y-41010396D02*
X157512984Y-40915158D01*
X157512984Y-40915158D02*
X157560603Y-40867539D01*
X157560603Y-40867539D02*
X157655841Y-40819920D01*
X157655841Y-40819920D02*
X157893936Y-40819920D01*
X157893936Y-40819920D02*
X157989174Y-40867539D01*
X157989174Y-40867539D02*
X158036794Y-40915158D01*
X158036794Y-40915158D02*
X158084413Y-41010396D01*
X158084413Y-41010396D02*
X158084413Y-41248491D01*
X158084413Y-41248491D02*
X158036794Y-41343729D01*
X158036794Y-41343729D02*
X157989174Y-41391348D01*
D12*
%TO.C,C22*%
X162065835Y-62065000D02*
X161834165Y-62065000D01*
X162065835Y-62785000D02*
X161834165Y-62785000D01*
%TO.C,R3*%
X157207379Y-61595000D02*
X157542621Y-61595000D01*
X157207379Y-62355000D02*
X157542621Y-62355000D01*
%TO.C,C25*%
X152734165Y-75490000D02*
X152965835Y-75490000D01*
X152734165Y-76210000D02*
X152965835Y-76210000D01*
%TO.C,C7*%
X152902349Y-45338534D02*
X152738534Y-45502349D01*
X153411466Y-45847651D02*
X153247651Y-46011466D01*
%TO.C,C3*%
X149611537Y-39049648D02*
X148189033Y-39049648D01*
X149611537Y-40869648D02*
X148189033Y-40869648D01*
%TO.C,L3*%
X159040000Y-39221268D02*
X159040000Y-38878732D01*
X160060000Y-39221268D02*
X160060000Y-38878732D01*
%TO.C,C11*%
X160190835Y-40940000D02*
X159959165Y-40940000D01*
X160190835Y-41660000D02*
X159959165Y-41660000D01*
%TO.C,SW5*%
X175640000Y-75310000D02*
X175640000Y-76810000D01*
X176890000Y-79310000D02*
X181390000Y-79310000D01*
X181390000Y-72810000D02*
X176890000Y-72810000D01*
X182640000Y-76810000D02*
X182640000Y-75310000D01*
%TO.C,C8*%
X154488534Y-50777349D02*
X154652349Y-50613534D01*
X154997651Y-51286466D02*
X155161466Y-51122651D01*
%TO.C,C27*%
X132790000Y-65746267D02*
X132790000Y-65453733D01*
X133810000Y-65746267D02*
X133810000Y-65453733D01*
%TO.C,J2*%
X160082500Y-75125000D02*
X160082500Y-76025000D01*
X160082500Y-78725000D02*
X160082500Y-81455000D01*
X160082500Y-81455000D02*
X169272500Y-81455000D01*
X160202500Y-72045000D02*
X169152500Y-72045000D01*
X169272500Y-75125000D02*
X169272500Y-76025000D01*
X169272500Y-78725000D02*
X169272500Y-81455000D01*
%TO.C,D2*%
X155640000Y-58240000D02*
X155640000Y-60510000D01*
X155640000Y-60510000D02*
X159700000Y-60510000D01*
X159700000Y-58240000D02*
X155640000Y-58240000D01*
%TO.C,C1*%
X168434165Y-50065000D02*
X168665835Y-50065000D01*
X168434165Y-50785000D02*
X168665835Y-50785000D01*
%TO.C,R15*%
X148939825Y-55857227D02*
X148702773Y-55620175D01*
X149477227Y-55319825D02*
X149240175Y-55082773D01*
%TO.C,J1*%
X150130000Y-72270000D02*
X150130000Y-74930000D01*
X152730000Y-72270000D02*
X150130000Y-72270000D01*
X152730000Y-72270000D02*
X152730000Y-74930000D01*
X152730000Y-74930000D02*
X150130000Y-74930000D01*
X155330000Y-73600000D02*
X155330000Y-74930000D01*
X155330000Y-74930000D02*
X154000000Y-74930000D01*
%TO.C,SW7*%
X103890000Y-37400000D02*
X103890000Y-39500000D01*
X103890000Y-42100000D02*
X103890000Y-42610000D01*
X103890000Y-42610000D02*
X104410000Y-42610000D01*
X104410000Y-39270000D02*
X104410000Y-39500000D01*
X104410000Y-39270000D02*
X104950000Y-39270000D01*
X104410000Y-42100000D02*
X104410000Y-42610000D01*
X106050000Y-39270000D02*
X109450000Y-39270000D01*
X110550000Y-39270000D02*
X111090000Y-39270000D01*
X111090000Y-39270000D02*
X111090000Y-39500000D01*
X111090000Y-42100000D02*
X111090000Y-42610000D01*
X111090000Y-42610000D02*
X111610000Y-42610000D01*
X111610000Y-37400000D02*
X111610000Y-39500000D01*
X111610000Y-42100000D02*
X111610000Y-42610000D01*
%TO.C,L5*%
X133525000Y-74675000D02*
X136475000Y-74675000D01*
X133525000Y-78125000D02*
X136475000Y-78125000D01*
%TO.C,C2*%
X168134165Y-42890000D02*
X168365835Y-42890000D01*
X168134165Y-43610000D02*
X168365835Y-43610000D01*
%TO.C,C25*%
X156540000Y-73316665D02*
X156540000Y-73548335D01*
X157260000Y-73316665D02*
X157260000Y-73548335D01*
%TO.C,C13*%
X137440000Y-76104437D02*
X137440000Y-79560000D01*
X137440000Y-79560000D02*
X138640000Y-79560000D01*
X138504437Y-75040000D02*
X137440000Y-76104437D01*
X138504437Y-75040000D02*
X138640000Y-75040000D01*
X140895563Y-75040000D02*
X140760000Y-75040000D01*
X140895563Y-75040000D02*
X141960000Y-76104437D01*
X141260000Y-74300000D02*
X141260000Y-74800000D01*
X141510000Y-74550000D02*
X141010000Y-74550000D01*
X141960000Y-76104437D02*
X141960000Y-79560000D01*
X141960000Y-79560000D02*
X140760000Y-79560000D01*
%TO.C,L1*%
X164346268Y-44965000D02*
X164003732Y-44965000D01*
X164346268Y-45985000D02*
X164003732Y-45985000D01*
%TO.C,C29*%
X138853733Y-71690000D02*
X139146267Y-71690000D01*
X138853733Y-72710000D02*
X139146267Y-72710000D01*
%TO.C,C6*%
X153902349Y-49873534D02*
X153738534Y-50037349D01*
X154411466Y-50382651D02*
X154247651Y-50546466D01*
%TO.C,R14*%
X146464825Y-53382227D02*
X146227773Y-53145175D01*
X147002227Y-52844825D02*
X146765175Y-52607773D01*
%TO.C,C28*%
X134590000Y-65746267D02*
X134590000Y-65453733D01*
X135610000Y-65746267D02*
X135610000Y-65453733D01*
%TO.C,SW4*%
X195065000Y-37362500D02*
X195065000Y-39462500D01*
X195065000Y-42062500D02*
X195065000Y-42572500D01*
X195065000Y-42572500D02*
X195585000Y-42572500D01*
X195585000Y-39232500D02*
X195585000Y-39462500D01*
X195585000Y-39232500D02*
X196125000Y-39232500D01*
X195585000Y-42062500D02*
X195585000Y-42572500D01*
X197225000Y-39232500D02*
X200625000Y-39232500D01*
X201725000Y-39232500D02*
X202265000Y-39232500D01*
X202265000Y-39232500D02*
X202265000Y-39462500D01*
X202265000Y-42062500D02*
X202265000Y-42572500D01*
X202265000Y-42572500D02*
X202785000Y-42572500D01*
X202785000Y-37362500D02*
X202785000Y-39462500D01*
X202785000Y-42062500D02*
X202785000Y-42572500D01*
%TO.C,R2*%
X153395000Y-61092621D02*
X153395000Y-60757379D01*
X154155000Y-61092621D02*
X154155000Y-60757379D01*
%TO.C,R7*%
X192167621Y-37470000D02*
X191832379Y-37470000D01*
X192167621Y-38230000D02*
X191832379Y-38230000D01*
%TO.C,SW6*%
X193620000Y-68500000D02*
X193620000Y-70000000D01*
X194870000Y-72500000D02*
X199370000Y-72500000D01*
X199370000Y-66000000D02*
X194870000Y-66000000D01*
X200620000Y-70000000D02*
X200620000Y-68500000D01*
%TO.C,C21*%
X159808335Y-69565000D02*
X159576665Y-69565000D01*
X159808335Y-70285000D02*
X159576665Y-70285000D01*
%TO.C,U3*%
X133415000Y-72550000D02*
X133415000Y-70050000D01*
X136185000Y-72550000D02*
X136185000Y-70050000D01*
X133500000Y-73580000D02*
X133020000Y-73100000D01*
X133500000Y-73100000D01*
X133500000Y-73580000D01*
G36*
X133500000Y-73580000D02*
G01*
X133020000Y-73100000D01*
X133500000Y-73100000D01*
X133500000Y-73580000D01*
G37*
D13*
%TO.C,U7*%
X174200000Y-49618719D02*
X175750000Y-49618719D01*
X174200000Y-57718719D02*
X174200000Y-49618719D01*
X175750000Y-49618719D02*
X175750000Y-48498719D01*
X175750000Y-57718719D02*
X174200000Y-57718719D01*
X177620000Y-45718719D02*
X178850000Y-45718719D01*
X178250000Y-61618719D02*
X177620000Y-61618719D01*
X178250000Y-67918719D02*
X178250000Y-61618719D01*
X178850000Y-45718719D02*
X178850000Y-42518719D01*
X188550000Y-42518719D02*
X188550000Y-45718719D01*
X188550000Y-45718719D02*
X189770000Y-45718719D01*
X189150000Y-61618719D02*
X189150000Y-67918719D01*
X189150000Y-67918719D02*
X178250000Y-67918719D01*
X189770000Y-61618719D02*
X189150000Y-61618719D01*
X191650000Y-48448719D02*
X191650000Y-48718719D01*
X191650000Y-48718719D02*
X194800000Y-48718719D01*
X194800000Y-48718719D02*
X194800000Y-58518719D01*
X194800000Y-58518719D02*
X191650000Y-58518719D01*
D14*
X189850000Y-66968719D02*
G75*
G02*
X189650000Y-66968719I-100000J0D01*
G01*
X189650000Y-66968719D02*
G75*
G02*
X189850000Y-66968719I100000J0D01*
G01*
D12*
%TO.C,C4*%
X152190000Y-40315835D02*
X152190000Y-40084165D01*
X152910000Y-40315835D02*
X152910000Y-40084165D01*
%TO.C,R13*%
X168720000Y-70267621D02*
X168720000Y-69932379D01*
X169480000Y-70267621D02*
X169480000Y-69932379D01*
%TO.C,C17*%
X145265000Y-73961252D02*
X145265000Y-72538748D01*
X147085000Y-73961252D02*
X147085000Y-72538748D01*
%TO.C,L2*%
X153365000Y-40146268D02*
X153365000Y-39803732D01*
X154385000Y-40146268D02*
X154385000Y-39803732D01*
%TO.C,D1*%
X156085000Y-66475000D02*
X150275000Y-66475000D01*
X156085000Y-70775000D02*
X150275000Y-70775000D01*
X156085000Y-70775000D02*
X156085000Y-66475000D01*
%TO.C,J3*%
X144951994Y-49707898D02*
X145892446Y-48767446D01*
X145892446Y-50648350D02*
X144951994Y-49707898D01*
X146790472Y-51546376D02*
X148671376Y-49665472D01*
X146790472Y-51546376D02*
X152221052Y-56976956D01*
X148671376Y-49665472D02*
X154101956Y-55096052D01*
X152221052Y-56976956D02*
X154101956Y-55096052D01*
%TO.C,R6*%
X199950000Y-61337621D02*
X199950000Y-61002379D01*
X200710000Y-61337621D02*
X200710000Y-61002379D01*
D13*
%TO.C,U6*%
X105325000Y-57550000D02*
X108525000Y-57550000D01*
X108525000Y-57550000D02*
X108525000Y-56330000D01*
X108525000Y-67250000D02*
X105325000Y-67250000D01*
X108525000Y-68480000D02*
X108525000Y-67250000D01*
X111255000Y-54450000D02*
X111525000Y-54450000D01*
X111525000Y-51300000D02*
X121325000Y-51300000D01*
X111525000Y-54450000D02*
X111525000Y-51300000D01*
X112425000Y-70350000D02*
X111305000Y-70350000D01*
X112425000Y-71900000D02*
X112425000Y-70350000D01*
X120525000Y-70350000D02*
X120525000Y-71900000D01*
X120525000Y-71900000D02*
X112425000Y-71900000D01*
X121325000Y-51300000D02*
X121325000Y-54450000D01*
X124425000Y-56330000D02*
X124425000Y-56950000D01*
X124425000Y-56950000D02*
X130725000Y-56950000D01*
X124425000Y-67850000D02*
X124425000Y-68480000D01*
X130725000Y-56950000D02*
X130725000Y-67850000D01*
X130725000Y-67850000D02*
X124425000Y-67850000D01*
D14*
X129875000Y-56350000D02*
G75*
G02*
X129675000Y-56350000I-100000J0D01*
G01*
X129675000Y-56350000D02*
G75*
G02*
X129875000Y-56350000I100000J0D01*
G01*
D12*
%TO.C,R5*%
X110269999Y-44329879D02*
X110269999Y-44665121D01*
X111030001Y-44329879D02*
X111030001Y-44665121D01*
D15*
%TO.C,G\u002A\u002A\u002A*%
G36*
X135311837Y-50735787D02*
G01*
X135435875Y-50797235D01*
X135532003Y-50896156D01*
X135586413Y-51031298D01*
X135593663Y-51110596D01*
X135578695Y-51214906D01*
X135524097Y-51307192D01*
X135472711Y-51363017D01*
X135381422Y-51441561D01*
X135295054Y-51476540D01*
X135197010Y-51483445D01*
X135077958Y-51472890D01*
X134974759Y-51447323D01*
X134955274Y-51438898D01*
X134843672Y-51345985D01*
X134771577Y-51213365D01*
X134751936Y-51067334D01*
X134756213Y-51034540D01*
X134812708Y-50889811D01*
X134910325Y-50788825D01*
X135035256Y-50730328D01*
X135173696Y-50713067D01*
X135311837Y-50735787D01*
G37*
G36*
X135175666Y-51811787D02*
G01*
X135540302Y-51821925D01*
X135549633Y-53151786D01*
X135551550Y-53532255D01*
X135551415Y-53845357D01*
X135549144Y-54094850D01*
X135544651Y-54284489D01*
X135537853Y-54418028D01*
X135528665Y-54499224D01*
X135518596Y-54530288D01*
X135460843Y-54556854D01*
X135353984Y-54573731D01*
X135219396Y-54580937D01*
X135078454Y-54578489D01*
X134952537Y-54566405D01*
X134863021Y-54544702D01*
X134838051Y-54529718D01*
X134804821Y-54451590D01*
X134796716Y-54311523D01*
X134797525Y-54289592D01*
X134799737Y-54207120D01*
X134801895Y-54063842D01*
X134803913Y-53870103D01*
X134805704Y-53636244D01*
X134807184Y-53372611D01*
X134808266Y-53089545D01*
X134808619Y-52950162D01*
X134811030Y-51801649D01*
X135175666Y-51811787D01*
G37*
G36*
X130267643Y-38701017D02*
G01*
X130401042Y-38726117D01*
X130885372Y-38849814D01*
X131327375Y-39017749D01*
X131745054Y-39238186D01*
X132156411Y-39519391D01*
X132197840Y-39551132D01*
X132342229Y-39669087D01*
X132488189Y-39799176D01*
X132625484Y-39930979D01*
X132743880Y-40054077D01*
X132833141Y-40158050D01*
X132883033Y-40232479D01*
X132890021Y-40255808D01*
X132858215Y-40286571D01*
X132773225Y-40328064D01*
X132650694Y-40372988D01*
X132614321Y-40384420D01*
X132462757Y-40434093D01*
X132319430Y-40487164D01*
X132212888Y-40532989D01*
X132204478Y-40537214D01*
X132070335Y-40606210D01*
X131884310Y-40441424D01*
X131483800Y-40130405D01*
X131057937Y-39882511D01*
X130611677Y-39699217D01*
X130149977Y-39581998D01*
X129677791Y-39532329D01*
X129200074Y-39551684D01*
X128994643Y-39581515D01*
X128529188Y-39695130D01*
X128100339Y-39866348D01*
X127700561Y-40099015D01*
X127322318Y-40396980D01*
X127229766Y-40482576D01*
X127115113Y-40589091D01*
X127018051Y-40674206D01*
X126950716Y-40727576D01*
X126927139Y-40740552D01*
X126898036Y-40710129D01*
X126856191Y-40631582D01*
X126823298Y-40553788D01*
X126751325Y-40367023D01*
X126503704Y-40349236D01*
X126365011Y-40335229D01*
X126284462Y-40315418D01*
X126249079Y-40286030D01*
X126245197Y-40274095D01*
X126265205Y-40220683D01*
X126331179Y-40132611D01*
X126433299Y-40019380D01*
X126561745Y-39890491D01*
X126706697Y-39755444D01*
X126858338Y-39623740D01*
X127006846Y-39504881D01*
X127134727Y-39413413D01*
X127638295Y-39118393D01*
X128149991Y-38893742D01*
X128669294Y-38739570D01*
X129195685Y-38655985D01*
X129728641Y-38643098D01*
X130267643Y-38701017D01*
G37*
G36*
X119046535Y-41685131D02*
G01*
X119306751Y-41792205D01*
X119544115Y-41956101D01*
X119749294Y-42172107D01*
X119870522Y-42354887D01*
X119982579Y-42553441D01*
X120735530Y-42563033D01*
X121488481Y-42572625D01*
X121488481Y-42981729D01*
X121488481Y-43390833D01*
X120735403Y-43408620D01*
X120511505Y-43414695D01*
X120312722Y-43421591D01*
X120149671Y-43428815D01*
X120032968Y-43435876D01*
X119973229Y-43442281D01*
X119967803Y-43444194D01*
X119946001Y-43486377D01*
X119911938Y-43565931D01*
X119907459Y-43577097D01*
X119840096Y-43692411D01*
X119729465Y-43826575D01*
X119593346Y-43961903D01*
X119449520Y-44080705D01*
X119316670Y-44164838D01*
X119023431Y-44278344D01*
X118732242Y-44323748D01*
X118448594Y-44300361D01*
X118375736Y-44282644D01*
X118081410Y-44167074D01*
X117833541Y-44000157D01*
X117636076Y-43787594D01*
X117492959Y-43535089D01*
X117408135Y-43248344D01*
X117392434Y-43029149D01*
X118215251Y-43029149D01*
X118246121Y-43175902D01*
X118326376Y-43307404D01*
X118458905Y-43410723D01*
X118497228Y-43429202D01*
X118682107Y-43475026D01*
X118862074Y-43450068D01*
X118942730Y-43414765D01*
X119078934Y-43304801D01*
X119161897Y-43157890D01*
X119187050Y-42988979D01*
X119149824Y-42813016D01*
X119136196Y-42781853D01*
X119035825Y-42636777D01*
X118897780Y-42550333D01*
X118716930Y-42519430D01*
X118700544Y-42519264D01*
X118527832Y-42548281D01*
X118390057Y-42626711D01*
X118290109Y-42741620D01*
X118230877Y-42880077D01*
X118215251Y-43029149D01*
X117392434Y-43029149D01*
X117385551Y-42933062D01*
X117389571Y-42857164D01*
X117445430Y-42568875D01*
X117563297Y-42305940D01*
X117736332Y-42075765D01*
X117957697Y-41885754D01*
X118220551Y-41743316D01*
X118494889Y-41660303D01*
X118772803Y-41639593D01*
X119046535Y-41685131D01*
G37*
G36*
X130048208Y-51779805D02*
G01*
X130316465Y-51876982D01*
X130561946Y-52032832D01*
X130628306Y-52089993D01*
X130797703Y-52292257D01*
X130922592Y-52537248D01*
X131002548Y-52811848D01*
X131037149Y-53102939D01*
X131025972Y-53397404D01*
X130968594Y-53682126D01*
X130864593Y-53943988D01*
X130713545Y-54169873D01*
X130696000Y-54189797D01*
X130472061Y-54387005D01*
X130214421Y-54523231D01*
X129928770Y-54596738D01*
X129620798Y-54605792D01*
X129421534Y-54578355D01*
X129190575Y-54513579D01*
X129000079Y-54412955D01*
X128823584Y-54261625D01*
X128784620Y-54220716D01*
X128646548Y-54056162D01*
X128548026Y-53896246D01*
X128483281Y-53723867D01*
X128446537Y-53521921D01*
X128432022Y-53273308D01*
X128431433Y-53207994D01*
X129165553Y-53207994D01*
X129187678Y-53424169D01*
X129241208Y-53620951D01*
X129324501Y-53783170D01*
X129435909Y-53895657D01*
X129445795Y-53901936D01*
X129599347Y-53959898D01*
X129773168Y-53971089D01*
X129936831Y-53935230D01*
X129993785Y-53906953D01*
X130113268Y-53799255D01*
X130195893Y-53641884D01*
X130243383Y-53430080D01*
X130257528Y-53178478D01*
X130249934Y-52956986D01*
X130223534Y-52789071D01*
X130172901Y-52658434D01*
X130092608Y-52548773D01*
X130026736Y-52485207D01*
X129877148Y-52396910D01*
X129711436Y-52368640D01*
X129546944Y-52397765D01*
X129401012Y-52481657D01*
X129304064Y-52594802D01*
X129222102Y-52778141D01*
X129176480Y-52987595D01*
X129165553Y-53207994D01*
X128431433Y-53207994D01*
X128431124Y-53173746D01*
X128440122Y-52900549D01*
X128470606Y-52680098D01*
X128527816Y-52495867D01*
X128616989Y-52331334D01*
X128743362Y-52169974D01*
X128752602Y-52159633D01*
X128968746Y-51969609D01*
X129217444Y-51836203D01*
X129487632Y-51759826D01*
X129768242Y-51740890D01*
X130048208Y-51779805D01*
G37*
G36*
X140179891Y-45557338D02*
G01*
X140472616Y-45662472D01*
X140713639Y-45815373D01*
X140905522Y-46017790D01*
X140951306Y-46084382D01*
X141092550Y-46365730D01*
X141167721Y-46658673D01*
X141177164Y-46954216D01*
X141121224Y-47243361D01*
X141000248Y-47517113D01*
X140890113Y-47678486D01*
X140694639Y-47875141D01*
X140459292Y-48029881D01*
X140199342Y-48136772D01*
X139930059Y-48189879D01*
X139666712Y-48183266D01*
X139615162Y-48174061D01*
X139346348Y-48085764D01*
X139095201Y-47941628D01*
X138877389Y-47753394D01*
X138708582Y-47532803D01*
X138672740Y-47467844D01*
X138580700Y-47286211D01*
X137571789Y-47286211D01*
X137269112Y-47285678D01*
X137030102Y-47283837D01*
X136847282Y-47280321D01*
X136713177Y-47274762D01*
X136620310Y-47266794D01*
X136561207Y-47256051D01*
X136528390Y-47242165D01*
X136520063Y-47234620D01*
X136507408Y-47200486D01*
X136516650Y-47144601D01*
X136551771Y-47056228D01*
X136616755Y-46924628D01*
X136620577Y-46917397D01*
X139370446Y-46917397D01*
X139417895Y-47074200D01*
X139525329Y-47217198D01*
X139534938Y-47226094D01*
X139675377Y-47308563D01*
X139842712Y-47339305D01*
X140013606Y-47316984D01*
X140136396Y-47260553D01*
X140246356Y-47147739D01*
X140310821Y-46990251D01*
X140325035Y-46859320D01*
X140295763Y-46671393D01*
X140211874Y-46525676D01*
X140079264Y-46428178D01*
X139903826Y-46384904D01*
X139857874Y-46383252D01*
X139680439Y-46413247D01*
X139537976Y-46494714D01*
X139435488Y-46614599D01*
X139377977Y-46759845D01*
X139370446Y-46917397D01*
X136620577Y-46917397D01*
X136678213Y-46808368D01*
X136879179Y-46433705D01*
X137719179Y-46424174D01*
X138559178Y-46414642D01*
X138662495Y-46236771D01*
X138848856Y-45978947D01*
X139073509Y-45774395D01*
X139328401Y-45626722D01*
X139605478Y-45539532D01*
X139896689Y-45516432D01*
X140179891Y-45557338D01*
G37*
G36*
X124111551Y-51766338D02*
G01*
X124322546Y-51811050D01*
X124507089Y-51896892D01*
X124685117Y-52031556D01*
X124764423Y-52106181D01*
X124908146Y-52261334D01*
X125012618Y-52411162D01*
X125083503Y-52571575D01*
X125126465Y-52758488D01*
X125147171Y-52987810D01*
X125151493Y-53193404D01*
X125151366Y-53379325D01*
X125147563Y-53512787D01*
X125136612Y-53612478D01*
X125115041Y-53697087D01*
X125079381Y-53785303D01*
X125026158Y-53895814D01*
X125017936Y-53912455D01*
X124872118Y-54153545D01*
X124698334Y-54335728D01*
X124485925Y-54469108D01*
X124385599Y-54511881D01*
X124225692Y-54556062D01*
X124029993Y-54586195D01*
X123825790Y-54600177D01*
X123640367Y-54595905D01*
X123524960Y-54578204D01*
X123305530Y-54497980D01*
X123093371Y-54376971D01*
X122922203Y-54235153D01*
X122768407Y-54028905D01*
X122651916Y-53775806D01*
X122577020Y-53492031D01*
X122548025Y-53193903D01*
X123324829Y-53193903D01*
X123327075Y-53260860D01*
X123354031Y-53517586D01*
X123412133Y-53712690D01*
X123504460Y-53849927D01*
X123634089Y-53933052D01*
X123804101Y-53965822D01*
X123903923Y-53964581D01*
X124031278Y-53951296D01*
X124114852Y-53924446D01*
X124181969Y-53872956D01*
X124213966Y-53838927D01*
X124317992Y-53675583D01*
X124387010Y-53466313D01*
X124416191Y-53229624D01*
X124412302Y-53078904D01*
X124369849Y-52818993D01*
X124290656Y-52619497D01*
X124173922Y-52479428D01*
X124018847Y-52397797D01*
X123841088Y-52373459D01*
X123729947Y-52379913D01*
X123649533Y-52408845D01*
X123567729Y-52474294D01*
X123533233Y-52508019D01*
X123431568Y-52634289D01*
X123365578Y-52781078D01*
X123331315Y-52962808D01*
X123324829Y-53193903D01*
X122548025Y-53193903D01*
X122548010Y-53193753D01*
X122568441Y-52901678D01*
X122649450Y-52578650D01*
X122779098Y-52306426D01*
X122955491Y-52086693D01*
X123176735Y-51921140D01*
X123440936Y-51811458D01*
X123746200Y-51759335D01*
X123854167Y-51755067D01*
X124111551Y-51766338D01*
G37*
G36*
X140825678Y-41652523D02*
G01*
X140964957Y-41680370D01*
X141257643Y-41790459D01*
X141511301Y-41958961D01*
X141721237Y-42181976D01*
X141873511Y-42435693D01*
X141932176Y-42617963D01*
X141962604Y-42841277D01*
X141964450Y-43081230D01*
X141937373Y-43313413D01*
X141888389Y-43494500D01*
X141763053Y-43733245D01*
X141581689Y-43945679D01*
X141357907Y-44120078D01*
X141105317Y-44244717D01*
X140970617Y-44285151D01*
X140747898Y-44324166D01*
X140552381Y-44323611D01*
X140351007Y-44281737D01*
X140243188Y-44246669D01*
X139963248Y-44111635D01*
X139719134Y-43920636D01*
X139521914Y-43683393D01*
X139439572Y-43541001D01*
X139382318Y-43426407D01*
X138510750Y-43408620D01*
X137639181Y-43390833D01*
X137628752Y-43052877D01*
X137623540Y-42931347D01*
X140170850Y-42931347D01*
X140178347Y-43084743D01*
X140183968Y-43111688D01*
X140252302Y-43268440D01*
X140368857Y-43385183D01*
X140519088Y-43455414D01*
X140688450Y-43472631D01*
X140862397Y-43430330D01*
X140879393Y-43422619D01*
X141015411Y-43322004D01*
X141103683Y-43181840D01*
X141139389Y-43019321D01*
X141117707Y-42851639D01*
X141069177Y-42745775D01*
X140973326Y-42620415D01*
X140864539Y-42549627D01*
X140720495Y-42521363D01*
X140649567Y-42519264D01*
X140531054Y-42524026D01*
X140451360Y-42547458D01*
X140378325Y-42603276D01*
X140324359Y-42657980D01*
X140217352Y-42796102D01*
X140170850Y-42931347D01*
X137623540Y-42931347D01*
X137622218Y-42900521D01*
X137618442Y-42782706D01*
X137625321Y-42694944D01*
X137650751Y-42632745D01*
X137702630Y-42591623D01*
X137788855Y-42567087D01*
X137917321Y-42554650D01*
X138095926Y-42549823D01*
X138332566Y-42548117D01*
X138519491Y-42546576D01*
X139380975Y-42537051D01*
X139468659Y-42376967D01*
X139539074Y-42270266D01*
X139640403Y-42142657D01*
X139751068Y-42021259D01*
X139754186Y-42018116D01*
X139988953Y-41829676D01*
X140251285Y-41704398D01*
X140532941Y-41644580D01*
X140825678Y-41652523D01*
G37*
G36*
X136661568Y-51128227D02*
G01*
X137016632Y-51128227D01*
X137016632Y-51397373D01*
X137020767Y-51573178D01*
X137038296Y-51689895D01*
X137076905Y-51759355D01*
X137144280Y-51793389D01*
X137248106Y-51803828D01*
X137280884Y-51804138D01*
X137404315Y-51810748D01*
X137471651Y-51833061D01*
X137493078Y-51860409D01*
X137510419Y-51946267D01*
X137515276Y-52061762D01*
X137508940Y-52181512D01*
X137492703Y-52280133D01*
X137469125Y-52331265D01*
X137409689Y-52354421D01*
X137306335Y-52373054D01*
X137228999Y-52380089D01*
X137034419Y-52391113D01*
X137034419Y-53114683D01*
X137034631Y-53358779D01*
X137035971Y-53541702D01*
X137039498Y-53673425D01*
X137046270Y-53763923D01*
X137057346Y-53823170D01*
X137073783Y-53861141D01*
X137096641Y-53887811D01*
X137118402Y-53906210D01*
X137235512Y-53960471D01*
X137354379Y-53974166D01*
X137446940Y-53981543D01*
X137504752Y-54012458D01*
X137535804Y-54080087D01*
X137548083Y-54197605D01*
X137549760Y-54296428D01*
X137542190Y-54423881D01*
X137510283Y-54507327D01*
X137441618Y-54557218D01*
X137323773Y-54584001D01*
X137194503Y-54595281D01*
X137046007Y-54599529D01*
X136909957Y-54595023D01*
X136815069Y-54582746D01*
X136812971Y-54582220D01*
X136696461Y-54539529D01*
X136600207Y-54488466D01*
X136505860Y-54418991D01*
X136431004Y-54342063D01*
X136373471Y-54248896D01*
X136331089Y-54130702D01*
X136301689Y-53978694D01*
X136283102Y-53784085D01*
X136273157Y-53538087D01*
X136269685Y-53231912D01*
X136269573Y-53149502D01*
X136269573Y-52373326D01*
X136113845Y-52373326D01*
X135998456Y-52363544D01*
X135927263Y-52326024D01*
X135891670Y-52248498D01*
X135883079Y-52118701D01*
X135885372Y-52047370D01*
X135896044Y-51821925D01*
X136073915Y-51804138D01*
X136251786Y-51786351D01*
X136260834Y-51537331D01*
X136267284Y-51361875D01*
X136279284Y-51245309D01*
X136308577Y-51175642D01*
X136366909Y-51140886D01*
X136466021Y-51129052D01*
X136617660Y-51128149D01*
X136661568Y-51128227D01*
G37*
G36*
X119824056Y-45535974D02*
G01*
X120117372Y-45623098D01*
X120158699Y-45641087D01*
X120369721Y-45768396D01*
X120568084Y-45945760D01*
X120732908Y-46152560D01*
X120806201Y-46280509D01*
X120879400Y-46430970D01*
X121574652Y-46440593D01*
X122269904Y-46450216D01*
X122478894Y-46837064D01*
X122568172Y-47006384D01*
X122624196Y-47124045D01*
X122650518Y-47199276D01*
X122650691Y-47241307D01*
X122639583Y-47254517D01*
X122591724Y-47263080D01*
X122483128Y-47270764D01*
X122324207Y-47277213D01*
X122125371Y-47282071D01*
X121897030Y-47284981D01*
X121729206Y-47285666D01*
X120867130Y-47286211D01*
X120775090Y-47467844D01*
X120614231Y-47708824D01*
X120400797Y-47909598D01*
X120145412Y-48062637D01*
X119858701Y-48160414D01*
X119774542Y-48176816D01*
X119635866Y-48197992D01*
X119537831Y-48204915D01*
X119451000Y-48195612D01*
X119345934Y-48168111D01*
X119263632Y-48142603D01*
X118962168Y-48016861D01*
X118712303Y-47843937D01*
X118508947Y-47619640D01*
X118386854Y-47420891D01*
X118341827Y-47327887D01*
X118313043Y-47243585D01*
X118296907Y-47147519D01*
X118289824Y-47019221D01*
X118288782Y-46915388D01*
X119111138Y-46915388D01*
X119156012Y-47071935D01*
X119248374Y-47202848D01*
X119376789Y-47297624D01*
X119529822Y-47345760D01*
X119696039Y-47336751D01*
X119751921Y-47319415D01*
X119907465Y-47226709D01*
X120014063Y-47093982D01*
X120067813Y-46936176D01*
X120064814Y-46768236D01*
X120001164Y-46605106D01*
X119955087Y-46541240D01*
X119823038Y-46432754D01*
X119670088Y-46382281D01*
X119510940Y-46386232D01*
X119360298Y-46441021D01*
X119232864Y-46543061D01*
X119143342Y-46688764D01*
X119125187Y-46743712D01*
X119111138Y-46915388D01*
X118288782Y-46915388D01*
X118288220Y-46859320D01*
X118290050Y-46681018D01*
X118298458Y-46552389D01*
X118316912Y-46452023D01*
X118348879Y-46358512D01*
X118381147Y-46285684D01*
X118539234Y-46025446D01*
X118742190Y-45815004D01*
X118981082Y-45657596D01*
X119246979Y-45556463D01*
X119530948Y-45514842D01*
X119824056Y-45535974D01*
G37*
G36*
X126031935Y-44483431D02*
G01*
X126355939Y-44493634D01*
X126474808Y-44849376D01*
X126529828Y-45001672D01*
X126584069Y-45130630D01*
X126630141Y-45219716D01*
X126653690Y-45249586D01*
X126720925Y-45273957D01*
X126831299Y-45290109D01*
X126922248Y-45294054D01*
X127027704Y-45296791D01*
X127107497Y-45311065D01*
X127183054Y-45345968D01*
X127275806Y-45410591D01*
X127369020Y-45483617D01*
X127690690Y-45723823D01*
X127991273Y-45911634D01*
X128288005Y-46054602D01*
X128598122Y-46160278D01*
X128938859Y-46236211D01*
X129165594Y-46270693D01*
X129363601Y-46294497D01*
X129519247Y-46306110D01*
X129660246Y-46305658D01*
X129814309Y-46293273D01*
X129968837Y-46274432D01*
X130456696Y-46176514D01*
X130918332Y-46015865D01*
X131347639Y-45795478D01*
X131738513Y-45518348D01*
X131999179Y-45278753D01*
X132090055Y-45193956D01*
X132168573Y-45135230D01*
X132212624Y-45116431D01*
X132271228Y-45127505D01*
X132375978Y-45156551D01*
X132505986Y-45197695D01*
X132528793Y-45205366D01*
X132669864Y-45248695D01*
X132798264Y-45280286D01*
X132888341Y-45293917D01*
X132894546Y-45294054D01*
X132985209Y-45308796D01*
X133023647Y-45354381D01*
X133008842Y-45432846D01*
X132939774Y-45546229D01*
X132815426Y-45696569D01*
X132634779Y-45885902D01*
X132563471Y-45956470D01*
X132135080Y-46326756D01*
X131668513Y-46637199D01*
X131166173Y-46886398D01*
X130666632Y-47062645D01*
X130581351Y-47077488D01*
X130438694Y-47091618D01*
X130252433Y-47104567D01*
X130036339Y-47115866D01*
X129804186Y-47125046D01*
X129569743Y-47131637D01*
X129346785Y-47135171D01*
X129149082Y-47135179D01*
X128990406Y-47131192D01*
X128887921Y-47123217D01*
X128391653Y-47020295D01*
X127909553Y-46851651D01*
X127448655Y-46622356D01*
X127015994Y-46337478D01*
X126618603Y-46002085D01*
X126263516Y-45621248D01*
X125957769Y-45200034D01*
X125774808Y-44879851D01*
X125695662Y-44715709D01*
X125659081Y-44602651D01*
X125670811Y-44531820D01*
X125736596Y-44494360D01*
X125862180Y-44481414D01*
X126031935Y-44483431D01*
G37*
G36*
X140101926Y-37833797D02*
G01*
X140123705Y-37838648D01*
X140401234Y-37922251D01*
X140623551Y-38036299D01*
X140803642Y-38190960D01*
X140954493Y-38396400D01*
X141040250Y-38556248D01*
X141108515Y-38700623D01*
X141150490Y-38806680D01*
X141171674Y-38899753D01*
X141177564Y-39005177D01*
X141173659Y-39148285D01*
X141172871Y-39167337D01*
X141128944Y-39485799D01*
X141025992Y-39764803D01*
X140864952Y-40003191D01*
X140646761Y-40199801D01*
X140372356Y-40353475D01*
X140149601Y-40434204D01*
X139974983Y-40475388D01*
X139815534Y-40484541D01*
X139635082Y-40462976D01*
X139590261Y-40454495D01*
X139321426Y-40366547D01*
X139072807Y-40218317D01*
X138858149Y-40020377D01*
X138691197Y-39783300D01*
X138673190Y-39749123D01*
X138580700Y-39566603D01*
X137771985Y-39566058D01*
X137537515Y-39564729D01*
X137325891Y-39561303D01*
X137147829Y-39556136D01*
X137014048Y-39549581D01*
X136935266Y-39541995D01*
X136919760Y-39537869D01*
X136885849Y-39496994D01*
X136827096Y-39407241D01*
X136752196Y-39282482D01*
X136693486Y-39178911D01*
X139372755Y-39178911D01*
X139408465Y-39324358D01*
X139483092Y-39453780D01*
X139590123Y-39556667D01*
X139723044Y-39622506D01*
X139875339Y-39640787D01*
X140040496Y-39600998D01*
X140079356Y-39582663D01*
X140198635Y-39484003D01*
X140282317Y-39341879D01*
X140324261Y-39177591D01*
X140318325Y-39012438D01*
X140276908Y-38897443D01*
X140177760Y-38785902D01*
X140036693Y-38710192D01*
X139875209Y-38674714D01*
X139714808Y-38683872D01*
X139576990Y-38742066D01*
X139564276Y-38751537D01*
X139444147Y-38881989D01*
X139382478Y-39027951D01*
X139372755Y-39178911D01*
X136693486Y-39178911D01*
X136681372Y-39157541D01*
X136592220Y-38990405D01*
X136538525Y-38874193D01*
X136516880Y-38800235D01*
X136523877Y-38759858D01*
X136524688Y-38758839D01*
X136552273Y-38744678D01*
X136613221Y-38733525D01*
X136714056Y-38725094D01*
X136861305Y-38719098D01*
X137061495Y-38715250D01*
X137321152Y-38713263D01*
X137571911Y-38712821D01*
X138580943Y-38712821D01*
X138635366Y-38582570D01*
X138733321Y-38410925D01*
X138877052Y-38236580D01*
X139045619Y-38081555D01*
X139218084Y-37967870D01*
X139221604Y-37966081D01*
X139517753Y-37851142D01*
X139810859Y-37807094D01*
X140101926Y-37833797D01*
G37*
G36*
X139191803Y-51764685D02*
G01*
X139426656Y-51823171D01*
X139638539Y-51914178D01*
X139818261Y-52032562D01*
X139956630Y-52173176D01*
X140044457Y-52330874D01*
X140072551Y-52500510D01*
X140069854Y-52538479D01*
X140058229Y-52640132D01*
X139718755Y-52650225D01*
X139379282Y-52660318D01*
X139318477Y-52522501D01*
X139239617Y-52401285D01*
X139126056Y-52330398D01*
X138965575Y-52303033D01*
X138922977Y-52302177D01*
X138764291Y-52326679D01*
X138650624Y-52396019D01*
X138589914Y-52503947D01*
X138581898Y-52570746D01*
X138588850Y-52640931D01*
X138616133Y-52697286D01*
X138673389Y-52745545D01*
X138770258Y-52791442D01*
X138916383Y-52840712D01*
X139121404Y-52899088D01*
X139144550Y-52905385D01*
X139384712Y-52974449D01*
X139567774Y-53037584D01*
X139706745Y-53100983D01*
X139814633Y-53170835D01*
X139904447Y-53253332D01*
X139926253Y-53277400D01*
X140048221Y-53463556D01*
X140105575Y-53661858D01*
X140101469Y-53862779D01*
X140039055Y-54056792D01*
X139921487Y-54234370D01*
X139751918Y-54385986D01*
X139533501Y-54502112D01*
X139519073Y-54507682D01*
X139294083Y-54568777D01*
X139039264Y-54599539D01*
X138784487Y-54598359D01*
X138559625Y-54563629D01*
X138546324Y-54560053D01*
X138317080Y-54472142D01*
X138113523Y-54347641D01*
X137947448Y-54196935D01*
X137830653Y-54030405D01*
X137779019Y-53884633D01*
X137764621Y-53782643D01*
X137774553Y-53716108D01*
X137819718Y-53677521D01*
X137911020Y-53659375D01*
X138059363Y-53654162D01*
X138114001Y-53653998D01*
X138430970Y-53653998D01*
X138475474Y-53761441D01*
X138534365Y-53858830D01*
X138617618Y-53950883D01*
X138624816Y-53957099D01*
X138697277Y-54007666D01*
X138778084Y-54034562D01*
X138892888Y-54044541D01*
X138959774Y-54045314D01*
X139093469Y-54041272D01*
X139179883Y-54024815D01*
X139242639Y-53989445D01*
X139277213Y-53957996D01*
X139353256Y-53849851D01*
X139359175Y-53748780D01*
X139295732Y-53655750D01*
X139163688Y-53571727D01*
X138963806Y-53497678D01*
X138900725Y-53480154D01*
X138570945Y-53381126D01*
X138307967Y-53272927D01*
X138107659Y-53151903D01*
X137965888Y-53014406D01*
X137878522Y-52856784D01*
X137841430Y-52675386D01*
X137842182Y-52544913D01*
X137891777Y-52327642D01*
X138003570Y-52136375D01*
X138171651Y-51976544D01*
X138390108Y-51853580D01*
X138653029Y-51772917D01*
X138689943Y-51765861D01*
X138943168Y-51743866D01*
X139191803Y-51764685D01*
G37*
G36*
X133728550Y-40852747D02*
G01*
X134015541Y-40960479D01*
X134267444Y-41120892D01*
X134304337Y-41151946D01*
X134497746Y-41354597D01*
X134639962Y-41584804D01*
X134742388Y-41861175D01*
X134745315Y-41871633D01*
X134779272Y-42006339D01*
X134786902Y-42097939D01*
X134759131Y-42154723D01*
X134686882Y-42184982D01*
X134561082Y-42197008D01*
X134386898Y-42199096D01*
X134203059Y-42195389D01*
X134079090Y-42181567D01*
X134003974Y-42153580D01*
X133966692Y-42107378D01*
X133956246Y-42040791D01*
X133939865Y-41966769D01*
X133899483Y-41862346D01*
X133874336Y-41809660D01*
X133755883Y-41650306D01*
X133591184Y-41545005D01*
X133380295Y-41493783D01*
X133266849Y-41488393D01*
X133022985Y-41516366D01*
X132823336Y-41599681D01*
X132665138Y-41740312D01*
X132545629Y-41940237D01*
X132510878Y-42029014D01*
X132479294Y-42165289D01*
X132456928Y-42354559D01*
X132443784Y-42579269D01*
X132439862Y-42821867D01*
X132445164Y-43064798D01*
X132459693Y-43290508D01*
X132483450Y-43481443D01*
X132510715Y-43602686D01*
X132607074Y-43821134D01*
X132743944Y-43981451D01*
X132922495Y-44084788D01*
X133032974Y-44116548D01*
X133237048Y-44136268D01*
X133441708Y-44116861D01*
X133621723Y-44062150D01*
X133706717Y-44014458D01*
X133805017Y-43911995D01*
X133890841Y-43763593D01*
X133950108Y-43594441D01*
X133955865Y-43568704D01*
X133977821Y-43461981D01*
X134353541Y-43451938D01*
X134545104Y-43448915D01*
X134674788Y-43456426D01*
X134751763Y-43481256D01*
X134785199Y-43530186D01*
X134784266Y-43610000D01*
X134758135Y-43727481D01*
X134752969Y-43747389D01*
X134713315Y-43881930D01*
X134669543Y-44004978D01*
X134642899Y-44065751D01*
X134486896Y-44297023D01*
X134275696Y-44498599D01*
X134022817Y-44659231D01*
X133832739Y-44739753D01*
X133688755Y-44774367D01*
X133498809Y-44799795D01*
X133287653Y-44814682D01*
X133080041Y-44817675D01*
X132900726Y-44807419D01*
X132820648Y-44795122D01*
X132540429Y-44700609D01*
X132283909Y-44544096D01*
X132057571Y-44332616D01*
X131867897Y-44073205D01*
X131721368Y-43772896D01*
X131641329Y-43515342D01*
X131615801Y-43355643D01*
X131600399Y-43145804D01*
X131594858Y-42906071D01*
X131598911Y-42656688D01*
X131612294Y-42417901D01*
X131634740Y-42209956D01*
X131660238Y-42074586D01*
X131776179Y-41731283D01*
X131938159Y-41438788D01*
X132144411Y-41199496D01*
X132393165Y-41015799D01*
X132474348Y-40972606D01*
X132779370Y-40857626D01*
X133098233Y-40800122D01*
X133418703Y-40798895D01*
X133728550Y-40852747D01*
G37*
G36*
X129652874Y-40857194D02*
G01*
X129870635Y-40867404D01*
X130049293Y-40885643D01*
X130199490Y-40913246D01*
X130331870Y-40951548D01*
X130457078Y-41001882D01*
X130538841Y-41041270D01*
X130741657Y-41181882D01*
X130894448Y-41369100D01*
X130993354Y-41595396D01*
X131034519Y-41853242D01*
X131031419Y-42002476D01*
X130996508Y-42213314D01*
X130921960Y-42387122D01*
X130795898Y-42547864D01*
X130728441Y-42613823D01*
X130568583Y-42761744D01*
X130684750Y-42821816D01*
X130862181Y-42951999D01*
X131008629Y-43139247D01*
X131043820Y-43202651D01*
X131085693Y-43333534D01*
X131108146Y-43508722D01*
X131110832Y-43703975D01*
X131093406Y-43895052D01*
X131056018Y-44056258D01*
X130944487Y-44276443D01*
X130774681Y-44459985D01*
X130550974Y-44603962D01*
X130277742Y-44705454D01*
X130007598Y-44756399D01*
X129866084Y-44768818D01*
X129683369Y-44778566D01*
X129472208Y-44785619D01*
X129245355Y-44789950D01*
X129015563Y-44791531D01*
X128795588Y-44790338D01*
X128598184Y-44786344D01*
X128436104Y-44779521D01*
X128322104Y-44769845D01*
X128273958Y-44759977D01*
X128193609Y-44726932D01*
X128196670Y-44084530D01*
X129048005Y-44084530D01*
X129476038Y-44084530D01*
X129720290Y-44079285D01*
X129900450Y-44063735D01*
X130013428Y-44038155D01*
X130018545Y-44036078D01*
X130145729Y-43966688D01*
X130224578Y-43878241D01*
X130264565Y-43754132D01*
X130275187Y-43586249D01*
X130270157Y-43441725D01*
X130252157Y-43346937D01*
X130216540Y-43280958D01*
X130204123Y-43266273D01*
X130131236Y-43196038D01*
X130051440Y-43146735D01*
X129950767Y-43114862D01*
X129815246Y-43096920D01*
X129630908Y-43089408D01*
X129494449Y-43088452D01*
X129048005Y-43088452D01*
X129048005Y-43586491D01*
X129048005Y-44084530D01*
X128196670Y-44084530D01*
X128199043Y-43586491D01*
X128202810Y-42795997D01*
X128205956Y-42135735D01*
X129053198Y-42135735D01*
X129053872Y-42281611D01*
X129057471Y-42387568D01*
X129063487Y-42437151D01*
X129106350Y-42460323D01*
X129202799Y-42475806D01*
X129335675Y-42483455D01*
X129487818Y-42483126D01*
X129642067Y-42474676D01*
X129781263Y-42457960D01*
X129850955Y-42443767D01*
X130013954Y-42377124D01*
X130121007Y-42270306D01*
X130176265Y-42117672D01*
X130186380Y-41988116D01*
X130168782Y-41825961D01*
X130112148Y-41702646D01*
X130010721Y-41614843D01*
X129858742Y-41559225D01*
X129650453Y-41532463D01*
X129394982Y-41530742D01*
X129065792Y-41540973D01*
X129055710Y-41965792D01*
X129053198Y-42135735D01*
X128205956Y-42135735D01*
X128212010Y-40865062D01*
X129057467Y-40855523D01*
X129385366Y-40853679D01*
X129652874Y-40857194D01*
G37*
G36*
X119974720Y-37846429D02*
G01*
X120237165Y-37958757D01*
X120472668Y-38130836D01*
X120551365Y-38209896D01*
X120645708Y-38319515D01*
X120723532Y-38421479D01*
X120768832Y-38494730D01*
X120770214Y-38497863D01*
X120798198Y-38563178D01*
X120825907Y-38613723D01*
X120862194Y-38651387D01*
X120915915Y-38678063D01*
X120995922Y-38695643D01*
X121111071Y-38706017D01*
X121270216Y-38711077D01*
X121482211Y-38712715D01*
X121755910Y-38712822D01*
X121776489Y-38712821D01*
X122017223Y-38714020D01*
X122233677Y-38717388D01*
X122415904Y-38722583D01*
X122553959Y-38729263D01*
X122637897Y-38737087D01*
X122659199Y-38743167D01*
X122649760Y-38782983D01*
X122612392Y-38869278D01*
X122554987Y-38987057D01*
X122485435Y-39121325D01*
X122411629Y-39257088D01*
X122341459Y-39379350D01*
X122282817Y-39473118D01*
X122254989Y-39511239D01*
X122228462Y-39531120D01*
X122180237Y-39545740D01*
X122100672Y-39555846D01*
X121980128Y-39562191D01*
X121808962Y-39565522D01*
X121577534Y-39566591D01*
X121543140Y-39566603D01*
X120877239Y-39566603D01*
X120784377Y-39737222D01*
X120619526Y-39970501D01*
X120398468Y-40175615D01*
X120176764Y-40318099D01*
X120053655Y-40378786D01*
X119946175Y-40415468D01*
X119825787Y-40435101D01*
X119663958Y-40444636D01*
X119656408Y-40444900D01*
X119462796Y-40443839D01*
X119299565Y-40428110D01*
X119211730Y-40408118D01*
X118944125Y-40296199D01*
X118728815Y-40151072D01*
X118550427Y-39961517D01*
X118495931Y-39885659D01*
X118402791Y-39736759D01*
X118341722Y-39604238D01*
X118306541Y-39465307D01*
X118291063Y-39297173D01*
X118288939Y-39137152D01*
X119101477Y-39137152D01*
X119109462Y-39217701D01*
X119149997Y-39315401D01*
X119164711Y-39344448D01*
X119278422Y-39502844D01*
X119420689Y-39599189D01*
X119584353Y-39630623D01*
X119762256Y-39594286D01*
X119776088Y-39588701D01*
X119924087Y-39491256D01*
X120024965Y-39351056D01*
X120071421Y-39184306D01*
X120056155Y-39007212D01*
X120048874Y-38983111D01*
X119977647Y-38854289D01*
X119865436Y-38740214D01*
X119737625Y-38665193D01*
X119706794Y-38655534D01*
X119543494Y-38648671D01*
X119386632Y-38702593D01*
X119251234Y-38807454D01*
X119152325Y-38953412D01*
X119121112Y-39039239D01*
X119101477Y-39137152D01*
X118288939Y-39137152D01*
X118288737Y-39121925D01*
X118292429Y-38943500D01*
X118303752Y-38813389D01*
X118326508Y-38708862D01*
X118364499Y-38607190D01*
X118380965Y-38570524D01*
X118491960Y-38366824D01*
X118624361Y-38204660D01*
X118799299Y-38059667D01*
X118860223Y-38017871D01*
X119128083Y-37879573D01*
X119409943Y-37805675D01*
X119695567Y-37795015D01*
X119974720Y-37846429D01*
G37*
G36*
X126112566Y-50630756D02*
G01*
X126214607Y-50638564D01*
X126286721Y-50662769D01*
X126334093Y-50712529D01*
X126361913Y-50797000D01*
X126375369Y-50925339D01*
X126379648Y-51106704D01*
X126379937Y-51344214D01*
X126380748Y-51542234D01*
X126382993Y-51712868D01*
X126386394Y-51844541D01*
X126390672Y-51925677D01*
X126394442Y-51946435D01*
X126431221Y-51931359D01*
X126511915Y-51892237D01*
X126597577Y-51848606D01*
X126818285Y-51771253D01*
X127060800Y-51748769D01*
X127301277Y-51781452D01*
X127456783Y-51837867D01*
X127644594Y-51962530D01*
X127812741Y-52139355D01*
X127944643Y-52349420D01*
X127983818Y-52439241D01*
X128026331Y-52595006D01*
X128058341Y-52799160D01*
X128078539Y-53029539D01*
X128085612Y-53263981D01*
X128078252Y-53480322D01*
X128055651Y-53653998D01*
X127966766Y-53945696D01*
X127832933Y-54192327D01*
X127658418Y-54387595D01*
X127474250Y-54512110D01*
X127339486Y-54558872D01*
X127165996Y-54589891D01*
X126985101Y-54601908D01*
X126828120Y-54591663D01*
X126789041Y-54583413D01*
X126626221Y-54520586D01*
X126446578Y-54418395D01*
X126388831Y-54378760D01*
X126331416Y-54342447D01*
X126311200Y-54357628D01*
X126308789Y-54413253D01*
X126289293Y-54493054D01*
X126225149Y-54544613D01*
X126107869Y-54571884D01*
X125953047Y-54578928D01*
X125876122Y-54581051D01*
X125811067Y-54583782D01*
X125756896Y-54581665D01*
X125712622Y-54569241D01*
X125677260Y-54541054D01*
X125649823Y-54491647D01*
X125629325Y-54415562D01*
X125614780Y-54307343D01*
X125605202Y-54161532D01*
X125599604Y-53972673D01*
X125597000Y-53735307D01*
X125596405Y-53443979D01*
X125596752Y-53158297D01*
X126379937Y-53158297D01*
X126382166Y-53364429D01*
X126388361Y-53544772D01*
X126397783Y-53686385D01*
X126409696Y-53776324D01*
X126416406Y-53797966D01*
X126504422Y-53890280D01*
X126646134Y-53950210D01*
X126829555Y-53972717D01*
X126832271Y-53972742D01*
X126957845Y-53966078D01*
X127047373Y-53936078D01*
X127134956Y-53871299D01*
X127135191Y-53871093D01*
X127232112Y-53753392D01*
X127296554Y-53594549D01*
X127331095Y-53385620D01*
X127338885Y-53164342D01*
X127318653Y-52889705D01*
X127261612Y-52674019D01*
X127168082Y-52518220D01*
X127095055Y-52454191D01*
X126934447Y-52386265D01*
X126758349Y-52375913D01*
X126588600Y-52421096D01*
X126452507Y-52514202D01*
X126425210Y-52546465D01*
X126405742Y-52587700D01*
X126392796Y-52649523D01*
X126385062Y-52743547D01*
X126381233Y-52881386D01*
X126379998Y-53074654D01*
X126379937Y-53158297D01*
X125596752Y-53158297D01*
X125596831Y-53093230D01*
X125597293Y-52677604D01*
X125597304Y-52610421D01*
X125597716Y-52166552D01*
X125599013Y-51789622D01*
X125601288Y-51475428D01*
X125604634Y-51219765D01*
X125609143Y-51018429D01*
X125614908Y-50867217D01*
X125622021Y-50761923D01*
X125630576Y-50698343D01*
X125639993Y-50672877D01*
X125700151Y-50649796D01*
X125819131Y-50635062D01*
X125975408Y-50630188D01*
X126112566Y-50630756D01*
G37*
G36*
X120775505Y-50852750D02*
G01*
X120981996Y-50862400D01*
X121150703Y-50879980D01*
X121292715Y-50906847D01*
X121419116Y-50944358D01*
X121540995Y-50993867D01*
X121602091Y-51022755D01*
X121819587Y-51159392D01*
X121979381Y-51330240D01*
X122083962Y-51540029D01*
X122135820Y-51793487D01*
X122140367Y-52045467D01*
X122128852Y-52213249D01*
X122109163Y-52335670D01*
X122075037Y-52438494D01*
X122020210Y-52547482D01*
X122016832Y-52553521D01*
X121906694Y-52710065D01*
X121769257Y-52851174D01*
X121734192Y-52879642D01*
X121640749Y-52954304D01*
X121573674Y-53014317D01*
X121549982Y-53042605D01*
X121563159Y-53081400D01*
X121605643Y-53173347D01*
X121672760Y-53309085D01*
X121759838Y-53479256D01*
X121862205Y-53674501D01*
X121914412Y-53772532D01*
X122022885Y-53976585D01*
X122119024Y-54160051D01*
X122198016Y-54313527D01*
X122255046Y-54427609D01*
X122285300Y-54492894D01*
X122288901Y-54504013D01*
X122269958Y-54537694D01*
X122207523Y-54560386D01*
X122093185Y-54573569D01*
X121918533Y-54578721D01*
X121863042Y-54578928D01*
X121698030Y-54575705D01*
X121587821Y-54564296D01*
X121516292Y-54542093D01*
X121478193Y-54516673D01*
X121440067Y-54466277D01*
X121376672Y-54363190D01*
X121294306Y-54218488D01*
X121199263Y-54043245D01*
X121097838Y-53848534D01*
X121093201Y-53839445D01*
X120779742Y-53224473D01*
X120493775Y-53234683D01*
X120207809Y-53244894D01*
X120198432Y-53867443D01*
X120194151Y-54096790D01*
X120188531Y-54265174D01*
X120180520Y-54382778D01*
X120169062Y-54459787D01*
X120153103Y-54506384D01*
X120131590Y-54532755D01*
X120129378Y-54534460D01*
X120068044Y-54553779D01*
X119957512Y-54567369D01*
X119819551Y-54574572D01*
X119675933Y-54574734D01*
X119548426Y-54567199D01*
X119469325Y-54554344D01*
X119455409Y-54547356D01*
X119443776Y-54530457D01*
X119434261Y-54497914D01*
X119426698Y-54443997D01*
X119420922Y-54362973D01*
X119416770Y-54249109D01*
X119414075Y-54096673D01*
X119412673Y-53899934D01*
X119412399Y-53653159D01*
X119413087Y-53350615D01*
X119414574Y-52986571D01*
X119415963Y-52699717D01*
X119418666Y-52160454D01*
X120195409Y-52160454D01*
X120195801Y-52316866D01*
X120198790Y-52434746D01*
X120204159Y-52499389D01*
X120205610Y-52504934D01*
X120248425Y-52527891D01*
X120345216Y-52543491D01*
X120479205Y-52551829D01*
X120633610Y-52552998D01*
X120791652Y-52547090D01*
X120936550Y-52534199D01*
X121051524Y-52514419D01*
X121097528Y-52499976D01*
X121228086Y-52410547D01*
X121315726Y-52279509D01*
X121359885Y-52122423D01*
X121360000Y-51954846D01*
X121315509Y-51792339D01*
X121225848Y-51650460D01*
X121131225Y-51568642D01*
X121072949Y-51540371D01*
X120991254Y-51521571D01*
X120871986Y-51510457D01*
X120700993Y-51505241D01*
X120622593Y-51504454D01*
X120207809Y-51501757D01*
X120197833Y-51980214D01*
X120195409Y-52160454D01*
X119418666Y-52160454D01*
X119425176Y-50861421D01*
X120204826Y-50851817D01*
X120520144Y-50849675D01*
X120775505Y-50852750D01*
G37*
G36*
X131921263Y-50849635D02*
G01*
X131965092Y-50850924D01*
X132267472Y-50861421D01*
X132277060Y-51635160D01*
X132281638Y-51883864D01*
X132288500Y-52093106D01*
X132297218Y-52255277D01*
X132307367Y-52362764D01*
X132318519Y-52407958D01*
X132320405Y-52408900D01*
X132356624Y-52382158D01*
X132420215Y-52311782D01*
X132497922Y-52212545D01*
X132503951Y-52204348D01*
X132595198Y-52081591D01*
X132708994Y-51931321D01*
X132837974Y-51762963D01*
X132974773Y-51585944D01*
X133112024Y-51409688D01*
X133242361Y-51243623D01*
X133358420Y-51097172D01*
X133452835Y-50979762D01*
X133518240Y-50900819D01*
X133546462Y-50870265D01*
X133597495Y-50858591D01*
X133699278Y-50852051D01*
X133835083Y-50850147D01*
X133988184Y-50852380D01*
X134141853Y-50858252D01*
X134279365Y-50867265D01*
X134383991Y-50878919D01*
X134439004Y-50892716D01*
X134443273Y-50896995D01*
X134424899Y-50933015D01*
X134367221Y-51016703D01*
X134275876Y-51140567D01*
X134156498Y-51297116D01*
X134014724Y-51478858D01*
X133856188Y-51678299D01*
X133846515Y-51690355D01*
X133654103Y-51931803D01*
X133504104Y-52124368D01*
X133392780Y-52273319D01*
X133316395Y-52383924D01*
X133271211Y-52461453D01*
X133253492Y-52511174D01*
X133253573Y-52526350D01*
X133276499Y-52574857D01*
X133333975Y-52674517D01*
X133421022Y-52817330D01*
X133532656Y-52995292D01*
X133663898Y-53200402D01*
X133809767Y-53424658D01*
X133866206Y-53510517D01*
X134015987Y-53738378D01*
X134153250Y-53948448D01*
X134273020Y-54133015D01*
X134370323Y-54284364D01*
X134440183Y-54394784D01*
X134477625Y-54456561D01*
X134482333Y-54465718D01*
X134473500Y-54524585D01*
X134451578Y-54546399D01*
X134394415Y-54560312D01*
X134286011Y-54570298D01*
X134146175Y-54576096D01*
X133994721Y-54577446D01*
X133851459Y-54574087D01*
X133736201Y-54565759D01*
X133681599Y-54556519D01*
X133634932Y-54522381D01*
X133560808Y-54436260D01*
X133457348Y-54295608D01*
X133322673Y-54097878D01*
X133165773Y-53857439D01*
X133038979Y-53660429D01*
X132924313Y-53482511D01*
X132827634Y-53332757D01*
X132754801Y-53220238D01*
X132711676Y-53154028D01*
X132703136Y-53141196D01*
X132665489Y-53144440D01*
X132589891Y-53199678D01*
X132482052Y-53302728D01*
X132480797Y-53304021D01*
X132285260Y-53505444D01*
X132285260Y-54020593D01*
X132284218Y-54226195D01*
X132280347Y-54371350D01*
X132272527Y-54466738D01*
X132259638Y-54523042D01*
X132240559Y-54550940D01*
X132228989Y-54557335D01*
X132153932Y-54570920D01*
X132034532Y-54577283D01*
X131893499Y-54576999D01*
X131753547Y-54570645D01*
X131637389Y-54558795D01*
X131567738Y-54542026D01*
X131564881Y-54540504D01*
X131550911Y-54528594D01*
X131539193Y-54506637D01*
X131529530Y-54468801D01*
X131521726Y-54409254D01*
X131515585Y-54322163D01*
X131510910Y-54201696D01*
X131507505Y-54042021D01*
X131505173Y-53837304D01*
X131503718Y-53581714D01*
X131502943Y-53269418D01*
X131502652Y-52894584D01*
X131502627Y-52692404D01*
X131502627Y-50880563D01*
X131582669Y-50860496D01*
X131654590Y-50852388D01*
X131774982Y-50848580D01*
X131921263Y-50849635D01*
G37*
G36*
X126281397Y-40853579D02*
G01*
X126349784Y-40862944D01*
X126388674Y-40881672D01*
X126411922Y-40911749D01*
X126413233Y-40914166D01*
X126435376Y-40965392D01*
X126478456Y-41073620D01*
X126538728Y-41229120D01*
X126612449Y-41422163D01*
X126695874Y-41643021D01*
X126773045Y-41849174D01*
X126873496Y-42118211D01*
X126977975Y-42397300D01*
X127080118Y-42669495D01*
X127173564Y-42917853D01*
X127251949Y-43125428D01*
X127285154Y-43212961D01*
X127421262Y-43571568D01*
X127533650Y-43869528D01*
X127624222Y-44112567D01*
X127694883Y-44306410D01*
X127747540Y-44456784D01*
X127784097Y-44569415D01*
X127806460Y-44650029D01*
X127816534Y-44704351D01*
X127816225Y-44738108D01*
X127807437Y-44757025D01*
X127800777Y-44762509D01*
X127732464Y-44780849D01*
X127611935Y-44790139D01*
X127457557Y-44790274D01*
X127287700Y-44781151D01*
X127146200Y-44766217D01*
X126969745Y-44742653D01*
X126843819Y-44369124D01*
X126717893Y-43995594D01*
X126038068Y-43985950D01*
X125784821Y-43983577D01*
X125594991Y-43984867D01*
X125460920Y-43990201D01*
X125374953Y-43999959D01*
X125329431Y-44014520D01*
X125321035Y-44021524D01*
X125294732Y-44073184D01*
X125253869Y-44175883D01*
X125204921Y-44312691D01*
X125172342Y-44410329D01*
X125117955Y-44563830D01*
X125066217Y-44684735D01*
X125023538Y-44758997D01*
X125006003Y-44774965D01*
X124945061Y-44784093D01*
X124834086Y-44789355D01*
X124694080Y-44790872D01*
X124546048Y-44788762D01*
X124410992Y-44783145D01*
X124309916Y-44774139D01*
X124289951Y-44770909D01*
X124227386Y-44737636D01*
X124209909Y-44699362D01*
X124221925Y-44649491D01*
X124255339Y-44544654D01*
X124306202Y-44396365D01*
X124370566Y-44216140D01*
X124443906Y-44017033D01*
X124528863Y-43789552D01*
X124615547Y-43557223D01*
X124696805Y-43339234D01*
X124735206Y-43236094D01*
X125599905Y-43236094D01*
X125605849Y-43257429D01*
X125656861Y-43278868D01*
X125758405Y-43293855D01*
X125892758Y-43302442D01*
X126042198Y-43304682D01*
X126189002Y-43300627D01*
X126315447Y-43290330D01*
X126403810Y-43273843D01*
X126435750Y-43254975D01*
X126431150Y-43206753D01*
X126406839Y-43103700D01*
X126366225Y-42958274D01*
X126312717Y-42782933D01*
X126272731Y-42659107D01*
X126189530Y-42409769D01*
X126124482Y-42222289D01*
X126075100Y-42090437D01*
X126038895Y-42007982D01*
X126013380Y-41968696D01*
X125996067Y-41966347D01*
X125980190Y-42003703D01*
X125945914Y-42097665D01*
X125897081Y-42237255D01*
X125837535Y-42411497D01*
X125775005Y-42597736D01*
X125694497Y-42846025D01*
X125639194Y-43032388D01*
X125608021Y-43161014D01*
X125599905Y-43236094D01*
X124735206Y-43236094D01*
X124765482Y-43154777D01*
X124803356Y-43052877D01*
X124875422Y-42859028D01*
X124955953Y-42642851D01*
X125030434Y-42443300D01*
X125048585Y-42394754D01*
X125113923Y-42220083D01*
X125192215Y-42010752D01*
X125271500Y-41798741D01*
X125314678Y-41683270D01*
X125382644Y-41502057D01*
X125450997Y-41320759D01*
X125510505Y-41163816D01*
X125543118Y-41078508D01*
X125625242Y-40865062D01*
X126000704Y-40854984D01*
X126169656Y-40851588D01*
X126281397Y-40853579D01*
G37*
G36*
X129489494Y-35945991D02*
G01*
X129512984Y-35946254D01*
X130346464Y-35955819D01*
X130346464Y-36240272D01*
X130346464Y-36524726D01*
X130595484Y-36571898D01*
X131038451Y-36665160D01*
X131425025Y-36767174D01*
X131769797Y-36881805D01*
X131780839Y-36885926D01*
X131926955Y-36936705D01*
X132046645Y-36970840D01*
X132124900Y-36984437D01*
X132146150Y-36980726D01*
X132173511Y-36935839D01*
X132220060Y-36842550D01*
X132277384Y-36718031D01*
X132299751Y-36667227D01*
X132359395Y-36538069D01*
X132412771Y-36436683D01*
X132451220Y-36379003D01*
X132460287Y-36371799D01*
X132507454Y-36382625D01*
X132603818Y-36423210D01*
X132737289Y-36487177D01*
X132895776Y-36568148D01*
X133067190Y-36659746D01*
X133239438Y-36755594D01*
X133400430Y-36849316D01*
X133538076Y-36934533D01*
X133581389Y-36963118D01*
X133729519Y-37065250D01*
X133822019Y-37142649D01*
X133862107Y-37210571D01*
X133853000Y-37284272D01*
X133797914Y-37379009D01*
X133700068Y-37510036D01*
X133697446Y-37513459D01*
X133609033Y-37632546D01*
X133540161Y-37732272D01*
X133500568Y-37798178D01*
X133494783Y-37814324D01*
X133520777Y-37856585D01*
X133585928Y-37919017D01*
X133615312Y-37942527D01*
X133719480Y-38030746D01*
X133856578Y-38159303D01*
X134013227Y-38314526D01*
X134176044Y-38482740D01*
X134331648Y-38650272D01*
X134466658Y-38803449D01*
X134517096Y-38864012D01*
X134610789Y-38972512D01*
X134692887Y-39055498D01*
X134750123Y-39100008D01*
X134762800Y-39104138D01*
X134811983Y-39083784D01*
X134901663Y-39029232D01*
X135016395Y-38950247D01*
X135078517Y-38904503D01*
X135217816Y-38806346D01*
X135324982Y-38744546D01*
X135390705Y-38724309D01*
X135398230Y-38725772D01*
X135450398Y-38770669D01*
X135527428Y-38869910D01*
X135623286Y-39013749D01*
X135731935Y-39192441D01*
X135847340Y-39396239D01*
X135963467Y-39615399D01*
X136024674Y-39737357D01*
X136114421Y-39924407D01*
X136172822Y-40058230D01*
X136203106Y-40147784D01*
X136208500Y-40202026D01*
X136199747Y-40223132D01*
X136149876Y-40257516D01*
X136051268Y-40307738D01*
X135921906Y-40364929D01*
X135867804Y-40386890D01*
X135733415Y-40441579D01*
X135624382Y-40488738D01*
X135557758Y-40520877D01*
X135546703Y-40527934D01*
X135545076Y-40569956D01*
X135562261Y-40665444D01*
X135595169Y-40800175D01*
X135640205Y-40958269D01*
X135713372Y-41205548D01*
X135768715Y-41409359D01*
X135811749Y-41593445D01*
X135847990Y-41781551D01*
X135882953Y-41997419D01*
X135885535Y-42014452D01*
X135930206Y-42310061D01*
X136162144Y-42305241D01*
X136289030Y-42303135D01*
X136390082Y-42302420D01*
X136439319Y-42303119D01*
X136455455Y-42319324D01*
X136466888Y-42370811D01*
X136474016Y-42465220D01*
X136477231Y-42610190D01*
X136476931Y-42813364D01*
X136474893Y-42990622D01*
X136465232Y-43675426D01*
X136199707Y-43675426D01*
X135934182Y-43675426D01*
X135905577Y-43853298D01*
X135830044Y-44275153D01*
X135746235Y-44647067D01*
X135649361Y-44990163D01*
X135643747Y-45008022D01*
X135587670Y-45197144D01*
X135558238Y-45326744D01*
X135554289Y-45402789D01*
X135562543Y-45423931D01*
X135610439Y-45455696D01*
X135707854Y-45503657D01*
X135837483Y-45559590D01*
X135902446Y-45585453D01*
X136038370Y-45642126D01*
X136147178Y-45694936D01*
X136212774Y-45735724D01*
X136224145Y-45748533D01*
X136215648Y-45797866D01*
X136177772Y-45897192D01*
X136116449Y-46034737D01*
X136037612Y-46198727D01*
X135947194Y-46377388D01*
X135851127Y-46558946D01*
X135755344Y-46731627D01*
X135665778Y-46883657D01*
X135601733Y-46983768D01*
X135517907Y-47099393D01*
X135441927Y-47189304D01*
X135386723Y-47238666D01*
X135375407Y-47243503D01*
X135322696Y-47227942D01*
X135230389Y-47177223D01*
X135114455Y-47100621D01*
X135055239Y-47057487D01*
X134935604Y-46970757D01*
X134834729Y-46903379D01*
X134767657Y-46865140D01*
X134751764Y-46860006D01*
X134708260Y-46885690D01*
X134641102Y-46952376D01*
X134592594Y-47010510D01*
X134336277Y-47318065D01*
X134059384Y-47612197D01*
X133785722Y-47867703D01*
X133770931Y-47880397D01*
X133655363Y-47982264D01*
X133563560Y-48069269D01*
X133507093Y-48130078D01*
X133494783Y-48150788D01*
X133515180Y-48192760D01*
X133569762Y-48275879D01*
X133648623Y-48385455D01*
X133690442Y-48440854D01*
X133777565Y-48560194D01*
X133844726Y-48662836D01*
X133881863Y-48732912D01*
X133886100Y-48749431D01*
X133856272Y-48793289D01*
X133774051Y-48863165D01*
X133650331Y-48952566D01*
X133496004Y-49055001D01*
X133321966Y-49163976D01*
X133139109Y-49273001D01*
X132958328Y-49375582D01*
X132790515Y-49465229D01*
X132646566Y-49535448D01*
X132537373Y-49579747D01*
X132473830Y-49591635D01*
X132473113Y-49591501D01*
X132435813Y-49555582D01*
X132383066Y-49469316D01*
X132324386Y-49348983D01*
X132305032Y-49303830D01*
X132247562Y-49171453D01*
X132195563Y-49062860D01*
X132157993Y-48996422D01*
X132150724Y-48987306D01*
X132108541Y-48974285D01*
X132027060Y-48988519D01*
X131896138Y-49032206D01*
X131833554Y-49056113D01*
X131598521Y-49145098D01*
X131397626Y-49213282D01*
X131203761Y-49268490D01*
X130989815Y-49318549D01*
X130768880Y-49363490D01*
X130346464Y-49445831D01*
X130346464Y-49724729D01*
X130345154Y-49864878D01*
X130338097Y-49949928D01*
X130320599Y-49995919D01*
X130287969Y-50018892D01*
X130257528Y-50028767D01*
X130195733Y-50036198D01*
X130076729Y-50042306D01*
X129914447Y-50047028D01*
X129722816Y-50050303D01*
X129515767Y-50052065D01*
X129307227Y-50052253D01*
X129111128Y-50050802D01*
X128941399Y-50047651D01*
X128811968Y-50042736D01*
X128736767Y-50035993D01*
X128734992Y-50035667D01*
X128694863Y-50023996D01*
X128671371Y-49997886D01*
X128661004Y-49942211D01*
X128660251Y-49841848D01*
X128663843Y-49729237D01*
X128674475Y-49438452D01*
X128318733Y-49364861D01*
X128075794Y-49312988D01*
X127881010Y-49266912D01*
X127712365Y-49220684D01*
X127547844Y-49168352D01*
X127400661Y-49116746D01*
X127242486Y-49061561D01*
X127135097Y-49036867D01*
X127062239Y-49049330D01*
X127007658Y-49105619D01*
X126955096Y-49212402D01*
X126912287Y-49317078D01*
X126855147Y-49448798D01*
X126802315Y-49553091D01*
X126762408Y-49613563D01*
X126752168Y-49621744D01*
X126703907Y-49612770D01*
X126606518Y-49575167D01*
X126472840Y-49515264D01*
X126315712Y-49439392D01*
X126147973Y-49353881D01*
X125982462Y-49265061D01*
X125832018Y-49179263D01*
X125739601Y-49122506D01*
X125547272Y-48995071D01*
X125378712Y-48875416D01*
X125242550Y-48770307D01*
X125147415Y-48686506D01*
X125101936Y-48630777D01*
X125099265Y-48620591D01*
X125120761Y-48570431D01*
X125177505Y-48484158D01*
X125257884Y-48379191D01*
X125270211Y-48364178D01*
X125356427Y-48258642D01*
X125425572Y-48171359D01*
X125464162Y-48119392D01*
X125466166Y-48116228D01*
X125451246Y-48075783D01*
X125388861Y-47993325D01*
X125284086Y-47874815D01*
X125141995Y-47726217D01*
X125087738Y-47671550D01*
X124934469Y-47516336D01*
X124785047Y-47361354D01*
X124653208Y-47221100D01*
X124552684Y-47110068D01*
X124523125Y-47075657D01*
X124361949Y-46882891D01*
X124084423Y-47085566D01*
X123961770Y-47171385D01*
X123858752Y-47236528D01*
X123789661Y-47272314D01*
X123770669Y-47276165D01*
X123721638Y-47234635D01*
X123646824Y-47139286D01*
X123552367Y-46999883D01*
X123444404Y-46826193D01*
X123329075Y-46627982D01*
X123212518Y-46415017D01*
X123133630Y-46262678D01*
X123032433Y-46058395D01*
X122962989Y-45907927D01*
X122922109Y-45803110D01*
X122906608Y-45735780D01*
X122913152Y-45698000D01*
X122961597Y-45660479D01*
X123059592Y-45609828D01*
X123189057Y-45555012D01*
X123240021Y-45535936D01*
X123409189Y-45467995D01*
X123512381Y-45409676D01*
X123552929Y-45361600D01*
X123564872Y-45336154D01*
X123588933Y-45318111D01*
X123635532Y-45306462D01*
X123715091Y-45300195D01*
X123838032Y-45298301D01*
X124014775Y-45299769D01*
X124166597Y-45302099D01*
X124758288Y-45311841D01*
X124902096Y-45564680D01*
X125241217Y-46096468D01*
X125624150Y-46578585D01*
X126047194Y-47007812D01*
X126506652Y-47380931D01*
X126998824Y-47694724D01*
X127520013Y-47945972D01*
X127731758Y-48026813D01*
X128094709Y-48147755D01*
X128417911Y-48236723D01*
X128723045Y-48297630D01*
X129031794Y-48334392D01*
X129365842Y-48350923D01*
X129537384Y-48352816D01*
X129909046Y-48344810D01*
X130244388Y-48317155D01*
X130564873Y-48265969D01*
X130891965Y-48187370D01*
X131247127Y-48077474D01*
X131449265Y-48006945D01*
X131827416Y-47846456D01*
X132220043Y-47635548D01*
X132608380Y-47386708D01*
X132973660Y-47112423D01*
X133297118Y-46825178D01*
X133428853Y-46689795D01*
X133583937Y-46508273D01*
X133750714Y-46290404D01*
X133919179Y-46051419D01*
X134079326Y-45806550D01*
X134221151Y-45571027D01*
X134334648Y-45360081D01*
X134403346Y-45206352D01*
X134487148Y-45053964D01*
X134633056Y-44874389D01*
X134720940Y-44782601D01*
X134942667Y-44524967D01*
X135109050Y-44248307D01*
X135224303Y-43942017D01*
X135292640Y-43595491D01*
X135316297Y-43284110D01*
X135326856Y-42963942D01*
X135184559Y-42954460D01*
X135034771Y-42941057D01*
X134943593Y-42921235D01*
X134898486Y-42888933D01*
X134886913Y-42838089D01*
X134888829Y-42811511D01*
X134899866Y-42757568D01*
X134928933Y-42727337D01*
X134993700Y-42712328D01*
X135111839Y-42704050D01*
X135112557Y-42704013D01*
X135229333Y-42692812D01*
X135315083Y-42674904D01*
X135346551Y-42658475D01*
X135354294Y-42602527D01*
X135349675Y-42492594D01*
X135334931Y-42344322D01*
X135312299Y-42173361D01*
X135284017Y-41995358D01*
X135252323Y-41825961D01*
X135219454Y-41680818D01*
X135194381Y-41594334D01*
X135047358Y-41263976D01*
X134846192Y-40971778D01*
X134597895Y-40727523D01*
X134542798Y-40684991D01*
X134347558Y-40521060D01*
X134211457Y-40363239D01*
X134186915Y-40324496D01*
X133950946Y-39947159D01*
X133701722Y-39607730D01*
X133427455Y-39293410D01*
X133116357Y-38991401D01*
X132756641Y-38688906D01*
X132498705Y-38491546D01*
X132387686Y-38419275D01*
X132228121Y-38328410D01*
X132037215Y-38227540D01*
X131832173Y-38125253D01*
X131630201Y-38030137D01*
X131448505Y-37950781D01*
X131306968Y-37896671D01*
X130972218Y-37792305D01*
X130665979Y-37716875D01*
X130362221Y-37665790D01*
X130034909Y-37634460D01*
X129741702Y-37620631D01*
X129439082Y-37614531D01*
X129184825Y-37618727D01*
X128956603Y-37635467D01*
X128732086Y-37667004D01*
X128488946Y-37715587D01*
X128258393Y-37770124D01*
X127692928Y-37946108D01*
X127155088Y-38187468D01*
X126644599Y-38494364D01*
X126161186Y-38866960D01*
X125756489Y-39250851D01*
X125345625Y-39726016D01*
X124999673Y-40230268D01*
X124718826Y-40763166D01*
X124503273Y-41324271D01*
X124353208Y-41913141D01*
X124268821Y-42529338D01*
X124257492Y-42697135D01*
X124248518Y-42845645D01*
X124236916Y-42967853D01*
X124218933Y-43079186D01*
X124190815Y-43195070D01*
X124148810Y-43330931D01*
X124089162Y-43502195D01*
X124008119Y-43724289D01*
X124006463Y-43728788D01*
X123871287Y-44093969D01*
X123758030Y-44395329D01*
X123665315Y-44636276D01*
X123591763Y-44820215D01*
X123535998Y-44950552D01*
X123496641Y-45030694D01*
X123472316Y-45064047D01*
X123466164Y-45064869D01*
X123440330Y-45019932D01*
X123404643Y-44918363D01*
X123362586Y-44773418D01*
X123317642Y-44598352D01*
X123273298Y-44406421D01*
X123233037Y-44210880D01*
X123213151Y-44102317D01*
X123185788Y-43943468D01*
X123162926Y-43842317D01*
X123133630Y-43787109D01*
X123086964Y-43766091D01*
X123011990Y-43767506D01*
X122911614Y-43778210D01*
X122787496Y-43789269D01*
X122716578Y-43787697D01*
X122681435Y-43769485D01*
X122664643Y-43730621D01*
X122662143Y-43720792D01*
X122656519Y-43661249D01*
X122652534Y-43542895D01*
X122650342Y-43378051D01*
X122650094Y-43179039D01*
X122651942Y-42958181D01*
X122652347Y-42928368D01*
X122662430Y-42216883D01*
X122911450Y-42199096D01*
X123042164Y-42187941D01*
X123117943Y-42173423D01*
X123154925Y-42148919D01*
X123169249Y-42107801D01*
X123171402Y-42092373D01*
X123183942Y-42014406D01*
X123206773Y-41892044D01*
X123235180Y-41750437D01*
X123238053Y-41736631D01*
X123267492Y-41594425D01*
X123292989Y-41469057D01*
X123309427Y-41385718D01*
X123310334Y-41380889D01*
X123327749Y-41309695D01*
X123361215Y-41190074D01*
X123405203Y-41041395D01*
X123435390Y-40942932D01*
X123480840Y-40784279D01*
X123509002Y-40659379D01*
X123517248Y-40581234D01*
X123512261Y-40562815D01*
X123466042Y-40535671D01*
X123371668Y-40491439D01*
X123247401Y-40438553D01*
X123213831Y-40424979D01*
X123084216Y-40368429D01*
X122979777Y-40314192D01*
X122919125Y-40272168D01*
X122913202Y-40265079D01*
X122914414Y-40210569D01*
X122947512Y-40106003D01*
X123007140Y-39961947D01*
X123087944Y-39788969D01*
X123184571Y-39597636D01*
X123291665Y-39398517D01*
X123403872Y-39202179D01*
X123515838Y-39019188D01*
X123622209Y-38860114D01*
X123632119Y-38846225D01*
X123701641Y-38755424D01*
X123756827Y-38694086D01*
X123780741Y-38677247D01*
X123819634Y-38696765D01*
X123901938Y-38749233D01*
X124013694Y-38825525D01*
X124087252Y-38877629D01*
X124366525Y-39078010D01*
X124542715Y-38868735D01*
X124635985Y-38763776D01*
X124764875Y-38626604D01*
X124913353Y-38473931D01*
X125065383Y-38322471D01*
X125086956Y-38301422D01*
X125218387Y-38169894D01*
X125329079Y-38052117D01*
X125409820Y-37958444D01*
X125451395Y-37899224D01*
X125455007Y-37887959D01*
X125433871Y-37835392D01*
X125377833Y-37745793D01*
X125297951Y-37636439D01*
X125277136Y-37610020D01*
X125193543Y-37500174D01*
X125131045Y-37408002D01*
X125100590Y-37349952D01*
X125099265Y-37342849D01*
X125129315Y-37293442D01*
X125212700Y-37217997D01*
X125339268Y-37122599D01*
X125498872Y-37013335D01*
X125681362Y-36896291D01*
X125876587Y-36777552D01*
X126074399Y-36663203D01*
X126264649Y-36559332D01*
X126437186Y-36472023D01*
X126581861Y-36407362D01*
X126688525Y-36371436D01*
X126728144Y-36366142D01*
X126778072Y-36399541D01*
X126842900Y-36499077D01*
X126912756Y-36641843D01*
X126973105Y-36770181D01*
X127025901Y-36872530D01*
X127062297Y-36932063D01*
X127069312Y-36939525D01*
X127114745Y-36937952D01*
X127210600Y-36915001D01*
X127340923Y-36874914D01*
X127434394Y-36842461D01*
X127606209Y-36786297D01*
X127819316Y-36725515D01*
X128044951Y-36667930D01*
X128229449Y-36626434D01*
X128692262Y-36530674D01*
X128690713Y-36421117D01*
X128682615Y-36312759D01*
X128664632Y-36185974D01*
X128660376Y-36162889D01*
X128647691Y-36061721D01*
X128650780Y-35988490D01*
X128655546Y-35975453D01*
X128695084Y-35961721D01*
X128795828Y-35951991D01*
X128960198Y-35946181D01*
X129190613Y-35944208D01*
X129489494Y-35945991D01*
G37*
D12*
%TO.C,C15*%
X158859165Y-36140000D02*
X159090835Y-36140000D01*
X158859165Y-36860000D02*
X159090835Y-36860000D01*
%TO.C,X1*%
X166375000Y-44250000D02*
X166375000Y-49350000D01*
X170625000Y-44250000D02*
X166375000Y-44250000D01*
D16*
%TO.C,SW1*%
X146623601Y-76538350D02*
X146623601Y-77568395D01*
X146623601Y-80156505D02*
X146623601Y-81186550D01*
X146623601Y-81186550D02*
X148922301Y-81186550D01*
X148922301Y-81186550D02*
X148922301Y-85174350D01*
X148922301Y-85174350D02*
X153189501Y-85174350D01*
X153189501Y-81186550D02*
X155488201Y-81186550D01*
X153189501Y-85174350D02*
X153189501Y-81186550D01*
X155488201Y-76538350D02*
X146623601Y-76538350D01*
X155488201Y-77568395D02*
X155488201Y-76538350D01*
X155488201Y-81186550D02*
X155488201Y-80156505D01*
D17*
X145226601Y-78862450D02*
G75*
G02*
X144464601Y-78862450I-381000J0D01*
G01*
X144464601Y-78862450D02*
G75*
G02*
X145226601Y-78862450I381000J0D01*
G01*
D12*
%TO.C,C26*%
X135984165Y-68240000D02*
X136215835Y-68240000D01*
X135984165Y-68960000D02*
X136215835Y-68960000D01*
%TO.C,R4*%
X147995000Y-43217621D02*
X147995000Y-42882379D01*
X148755000Y-43217621D02*
X148755000Y-42882379D01*
%TO.C,R12*%
X162920000Y-70642621D02*
X162920000Y-70307379D01*
X163680000Y-70642621D02*
X163680000Y-70307379D01*
%TO.C,C24*%
X161884165Y-60540000D02*
X162115835Y-60540000D01*
X161884165Y-61260000D02*
X162115835Y-61260000D01*
%TO.C,AE1*%
X158075000Y-31875000D02*
X158875000Y-31875000D01*
X158075000Y-32075000D02*
X158075000Y-31875000D01*
X158075000Y-34875000D02*
X158075000Y-34675000D01*
X158875000Y-31875000D02*
X158875000Y-31375000D01*
X158875000Y-34875000D02*
X158075000Y-34875000D01*
X160275000Y-31875000D02*
X160275000Y-31375000D01*
X160275000Y-31875000D02*
X160875000Y-31875000D01*
X160875000Y-31875000D02*
X161075000Y-32075000D01*
X161075000Y-34675000D02*
X161075000Y-34875000D01*
X161075000Y-34875000D02*
X160275000Y-34875000D01*
%TO.C,L4*%
X159528733Y-67615000D02*
X159871267Y-67615000D01*
X159528733Y-68635000D02*
X159871267Y-68635000D01*
%TO.C,C14*%
X162513534Y-43152349D02*
X162677349Y-42988534D01*
X163022651Y-43661466D02*
X163186466Y-43497651D01*
%TO.C,C16*%
X163938534Y-43252349D02*
X164102349Y-43088534D01*
X164447651Y-43761466D02*
X164611466Y-43597651D01*
%TO.C,U1*%
X155170000Y-42960000D02*
X155645000Y-42960000D01*
X155170000Y-43435000D02*
X155170000Y-42960000D01*
X155170000Y-47705000D02*
X155170000Y-48180000D01*
X155170000Y-48180000D02*
X155645000Y-48180000D01*
X159915000Y-42960000D02*
X160150000Y-42960000D01*
X160390000Y-43435000D02*
X160390000Y-43260000D01*
X160390000Y-47705000D02*
X160390000Y-48180000D01*
X160390000Y-48180000D02*
X159915000Y-48180000D01*
X160720000Y-43200000D02*
X160390000Y-42960000D01*
X160720000Y-42720000D01*
X160720000Y-43200000D01*
G36*
X160720000Y-43200000D02*
G01*
X160390000Y-42960000D01*
X160720000Y-42720000D01*
X160720000Y-43200000D01*
G37*
%TO.C,SW3*%
X117300000Y-39475000D02*
X117300000Y-40975000D01*
X118550000Y-43475000D02*
X123050000Y-43475000D01*
X123050000Y-36975000D02*
X118550000Y-36975000D01*
X124300000Y-40975000D02*
X124300000Y-39475000D01*
%TO.C,R8*%
X175440000Y-70697621D02*
X175440000Y-70362379D01*
X176200000Y-70697621D02*
X176200000Y-70362379D01*
%TO.C,U9*%
X158175000Y-63565000D02*
X157375000Y-63565000D01*
X158175000Y-63565000D02*
X158975000Y-63565000D01*
X158175000Y-66685000D02*
X157375000Y-66685000D01*
X158175000Y-66685000D02*
X158975000Y-66685000D01*
X156875000Y-63615000D02*
X156635000Y-63285000D01*
X157115000Y-63285000D01*
X156875000Y-63615000D01*
G36*
X156875000Y-63615000D02*
G01*
X156635000Y-63285000D01*
X157115000Y-63285000D01*
X156875000Y-63615000D01*
G37*
%TO.C,C23*%
X143227349Y-52313534D02*
X143063534Y-52477349D01*
X143736466Y-52822651D02*
X143572651Y-52986466D01*
%TO.C,C5*%
X156315000Y-39934165D02*
X156315000Y-40165835D01*
X157035000Y-39934165D02*
X157035000Y-40165835D01*
%TD*%
M02*
