%TF.GenerationSoftware,KiCad,Pcbnew,9.0.0*%
%TF.CreationDate,2025-09-05T21:39:46-05:00*%
%TF.ProjectId,RIOT_Remote_ESP,52494f54-5f52-4656-9d6f-74655f455350,rev?*%
%TF.SameCoordinates,Original*%
%TF.FileFunction,Soldermask,Top*%
%TF.FilePolarity,Negative*%
%FSLAX46Y46*%
G04 Gerber Fmt 4.6, Leading zero omitted, Abs format (unit mm)*
G04 Created by KiCad (PCBNEW 9.0.0) date 2025-09-05 21:39:46*
%MOMM*%
%LPD*%
G01*
G04 APERTURE LIST*
G04 Aperture macros list*
%AMRoundRect*
0 Rectangle with rounded corners*
0 $1 Rounding radius*
0 $2 $3 $4 $5 $6 $7 $8 $9 X,Y pos of 4 corners*
0 Add a 4 corners polygon primitive as box body*
4,1,4,$2,$3,$4,$5,$6,$7,$8,$9,$2,$3,0*
0 Add four circle primitives for the rounded corners*
1,1,$1+$1,$2,$3*
1,1,$1+$1,$4,$5*
1,1,$1+$1,$6,$7*
1,1,$1+$1,$8,$9*
0 Add four rect primitives between the rounded corners*
20,1,$1+$1,$2,$3,$4,$5,0*
20,1,$1+$1,$4,$5,$6,$7,0*
20,1,$1+$1,$6,$7,$8,$9,0*
20,1,$1+$1,$8,$9,$2,$3,0*%
%AMHorizOval*
0 Thick line with rounded ends*
0 $1 width*
0 $2 $3 position (X,Y) of the first rounded end (center of the circle)*
0 $4 $5 position (X,Y) of the second rounded end (center of the circle)*
0 Add line between two ends*
20,1,$1,$2,$3,$4,$5,0*
0 Add two circle primitives to create the rounded ends*
1,1,$1,$2,$3*
1,1,$1,$4,$5*%
%AMRotRect*
0 Rectangle, with rotation*
0 The origin of the aperture is its center*
0 $1 length*
0 $2 width*
0 $3 Rotation angle, in degrees counterclockwise*
0 Add horizontal line*
21,1,$1,$2,0,0,$3*%
%AMFreePoly0*
4,1,11,0.760000,0.825000,0.380000,0.510000,0.380000,-0.510000,0.760000,-0.825000,0.760000,-1.525000,-0.125000,-1.525000,-0.380000,-1.270000,-0.380000,1.270000,-0.125000,1.525000,0.760000,1.525000,0.760000,0.825000,0.760000,0.825000,$1*%
G04 Aperture macros list end*
%ADD10RoundRect,0.155000X0.212500X0.155000X-0.212500X0.155000X-0.212500X-0.155000X0.212500X-0.155000X0*%
%ADD11C,2.700000*%
%ADD12RoundRect,0.160000X-0.197500X-0.160000X0.197500X-0.160000X0.197500X0.160000X-0.197500X0.160000X0*%
%ADD13RoundRect,0.155000X-0.212500X-0.155000X0.212500X-0.155000X0.212500X0.155000X-0.212500X0.155000X0*%
%ADD14RoundRect,0.155000X0.040659X0.259862X-0.259862X-0.040659X-0.040659X-0.259862X0.259862X0.040659X0*%
%ADD15RoundRect,0.250000X0.412500X0.650000X-0.412500X0.650000X-0.412500X-0.650000X0.412500X-0.650000X0*%
%ADD16RoundRect,0.237500X0.237500X-0.287500X0.237500X0.287500X-0.237500X0.287500X-0.237500X-0.287500X0*%
%ADD17C,2.000000*%
%ADD18RoundRect,0.155000X-0.040659X-0.259862X0.259862X0.040659X0.040659X0.259862X-0.259862X-0.040659X0*%
%ADD19RoundRect,0.237500X0.237500X-0.300000X0.237500X0.300000X-0.237500X0.300000X-0.237500X-0.300000X0*%
%ADD20C,0.700000*%
%ADD21O,0.900000X2.400000*%
%ADD22O,0.900000X1.700000*%
%ADD23RoundRect,0.250001X-0.462499X-0.624999X0.462499X-0.624999X0.462499X0.624999X-0.462499X0.624999X0*%
%ADD24RoundRect,0.160000X0.252791X-0.026517X-0.026517X0.252791X-0.252791X0.026517X0.026517X-0.252791X0*%
%ADD25R,1.700000X1.700000*%
%ADD26O,1.700000X1.700000*%
%ADD27C,2.100000*%
%ADD28C,1.750000*%
%ADD29FreePoly0,0.000000*%
%ADD30FreePoly0,180.000000*%
%ADD31RoundRect,0.155000X-0.155000X0.212500X-0.155000X-0.212500X0.155000X-0.212500X0.155000X0.212500X0*%
%ADD32RoundRect,0.250000X-0.550000X1.050000X-0.550000X-1.050000X0.550000X-1.050000X0.550000X1.050000X0*%
%ADD33RoundRect,0.237500X0.287500X0.237500X-0.287500X0.237500X-0.287500X-0.237500X0.287500X-0.237500X0*%
%ADD34RoundRect,0.237500X-0.300000X-0.237500X0.300000X-0.237500X0.300000X0.237500X-0.300000X0.237500X0*%
%ADD35RoundRect,0.160000X0.160000X-0.197500X0.160000X0.197500X-0.160000X0.197500X-0.160000X-0.197500X0*%
%ADD36RoundRect,0.160000X0.197500X0.160000X-0.197500X0.160000X-0.197500X-0.160000X0.197500X-0.160000X0*%
%ADD37RoundRect,0.062500X0.062500X-0.350000X0.062500X0.350000X-0.062500X0.350000X-0.062500X-0.350000X0*%
%ADD38R,2.000000X1.200000*%
%ADD39C,1.982000*%
%ADD40C,2.490000*%
%ADD41RoundRect,0.155000X0.155000X-0.212500X0.155000X0.212500X-0.155000X0.212500X-0.155000X-0.212500X0*%
%ADD42RoundRect,0.250000X0.650000X-0.412500X0.650000X0.412500X-0.650000X0.412500X-0.650000X-0.412500X0*%
%ADD43RoundRect,0.250000X1.000000X0.900000X-1.000000X0.900000X-1.000000X-0.900000X1.000000X-0.900000X0*%
%ADD44RotRect,1.700000X1.700000X45.000000*%
%ADD45HorizOval,1.700000X0.000000X0.000000X0.000000X0.000000X0*%
%ADD46RoundRect,0.160000X-0.160000X0.197500X-0.160000X-0.197500X0.160000X-0.197500X0.160000X0.197500X0*%
%ADD47R,1.650000X1.950000*%
%ADD48C,1.320800*%
%ADD49C,2.006600*%
%ADD50RoundRect,0.100000X0.400000X0.400000X-0.400000X0.400000X-0.400000X-0.400000X0.400000X-0.400000X0*%
%ADD51RoundRect,0.105000X0.420000X0.995000X-0.420000X0.995000X-0.420000X-0.995000X0.420000X-0.995000X0*%
%ADD52RoundRect,0.237500X-0.287500X-0.237500X0.287500X-0.237500X0.287500X0.237500X-0.287500X0.237500X0*%
%ADD53RoundRect,0.062500X-0.062500X0.337500X-0.062500X-0.337500X0.062500X-0.337500X0.062500X0.337500X0*%
%ADD54RoundRect,0.062500X-0.337500X0.062500X-0.337500X-0.062500X0.337500X-0.062500X0.337500X0.062500X0*%
%ADD55R,3.700000X3.700000*%
%ADD56RoundRect,0.150000X-0.512500X-0.150000X0.512500X-0.150000X0.512500X0.150000X-0.512500X0.150000X0*%
G04 APERTURE END LIST*
D10*
%TO.C,C22*%
X162517500Y-62425000D03*
X161382500Y-62425000D03*
%TD*%
D11*
%TO.C,*%
X109000000Y-78000000D03*
%TD*%
D12*
%TO.C,R3*%
X156777500Y-61975000D03*
X157972500Y-61975000D03*
%TD*%
D13*
%TO.C,C25*%
X152282500Y-75850000D03*
X153417500Y-75850000D03*
%TD*%
D11*
%TO.C,REF\u002A\u002A*%
X200000000Y-50000000D03*
%TD*%
D14*
%TO.C,C7*%
X153476283Y-45273717D03*
X152673717Y-46076283D03*
%TD*%
D15*
%TO.C,C3*%
X150462785Y-39959648D03*
X147337785Y-39959648D03*
%TD*%
D16*
%TO.C,L3*%
X159550000Y-39924999D03*
X159550000Y-38175001D03*
%TD*%
D10*
%TO.C,C11*%
X160642500Y-41300000D03*
X159507500Y-41300000D03*
%TD*%
D17*
%TO.C,SW5*%
X175890000Y-73810000D03*
X182390000Y-73810000D03*
X175890000Y-78310000D03*
X182390000Y-78310000D03*
%TD*%
D18*
%TO.C,C8*%
X154423717Y-51351283D03*
X155226283Y-50548717D03*
%TD*%
D19*
%TO.C,C27*%
X133300000Y-66462500D03*
X133300000Y-64737500D03*
%TD*%
D20*
%TO.C,J2*%
X161702500Y-72725000D03*
X162552500Y-72725000D03*
X163402500Y-72725000D03*
X164252500Y-72725000D03*
X165102500Y-72725000D03*
X165952500Y-72725000D03*
X166802500Y-72725000D03*
X167652500Y-72725000D03*
X167652500Y-74075000D03*
X166802500Y-74075000D03*
X165952500Y-74075000D03*
X165102500Y-74075000D03*
X164252500Y-74075000D03*
X163402500Y-74075000D03*
X162552500Y-74075000D03*
X161702500Y-74075000D03*
D21*
X160352500Y-73705000D03*
D22*
X160352500Y-77085000D03*
D21*
X169002500Y-73705000D03*
D22*
X169002500Y-77085000D03*
%TD*%
D23*
%TO.C,D2*%
X156612500Y-59375000D03*
X159587500Y-59375000D03*
%TD*%
D13*
%TO.C,C1*%
X167982500Y-50425000D03*
X169117500Y-50425000D03*
%TD*%
D24*
%TO.C,R15*%
X149512496Y-55892496D03*
X148667504Y-55047504D03*
%TD*%
D25*
%TO.C,J1*%
X154000000Y-73600000D03*
D26*
X151460000Y-73600000D03*
%TD*%
D27*
%TO.C,SW7*%
X104250000Y-40790000D03*
X111260000Y-40790000D03*
D28*
X105500000Y-38300000D03*
X110000000Y-38300000D03*
%TD*%
D29*
%TO.C,L5*%
X133730000Y-76400000D03*
D30*
X136270000Y-76400000D03*
%TD*%
D13*
%TO.C,C2*%
X167682500Y-43250000D03*
X168817500Y-43250000D03*
%TD*%
D31*
%TO.C,C25*%
X156900000Y-72865000D03*
X156900000Y-74000000D03*
%TD*%
D32*
%TO.C,C13*%
X139700000Y-75500000D03*
X139700000Y-79100000D03*
%TD*%
D33*
%TO.C,L1*%
X165049999Y-45475000D03*
X163300001Y-45475000D03*
%TD*%
D34*
%TO.C,C29*%
X138137500Y-72200000D03*
X139862500Y-72200000D03*
%TD*%
D14*
%TO.C,C6*%
X154476283Y-49808717D03*
X153673717Y-50611283D03*
%TD*%
D24*
%TO.C,R14*%
X147037496Y-53417496D03*
X146192504Y-52572504D03*
%TD*%
D19*
%TO.C,C28*%
X135100000Y-66462500D03*
X135100000Y-64737500D03*
%TD*%
D27*
%TO.C,SW4*%
X195425000Y-40752500D03*
X202435000Y-40752500D03*
D28*
X196675000Y-38262500D03*
X201175000Y-38262500D03*
%TD*%
D35*
%TO.C,R2*%
X153775000Y-61522500D03*
X153775000Y-60327500D03*
%TD*%
D36*
%TO.C,R7*%
X192597500Y-37850000D03*
X191402500Y-37850000D03*
%TD*%
D17*
%TO.C,SW6*%
X193870000Y-67000000D03*
X200370000Y-67000000D03*
X193870000Y-71500000D03*
X200370000Y-71500000D03*
%TD*%
D10*
%TO.C,C21*%
X160260000Y-69925000D03*
X159125000Y-69925000D03*
%TD*%
D37*
%TO.C,U3*%
X133800000Y-72512500D03*
X134300000Y-72512500D03*
X134800000Y-72512500D03*
X135300000Y-72512500D03*
X135800000Y-72512500D03*
X135800000Y-70087500D03*
X135300000Y-70087500D03*
X134800000Y-70087500D03*
X134300000Y-70087500D03*
X133800000Y-70087500D03*
D38*
X134800000Y-71300000D03*
%TD*%
D39*
%TO.C,U7*%
X186875000Y-66318719D03*
X180525000Y-66318719D03*
X186875000Y-61238719D03*
X180525000Y-61238719D03*
X186240000Y-43458719D03*
X183700000Y-43458719D03*
X181160000Y-43458719D03*
D40*
X191320000Y-60286219D03*
X191320000Y-46951219D03*
X176080000Y-46951219D03*
X176080000Y-60286219D03*
D39*
X193860000Y-56158719D03*
X193860000Y-53618719D03*
X193860000Y-51078719D03*
%TD*%
D41*
%TO.C,C4*%
X152550000Y-40767500D03*
X152550000Y-39632500D03*
%TD*%
D35*
%TO.C,R13*%
X169100000Y-70697500D03*
X169100000Y-69502500D03*
%TD*%
D42*
%TO.C,C17*%
X146175000Y-74812500D03*
X146175000Y-71687500D03*
%TD*%
D16*
%TO.C,L2*%
X153875000Y-40849999D03*
X153875000Y-39100001D03*
%TD*%
D43*
%TO.C,D1*%
X154575000Y-68625000D03*
X150275000Y-68625000D03*
%TD*%
D44*
%TO.C,J3*%
X146832898Y-49707898D03*
D45*
X148628949Y-51503949D03*
X150425000Y-53300000D03*
X152221052Y-55096052D03*
%TD*%
D35*
%TO.C,R6*%
X200330000Y-61767500D03*
X200330000Y-60572500D03*
%TD*%
D39*
%TO.C,U6*%
X129125000Y-59225000D03*
X129125000Y-65575000D03*
X124045000Y-59225000D03*
X124045000Y-65575000D03*
X106265000Y-59860000D03*
X106265000Y-62400000D03*
X106265000Y-64940000D03*
D40*
X123092500Y-54780000D03*
X109757500Y-54780000D03*
X109757500Y-70020000D03*
X123092500Y-70020000D03*
D39*
X118965000Y-52240000D03*
X116425000Y-52240000D03*
X113885000Y-52240000D03*
%TD*%
D46*
%TO.C,R5*%
X110650000Y-43900000D03*
X110650000Y-45095000D03*
%TD*%
D13*
%TO.C,C15*%
X158407500Y-36500000D03*
X159542500Y-36500000D03*
%TD*%
D47*
%TO.C,X1*%
X167400000Y-45425000D03*
X167400000Y-48175000D03*
X169600000Y-48175000D03*
X169600000Y-45425000D03*
%TD*%
D48*
%TO.C,SW1*%
X149055901Y-78862450D03*
X151055901Y-78862450D03*
X153055902Y-78862450D03*
D49*
X146955902Y-78862450D03*
X155155900Y-78862450D03*
%TD*%
D13*
%TO.C,C26*%
X135532500Y-68600000D03*
X136667500Y-68600000D03*
%TD*%
D35*
%TO.C,R4*%
X148375000Y-43647500D03*
X148375000Y-42452500D03*
%TD*%
%TO.C,R12*%
X163300000Y-71072500D03*
X163300000Y-69877500D03*
%TD*%
D13*
%TO.C,C24*%
X161432500Y-60900000D03*
X162567500Y-60900000D03*
%TD*%
D50*
%TO.C,AE1*%
X159575000Y-34875000D03*
D51*
X158100000Y-33375000D03*
D50*
X159575000Y-31875000D03*
D51*
X161050000Y-33375000D03*
%TD*%
D52*
%TO.C,L4*%
X158825000Y-68125000D03*
X160575000Y-68125000D03*
%TD*%
D18*
%TO.C,C14*%
X162448717Y-43726283D03*
X163251283Y-42923717D03*
%TD*%
%TO.C,C16*%
X163873717Y-43826283D03*
X164676283Y-43023717D03*
%TD*%
D53*
%TO.C,U1*%
X159529999Y-43120000D03*
X159030000Y-43120000D03*
X158530000Y-43119999D03*
X158030000Y-43120000D03*
X157530000Y-43120000D03*
X157030000Y-43119999D03*
X156530000Y-43120000D03*
X156030001Y-43120000D03*
D54*
X155330000Y-43820001D03*
X155330000Y-44320000D03*
X155329999Y-44820000D03*
X155330000Y-45320000D03*
X155330000Y-45820000D03*
X155329999Y-46320000D03*
X155330000Y-46820000D03*
X155330000Y-47319999D03*
D53*
X156030001Y-48020000D03*
X156530000Y-48020000D03*
X157030000Y-48020001D03*
X157530000Y-48020000D03*
X158030000Y-48020000D03*
X158530000Y-48020001D03*
X159030000Y-48020000D03*
X159529999Y-48020000D03*
D54*
X160230000Y-47319999D03*
X160230000Y-46820000D03*
X160230001Y-46320000D03*
X160230000Y-45820000D03*
X160230000Y-45320000D03*
X160230001Y-44820000D03*
X160230000Y-44320000D03*
X160230000Y-43820001D03*
D55*
X157780000Y-45570000D03*
%TD*%
D17*
%TO.C,SW3*%
X124050000Y-42475000D03*
X117550000Y-42475000D03*
X124050000Y-37975000D03*
X117550000Y-37975000D03*
%TD*%
D35*
%TO.C,R8*%
X175820000Y-71127500D03*
X175820000Y-69932500D03*
%TD*%
D56*
%TO.C,U9*%
X157037500Y-64175000D03*
X157037500Y-65125000D03*
X157037500Y-66075000D03*
X159312500Y-66075000D03*
X159312500Y-64175000D03*
%TD*%
D14*
%TO.C,C23*%
X143801283Y-52248717D03*
X142998717Y-53051283D03*
%TD*%
D31*
%TO.C,C5*%
X156675000Y-39482500D03*
X156675000Y-40617500D03*
%TD*%
M02*
